<svg width="24" height="24" viewBox="0 0 24 24" fill="none" xmlns="http://www.w3.org/2000/svg">
<path d="M0 5.43005C0 4.32548 0.895431 3.43005 2 3.43005H22C23.1046 3.43005 24 4.32548 24 5.43005V18.5729C24 19.6775 23.1046 20.5729 22 20.5729H2C0.89543 20.5729 0 19.6775 0 18.5729V5.43005Z" fill="white"/>
<mask id="mask0_14_1777" style="mask-type:luminance" maskUnits="userSpaceOnUse" x="0" y="3" width="24" height="18">
<path d="M0 5.43005C0 4.32548 0.895431 3.43005 2 3.43005H22C23.1046 3.43005 24 4.32548 24 5.43005V18.5729C24 19.6775 23.1046 20.5729 22 20.5729H2C0.89543 20.5729 0 19.6775 0 18.5729V5.43005Z" fill="white"/>
</mask>
<g mask="url(#mask0_14_1777)">
<path d="M0 3.43005H24V20.5729H0V3.43005Z" fill="#0A17A7"/>
<path fill-rule="evenodd" clip-rule="evenodd" d="M4 6.85862L0 3.43005H0.571429L4.57143 6.2872H5.71429L10.2857 3.43005V3.82994C10.2857 3.93759 10.2337 4.03862 10.1461 4.10119L6.28571 6.85862V8.00148L9.89784 11.0976C10.031 11.2118 9.9503 11.4301 9.77485 11.4301C9.73546 11.4301 9.69706 11.4177 9.665 11.3949L5.71429 8.57291H4.57143L0 11.4301V10.8586L4 8.00148V6.85862Z" fill="#FF2E3B"/>
<path fill-rule="evenodd" clip-rule="evenodd" d="M4.00005 6.85858V8.00143L4.76837e-05 10.8586V11.43L4.57148 8.57286H5.71433L9.66505 11.3948C9.6971 11.4177 9.73551 11.43 9.7749 11.43C9.95035 11.43 10.0311 11.2117 9.89788 11.0975L6.28576 8.00143V6.85858L10.1462 4.10114C10.2338 4.03857 10.2858 3.93754 10.2858 3.82989V3.43L5.71433 6.28715H4.57148L0.571476 3.43H4.76837e-05L4.00005 6.85858ZM4.78512 5.62048L0.78512 2.76334H-1.80212L3.33338 7.1652V7.65835L-0.666619 10.5155V12.6328L4.76267 9.23953H5.50069L9.27756 11.9373C9.42268 12.0409 9.59656 12.0967 9.7749 12.0967C10.5693 12.0967 10.9349 11.1083 10.3317 10.5914L6.95243 7.69481V7.20165L10.5337 4.64363C10.7965 4.45592 10.9524 4.15284 10.9524 3.82989V2.22717L5.52314 5.62048H4.78512Z" fill="white"/>
<path fill-rule="evenodd" clip-rule="evenodd" d="M0 6.2872V8.57291H4V11.3348C4 11.703 4.29848 12.0015 4.66667 12.0015H5.61905C5.98724 12.0015 6.28571 11.703 6.28571 11.3348V8.57291H10.1905C10.5587 8.57291 10.8571 8.27443 10.8571 7.90624V6.95386C10.8571 6.58567 10.5587 6.2872 10.1905 6.2872H6.28571V3.43005H4V6.2872H0Z" fill="url(#paint0_linear_14_1777)"/>
<path fill-rule="evenodd" clip-rule="evenodd" d="M0 6.85862H4.57143V6.2872V3.43005H5.71429V6.2872V6.85862H10.2857V8.00148H5.71429V8.57291V11.4301H4.57143V8.57291V8.00148H0V6.85862Z" fill="url(#paint1_linear_14_1777)"/>
<path fill-rule="evenodd" clip-rule="evenodd" d="M5.14283 17.4302L4.1352 17.9599L4.32764 16.8379L3.51245 16.0433L4.63902 15.8796L5.14283 14.8588L5.64665 15.8796L6.77322 16.0433L5.95802 16.8379L6.15047 17.9599L5.14283 17.4302Z" fill="white"/>
<path fill-rule="evenodd" clip-rule="evenodd" d="M17.1428 18.2874L16.3347 18.5241L16.5714 17.716L16.3347 16.9078L17.1428 17.1445L17.951 16.9078L17.7143 17.716L17.951 18.5241L17.1428 18.2874Z" fill="white"/>
<path fill-rule="evenodd" clip-rule="evenodd" d="M17.1428 7.42997L16.3347 7.66666L16.5714 6.85854L16.3347 6.05042L17.1428 6.28711L17.951 6.05042L17.7143 6.85854L17.951 7.66666L17.1428 7.42997Z" fill="white"/>
<path fill-rule="evenodd" clip-rule="evenodd" d="M20.5714 10.8584L19.7633 11.0951L20 10.287L19.7633 9.47888L20.5714 9.71558L21.3795 9.47888L21.1429 10.287L21.3795 11.0951L20.5714 10.8584Z" fill="white"/>
<path fill-rule="evenodd" clip-rule="evenodd" d="M13.7144 12.0015L12.9062 12.2382L13.1429 11.4301L12.9062 10.6219L13.7144 10.8586L14.5225 10.6219L14.2858 11.4301L14.5225 12.2382L13.7144 12.0015Z" fill="white"/>
<path fill-rule="evenodd" clip-rule="evenodd" d="M18.8571 13.4299L18.453 13.5482L18.5713 13.1442L18.453 12.7401L18.8571 12.8585L19.2611 12.7401L19.1428 13.1442L19.2611 13.5482L18.8571 13.4299Z" fill="white"/>
</g>
<defs>
<linearGradient id="paint0_linear_14_1777" x1="0" y1="3.43005" x2="0" y2="12.0015" gradientUnits="userSpaceOnUse">
<stop stop-color="white"/>
<stop offset="1" stop-color="#F0F0F0"/>
</linearGradient>
<linearGradient id="paint1_linear_14_1777" x1="0" y1="3.43005" x2="0" y2="11.4301" gradientUnits="userSpaceOnUse">
<stop stop-color="#FF2E3B"/>
<stop offset="1" stop-color="#FC0D1B"/>
</linearGradient>
</defs>
</svg>
