<svg width="24" height="24" viewBox="0 0 24 24" fill="none" xmlns="http://www.w3.org/2000/svg">
<rect y="3.42993" width="24" height="17.1429" rx="2" fill="white"/>
<mask id="mask0_14_1880" style="mask-type:luminance" maskUnits="userSpaceOnUse" x="0" y="3" width="24" height="18">
<rect y="3.42993" width="24" height="17.1429" rx="2" fill="white"/>
</mask>
<g mask="url(#mask0_14_1880)">
<path fill-rule="evenodd" clip-rule="evenodd" d="M0 14.8585H24V3.42993H0V14.8585Z" fill="#E54252"/>
<path fill-rule="evenodd" clip-rule="evenodd" d="M0 20.5727H24V14.8584H0V20.5727Z" fill="#5CBE6B"/>
<path fill-rule="evenodd" clip-rule="evenodd" d="M0 3.42993H3.42857V6.00143L2.85719 6.8585L3.42857 7.71558V9.43L2.85719 10.2871L3.42857 11.1441V12.8586L2.85719 13.7156L3.42857 14.5727V16.2871L2.85719 17.1442L3.42857 18.0013V20.5728H0V3.42993Z" fill="white"/>
<path fill-rule="evenodd" clip-rule="evenodd" d="M-0.571376 5.14429L-1.71423 6.85857L-0.571376 8.57286L-1.71423 10.2871L-0.571376 12.0014L-1.71423 13.7157L-0.571376 15.43L-1.71423 17.1443L-0.571376 18.8586L0.571481 17.1443L-0.571376 15.43L0.571481 13.7157L-0.571376 12.0014L0.571481 10.2871L-0.571376 8.57286L0.571481 6.85857L-0.571376 5.14429Z" fill="#E54252"/>
<path fill-rule="evenodd" clip-rule="evenodd" d="M0.571411 5.14422L1.71427 3.42993L2.85713 5.14422L1.71427 6.8585L0.571411 5.14422ZM1.71427 10.2871L0.571411 8.57279L1.71427 6.8585L2.85713 8.57279L1.71427 10.2871ZM1.71427 13.7156L0.571411 12.0014L1.71427 10.2871L2.85713 12.0014L1.71427 13.7156ZM1.71427 17.1442L2.85713 15.4299L1.71427 13.7156L0.571411 15.4299L1.71427 17.1442ZM1.71427 17.1442L2.85713 18.8585L1.71427 20.5728L0.571411 18.8585L1.71427 17.1442Z" fill="#E54252"/>
</g>
</svg>
