<svg width="24" height="24" viewBox="0 0 24 24" fill="none" xmlns="http://www.w3.org/2000/svg">
<rect y="3.43005" width="24" height="17.1429" rx="2" fill="white"/>
<mask id="mask0_14_1418" style="mask-type:luminance" maskUnits="userSpaceOnUse" x="0" y="3" width="24" height="18">
<rect y="3.43005" width="24" height="17.1429" rx="2" fill="white"/>
</mask>
<g mask="url(#mask0_14_1418)">
<rect y="3.43005" width="24" height="17.1429" fill="#19BFBF"/>
<path fill-rule="evenodd" clip-rule="evenodd" d="M4.72052 10.5605C4.63819 10.7252 4.70493 10.9254 4.86959 11.0077L6.55902 11.8525C6.72368 11.9348 6.79042 12.135 6.70809 12.2997L6.4348 12.8462C6.35247 13.0109 6.15225 13.0777 5.98759 12.9953L5.21326 12.6082C5.16697 12.585 5.11593 12.573 5.06419 12.573H3.76192C3.57783 12.573 3.42859 12.7222 3.42859 12.9063V13.4756C3.42859 13.619 3.5204 13.7464 3.65651 13.7918L4.63121 14.1167C4.86629 14.1951 4.93672 14.4934 4.7615 14.6686L4.66908 14.761C4.60656 14.8236 4.57145 14.9083 4.57145 14.9967V15.376C4.57145 15.4118 4.57722 15.4474 4.58855 15.4814L5.09921 17.0134C5.12717 17.0973 5.1873 17.1666 5.26637 17.2061L6.07084 17.6084C6.19917 17.6725 6.35416 17.6474 6.45562 17.5459L7.42859 16.573L7.673 16.3286C7.83388 16.1677 7.78987 15.8965 7.58637 15.7947L7.02352 15.5133C6.92156 15.4623 6.85716 15.3581 6.85716 15.2441C6.85716 15.0483 7.04115 14.9047 7.23109 14.9522L8.89039 15.367C9.03877 15.4041 9.14287 15.5374 9.14287 15.6904V16.472C9.14287 16.5378 9.16235 16.6022 9.19886 16.6569L10.1868 18.1388C10.2486 18.2315 10.3527 18.2872 10.4641 18.2872H10.6315C10.7678 18.2872 10.8904 18.2043 10.941 18.0777L11.7243 16.1193C11.8312 15.8523 12.2033 15.8368 12.332 16.094L12.5473 16.5246C12.5633 16.5566 12.5844 16.5859 12.6097 16.6112L13.6761 17.6776C13.7014 17.7029 13.7306 17.724 13.7627 17.74L14.3748 18.046C14.5964 18.1569 14.8572 17.9957 14.8572 17.7479V17.2825C14.8572 17.1941 14.822 17.1093 14.7595 17.0468L14.5214 16.8087C14.3913 16.6785 14.3913 16.4674 14.5214 16.3373L14.7595 16.0992C14.822 16.0367 14.9068 16.0015 14.9952 16.0015H15.9213C15.9731 16.0015 16.0241 15.9895 16.0704 15.9663L16.9586 15.5222C17.0715 15.4658 17.1429 15.3504 17.1429 15.2241V14.4253C17.1429 14.3369 17.1078 14.2521 17.0452 14.1896L16.8071 13.9515C16.677 13.8213 16.677 13.6103 16.8071 13.4801L17.3873 12.9C17.5482 12.7391 17.8194 12.7831 17.9211 12.9866L18.2151 13.5746C18.2584 13.6611 18.3469 13.7158 18.4437 13.7158C18.6336 13.7158 18.7572 13.5159 18.6722 13.346L18.4348 12.8711C18.3525 12.7064 18.4192 12.5062 18.5839 12.4239L19.1304 12.1506C19.2951 12.0683 19.3618 11.8681 19.2795 11.7034L18.9189 10.9822C18.8794 10.9031 18.81 10.843 18.7262 10.815L17.6545 10.4578C17.4195 10.3794 17.349 10.0811 17.5242 9.90587L18.1881 9.24202C18.2506 9.17951 18.3354 9.14439 18.4238 9.14439H19.794C19.9203 9.14439 20.0357 9.07306 20.0921 8.96013L20.353 8.43835C20.458 8.22839 20.3189 7.97857 20.0851 7.95732L14.9598 7.49138C14.6921 7.46705 14.5743 7.14157 14.7643 6.95153C14.8238 6.89208 14.8572 6.81144 14.8572 6.72737V6.04915C14.8572 5.86506 14.7079 5.71582 14.5238 5.71582H12.1381C12.0497 5.71582 11.9649 5.75094 11.9024 5.81345L10.351 7.36482C10.3083 7.40754 10.2548 7.43785 10.1962 7.4525L8.00002 8.00153L5.83393 8.54306C5.75673 8.56236 5.67518 8.5534 5.60401 8.51782L5.29123 8.36142C5.02561 8.22862 4.73202 8.48325 4.82593 8.76498L5.09921 9.58483C5.12717 9.6687 5.12066 9.76024 5.08113 9.83931L4.72052 10.5605ZM12.5714 17.7156C12.5714 18.0312 12.3156 18.2871 12 18.2871C11.6844 18.2871 11.4286 18.0312 11.4286 17.7156C11.4286 17.4001 11.6844 17.1442 12 17.1442C12.3156 17.1442 12.5714 17.4001 12.5714 17.7156ZM8.57141 12.5729C8.887 12.5729 9.14284 12.3171 9.14284 12.0015C9.14284 11.6859 8.887 11.4301 8.57141 11.4301C8.25582 11.4301 7.99998 11.6859 7.99998 12.0015C7.99998 12.3171 8.25582 12.5729 8.57141 12.5729ZM19.4286 14.2871V14.8585L18.8548 15.4323C18.6448 15.6423 18.7935 16.0014 19.0905 16.0014H19.2226C19.3488 16.0014 19.4643 15.93 19.5207 15.8171L20 14.8585L19.4286 14.2871ZM19.4286 14.2871L19.7445 14.1291C19.9505 14.0261 19.8772 13.7156 19.6469 13.7156C19.5263 13.7156 19.4286 13.8134 19.4286 13.9339V14.2871Z" fill="white"/>
</g>
</svg>
