<svg width="24" height="24" viewBox="0 0 24 24" fill="none" xmlns="http://www.w3.org/2000/svg">
<rect y="3.43005" width="24" height="17.1429" rx="2" fill="white"/>
<mask id="mask0_14_1288" style="mask-type:luminance" maskUnits="userSpaceOnUse" x="0" y="3" width="24" height="18">
<rect y="3.43005" width="24" height="17.1429" rx="2" fill="white"/>
</mask>
<g mask="url(#mask0_14_1288)">
<rect y="3.43005" width="24" height="17.1429" fill="#19BFBF"/>
<path fill-rule="evenodd" clip-rule="evenodd" d="M14.6214 18.623L13.7699 17.7715C13.7333 17.7349 13.7057 17.6903 13.6893 17.6412L13.2079 16.1967C13.169 16.0802 13.0599 16.0015 12.937 16.0015C12.7513 16.0015 12.615 16.1761 12.6601 16.3563L13.097 18.1042C13.1254 18.2177 13.0921 18.3379 13.0094 18.4207L12.8071 18.623C12.6769 18.7531 12.4658 18.7531 12.3357 18.623L12.0976 18.3849C12.0351 18.3224 11.9999 18.2376 11.9999 18.1492V17.2231C11.9999 17.1713 11.9879 17.1203 11.9648 17.074L11.5206 16.1858C11.4642 16.0729 11.3488 16.0015 11.2225 16.0015H9.79292C9.74117 16.0015 9.69014 16.0136 9.64385 16.0367L8.69487 16.5112C8.6158 16.5508 8.55567 16.6201 8.52771 16.7039L8.04361 18.1563C8.01565 18.2401 7.95553 18.3095 7.87645 18.349L7.00616 18.7841C6.91232 18.8311 6.80186 18.8311 6.70802 18.7841L5.8985 18.3794C5.78557 18.3229 5.71423 18.2075 5.71423 18.0812V16.3349C5.71423 16.1508 5.86347 16.0015 6.04757 16.0015H7.09519C7.27928 16.0015 7.42852 15.8523 7.42852 15.6682V14.9128C7.42852 14.8769 7.43429 14.8413 7.44562 14.8074L7.92397 13.3723C7.96934 13.2362 8.09672 13.1444 8.2402 13.1444H9.06412C9.11586 13.1444 9.1669 13.1323 9.21319 13.1092L10.2153 12.6082C10.2616 12.585 10.3126 12.573 10.3644 12.573H11.0952C11.2793 12.573 11.4285 12.4237 11.4285 12.2396V12.1396C11.4285 12.0512 11.4636 11.9664 11.5262 11.9039L11.6729 11.7571C11.8338 11.5962 12.105 11.6403 12.2068 11.8438L12.4792 12.3887C12.5357 12.5016 12.6511 12.573 12.7774 12.573H14.0454C14.1889 12.573 14.3163 12.4812 14.3616 12.345L14.7811 11.0866C14.8265 10.9505 14.9539 10.8587 15.0973 10.8587H15.7142C15.872 10.8587 15.9999 10.7308 15.9999 10.573C15.9999 10.4152 15.872 10.2872 15.7142 10.2872H15.1904C15.0063 10.2872 14.8571 10.138 14.8571 9.95392V9.22308C14.8571 9.17133 14.8691 9.1203 14.8923 9.07401L15.3211 8.21642C15.3852 8.08809 15.3601 7.9331 15.2586 7.83165L15.0928 7.66581C14.9626 7.53563 14.7516 7.53563 14.6214 7.66581L13.8119 8.47533C13.7494 8.53784 13.7142 8.62263 13.7142 8.71103V9.66173C13.7142 9.69756 13.7085 9.73315 13.6971 9.76714L13.2188 11.2022C13.1734 11.3383 13.046 11.4301 12.9026 11.4301H12.7094C12.621 11.4301 12.5363 11.395 12.4737 11.3325L12.0823 10.941C12.0296 10.8883 11.9999 10.8168 11.9999 10.7422C11.9999 10.5332 11.78 10.3972 11.593 10.4907L11.072 10.7512C10.9436 10.8154 10.7887 10.7902 10.6872 10.6888L10.3833 10.3849C10.3208 10.3224 10.2857 10.2376 10.2857 10.1492V9.28246C10.2857 9.19406 10.3208 9.10927 10.3833 9.04676L11.4285 8.00153L13.0872 6.34289C13.1238 6.3063 13.1684 6.27873 13.2175 6.26237L14.8058 5.73293C14.8398 5.7216 14.8754 5.71582 14.9112 5.71582H15.7939C15.9202 5.71582 16.0356 5.78715 16.0921 5.90008L16.5362 6.7883C16.5593 6.83458 16.5714 6.88562 16.5714 6.93737V8.43489C16.5714 8.5233 16.6065 8.60808 16.669 8.67059L16.9971 8.99872C17.0864 9.088 17.1176 9.22005 17.0777 9.33983L16.6519 10.6171C16.6044 10.7597 16.6581 10.9165 16.7832 10.9999L18.2857 12.0015L19.0908 12.4041C19.2701 12.4938 19.3303 12.7203 19.2191 12.8871L18.3416 14.2033C18.3051 14.258 18.2857 14.3224 18.2857 14.3882V15.7613C18.2857 15.9048 18.1939 16.0321 18.0577 16.0775L16.7024 16.5293C16.6185 16.5573 16.5492 16.6174 16.5096 16.6965L16.0241 17.6674C16.0081 17.6995 15.987 17.7287 15.9617 17.7541L15.0928 18.623C14.9626 18.7531 14.7516 18.7531 14.6214 18.623ZM9.71425 18.2871C10.0298 18.2871 10.2857 18.0312 10.2857 17.7156C10.2857 17.4001 10.0298 17.1442 9.71425 17.1442C9.39866 17.1442 9.14282 17.4001 9.14282 17.7156C9.14282 18.0312 9.39866 18.2871 9.71425 18.2871ZM7.99997 10.8585C7.99997 11.1741 7.74413 11.4299 7.42854 11.4299C7.11295 11.4299 6.85711 11.1741 6.85711 10.8585C6.85711 10.5429 7.11295 10.2871 7.42854 10.2871C7.74413 10.2871 7.99997 10.5429 7.99997 10.8585Z" fill="white"/>
<path fill-rule="evenodd" clip-rule="evenodd" d="M8.53624 10.9291C8.55938 10.8828 8.57143 10.8318 8.57143 10.78V10.366C8.57143 10.3142 8.55938 10.2632 8.53624 10.2169L8.2412 9.62681C8.13039 9.40518 8.29155 9.14441 8.53934 9.14441H8.80952C8.99362 9.14441 9.14286 9.29365 9.14286 9.47774V10.78C9.14286 10.8318 9.15491 10.8828 9.17805 10.9291L9.47308 11.5191C9.5839 11.7408 9.42274 12.0016 9.17494 12.0016H8.53934C8.29155 12.0016 8.13039 11.7408 8.2412 11.5191L8.53624 10.9291Z" fill="white"/>
</g>
</svg>
