<svg width="24" height="24" viewBox="0 0 24 24" fill="none" xmlns="http://www.w3.org/2000/svg">
<rect y="3.42993" width="24" height="17.1429" rx="2" fill="white"/>
<mask id="mask0_14_957" style="mask-type:luminance" maskUnits="userSpaceOnUse" x="0" y="3" width="24" height="18">
<rect y="3.42993" width="24" height="17.1429" rx="2" fill="white"/>
</mask>
<g mask="url(#mask0_14_957)">
<rect y="3.42993" width="24" height="17.1429" fill="#F1361D"/>
<path fill-rule="evenodd" clip-rule="evenodd" d="M8.63367 6.08768L9.46376 6.2292L10.0863 6.7962L10.2279 5.9661L10.7949 5.34352L9.96476 5.20201L9.34218 4.63501L9.20066 5.4651L8.63367 6.08768ZM10.8571 8.99112L11.5764 8.55333L12.4183 8.5728L11.9805 7.85348L12 7.01163L11.2806 7.44942L10.4388 7.42994L10.8766 8.14927L10.8571 8.99112ZM9.88137 13.6907L9.17776 14.1533L9.16784 13.3113L8.70521 12.6077L9.54723 12.5978L10.2508 12.1351L10.2608 12.9772L10.7234 13.6808L9.88137 13.6907ZM10.4924 11.514L11.3293 11.4212L12.0841 11.7946L11.9913 10.9577L12.3647 10.2029L11.5278 10.2957L10.773 9.92229L10.8658 10.7592L10.4924 11.514Z" fill="#FFDC42"/>
<path fill-rule="evenodd" clip-rule="evenodd" d="M5.71434 10.4813L3.69907 11.9179L4.44264 9.55735L2.45357 8.08466L4.92839 8.06238L5.71434 5.71558L6.50029 8.06238L8.9751 8.08466L6.98604 9.55735L7.7296 11.9179L5.71434 10.4813Z" fill="#FFDC42"/>
</g>
</svg>
