<svg width="24" height="24" viewBox="0 0 24 24" fill="none" xmlns="http://www.w3.org/2000/svg">
<rect x="0.25" y="3.68005" width="23.5" height="16.6429" rx="1.75" fill="white" stroke="#F5F5F5" stroke-width="0.5"/>
<mask id="mask0_14_745" style="mask-type:luminance" maskUnits="userSpaceOnUse" x="0" y="3" width="24" height="18">
<rect x="0.25" y="3.68005" width="23.5" height="16.6429" rx="1.75" fill="white" stroke="white" stroke-width="0.5"/>
</mask>
<g mask="url(#mask0_14_745)">
<path fill-rule="evenodd" clip-rule="evenodd" d="M0 9.14434H24V3.43005H0V9.14434Z" fill="#E41D33"/>
<path fill-rule="evenodd" clip-rule="evenodd" d="M0 20.5729H24V14.8586H0V20.5729Z" fill="#262626"/>
<path fill-rule="evenodd" clip-rule="evenodd" d="M9.14282 10.9539C9.14282 10.5857 9.4413 10.2872 9.80949 10.2872H10.0797C10.2059 10.2872 10.3213 10.3586 10.3778 10.4715L10.8571 11.4301C10.8571 11.4301 11.4849 10.2872 12 10.2872C12.5714 10.2872 13.1428 11.4301 13.1428 11.4301L13.6221 10.4715C13.6786 10.3586 13.794 10.2872 13.9203 10.2872H14.1904C14.5586 10.2872 14.8571 10.5857 14.8571 10.9539V12.4701C14.8571 13.0026 14.2637 13.3202 13.8206 13.0248L13.1428 12.5729H12.5714V13.1444C12.5714 13.46 12.3156 13.7158 12 13.7158C11.6844 13.7158 11.4285 13.46 11.4285 13.1444V12.5729H10.8571L10.1793 13.0248C9.73625 13.3202 9.14282 13.0026 9.14282 12.4701V10.9539Z" fill="#F4B32E" fill-opacity="0.25"/>
<path fill-rule="evenodd" clip-rule="evenodd" d="M10.4262 12.059L9.87366 10.9539H9.80949L9.80949 12.4701L10.4262 12.059ZM10.8571 12.5729L10.1793 13.0248C9.73625 13.3202 9.14282 13.0026 9.14282 12.4701V10.9539C9.14282 10.5857 9.4413 10.2872 9.80949 10.2872H10.0797C10.2059 10.2872 10.3213 10.3586 10.3778 10.4715L10.8571 11.4301C10.8571 11.4301 11.038 11.1008 11.2853 10.7957C11.4986 10.5324 11.7614 10.2872 12 10.2872C12.2588 10.2872 12.5176 10.5217 12.7234 10.7783C12.9718 11.0881 13.1428 11.4301 13.1428 11.4301L13.6221 10.4715C13.6786 10.3586 13.794 10.2872 13.9203 10.2872H14.1904C14.5586 10.2872 14.8571 10.5857 14.8571 10.9539V12.4701C14.8571 13.0026 14.2637 13.3202 13.8206 13.0248L13.1428 12.5729H12.5714V13.1444C12.5714 13.46 12.3156 13.7158 12 13.7158C11.6844 13.7158 11.4285 13.46 11.4285 13.1444V12.5729H10.8571ZM13.5737 12.059L14.1904 12.4701V10.9539H14.1263L13.5737 12.059ZM12.6356 11.9063H11.3562L11.441 11.7518L11.4449 11.7449L11.4614 11.7161C11.4765 11.6901 11.4995 11.6515 11.5287 11.6046C11.588 11.5097 11.6697 11.3867 11.7624 11.2669C11.8526 11.1506 11.9389 11.0561 12.012 10.9936C12.0829 11.0522 12.166 11.1435 12.2523 11.2587C12.3395 11.3748 12.4146 11.4946 12.4688 11.5874C12.4954 11.6331 12.516 11.6707 12.5295 11.6958L12.544 11.7233L12.5467 11.7286L12.6356 11.9063ZM11.9434 10.946C11.9427 10.9457 11.9424 10.9456 11.9424 10.9455L11.9434 10.946Z" fill="#C6A846"/>
</g>
</svg>
