<svg width="24" height="24" viewBox="0 0 24 24" fill="none" xmlns="http://www.w3.org/2000/svg">
<rect y="3.42993" width="24" height="17.1429" rx="2" fill="white"/>
<mask id="mask0_14_1625" style="mask-type:luminance" maskUnits="userSpaceOnUse" x="0" y="3" width="24" height="18">
<rect y="3.42993" width="24" height="17.1429" rx="2" fill="white"/>
</mask>
<g mask="url(#mask0_14_1625)">
<path fill-rule="evenodd" clip-rule="evenodd" d="M0 9.14422H24V3.42993H0V9.14422Z" fill="#20AA46"/>
<path fill-rule="evenodd" clip-rule="evenodd" d="M0 20.5727H24V14.8584H0V20.5727Z" fill="#E92F3B"/>
<path fill-rule="evenodd" clip-rule="evenodd" d="M0 14.8586H24V9.14429H0V14.8586Z" fill="#FADF50"/>
<path fill-rule="evenodd" clip-rule="evenodd" d="M12 16.0012C14.2091 16.0012 16 14.2104 16 12.0012C16 9.79208 14.2091 8.00122 12 8.00122C9.79086 8.00122 8 9.79208 8 12.0012C8 14.2104 9.79086 16.0012 12 16.0012Z" fill="#205CCA"/>
<path fill-rule="evenodd" clip-rule="evenodd" d="M11.9999 12.297L12.4454 12.6145L12.281 12.0928L12.7207 11.7672L12.1736 11.7623L11.9999 11.2436L11.8262 11.7623L11.2791 11.7672L11.7188 12.0928L11.5544 12.6145L11.9999 12.297ZM10.3205 14.3129L10.9401 12.3458L9.28259 11.1185L11.3449 11.1L11.9999 9.14429L12.6549 11.1L14.7172 11.1185L13.0596 12.3458L13.6793 14.3129L11.9999 13.1157L10.3205 14.3129Z" fill="#FFDB3D"/>
</g>
</svg>
