<svg width="24" height="24" viewBox="0 0 24 24" fill="none" xmlns="http://www.w3.org/2000/svg">
<rect x="0.25" y="3.68005" width="23.5" height="16.6429" rx="1.75" fill="white" stroke="#F5F5F5" stroke-width="0.5"/>
<mask id="mask0_14_400" style="mask-type:luminance" maskUnits="userSpaceOnUse" x="0" y="3" width="24" height="18">
<rect x="0.25" y="3.68005" width="23.5" height="16.6429" rx="1.75" fill="white" stroke="white" stroke-width="0.5"/>
</mask>
<g mask="url(#mask0_14_400)">
<rect x="16" y="3.43005" width="8" height="17.1429" fill="#63AEE3"/>
<path fill-rule="evenodd" clip-rule="evenodd" d="M0 20.5729H8V3.43005H0V20.5729Z" fill="#63AEE3"/>
<path fill-rule="evenodd" clip-rule="evenodd" d="M9.71427 10.7633C10.0825 10.7633 10.3809 11.0618 10.3809 11.43C10.3809 12.0276 10.7044 12.5505 11.1891 12.8318C11.5076 13.0165 11.6159 13.4245 11.4311 13.743C11.2464 14.0614 10.8384 14.1698 10.5199 13.985C9.64107 13.4751 9.04761 12.5222 9.04761 11.43C9.04761 11.0618 9.34608 10.7633 9.71427 10.7633ZM14.2857 10.7633C14.6539 10.7633 14.9524 11.0618 14.9524 11.43C14.9524 12.4764 14.4075 13.3951 13.5891 13.9186C13.2789 14.1169 12.8666 14.0263 12.6682 13.7161C12.4699 13.406 12.5605 12.9937 12.8707 12.7953C13.3221 12.5066 13.619 12.0027 13.619 11.43C13.619 11.0618 13.9175 10.7633 14.2857 10.7633Z" fill="#628A40"/>
<path fill-rule="evenodd" clip-rule="evenodd" d="M12 12.5729C12.6312 12.5729 13.1429 12.0613 13.1429 11.4301C13.1429 10.7989 12.6312 10.2872 12 10.2872C11.3689 10.2872 10.8572 10.7989 10.8572 11.4301C10.8572 12.0613 11.3689 12.5729 12 12.5729Z" fill="#DCC26D"/>
</g>
</svg>
