<svg width="24" height="24" viewBox="0 0 24 24" fill="none" xmlns="http://www.w3.org/2000/svg">
<rect x="0.25" y="3.68005" width="23.5" height="16.6429" rx="1.75" fill="white" stroke="#F5F5F5" stroke-width="0.5"/>
<mask id="mask0_14_2008" style="mask-type:luminance" maskUnits="userSpaceOnUse" x="0" y="3" width="24" height="18">
<rect x="0.25" y="3.68005" width="23.5" height="16.6429" rx="1.75" fill="white" stroke="white" stroke-width="0.5"/>
</mask>
<g mask="url(#mask0_14_2008)">
<path fill-rule="evenodd" clip-rule="evenodd" d="M0 9.14434H24V3.43005H0V9.14434Z" fill="#FF202D"/>
<path opacity="0.5" fill-rule="evenodd" clip-rule="evenodd" d="M9.14282 8.00148L9.71425 7.43005L10.2857 8.00148V9.14434H9.14282V8.00148ZM11.4285 8.00148L11.9999 7.43005L12.5713 8.00148V9.14434H11.4285V8.00148ZM14.2857 7.43005L13.7143 8.00148V9.14434H14.8572V8.00148L14.2857 7.43005Z" fill="#1895DB"/>
<path opacity="0.5" fill-rule="evenodd" clip-rule="evenodd" d="M10.8571 7.43005L10.2856 8.00148V9.14434H11.4285V8.00148L10.8571 7.43005ZM13.1427 7.43005L12.5713 8.00148V9.14434H13.7142V8.00148L13.1427 7.43005Z" fill="#191F94"/>
<path fill-rule="evenodd" clip-rule="evenodd" d="M0 20.5729H24V14.8586H0V20.5729Z" fill="#2027AC"/>
<path fill-rule="evenodd" clip-rule="evenodd" d="M10.2857 9.14441H9.71425L9.14282 10.2873H10.2857V9.14441ZM11.4285 9.14441H12.5713V10.2873H11.4286V11.4301H10.2857V10.2872H11.4285V9.14441ZM13.7143 9.14441H14.2857L14.8572 10.2873H13.7143V9.14441ZM13.7143 10.2872H12.5714V11.4301H13.7143V10.2872ZM11.4285 11.4301H12.5713V12.573H11.4286V13.7158H12.5713V14.8587H11.4285V13.7158H10.2857V12.573H11.4285V11.4301ZM14.8572 12.573V11.4301H13.7143V12.573H14.8572ZM12.5714 12.573H13.7143V13.7158H12.5714V12.573ZM10.2857 11.4301H9.14282V12.573H10.2857V11.4301ZM10.2857 14.8587V13.7158H9.14282V14.8587H10.2857ZM14.8572 14.8587V13.7158H13.7143V14.8587H14.8572ZM12.5714 14.8587H13.7143V16.0016H12.5714V14.8587ZM11.4286 14.8587H10.2857V16.0016H11.4286V14.8587Z" fill="url(#paint0_linear_14_2008)"/>
</g>
<defs>
<linearGradient id="paint0_linear_14_2008" x1="9.14282" y1="9.14441" x2="9.14282" y2="16.0016" gradientUnits="userSpaceOnUse">
<stop stop-color="#FF212E"/>
<stop offset="1" stop-color="#FD0D1B"/>
</linearGradient>
</defs>
</svg>
