<svg width="24" height="24" viewBox="0 0 24 24" fill="none" xmlns="http://www.w3.org/2000/svg">
<rect y="3.43005" width="24" height="17.1429" rx="2" fill="#D01129"/>
<mask id="mask0_14_291" style="mask-type:luminance" maskUnits="userSpaceOnUse" x="0" y="3" width="24" height="18">
<rect y="3.43005" width="24" height="17.1429" rx="2" fill="white"/>
</mask>
<g mask="url(#mask0_14_291)">
<path fill-rule="evenodd" clip-rule="evenodd" d="M11.9041 12.0366C12.4706 12.0366 12.9299 11.5544 12.9299 10.9597C12.9299 10.3649 12.4706 9.88269 11.9041 9.88269C11.3376 9.88269 10.8784 10.3649 10.8784 10.9597C10.8784 11.5544 11.3376 12.0366 11.9041 12.0366Z" fill="#FFF101"/>
<path fill-rule="evenodd" clip-rule="evenodd" d="M10.9691 10.5266C11.2596 10.4293 11.6365 10.5426 11.8844 10.7924C12.1477 10.7421 12.4116 10.395 12.4934 10.086C12.4035 9.05926 11.7638 8.28138 11.5693 7.74759C11.5078 7.57889 11.2226 7.31362 10.926 7.43713C10.6821 7.53873 10.5588 7.45968 9.73971 7.88862C9.29683 8.12054 8.92405 8.35876 8.72762 8.40028C8.53109 8.4418 8.32378 8.47881 8.1666 8.34953C7.9504 8.17171 7.70793 8.12253 7.56513 7.98854C7.39018 7.82434 7.27793 7.70041 7.1596 7.65019C7.04126 7.59986 6.84094 7.71163 6.92552 7.97763C7.11636 8.57842 7.56623 8.67572 7.75936 9.23729C7.85054 9.50277 7.98016 9.7023 8.26985 9.50109C8.55955 9.29989 8.96898 9.03263 9.66701 9.00453C10.1358 8.98555 10.6202 8.80458 10.8428 8.50765C10.8406 8.76453 10.9269 8.97506 10.9041 9.30922C10.8814 9.64348 10.885 10.0592 10.9691 10.5266Z" fill="white"/>
<path fill-rule="evenodd" clip-rule="evenodd" d="M11.5183 10.5547C11.4322 10.0492 11.5883 9.97631 11.4019 9.38381C11.2899 9.02753 11.2183 8.58098 11.2165 8.37317L11.1416 8.39603C11.1434 8.60384 11.2151 9.0505 11.327 9.40677C11.5073 9.97967 11.3672 10.0667 11.4357 10.529C11.4569 10.5335 11.5013 10.5484 11.5183 10.5547Z" fill="#FFF101"/>
<path fill-rule="evenodd" clip-rule="evenodd" d="M11.0773 10.4993C11.0779 10.435 11.074 10.3679 11.0645 10.3102C11.1962 10.277 11.4218 10.4048 11.4155 10.3098C11.4136 10.2797 11.4165 10.1824 11.4183 10.1308C11.4154 10.2115 11.1018 10.0754 11.0477 10.1105C10.9897 9.8164 11.0616 9.51381 11.0156 9.32917C11.1203 9.29908 11.3129 9.36471 11.2893 9.27853C11.2759 9.23438 11.2503 9.12461 11.2335 9.05593C11.2499 9.12786 11.0971 9.0683 11.0453 9.1094C11.0185 8.94993 10.9792 8.64733 10.98 8.50904L10.8428 8.50757C10.8406 8.76445 10.9269 8.97499 10.9041 9.30914C10.8815 9.6434 10.8851 10.0591 10.9691 10.5265C10.9992 10.5173 11.0487 10.5055 11.0773 10.4993Z" fill="#FFF101"/>
<path fill-rule="evenodd" clip-rule="evenodd" d="M10.7307 8.15137C10.5262 8.46141 10.0377 8.67541 9.58603 8.7227C9.05736 8.77806 8.70245 8.9628 8.44112 9.14367C8.41865 9.1012 8.3781 9.07835 8.34225 9.05035C7.95988 8.753 8.11707 8.35006 8.26187 8.40762C8.20724 8.3854 8.17549 8.35541 8.14563 8.33287C8.0951 8.29355 7.9493 8.44422 7.96757 8.68348C7.97536 8.7854 8.05845 8.93575 8.12605 9.01544C8.00263 8.99185 7.94351 8.95871 7.87101 8.86676C7.91175 8.84013 7.96448 8.82503 8.00702 8.82157C7.99254 8.78508 7.97237 8.74461 7.96757 8.68348C7.90716 8.68296 7.83346 8.70508 7.77025 8.75017C7.61856 8.59153 7.46238 8.46498 7.3718 8.27772C7.2269 7.97774 7.3743 7.78839 7.56513 7.98865C7.39018 7.82445 7.27793 7.70052 7.1596 7.6503C7.04126 7.59997 6.84094 7.71174 6.92552 7.97774C7.11636 8.57853 7.56623 8.67583 7.75936 9.2374C7.85054 9.50288 7.98495 9.70975 8.26985 9.5012C8.3074 9.47373 8.31739 9.46723 8.35004 9.44291C8.44042 9.38807 8.58362 9.48013 8.56834 9.68029C8.64154 9.49648 8.5948 9.44018 8.53269 9.32998C8.48675 9.35567 8.49045 9.20521 8.46209 9.1854C8.62466 9.07929 8.82239 8.97287 9.07184 8.89706C9.08103 8.98692 9.10459 9.08233 9.18339 9.06849C9.22563 9.05863 9.26847 9.04972 9.3135 9.04186C9.23471 9.0557 9.21254 8.95127 9.20346 8.86152C9.32169 8.833 9.45091 8.8114 9.59252 8.79924C9.75569 8.78519 9.92436 8.75038 10.0827 8.69638C10.1063 8.78257 10.155 8.92778 10.2362 8.89926C10.3082 8.87504 10.3782 8.84768 10.4439 8.81591C10.331 8.87242 10.2866 8.71106 10.2594 8.62571C10.4658 8.53145 10.6417 8.40291 10.7468 8.24951L10.7307 8.15137Z" fill="#FFF101"/>
<path fill-rule="evenodd" clip-rule="evenodd" d="M11.6341 8.30517C11.7337 8.22401 11.8193 8.18564 11.7333 8.01379C11.5927 7.7328 11.6801 7.73183 11.3722 7.55306C11.0587 7.37125 11.0983 7.35699 10.6834 7.5106C10.5813 7.54834 10.6041 7.58693 10.622 7.74232C10.6604 8.0772 10.7335 8.34689 10.8003 8.62243C11.0611 8.58668 11.4624 8.44514 11.6341 8.30517Z" fill="#FFF101"/>
<path fill-rule="evenodd" clip-rule="evenodd" d="M10.6607 8.22898C10.6059 8.06458 10.6206 8.08691 10.8189 8.13703C10.8839 7.9203 10.9735 7.73739 11.0237 7.56197C11.0799 7.36559 11.0974 7.33026 11.18 7.37838C11.2857 7.43982 11.4017 7.50472 11.4773 7.54373C11.6093 7.61167 11.5898 7.63547 11.5268 7.74347C11.4638 7.85146 11.2577 8.07034 11.1306 8.29871C11.2983 8.42264 11.3521 8.43386 11.233 8.48722C11.0997 8.54688 10.8782 8.6208 10.7849 8.63831C10.7678 8.53042 10.7127 8.38489 10.6607 8.22898Z" fill="#FFF101"/>
<path fill-rule="evenodd" clip-rule="evenodd" d="M8.69216 9.77509L8.67898 9.94422L8.56024 9.83098L8.42743 9.92566L8.43621 9.75685L8.28333 9.70831L8.41394 9.60996L8.35632 9.4531L8.50961 9.50007L8.5906 9.35486L8.65211 9.50993L8.81029 9.48487L8.7328 9.63281L8.84944 9.7471L8.69216 9.77509Z" fill="#FFF101"/>
<path fill-rule="evenodd" clip-rule="evenodd" d="M12.0146 12.0262C11.789 11.8107 11.6939 11.4114 11.7761 11.061C11.6029 10.8469 11.1847 10.7803 10.8889 10.8604C10.0869 11.4557 9.7652 12.4262 9.42217 12.8701C9.31372 13.0104 9.23753 13.4022 9.48778 13.6102C9.6935 13.7811 9.69 13.9327 10.4532 14.4631C10.866 14.7498 11.2488 14.9697 11.3814 15.1276C11.514 15.2855 11.6481 15.4556 11.62 15.6631C11.5815 15.9486 11.6621 16.1937 11.623 16.3904C11.575 16.6315 11.5289 16.7956 11.5466 16.9284C11.5644 17.0611 11.7566 17.1873 11.9338 16.9774C12.3338 16.5035 12.1892 16.0459 12.5559 15.5894C12.7292 15.3738 12.829 15.1561 12.5183 14.9933C12.2074 14.8305 11.7823 14.5918 11.41 13.9713C11.1601 13.5545 10.7686 13.2044 10.4123 13.1505C10.6253 13.0242 10.7559 12.8404 11.0429 12.6939C11.3299 12.5475 11.671 12.3365 12.0146 12.0262Z" fill="white"/>
<path fill-rule="evenodd" clip-rule="evenodd" d="M11.7632 11.5128C11.3894 11.8438 11.2512 11.7382 10.8556 12.204C10.6178 12.484 10.2853 12.7725 10.1147 12.878L10.1711 12.9346C10.3416 12.8291 10.6742 12.5407 10.912 12.2606C11.2945 11.8103 11.4363 11.8942 11.7834 11.6007C11.7765 11.5793 11.7665 11.5314 11.7632 11.5128Z" fill="#FFF101"/>
<path fill-rule="evenodd" clip-rule="evenodd" d="M11.9378 11.9417C11.8846 11.9733 11.8312 12.0104 11.7883 12.0478C11.6951 11.9447 11.6877 11.6756 11.6126 11.729C11.5886 11.7455 11.5069 11.7917 11.4634 11.8158C11.5315 11.7782 11.5759 12.1314 11.632 12.1629C11.4184 12.3628 11.1329 12.4487 11.0036 12.5829C10.9264 12.5026 10.8843 12.2948 10.825 12.3593C10.7953 12.3935 10.7175 12.4716 10.6693 12.5213C10.7204 12.4704 10.7477 12.6392 10.8074 12.6656C10.6894 12.7698 10.4594 12.9568 10.3448 13.0252L10.4123 13.1507C10.6253 13.0244 10.7559 12.8406 11.0429 12.6941C11.3299 12.5476 11.671 12.3367 12.0145 12.0264C11.9919 12.0037 11.9572 11.9646 11.9378 11.9417Z" fill="#FFF101"/>
<path fill-rule="evenodd" clip-rule="evenodd" d="M10.1744 13.4308C10.5324 13.4617 10.9532 13.7989 11.218 14.186C11.528 14.6391 11.8579 14.8693 12.1377 15.0165C12.1139 15.0582 12.1153 15.1065 12.1102 15.1531C12.0561 15.6495 11.6452 15.708 11.6202 15.5476C11.6292 15.6084 11.6203 15.6522 11.6167 15.6907C11.6095 15.7563 11.8068 15.8135 11.9949 15.6773C12.0751 15.6192 12.1575 15.4685 12.1895 15.3672C12.2317 15.4912 12.2339 15.5615 12.1944 15.6734C12.152 15.6497 12.1132 15.6092 12.0891 15.5724C12.0662 15.6038 12.0429 15.6424 11.9949 15.6773C12.0247 15.7325 12.0798 15.7884 12.1486 15.8233C12.0936 16.0406 12.0673 16.2459 11.9581 16.4218C11.7832 16.7035 11.5532 16.6642 11.623 16.3906C11.575 16.6317 11.529 16.7958 11.5466 16.9285C11.5644 17.0613 11.7566 17.1875 11.9338 16.9776C12.3338 16.5037 12.1892 16.046 12.5559 15.5896C12.7292 15.3739 12.8327 15.1483 12.5183 14.9935C12.4767 14.9731 12.4665 14.9673 12.4301 14.9497C12.3396 14.895 12.344 14.7187 12.5167 14.6326C12.3285 14.6579 12.3055 14.7286 12.2457 14.8402C12.2897 14.869 12.1638 14.9409 12.1616 14.9767C11.9928 14.8819 11.8063 14.7553 11.6189 14.5663C11.6885 14.5131 11.7554 14.4439 11.7045 14.3792C11.6753 14.3458 11.6465 14.3112 11.6174 14.2742C11.6684 14.339 11.5934 14.4112 11.5238 14.4645C11.4412 14.3713 11.3588 14.2645 11.2779 14.1419C11.1847 14.0004 11.0717 13.8645 10.948 13.7475C11.0073 13.6829 11.1026 13.5661 11.0385 13.5065C10.9826 13.4531 10.925 13.4031 10.866 13.3594C10.969 13.4338 10.8581 13.5549 10.8014 13.6222C10.6203 13.4817 10.4264 13.386 10.2473 13.3672L10.1744 13.4308Z" fill="#FFF101"/>
<path fill-rule="evenodd" clip-rule="evenodd" d="M9.70434 12.5996C9.5875 12.5496 9.64516 12.482 9.54639 12.6461C9.38492 12.9144 9.35372 12.8526 9.36031 13.222C9.367 13.5979 9.43651 13.5379 9.77075 13.8384C10.0277 13.6361 10.3344 13.3304 10.5282 13.1318C10.3683 12.9126 9.90556 12.6859 9.70434 12.5996Z" fill="#FFF101"/>
<path fill-rule="evenodd" clip-rule="evenodd" d="M10.2736 13.4555C10.1653 13.5875 10.1764 13.563 10.1186 13.3575C9.9074 13.4068 9.74448 13.4637 9.57482 13.5058C9.38468 13.5529 9.34684 13.5545 9.34514 13.4555C9.34304 13.3286 9.33865 13.1907 9.33296 13.1024C9.32307 12.9485 9.35233 12.9542 9.47296 12.9575C9.59359 12.9608 9.84419 12.9919 10.0961 12.9933C10.1145 12.7789 10.0968 12.7243 10.2005 12.806C10.3162 12.8973 10.488 13.0619 10.5491 13.1379C10.4686 13.2073 10.3762 13.3303 10.2736 13.4555Z" fill="#FFF101"/>
<path fill-rule="evenodd" clip-rule="evenodd" d="M12.5331 14.4726L12.6792 14.3999L12.6451 14.5644L12.7897 14.6379L12.646 14.7143L12.6824 14.8776L12.5359 14.808L12.4353 14.9388L12.3975 14.7759L12.2372 14.7749L12.3345 14.6415L12.2346 14.5102L12.3955 14.5067L12.4314 14.3435L12.5331 14.4726Z" fill="#FFF101"/>
<path fill-rule="evenodd" clip-rule="evenodd" d="M12.7287 10.326C12.6638 10.6388 12.3819 10.9249 12.0518 11.0254C11.9618 11.2899 12.116 11.7033 12.33 11.9324C13.2218 12.3639 14.1834 12.1712 14.7209 12.2612C14.8909 12.2896 15.2522 12.163 15.2986 11.8315C15.3368 11.559 15.4635 11.4865 15.5193 10.5272C15.5495 10.0085 15.5394 9.55042 15.6034 9.351C15.6674 9.15158 15.7406 8.9445 15.9258 8.86628C16.1805 8.7586 16.3424 8.56264 16.5243 8.49983C16.7471 8.42287 16.9055 8.38272 17.0061 8.3003C17.1067 8.21789 17.1147 7.97988 16.8531 7.92379C16.2621 7.79692 15.9569 8.15729 15.3971 8.05202C15.1326 8.00232 14.9031 8.02025 14.9243 8.38439C14.9454 8.74843 14.9611 9.25433 14.6354 9.90303C14.4166 10.3388 14.3236 10.8697 14.4572 11.2207C14.2465 11.0901 14.0296 11.0633 13.7654 10.8756C13.501 10.6878 13.1564 10.4833 12.7287 10.326Z" fill="white"/>
<path fill-rule="evenodd" clip-rule="evenodd" d="M12.431 10.8112C12.891 10.9855 12.873 11.164 13.4549 11.2909C13.8048 11.3671 14.209 11.5252 14.3813 11.6275L14.3998 11.5479C14.2275 11.4456 13.8233 11.2876 13.4735 11.2113C12.9108 11.0886 12.9091 10.9177 12.4934 10.7488C12.4793 10.7659 12.4447 10.7989 12.431 10.8112Z" fill="#FFF101"/>
<path fill-rule="evenodd" clip-rule="evenodd" d="M12.6972 10.4378C12.7499 10.4704 12.8072 10.5004 12.8594 10.5207C12.8211 10.657 12.6028 10.7984 12.6844 10.84C12.71 10.8535 12.7888 10.9047 12.8305 10.9321C12.7655 10.8891 13.0345 10.672 13.0326 10.6052C13.3043 10.6996 13.5178 10.9163 13.6932 10.9667C13.6656 11.0771 13.5152 11.2192 13.5981 11.2409C13.6411 11.2508 13.7445 11.2825 13.8096 11.3014C13.742 11.2805 13.8676 11.1712 13.8595 11.1038C14.0045 11.1589 14.2737 11.2746 14.3874 11.3445L14.4572 11.2205C14.2465 11.0899 14.0296 11.0631 13.7654 10.8754C13.501 10.6876 13.1564 10.4831 12.7287 10.3258C12.7213 10.3577 12.7063 10.4087 12.6972 10.4378Z" fill="#FFF101"/>
<path fill-rule="evenodd" clip-rule="evenodd" d="M14.8072 11.2969C14.6537 10.9559 14.7215 10.4047 14.9085 9.97034C15.1272 9.46193 15.1521 9.04683 15.1336 8.71886C15.1799 8.7197 15.219 8.69422 15.2601 8.67556C15.6965 8.47666 15.9502 8.82099 15.8303 8.92384C15.876 8.88526 15.9167 8.87152 15.9501 8.85559C16.0079 8.82916 15.9564 8.62135 15.75 8.51839C15.662 8.47446 15.4966 8.47488 15.3969 8.49637C15.4782 8.39603 15.535 8.35891 15.6471 8.33889C15.6488 8.38932 15.6348 8.44479 15.6164 8.48515C15.6538 8.49019 15.6972 8.49207 15.75 8.51839C15.7807 8.46366 15.7992 8.38565 15.7937 8.30555C16.0004 8.24704 16.1828 8.1683 16.3825 8.17962C16.7024 8.19776 16.785 8.42654 16.5244 8.49983C16.7472 8.42287 16.9056 8.38272 17.0062 8.3003C17.1068 8.21789 17.1148 7.97988 16.8532 7.92379C16.2622 7.79692 15.957 8.15729 15.3972 8.05202C15.1327 8.00232 14.8948 8.02099 14.9244 8.38439C14.9283 8.43231 14.9287 8.44458 14.9324 8.48641C14.9324 8.59608 14.7849 8.68017 14.6275 8.5662C14.7424 8.72473 14.8122 8.71037 14.9341 8.70901C14.9359 8.65438 15.0582 8.73291 15.0887 8.71708C15.095 8.91797 15.0838 9.15095 15.0216 9.41569C14.9429 9.3791 14.8526 9.35278 14.8245 9.43142C14.8115 9.47472 14.7974 9.51813 14.7815 9.563C14.8094 9.48437 14.9066 9.51656 14.9852 9.55315C14.9496 9.67488 14.9028 9.80321 14.8421 9.93805C14.772 10.0934 14.7165 10.2641 14.6818 10.4352C14.5989 10.4135 14.4548 10.3852 14.4376 10.4734C14.4217 10.5509 14.4092 10.6283 14.4026 10.7039C14.4125 10.5729 14.5678 10.6132 14.6517 10.6311C14.6264 10.866 14.6444 11.0901 14.7183 11.2625L14.8072 11.2969Z" fill="#FFF101"/>
<path fill-rule="evenodd" clip-rule="evenodd" d="M14.1931 12.0096C14.2102 12.1408 14.199 12.2378 14.3838 12.2455C14.6859 12.2582 14.6613 12.2973 14.9627 12.1067C15.2694 11.9126 15.2775 11.9509 15.3583 11.4968C15.3782 11.3851 15.335 11.3865 15.1979 11.3251C14.9026 11.1925 14.6444 11.2016 14.3838 11.1245C14.2828 11.3796 14.1635 11.7835 14.1931 12.0096Z" fill="#FFF101"/>
<path fill-rule="evenodd" clip-rule="evenodd" d="M14.778 11.1944C14.9411 11.2267 14.9153 11.2289 14.7748 11.3843C14.9211 11.5516 15.0331 11.6694 15.1527 11.8027C15.2866 11.952 15.3069 11.9856 15.226 12.0366C15.1224 12.102 15.011 12.1749 14.941 12.2243C14.8189 12.3103 14.809 12.2807 14.7514 12.1694C14.6937 12.0581 14.6103 11.8165 14.4856 11.5869C14.2994 11.6772 14.2633 11.7206 14.2789 11.5856C14.2964 11.4346 14.3462 11.1962 14.3783 11.1027C14.4758 11.141 14.6234 11.1636 14.778 11.1944Z" fill="#FFF101"/>
<path fill-rule="evenodd" clip-rule="evenodd" d="M14.4872 8.63144L14.3542 8.53487L14.507 8.4835L14.4953 8.31532L14.6301 8.4078L14.7467 8.29309L14.7625 8.46106L14.9207 8.48706L14.8052 8.60303L14.8845 8.74919L14.7258 8.72748L14.6674 8.88392L14.5841 8.73943L14.4315 8.7884L14.4872 8.63144Z" fill="#FFF101"/>
<path fill-rule="evenodd" clip-rule="evenodd" d="M11.8801 10.7971C11.6319 10.5469 11.2571 10.437 10.971 10.5328L10.963 10.5278C10.8879 10.1101 10.8709 9.70666 10.8979 9.30872C10.9084 9.15478 10.8993 9.04211 10.8692 8.8412C10.8567 8.75788 10.855 8.74622 10.8506 8.71173C10.8417 8.64254 10.837 8.58395 10.8366 8.52617C10.6169 8.80471 10.1522 8.99141 9.66728 9.01104C9.09364 9.03413 8.7354 9.1856 8.27333 9.50652C8.01662 9.68482 7.87002 9.57871 7.75352 9.23948C7.67638 9.01518 7.58231 8.8857 7.35669 8.64736L7.33933 8.62902C7.10303 8.3793 7.0003 8.23364 6.91963 7.97967C6.8443 7.74276 7.00705 7.5782 7.16196 7.64408C7.17251 7.64855 7.1831 7.65364 7.19379 7.65936C7.24368 7.68605 7.29487 7.7255 7.36262 7.78732C7.38582 7.8085 7.45382 7.87345 7.50647 7.92374L7.50647 7.92375L7.56932 7.98362C7.57741 7.9912 7.58577 7.99853 7.59454 8.00569C7.58236 7.99745 7.56966 7.9921 7.55665 7.98942L7.49789 7.93341L7.49789 7.9334L7.49789 7.9334C7.44528 7.88315 7.37751 7.81842 7.35444 7.79736C7.2874 7.73617 7.23693 7.69729 7.18814 7.67119C7.17776 7.66564 7.1675 7.6607 7.15729 7.65637C7.01234 7.59472 6.85949 7.74927 6.93148 7.97567C7.0114 8.22726 7.11314 8.37152 7.34819 8.61992L7.36555 8.63826C7.59237 8.87786 7.68735 9.0086 7.76527 9.23518C7.87943 9.56758 8.01829 9.66809 8.26645 9.49574C8.73026 9.1736 9.09052 9.02129 9.66681 8.99809C10.1568 8.97825 10.6257 8.78678 10.8379 8.5037L10.8491 8.50781C10.8485 8.57104 10.8532 8.63406 10.8629 8.71012C10.8673 8.74447 10.8691 8.75611 10.8815 8.83931C10.9118 9.04112 10.9209 9.15463 10.9104 9.30979C10.8836 9.70436 10.9002 10.1043 10.974 10.5183L10.9672 10.5205L10.9753 10.5255L10.974 10.5183C11.2637 10.4249 11.6393 10.5364 11.8834 10.7861C12.1299 10.7389 12.4007 10.4122 12.4872 10.0868C12.4445 9.59839 12.2867 9.1568 12.0032 8.61434C11.9594 8.53064 11.84 8.31105 11.782 8.20447L11.7501 8.14584C11.6597 7.97677 11.6027 7.85761 11.5635 7.75005C11.4823 7.52734 11.1787 7.33908 10.9283 7.44334C10.8943 7.45752 10.8611 7.46883 10.8248 7.47898C10.8016 7.48549 10.7779 7.49133 10.7456 7.49874C10.4122 7.57505 10.2277 7.6405 9.74254 7.89459L9.70159 7.91615C9.60833 7.96553 9.38366 8.08954 9.24382 8.16673C9.18443 8.19952 9.14034 8.22385 9.12813 8.23044C8.93602 8.33394 8.81571 8.38846 8.72889 8.40681C8.44178 8.46747 8.29662 8.46488 8.16279 8.3548C8.12064 8.32014 8.07559 8.28879 8.02597 8.25892C8.01317 8.25121 8.00019 8.24367 7.9868 8.23615L7.99074 8.23128L7.98895 8.22236C8.00378 8.23064 8.01808 8.23892 8.03217 8.2474C8.08229 8.27757 8.12783 8.30927 8.17047 8.34434C8.3004 8.4512 8.44278 8.45375 8.72641 8.39382C8.81172 8.37579 8.93135 8.32158 9.12242 8.21863C9.13458 8.21208 9.17852 8.18782 9.23775 8.15513L9.23783 8.15508C9.37764 8.07791 9.60255 7.95376 9.69596 7.90431L9.73696 7.88272C10.2231 7.62812 10.4086 7.56232 10.7429 7.48579C10.7751 7.47842 10.7986 7.47262 10.8216 7.46618C10.8575 7.45615 10.8901 7.445 10.9237 7.43101C11.1812 7.32377 11.4916 7.51626 11.5751 7.74522C11.6141 7.85204 11.6709 7.97072 11.761 8.13928L11.7927 8.1976C11.8506 8.30407 11.9703 8.52402 12.0141 8.60789C12.2984 9.15178 12.4567 9.59492 12.4994 10.0878C12.4115 10.4199 12.1374 10.7507 11.8801 10.7971ZM7.97705 8.21578L7.98895 8.22236L7.98871 8.22114C7.98482 8.21916 7.98094 8.21737 7.97705 8.21578ZM7.93059 8.20588C7.94601 8.20615 7.96153 8.20942 7.97705 8.21578C7.95376 8.20302 7.92902 8.19015 7.90168 8.17645C7.88867 8.16994 7.85983 8.15583 7.83297 8.14272L7.83267 8.14006C7.82215 8.13506 7.81187 8.13086 7.8018 8.12748L7.77736 8.11552C7.69887 8.07658 7.64526 8.04565 7.60196 8.01163L7.60198 8.01113C7.59952 8.0092 7.59704 8.00738 7.59454 8.00569L7.60196 8.01163L7.60169 8.02183L7.59759 8.02469C7.59401 8.02192 7.59049 8.01912 7.58704 8.01631L7.5871 8.01627C7.58958 8.01791 7.59204 8.01969 7.59447 8.0216L7.59476 8.01091L7.5871 8.01627C7.58691 8.01614 7.58673 8.01602 7.58654 8.0159C7.57768 8.00865 7.56921 8.00123 7.56101 7.99353L7.55665 7.98942C7.47645 7.97293 7.38471 8.05828 7.33259 8.19565L7.34185 8.20353L7.59759 8.02469C7.63735 8.05547 7.6855 8.0838 7.75248 8.11772C7.65493 8.1131 7.57296 8.20427 7.46824 8.43734L7.47775 8.44528L7.82892 8.15533C7.85541 8.16827 7.88355 8.18203 7.89631 8.18843L7.93059 8.20588ZM7.97009 8.22689C7.95743 8.21996 7.94432 8.213 7.93059 8.20588C7.81921 8.20391 7.71322 8.35832 7.64968 8.63325L7.6605 8.63904L7.9868 8.23615L7.97541 8.22981L7.97585 8.22926L7.98325 8.23276L7.98122 8.22262L7.97585 8.22926L7.97009 8.22689ZM7.66833 8.60897C7.7394 8.32313 7.8563 8.18326 7.97009 8.22689L7.97541 8.22981L7.66833 8.60897ZM7.66833 8.60897L7.6618 8.63617L7.65098 8.63038L7.66833 8.60897ZM7.81634 8.14919L7.82892 8.15533L7.83395 8.15118L7.83297 8.14272L7.81634 8.1346L7.81634 8.13459L7.8018 8.12748C7.78483 8.1218 7.76845 8.11848 7.75248 8.11772L7.77204 8.12752L7.79726 8.13986C7.6878 8.10384 7.60426 8.17316 7.49109 8.41772L7.47005 8.4351L7.47955 8.44305L7.49109 8.41772L7.81634 8.14919ZM7.81802 8.1478C7.81099 8.14475 7.80408 8.1421 7.79726 8.13986L7.81119 8.14667L7.81634 8.14919L7.81802 8.1478ZM7.81802 8.1478L7.82754 8.15212L7.82625 8.141L7.81802 8.1478ZM7.35218 8.18054L7.58704 8.01631C7.58687 8.01617 7.58671 8.01604 7.58654 8.0159C7.51139 7.96689 7.41133 8.04105 7.35218 8.18054ZM7.35218 8.18054L7.33492 8.19261L7.34418 8.20049C7.34675 8.1937 7.34942 8.18705 7.35218 8.18054Z" fill="black"/>
<path fill-rule="evenodd" clip-rule="evenodd" d="M11.5006 10.082C11.4917 10.2757 11.4948 10.38 11.5244 10.5537L11.5162 10.561C11.5067 10.5575 11.4946 10.5533 11.4819 10.549C11.463 10.5425 11.443 10.5356 11.4295 10.5302C11.4069 10.3779 11.4051 10.283 11.4133 10.1042L11.4149 10.067C11.4248 9.83725 11.4074 9.68335 11.3211 9.40901C11.2171 9.07792 11.1373 8.62598 11.1398 8.38992L11.2227 8.37329C11.2247 8.60175 11.3041 9.05223 11.4078 9.38194C11.4946 9.65795 11.5122 9.81346 11.5023 10.0448L11.5006 10.082ZM11.5203 10.5487L11.5121 10.556C11.5115 10.5523 11.5108 10.5487 11.5102 10.5451C11.5138 10.5463 11.5172 10.5475 11.5203 10.5487ZM11.4369 10.5228C11.4528 10.5262 11.4861 10.5366 11.5102 10.5451C11.4822 10.3767 11.4794 10.2719 11.4881 10.0814L11.4898 10.0442C11.4997 9.81442 11.4823 9.66049 11.396 9.38608C11.2919 9.05515 11.2122 8.60335 11.2182 8.37967L11.1478 8.39618C11.1498 8.62444 11.2293 9.07506 11.3329 9.40493C11.4197 9.68087 11.4374 9.83635 11.4274 10.0677L11.4257 10.1048C11.4176 10.2829 11.4194 10.3769 11.4369 10.5228Z" fill="black"/>
<path fill-rule="evenodd" clip-rule="evenodd" d="M10.0446 7.72498C9.97466 7.75647 9.97521 7.86809 10.0317 8.04196C10.077 8.18101 10.157 8.35569 10.2533 8.53412L10.2648 8.52914L10.0531 7.72924L10.0446 7.72498ZM11.0707 10.3092C11.0799 10.3649 11.0842 10.4316 11.0836 10.4995L11.0786 10.5058L11.0572 10.5106C11.026 10.5176 10.9906 10.5255 10.963 10.5279C10.8879 10.1102 10.8709 9.70673 10.8979 9.30879C10.9084 9.15485 10.8994 9.04219 10.8692 8.84128C10.8567 8.75795 10.855 8.74629 10.8506 8.7118C10.8408 8.63517 10.8361 8.57156 10.8429 8.50113L10.9863 8.50919C10.9856 8.62775 11.017 8.90039 11.0499 9.09875C11.0677 9.08888 11.0926 9.0862 11.1318 9.08695L11.1478 9.08735C11.1844 9.08841 11.1985 9.08803 11.2113 9.08446C11.2259 9.0804 11.2309 9.07305 11.2275 9.05797L11.2343 9.08577C11.2407 9.07831 11.2426 9.06794 11.2396 9.0546L11.2275 9.05777L11.2274 9.05758L11.2395 9.05441C11.2439 9.07218 11.2631 9.15144 11.2619 9.14662L11.2636 9.15386C11.2787 9.21585 11.2885 9.25435 11.2953 9.27683C11.3032 9.30572 11.29 9.32256 11.26 9.32867C11.2387 9.33299 11.2181 9.33279 11.1586 9.32955C11.1413 9.3286 11.1316 9.32813 11.1208 9.32775C11.0928 9.32677 11.0697 9.32716 11.0511 9.32747H11.0511C11.0396 9.32766 11.0299 9.32783 11.0216 9.32763C11.0402 9.40189 11.0413 9.46941 11.0342 9.65961C11.0272 9.84437 11.0281 9.93878 11.0439 10.0503C11.0464 10.0675 11.0491 10.0845 11.0523 10.1011C11.0757 10.0922 11.1174 10.0995 11.2233 10.1244L11.2305 10.1261C11.2953 10.1413 11.3292 10.1479 11.3587 10.1499C11.3944 10.1523 11.4116 10.1459 11.4121 10.1307L11.4246 10.1312L11.4246 10.1313L11.4121 10.1308L11.4113 10.1554C11.4194 10.1504 11.4239 10.1428 11.4245 10.1324C11.4217 10.2145 11.4202 10.2852 11.4218 10.3095C11.4238 10.3399 11.4053 10.353 11.3703 10.3523C11.3459 10.3518 11.3344 10.3495 11.2545 10.3316C11.2291 10.3259 11.211 10.3222 11.193 10.319C11.14 10.3098 11.0991 10.3084 11.0707 10.3092ZM11.4245 10.1324L11.4246 10.1313L11.4246 10.1313L11.4245 10.1324ZM11.2275 9.05777L11.2275 9.05777L11.2275 9.05797L11.2275 9.05777ZM11.0711 10.4941L11.0761 10.4931L11.0711 10.4994L11.0711 10.4941ZM10.0431 7.74032L10.041 7.73272L10.0495 7.73699C10.0473 7.73799 10.0451 7.73911 10.0431 7.74032ZM10.2388 8.47998C10.1542 8.31897 10.0844 8.16346 10.0435 8.03769C9.99107 7.8763 9.98866 7.77228 10.0431 7.74032L10.2388 8.47998ZM10.2388 8.47998C10.2471 8.49582 10.2556 8.51171 10.2642 8.52763L10.2527 8.53261L10.2388 8.47998ZM10.0827 8.69947L10.0809 8.7002L10.0809 8.70031L10.0806 8.70045L10.0847 8.71459C10.1438 8.69149 10.2029 8.66436 10.262 8.63346L10.2572 8.61958L10.257 8.61968L10.257 8.61958L10.2551 8.62058L10.0827 8.69947ZM10.0827 8.69947C10.1401 8.67693 10.1976 8.65055 10.2551 8.62058L10.257 8.61968L10.2617 8.63346L10.085 8.71434L10.0809 8.70031L10.0827 8.69947ZM9.20214 8.855C9.15704 8.86739 9.11317 8.88095 9.07019 8.89578L9.07347 8.91025L9.07359 8.91021L9.07362 8.91036C9.07512 8.90984 9.07662 8.90933 9.07811 8.90881L9.20023 8.87107C9.20179 8.87064 9.20335 8.87021 9.20491 8.86978L9.20488 8.86964L9.20508 8.86957L9.20214 8.855ZM9.20488 8.86964L9.20196 8.85521L9.07035 8.89589L9.07359 8.91021L9.07811 8.90881C9.11795 8.89517 9.15856 8.88261 9.20023 8.87107L9.20488 8.86964Z" fill="black"/>
<path fill-rule="evenodd" clip-rule="evenodd" d="M9.58544 8.7161C10.0632 8.66607 10.5324 8.44048 10.7256 8.14756L10.7369 8.15018L10.7519 8.25326C10.6498 8.4022 10.4779 8.53299 10.2653 8.62355C10.2648 8.62198 10.274 8.65104 10.2768 8.65981C10.2817 8.67469 10.2861 8.68746 10.2907 8.69962C10.3289 8.80124 10.3742 8.8435 10.4413 8.80991L10.4413 8.80998C10.4242 8.81826 10.4066 8.82633 10.3885 8.83422C10.3429 8.82859 10.3083 8.78217 10.2791 8.70451C10.2744 8.69213 10.2699 8.67918 10.265 8.66411C10.2622 8.65528 10.253 8.62616 10.2569 8.6197C10.4711 8.52192 10.6411 8.39249 10.7407 8.25062L10.7272 8.16803C10.7301 8.16374 10.7331 8.15943 10.7359 8.1551L10.7246 8.15248L10.7272 8.16803C10.5265 8.45824 10.0608 8.67958 9.58668 8.72922C9.1283 8.77722 8.77697 8.91911 8.4357 9.14685C8.42148 9.11997 8.4044 9.10413 8.36146 9.07272L8.36129 9.0726C8.34992 9.06428 8.3448 9.06048 8.33858 9.05562C8.16576 8.92122 8.08668 8.75201 8.09819 8.59539C8.10622 8.48595 8.16049 8.40429 8.22299 8.39611C8.23394 8.40225 8.24526 8.40777 8.25736 8.41279C8.18973 8.38842 8.11974 8.4722 8.11062 8.59632C8.09946 8.7483 8.17653 8.91322 8.34601 9.04501C8.3521 9.04977 8.35715 9.05353 8.36842 9.06177L8.36858 9.06189C8.41306 9.09442 8.43114 9.11119 8.43771 9.13812C8.77169 8.90697 9.12492 8.76432 9.58544 8.7161ZM8.25967 8.41367L8.26411 8.40149C8.25028 8.39599 8.23645 8.39435 8.22299 8.39611C8.2117 8.38978 8.20081 8.38278 8.18985 8.37497C8.17952 8.36761 8.15216 8.34614 8.14416 8.33986C8.14285 8.33884 8.14206 8.33822 8.14195 8.33813C8.08158 8.29115 7.95846 8.48172 7.97383 8.68296C7.9808 8.77406 8.05448 8.92117 8.13075 9.01108L8.12497 9.02188C7.99876 8.99776 7.93893 8.96314 7.86775 8.86119C7.90441 8.83723 7.95308 8.82094 7.99794 8.81587L8.0013 8.82409L8.00151 8.82372L8.00658 8.81503C8.00378 8.81526 8.00097 8.81553 7.99814 8.81585C7.99807 8.81586 7.99801 8.81587 7.99794 8.81587L7.98874 8.79334C7.9798 8.7711 7.97321 8.75156 7.96973 8.73282C7.96705 8.71838 7.96621 8.70441 7.96756 8.69003C7.96569 8.69002 7.96382 8.69002 7.96194 8.69005C7.9011 8.69093 7.83132 8.71436 7.76588 8.75481L7.73673 8.72473C7.71923 8.7069 7.67384 8.66171 7.64205 8.63006C7.62637 8.61445 7.61399 8.60213 7.60991 8.59801C7.48757 8.47473 7.4182 8.38804 7.36627 8.28068C7.29765 8.13861 7.2895 8.00921 7.33761 7.94167C7.36967 7.89665 7.4204 7.88733 7.47776 7.91418C7.48463 7.92073 7.49138 7.92718 7.49789 7.9334C7.5092 7.94421 7.51981 7.95434 7.52913 7.96323C7.45371 7.89938 7.38541 7.89634 7.34759 7.94944C7.30287 8.01224 7.31069 8.13659 7.37739 8.27467C7.42854 8.38041 7.49713 8.46614 7.61854 8.58848C7.6226 8.59257 7.63491 8.60482 7.65053 8.62038C7.68233 8.65203 7.72784 8.69734 7.74542 8.71525C7.75562 8.72565 7.76531 8.73565 7.76677 8.74467C7.82475 8.70331 7.89419 8.67924 7.96124 8.68202C7.94612 8.47249 8.07665 8.27094 8.1493 8.32747C8.14945 8.32758 8.1504 8.32833 8.15195 8.32954C8.16046 8.33622 8.18694 8.35698 8.19685 8.36405C8.21836 8.37938 8.23953 8.39142 8.26415 8.40143L8.25968 8.41367C8.25968 8.41367 8.25968 8.41367 8.25967 8.41367ZM8.00356 8.82838C7.95934 8.83265 7.91053 8.84833 7.87584 8.8625C7.94315 8.94786 7.99818 8.98197 8.10967 9.0054C8.06965 8.95509 8.03131 8.89089 8.00356 8.82838ZM7.5693 7.98371C7.56939 7.98381 7.56949 7.98391 7.56958 7.98401L7.56101 7.99353C7.55504 7.98793 7.54366 7.9771 7.52913 7.96323C7.53955 7.97205 7.55011 7.98204 7.56075 7.9932L7.5693 7.98371ZM7.56882 7.98321C7.56899 7.98337 7.56916 7.98353 7.56932 7.98368L7.5693 7.98371C7.56914 7.98354 7.56898 7.98338 7.56882 7.98321ZM7.53909 7.95496C7.51819 7.93704 7.49758 7.92345 7.47776 7.91418C7.42918 7.86779 7.37466 7.81581 7.35444 7.79736C7.2874 7.73617 7.23693 7.69729 7.18814 7.67119C7.17776 7.66563 7.1675 7.6607 7.15729 7.65637C7.01234 7.59472 6.85949 7.74927 6.93148 7.97567C7.0114 8.22726 7.11314 8.37152 7.34819 8.61992L7.36555 8.63826C7.59237 8.87786 7.68735 9.0086 7.76527 9.23518C7.8181 9.38899 7.87439 9.48973 7.94556 9.54168C8.03024 9.60348 8.13448 9.59234 8.26632 9.49582C8.28193 9.4844 8.29278 9.47658 8.31103 9.4635L8.31158 9.46311C8.32383 9.45429 8.33346 9.44725 8.34696 9.43723C8.44748 9.37624 8.57063 9.478 8.5755 9.64333C8.57168 9.65432 8.56739 9.66577 8.56262 9.67776L8.5746 9.68081C8.57558 9.668 8.57586 9.65549 8.5755 9.64333C8.60866 9.54792 8.60632 9.48756 8.57567 9.42156C8.56987 9.40908 8.56306 9.39614 8.55367 9.37945C8.55351 9.37915 8.55331 9.37881 8.5531 9.37843C8.5482 9.36974 8.53218 9.34136 8.53566 9.33577C8.51979 9.34464 8.50696 9.33751 8.49793 9.31877C8.49174 9.30592 8.48766 9.29053 8.48113 9.2595L8.47955 9.25195C8.47127 9.21256 8.46597 9.19595 8.45867 9.19085L8.45883 9.17983C8.65165 9.05398 8.84648 8.95873 9.07808 8.89636C9.09005 9.01337 9.12021 9.07295 9.18207 9.06209C9.21157 9.05521 9.2404 9.04901 9.26918 9.0434C9.28112 9.04917 9.29484 9.05108 9.31052 9.04895C9.26873 9.05633 9.22746 9.06484 9.18444 9.07487C9.11177 9.08764 9.07833 9.02161 9.0736 8.90328C8.85375 8.97009 8.66191 9.06339 8.47223 9.18644C8.47953 9.19638 8.4844 9.2142 8.49173 9.24905L8.49331 9.2566C8.49959 9.28646 8.50352 9.30128 8.50906 9.31278C8.51529 9.32569 8.52115 9.32895 8.53809 9.32657L8.56441 9.37271C8.57396 9.38967 8.58091 9.4029 8.58688 9.41574C8.62273 9.49294 8.62164 9.56343 8.57413 9.68273L8.56215 9.67968C8.57569 9.50226 8.45135 9.38894 8.35368 9.44817C8.34061 9.45791 8.33093 9.46499 8.31862 9.47384L8.31807 9.47424C8.29983 9.48732 8.28902 9.49511 8.27345 9.5065C8.13766 9.6059 8.02787 9.61764 7.93843 9.55236C7.86455 9.49845 7.80715 9.39572 7.75352 9.23955C7.67638 9.01524 7.58231 8.88576 7.35669 8.64742L7.33933 8.62908C7.10303 8.37936 7.0003 8.2337 6.91963 7.97974C6.8443 7.74282 7.00705 7.57826 7.16196 7.64414C7.17251 7.64862 7.1831 7.65371 7.19379 7.65943C7.24368 7.68611 7.29487 7.72556 7.36262 7.78739C7.38582 7.80856 7.45382 7.87352 7.50647 7.92381C7.51836 7.93516 7.52946 7.94577 7.53909 7.95496ZM9.31252 9.03539C9.29803 9.03792 9.28361 9.04059 9.26918 9.0434C9.22842 9.02369 9.20841 8.95885 9.2021 8.85513C9.32495 8.8255 9.45466 8.8045 9.59205 8.7927C9.75649 8.77854 9.92456 8.74343 10.0888 8.69457C10.1271 8.83462 10.1734 8.91442 10.2344 8.89302C10.2895 8.87446 10.3407 8.85499 10.3885 8.83422C10.404 8.83615 10.4209 8.83329 10.4393 8.82528C10.3785 8.85424 10.3118 8.88065 10.2382 8.9054C10.1663 8.93067 10.1173 8.8463 10.0847 8.70253C9.92748 8.75613 9.75846 8.79145 9.59305 8.80569C9.45626 8.81744 9.32714 8.83833 9.20969 8.86074C9.22208 8.98312 9.25131 9.04606 9.3125 9.03531L9.31252 9.03539ZM9.31457 9.04832L9.31456 9.04824L9.31457 9.04832ZM7.56882 7.98321C7.55888 7.97283 7.54895 7.96341 7.53909 7.95496C7.55246 7.96771 7.56298 7.97772 7.56882 7.98321ZM8.25967 8.41367L8.25965 8.41373C8.25888 8.41342 8.25812 8.41311 8.25736 8.41279C8.25813 8.41307 8.2589 8.41336 8.25967 8.41367ZM10.4393 8.82528C10.4417 8.82412 10.4442 8.82295 10.4466 8.82178L10.4413 8.80998C10.4413 8.80997 10.4413 8.80996 10.4414 8.80995L10.4467 8.82182C10.4442 8.82306 10.4417 8.82422 10.4393 8.82528Z" fill="black"/>
<path fill-rule="evenodd" clip-rule="evenodd" d="M11.7822 11.0627C11.7 11.4135 11.7967 11.8093 12.0188 12.0216L12.0187 12.0314C11.7119 12.3085 11.3878 12.5254 11.0457 12.7C10.9452 12.7513 10.8595 12.8088 10.7659 12.8839C10.7427 12.9025 10.7197 12.9216 10.69 12.9467C10.6927 12.9445 10.6335 12.9947 10.6171 13.0084C10.544 13.0697 10.4895 13.111 10.4308 13.1471C10.7705 13.2076 11.1568 13.5368 11.4154 13.968C11.7214 14.478 12.0258 14.7283 12.5211 14.9876C12.7965 15.1318 12.7822 15.3181 12.5608 15.5938C12.4133 15.7774 12.3547 15.9257 12.2691 16.2569C12.1759 16.6177 12.111 16.7776 11.9385 16.9819C11.7808 17.1689 11.5638 17.1032 11.5405 16.9294C11.5322 16.8673 11.537 16.7969 11.5541 16.699C11.5618 16.6551 11.593 16.5046 11.6085 16.4303L11.617 16.3892C11.619 16.3788 11.6208 16.3687 11.6223 16.3587C11.622 16.3726 11.624 16.3857 11.6279 16.3978L11.6206 16.4333C11.6051 16.5078 11.574 16.6576 11.5664 16.7012C11.5495 16.7979 11.5448 16.8669 11.5529 16.9274C11.5747 17.0901 11.7784 17.1517 11.9292 16.9731C12.1 16.7707 12.1643 16.6123 12.2571 16.2533C12.3431 15.9204 12.4023 15.7706 12.5512 15.5852C12.7682 15.3151 12.7817 15.1386 12.5156 14.9991C12.0183 14.7389 11.7122 14.4872 11.4048 13.9748C11.1435 13.5391 10.7511 13.2084 10.4115 13.157L10.4093 13.1448C10.4734 13.1068 10.5304 13.0642 10.6093 12.998C10.6257 12.9843 10.6848 12.9341 10.6822 12.9364C10.7119 12.9112 10.735 12.892 10.7583 12.8733C10.8526 12.7977 10.9389 12.7397 11.0403 12.688C11.3794 12.5149 11.7009 12.3001 12.0053 12.0261L12.0104 12.0311L12.0106 12.0213L12.0053 12.0261C11.7832 11.8092 11.6874 11.412 11.7714 11.0652C11.6092 10.8647 11.2042 10.7818 10.8926 10.8658C10.5928 11.0883 10.3432 11.3733 10.1064 11.7371C10.0412 11.8372 9.90929 12.0667 9.78092 12.2901L9.78091 12.2901L9.78089 12.2901L9.78089 12.2901L9.78089 12.2901L9.78088 12.2901C9.6475 12.5222 9.51791 12.7477 9.47084 12.8147C9.45603 12.8358 9.44148 12.8556 9.42709 12.8742C9.28395 13.0594 9.28048 13.4295 9.49173 13.6051C9.5016 13.6133 9.51115 13.6215 9.52048 13.63C9.54904 13.6559 9.57497 13.6826 9.60549 13.7169L9.64149 13.7583C9.66553 13.786 9.69447 13.8194 9.70766 13.8341C9.75348 13.8854 9.79916 13.9327 9.85383 13.9844C9.99494 14.1177 10.1859 14.2694 10.4568 14.4576C10.5946 14.5533 11.028 14.8396 11.0258 14.8381C11.2174 14.9674 11.3259 15.0515 11.3861 15.1232C11.5796 15.3536 11.6502 15.4872 11.6263 15.664C11.6164 15.7372 11.6135 15.8021 11.6163 15.8835L11.6103 15.8824L11.604 15.8883C11.6009 15.8042 11.6037 15.7376 11.6139 15.6623C11.6371 15.4907 11.5678 15.3596 11.3767 15.1321C11.3176 15.0616 11.2097 14.9779 11.0191 14.8493C11.0213 14.8508 10.5878 14.5645 10.4499 14.4687C10.1785 14.2801 9.98708 14.1281 9.84547 13.9943C9.79053 13.9424 9.7446 13.8948 9.69855 13.8433C9.68528 13.8284 9.65622 13.7949 9.63216 13.7672L9.63213 13.7671L9.59636 13.726C9.56613 13.692 9.54051 13.6656 9.51233 13.6401C9.50312 13.6318 9.49371 13.6236 9.48398 13.6155C9.26669 13.4349 9.27023 13.0565 9.4174 12.8661C9.43166 12.8477 9.44609 12.828 9.46079 12.8071C9.50751 12.7406 9.63649 12.5162 9.76953 12.2847L9.76953 12.2847C9.89813 12.0609 10.0305 11.8305 10.0961 11.7299C10.3337 11.3649 10.5843 11.0787 10.8874 10.8542C11.2053 10.7682 11.6152 10.852 11.7822 11.0627ZM11.6046 15.9042L11.604 15.8883L11.603 15.8893C11.6033 15.8944 11.6039 15.8993 11.6046 15.9042ZM11.6197 15.95C11.6123 15.9363 11.6073 15.9209 11.6046 15.9042C11.6067 15.9496 11.6104 16.0002 11.6155 16.06L11.6163 16.0699L11.6143 16.0716C11.6154 16.0837 11.6171 16.0952 11.6194 16.1061C11.6291 16.2256 11.6311 16.2876 11.6241 16.3452L11.6232 16.3457C11.6227 16.3501 11.6224 16.3544 11.6223 16.3587L11.6241 16.3452L11.6321 16.3406L11.6369 16.3431C11.6364 16.3477 11.6358 16.3523 11.6352 16.3569L11.6348 16.3567C11.635 16.3536 11.6352 16.3505 11.6356 16.3473L11.6266 16.3524L11.6348 16.3567C11.6348 16.3576 11.6348 16.3586 11.6348 16.3595C11.6332 16.3701 11.6314 16.3808 11.6292 16.3917L11.6279 16.3978C11.6545 16.479 11.7707 16.5197 11.91 16.4983L11.9119 16.486L11.6369 16.3431C11.6425 16.2942 11.6418 16.2419 11.6357 16.1551C11.6804 16.2465 11.7967 16.2756 12.0417 16.2542L12.0435 16.2416L11.6287 16.0673L11.6279 16.0587C11.6245 16.0187 11.6217 15.9829 11.6197 15.95ZM11.6171 15.9026C11.6178 15.9177 11.6186 15.9335 11.6197 15.95C11.674 16.052 11.8542 16.071 12.1124 15.9914L12.1117 15.9787L11.6163 15.8835L11.6168 15.8968L11.6162 15.8967L11.6154 15.8882L11.6081 15.8951L11.6162 15.8967L11.6171 15.9026ZM12.0831 15.9864C11.8115 16.0648 11.6376 16.0282 11.6171 15.9026L11.6168 15.8968L12.0831 15.9864ZM12.0831 15.9864L12.1089 15.9788L12.1095 15.9915L12.0831 15.9864ZM11.6299 16.0819L11.6287 16.0673L11.6228 16.0648L11.6163 16.0699L11.6194 16.1061C11.6231 16.1241 11.6285 16.1404 11.6357 16.1551L11.6317 16.104C11.6567 16.2214 11.7558 16.2627 12.014 16.2433L12.0389 16.2538L12.0407 16.2412L12.014 16.2433L11.6299 16.0819ZM11.6279 16.0811C11.6289 16.089 11.6302 16.0967 11.6317 16.104L11.6299 16.0819L11.6279 16.0811ZM11.6279 16.0811L11.6267 16.0703L11.6182 16.077L11.6279 16.0811ZM11.8877 16.4881L11.6352 16.3569C11.635 16.3577 11.6349 16.3586 11.6348 16.3595C11.6336 16.451 11.7443 16.5041 11.8877 16.4881ZM11.8877 16.4881L11.9063 16.4977L11.9082 16.4854C11.9013 16.4864 11.8945 16.4873 11.8877 16.4881Z" fill="black"/>
<path fill-rule="evenodd" clip-rule="evenodd" d="M11.3671 11.7735C11.5503 11.6744 11.6265 11.6255 11.7591 11.5081L11.7693 11.5119C11.7711 11.5221 11.7738 11.5355 11.7767 11.5495C11.7808 11.5697 11.7851 11.5912 11.7873 11.606C11.6689 11.7062 11.5999 11.7494 11.4291 11.8419L11.3939 11.8611C11.2148 11.9598 11.0936 12.0569 10.9167 12.2652C10.6957 12.5254 10.3628 12.8239 10.1667 12.9396L10.1116 12.8726C10.299 12.7567 10.6309 12.4591 10.851 12.1999C11.029 11.9902 11.1513 11.8922 11.332 11.7927L11.3671 11.7735ZM11.757 11.5144L11.7672 11.5182C11.7645 11.5207 11.7618 11.523 11.7591 11.5254C11.7583 11.5215 11.7576 11.5178 11.757 11.5144ZM11.7591 11.5254C11.6305 11.6385 11.553 11.6878 11.3728 11.7854L11.3378 11.8045C11.1584 11.9033 11.0373 12.0003 10.8603 12.2088C10.6394 12.469 10.3065 12.7674 10.1191 12.8736L10.1679 12.9293C10.3553 12.8135 10.6872 12.5159 10.9074 12.2567C11.0854 12.0471 11.2077 11.9491 11.3882 11.8496L11.4234 11.8304C11.5935 11.7383 11.6619 11.6955 11.7775 11.6032C11.7723 11.5871 11.7641 11.5513 11.7591 11.5254Z" fill="black"/>
<path fill-rule="evenodd" clip-rule="evenodd" d="M11.7844 12.0426C11.8257 12.0065 11.8786 11.9692 11.9348 11.9359L11.9425 11.9372L11.9572 11.9544C11.9784 11.979 12.0028 12.0074 12.0186 12.0313C11.7118 12.3084 11.3877 12.5253 11.0456 12.6999C10.9451 12.7512 10.8594 12.8087 10.7658 12.8838C10.7426 12.9024 10.7196 12.9215 10.6899 12.9466C10.6926 12.9443 10.6334 12.9946 10.617 13.0083C10.5376 13.0749 10.4801 13.1179 10.4068 13.1538L10.3418 13.0194C10.4401 12.9606 10.6497 12.7955 10.7962 12.6667C10.7786 12.6552 10.7637 12.633 10.7431 12.5934L10.7316 12.5711C10.7272 12.5628 10.7237 12.5564 10.7204 12.5507C10.7019 12.5189 10.6895 12.511 10.6746 12.5249L10.6937 12.5054C10.7061 12.5085 10.7182 12.5218 10.7311 12.5439C10.7345 12.5498 10.7381 12.5563 10.7425 12.5648L10.7541 12.5872C10.7766 12.6304 10.7917 12.6514 10.8098 12.6595L10.8114 12.6705C10.6641 12.8006 10.4487 12.9706 10.3503 13.0219L10.4092 13.1449C10.4733 13.1069 10.5303 13.0643 10.6092 12.9981C10.6255 12.9844 10.6847 12.9342 10.682 12.9365C10.7118 12.9113 10.7349 12.8921 10.7582 12.8734C10.8524 12.7978 10.9388 12.7398 11.0402 12.6881C11.3813 12.514 11.7045 12.2977 12.0102 12.0311C11.991 12.0118 11.9599 11.9773 11.9365 11.9499L11.9409 11.9473L11.9332 11.946L11.9365 11.9499C11.8826 11.9822 11.8318 12.0181 11.7838 12.0522C11.7553 12.0207 11.7337 11.9748 11.7111 11.9065C11.7081 11.8972 11.7012 11.8751 11.6945 11.8538L11.6945 11.8538C11.6882 11.8334 11.682 11.8137 11.6797 11.8066C11.6685 11.7729 11.6591 11.7518 11.6493 11.7396C11.639 11.7269 11.6291 11.725 11.616 11.7344C11.5979 11.7469 11.5442 11.7781 11.4871 11.81C11.4786 11.805 11.4698 11.8048 11.4605 11.8099L11.4605 11.8098C11.5244 11.7745 11.5894 11.737 11.6091 11.7234C11.6276 11.7102 11.6445 11.7134 11.6588 11.7311C11.67 11.7449 11.6798 11.767 11.6915 11.8022C11.6939 11.8094 11.7001 11.8293 11.7065 11.8499L11.7065 11.8499L11.7065 11.8499C11.7131 11.8712 11.7199 11.893 11.7229 11.9021C11.7449 11.9688 11.7659 12.0133 11.7844 12.0426ZM11.4675 11.8208L11.4871 11.81C11.4986 11.8167 11.5096 11.8323 11.5204 11.8554C11.534 11.8843 11.5454 11.9185 11.5659 11.987C11.5798 12.0337 11.5801 12.0346 11.5852 12.0508C11.6053 12.1148 11.6207 12.1491 11.6349 12.1571L11.6361 12.1678C11.5747 12.2253 11.5045 12.2763 11.4189 12.3286C11.3835 12.3502 11.2962 12.3992 11.2316 12.4354L11.2315 12.4354L11.2315 12.4355L11.2315 12.4355C11.1957 12.4555 11.1669 12.4717 11.1577 12.4772C11.0897 12.5175 11.0426 12.5515 10.9992 12.5874C10.9773 12.5646 10.9581 12.533 10.9333 12.4831L10.926 12.4683C10.9183 12.4526 10.907 12.4295 10.9029 12.4214C10.892 12.3999 10.8832 12.3848 10.8749 12.3738C10.8576 12.3508 10.8445 12.3474 10.8296 12.3637C10.8139 12.3818 10.7861 12.4109 10.7395 12.4586L10.738 12.4601C10.7436 12.4543 10.7152 12.4834 10.6937 12.5054C10.6844 12.503 10.675 12.5065 10.665 12.5165L10.6736 12.5259L10.6736 12.5259L10.6649 12.5165C10.6775 12.5035 10.7374 12.4423 10.7292 12.4507L10.7307 12.4492C10.7772 12.4016 10.8049 12.3726 10.8205 12.3546C10.8417 12.3316 10.8633 12.3371 10.8847 12.3656C10.8936 12.3774 10.9027 12.3931 10.9139 12.4152C10.9181 12.4234 10.9295 12.4467 10.9372 12.4624L10.9443 12.477C10.9628 12.5141 10.978 12.5408 10.9895 12.5609L10.9992 12.5781C11.0348 12.5412 11.0826 12.5066 11.1516 12.4657C11.1609 12.4601 11.19 12.4438 11.226 12.4236L11.226 12.4236L11.226 12.4236L11.226 12.4236L11.226 12.4236L11.226 12.4236C11.2906 12.3874 11.3775 12.3386 11.4126 12.3172C11.4949 12.267 11.5626 12.218 11.622 12.1633C11.6064 12.1486 11.592 12.1143 11.5733 12.0548C11.5682 12.0386 11.5679 12.0376 11.554 11.9909C11.5337 11.9231 11.5224 11.8892 11.5092 11.8611C11.4937 11.828 11.4801 11.8151 11.4675 11.8208ZM11.4675 11.8208L11.4663 11.8214L11.4605 11.8099L11.4605 11.8099L11.4663 11.8215L11.4675 11.8208ZM10.6736 12.5259L10.6746 12.5249L10.6737 12.5259L10.6736 12.5259ZM10.1658 14.2678C10.2267 14.3156 10.3186 14.2593 10.4337 14.121C10.5258 14.0104 10.6299 13.8502 10.7288 13.6736L10.719 13.6657L10.165 14.258L10.1658 14.2678ZM10.1792 14.2615L10.1739 14.2671L10.1732 14.2573C10.1752 14.2588 10.1772 14.2602 10.1792 14.2615ZM10.4243 14.1124C10.3174 14.2408 10.2328 14.295 10.1792 14.2615L10.6915 13.7138C10.601 13.8711 10.5076 14.0123 10.4243 14.1124ZM10.6915 13.7138C10.7004 13.6983 10.7092 13.6827 10.718 13.6669L10.7279 13.6748L10.6915 13.7138ZM10.7977 13.6276C10.8491 13.6674 10.8979 13.709 10.9438 13.7524L10.9519 13.7425L10.8053 13.6172L10.7977 13.6276ZM10.7974 13.6273L10.805 13.617C10.8568 13.6571 10.9059 13.699 10.9521 13.7427L10.944 13.7526L10.7974 13.6273ZM11.6217 14.5777C11.6224 14.5784 11.6231 14.5791 11.6238 14.5798L11.6334 14.5698C11.6334 14.5699 11.6335 14.5699 11.6335 14.5699L11.6239 14.58L11.6217 14.5777ZM11.5214 14.4721L11.6217 14.5777C11.5889 14.545 11.5557 14.51 11.5214 14.4721ZM11.5193 14.4698C11.5193 14.4697 11.5192 14.4697 11.5192 14.4696L11.529 14.4598L11.6334 14.5698L11.6334 14.5698C11.5994 14.5359 11.5649 14.4996 11.5292 14.46L11.5193 14.4698ZM11.5193 14.4698C11.52 14.4706 11.5207 14.4713 11.5214 14.4721L11.5193 14.4698L11.5193 14.4698Z" fill="black"/>
<path fill-rule="evenodd" clip-rule="evenodd" d="M10.1791 13.4358L10.1757 13.4243C10.1807 13.4247 10.1857 13.4252 10.1907 13.4258L10.1791 13.4358ZM10.9084 13.3998C10.9189 13.425 10.917 13.4539 10.9044 13.4858C10.893 13.5148 10.8736 13.5449 10.8457 13.5799C10.8353 13.5929 10.825 13.6051 10.7984 13.6275C10.6103 13.4816 10.4186 13.3917 10.252 13.3723L10.1907 13.4258C10.5304 13.4631 10.9458 13.7759 11.2238 14.1822C11.4925 14.5749 11.7851 14.8233 12.1438 15.0199C12.1287 15.0464 12.1242 15.0699 12.1198 15.1249L12.1196 15.1263C12.1186 15.1393 12.118 15.1462 12.1172 15.1539C12.0927 15.3783 11.9927 15.5347 11.8577 15.6026C11.7635 15.6499 11.6691 15.6415 11.631 15.5889C11.6307 15.5782 11.6298 15.5675 11.6284 15.5561C11.6473 15.6241 11.7481 15.6428 11.8516 15.5908C11.9825 15.5249 12.08 15.3724 12.104 15.1524C12.1048 15.1448 12.1054 15.1381 12.1065 15.1252L12.1066 15.1238C12.1111 15.0669 12.1159 15.042 12.1349 15.0224C11.777 14.8341 11.4828 14.5844 11.2129 14.1899C10.9327 13.7804 10.5121 13.4666 10.1739 13.4373L10.1704 13.4258L10.2479 13.3608C10.4216 13.379 10.6153 13.4698 10.7967 13.6179C10.815 13.5964 10.8251 13.5844 10.8354 13.5715C10.8625 13.5374 10.8813 13.5083 10.8921 13.4808C10.9111 13.4327 10.9034 13.3944 10.8624 13.3648L10.8695 13.3541C10.8697 13.3542 10.8698 13.3543 10.87 13.3544L10.8631 13.3648C10.8781 13.3759 10.8932 13.3876 10.9084 13.3998ZM11.6417 14.3138C11.6458 14.3607 11.6024 14.4113 11.5199 14.469C11.4342 14.3723 11.3521 14.2648 11.2735 14.1456C11.1797 14.0032 11.0667 13.868 10.9442 13.743C11.0406 13.638 11.0832 13.5561 11.035 13.5114C10.9918 13.4701 10.9498 13.4329 10.9084 13.3998C10.903 13.3865 10.894 13.3742 10.8815 13.363C10.934 13.4027 10.9874 13.4489 11.0426 13.5016C11.0994 13.5545 11.0545 13.641 10.9521 13.7427C11.075 13.859 11.1887 13.9949 11.283 14.1382C11.3613 14.2569 11.443 14.3638 11.52 14.4592C11.615 14.3866 11.6521 14.3287 11.6126 14.2784L11.6222 14.2701C11.6223 14.2702 11.6224 14.2703 11.6225 14.2704L11.6133 14.2784C11.6227 14.2904 11.6322 14.3022 11.6417 14.3138ZM12.4835 14.6445C12.3747 14.6642 12.3289 14.7014 12.282 14.7866C12.2814 14.7877 12.2807 14.789 12.2799 14.7905C12.272 14.805 12.2538 14.8386 12.2497 14.8346C12.2641 14.8441 12.2653 14.8585 12.2559 14.875C12.2492 14.8867 12.2384 14.8986 12.2189 14.9175L12.2132 14.923C12.1797 14.9552 12.1691 14.9673 12.1685 14.9771L12.1593 14.9825C11.9592 14.8701 11.7833 14.7405 11.616 14.561C11.7065 14.4919 11.7406 14.4345 11.7006 14.3837C11.6806 14.3608 11.661 14.3376 11.6417 14.3138C11.6406 14.3021 11.6366 14.2906 11.6295 14.2793C11.6556 14.3122 11.6819 14.3437 11.7093 14.3751C11.7563 14.4348 11.7184 14.4984 11.6232 14.5616C11.7883 14.7282 11.9611 14.8559 12.1573 14.9669C12.1617 14.9551 12.1743 14.9419 12.204 14.9134L12.2097 14.9079C12.2283 14.8899 12.2386 14.8785 12.2444 14.8683C12.2507 14.8573 12.2502 14.8509 12.2402 14.837C12.2408 14.8358 12.2428 14.832 12.2456 14.8268C12.2531 14.8126 12.2659 14.7883 12.2705 14.7801C12.324 14.6828 12.3776 14.6447 12.5158 14.6261L12.5193 14.6385C12.5189 14.6387 12.5186 14.6389 12.5182 14.6391L12.5147 14.6267C12.5037 14.6322 12.4933 14.6381 12.4835 14.6445ZM11.606 16.5071C11.5906 16.5814 11.5726 16.6696 11.567 16.7014C11.5502 16.7981 11.5455 16.8672 11.5535 16.9277C11.5753 17.0903 11.7791 17.1519 11.9298 16.9733C12.1007 16.7709 12.165 16.6125 12.2577 16.2535C12.3437 15.9206 12.4029 15.7708 12.5519 15.5854C12.6523 15.4604 12.7072 15.3589 12.7145 15.2682C12.7231 15.1603 12.6619 15.0711 12.5164 14.9994C12.4983 14.9906 12.4953 14.9891 12.4669 14.9748L12.4665 14.9746C12.4525 14.9676 12.4423 14.9626 12.4277 14.9554C12.3271 14.8946 12.3495 14.7316 12.4835 14.6445C12.4944 14.6425 12.5059 14.6407 12.5182 14.6391C12.3661 14.7158 12.3352 14.8848 12.4327 14.9438C12.4469 14.9507 12.4571 14.9557 12.4711 14.9628L12.4716 14.963C12.4999 14.9773 12.5029 14.9787 12.5209 14.9876C12.6708 15.0614 12.7353 15.1553 12.7262 15.2693C12.7186 15.3634 12.6626 15.4669 12.5607 15.5939C12.4132 15.7774 12.3546 15.9258 12.269 16.257C12.1758 16.6178 12.1109 16.7777 11.9384 16.982C11.7807 17.1689 11.5637 17.1033 11.5404 16.9295C11.5321 16.8673 11.5369 16.797 11.554 16.6991C11.5617 16.6551 11.5929 16.5047 11.6084 16.4303C11.6129 16.4087 11.616 16.3935 11.6169 16.3893L11.6176 16.3894C11.6063 16.434 11.6027 16.4737 11.606 16.5071ZM12.0036 15.6788C12.0347 15.7338 12.089 15.7857 12.1553 15.825C12.144 15.8696 12.1415 15.8808 12.1167 15.9899C12.067 16.2093 12.0331 16.3141 11.964 16.4254C11.8812 16.5588 11.7785 16.631 11.6988 16.621C11.6455 16.6143 11.6125 16.5728 11.606 16.5071C11.6107 16.4844 11.6151 16.4629 11.6189 16.4448C11.607 16.5402 11.6386 16.6004 11.6995 16.608C11.7737 16.6173 11.8723 16.548 11.9528 16.4183C12.0209 16.3086 12.0544 16.2048 12.1038 15.9869C12.1286 15.8776 12.1312 15.8664 12.1458 15.8293C12.0827 15.7972 12.0281 15.7461 11.9969 15.6838C11.8317 15.8023 11.6002 15.7844 11.6105 15.6901C11.6111 15.6831 11.6119 15.6766 11.6135 15.6626C11.6189 15.6158 11.6197 15.5871 11.614 15.5486L11.6263 15.5466C11.6264 15.5466 11.6264 15.5467 11.6264 15.5467L11.6148 15.5487C11.6172 15.5641 11.6228 15.5775 11.631 15.5889C11.6317 15.6115 11.6301 15.6343 11.6267 15.6642C11.625 15.6782 11.6243 15.6845 11.6236 15.6915C11.6151 15.7698 11.8333 15.7864 11.9915 15.6723C11.9917 15.6722 11.9919 15.6721 11.9921 15.6719C12 15.6662 12.008 15.6594 12.0161 15.6517C12.0294 15.6391 12.043 15.6239 12.0564 15.607C12.0658 15.595 12.0752 15.5821 12.0844 15.5685C12.126 15.5069 12.1633 15.4317 12.1843 15.3652L12.1961 15.3651C12.2392 15.4918 12.2406 15.5635 12.1922 15.6792C12.1542 15.658 12.1164 15.6219 12.0896 15.5836C12.0921 15.5801 12.094 15.5775 12.0947 15.5764L12.0936 15.5764L12.0846 15.5762C12.0861 15.5784 12.0876 15.5806 12.0892 15.5829C12.0893 15.5831 12.0895 15.5833 12.0896 15.5836C12.089 15.5845 12.0883 15.5855 12.0876 15.5865C12.0818 15.5946 12.0742 15.6053 12.0709 15.6097C12.0608 15.6234 12.0514 15.6348 12.0411 15.6458C12.0341 15.6532 12.0268 15.6602 12.0194 15.6655C12.0133 15.6698 12.0072 15.6729 12.0011 15.6741C12.0019 15.6757 12.0028 15.6772 12.0036 15.6788ZM12.0964 15.5721C12.1223 15.6103 12.1596 15.6468 12.1885 15.6712C12.2252 15.5673 12.2258 15.5001 12.1895 15.3872C12.1679 15.4488 12.1341 15.5157 12.0964 15.5721ZM11.6189 16.4448C11.621 16.4283 11.6243 16.4108 11.629 16.3923L11.6176 16.3894C11.6176 16.3893 11.6177 16.3891 11.6177 16.3889L11.6298 16.3919C11.629 16.3962 11.6258 16.4116 11.6213 16.4335C11.6205 16.4371 11.6197 16.4409 11.6189 16.4448ZM12.5182 14.6391C12.5182 14.6391 12.5182 14.6391 12.5182 14.6391L12.5182 14.6391C12.5182 14.6391 12.5182 14.6391 12.5182 14.6391ZM11.6295 14.2793C11.6272 14.2763 11.6248 14.2734 11.6225 14.2704L11.623 14.27C11.6254 14.2731 11.6275 14.2762 11.6295 14.2793ZM10.8815 13.363C10.8776 13.3601 10.8738 13.3572 10.87 13.3544L10.8702 13.354C10.8742 13.3569 10.878 13.3599 10.8815 13.363ZM11.6264 15.5467L11.6271 15.5466C11.6276 15.5498 11.628 15.553 11.6284 15.5561C11.6276 15.5531 11.6269 15.55 11.6264 15.5467Z" fill="black"/>
<path fill-rule="evenodd" clip-rule="evenodd" d="M12.5348 14.4645L12.4362 14.3394L12.4254 14.3421L12.3894 14.5052L12.2345 14.5037L12.2297 14.5143L12.3296 14.6456L12.2323 14.7709L12.2372 14.7814L12.3974 14.7825L12.4293 14.9404L12.4402 14.943L12.5408 14.8121L12.6798 14.8836L12.6885 14.8761L12.6521 14.7128L12.7926 14.6438L12.7925 14.6321L12.6479 14.5586L12.6853 14.4013L12.6765 14.394L12.5348 14.4645ZM12.6704 14.4115L12.5358 14.4784L12.5283 14.4767L12.4344 14.3575L12.4375 14.3449L12.4266 14.3476L12.4344 14.3575L12.3956 14.5131L12.2469 14.5164L12.2395 14.506L12.2347 14.5167L12.2469 14.5164L12.3394 14.6454L12.2495 14.7687L12.2372 14.7682L12.2422 14.7788L12.2495 14.7687L12.4036 14.7743L12.4385 14.9248L12.4305 14.9346L12.4414 14.9372L12.4385 14.9248L12.5385 14.8019L12.6738 14.8663L12.6763 14.879L12.685 14.8716L12.6738 14.8663L12.6432 14.7083L12.7761 14.6378L12.787 14.6437L12.7869 14.632L12.7761 14.6378L12.639 14.5629L12.6704 14.4115ZM12.6704 14.4115L12.6819 14.4058L12.6731 14.3984L12.6704 14.4115Z" fill="black"/>
<path fill-rule="evenodd" clip-rule="evenodd" d="M12.0502 11.0192C12.3807 10.9185 12.6588 10.6326 12.7227 10.3246L12.7309 10.3198C13.1131 10.4604 13.4543 10.6467 13.769 10.8702C13.8995 10.9629 13.9774 11.0001 14.2064 11.0929C14.3155 11.1371 14.3798 11.1666 14.4451 11.2057C14.3252 10.8666 14.4036 10.3507 14.6299 9.89999C14.8977 9.36683 14.9519 8.96512 14.9181 8.3848C14.8994 8.06219 15.0601 7.98204 15.3983 8.04558C15.6189 8.08707 15.7764 8.06654 16.0739 7.98405L16.0969 7.97764C16.4343 7.8839 16.6013 7.86304 16.8544 7.91738C17.0874 7.96734 17.1418 8.19759 17.01 8.30548C16.9601 8.3464 16.8957 8.37832 16.7964 8.41451C16.7651 8.4259 16.6686 8.45826 16.5989 8.48165L16.5989 8.48166L16.5264 8.50607L16.516 8.50979C16.5262 8.50325 16.535 8.4956 16.5423 8.48697L16.5953 8.4691L16.5953 8.4691L16.5954 8.46906C16.6652 8.44568 16.7612 8.41346 16.7923 8.40214C16.8905 8.36639 16.9537 8.335 17.0023 8.29516C17.1256 8.19421 17.0746 7.97798 16.8519 7.93024C16.6011 7.8764 16.4358 7.89706 16.1001 7.99032L16.0771 7.99673C15.778 8.07968 15.619 8.1004 15.3961 8.0585C15.0647 7.99623 14.9125 8.07216 14.9306 8.38402C14.9645 8.96652 14.9099 9.37049 14.641 9.90611C14.4123 10.3616 14.3357 10.8837 14.4631 11.2183L14.4541 11.2263C14.3839 11.1829 14.319 11.1526 14.2019 11.1052C13.9721 11.012 13.8935 10.9745 13.762 10.8811C13.45 10.6594 13.1119 10.4745 12.7334 10.3346L12.7349 10.3274L12.7267 10.3322L12.7334 10.3346C12.6656 10.6448 12.3858 10.9306 12.0578 11.0277C11.9735 11.2753 12.1075 11.6848 12.3327 11.9265C12.4543 11.9853 12.5807 12.0342 12.7123 12.0741C13.1178 12.1971 13.4499 12.2238 14.1098 12.2255C14.4486 12.2263 14.5807 12.2311 14.722 12.2547C14.9464 12.2923 15.2534 12.1104 15.2926 11.8306C15.2991 11.7841 15.3083 11.7416 15.3218 11.6928C15.3302 11.6627 15.3669 11.5426 15.3634 11.5544C15.382 11.4922 15.3966 11.4377 15.4109 11.3748C15.4572 11.1703 15.4911 10.9062 15.5132 10.5268C15.5217 10.3806 15.524 10.3227 15.5351 10.0105C15.5489 9.61943 15.5618 9.46058 15.5976 9.34893C15.6911 9.05762 15.7659 8.92683 15.9235 8.86023C15.9867 8.83354 16.0452 8.80148 16.1095 8.75947L16.1115 8.76547L16.1196 8.76825C16.0534 8.81179 15.9932 8.84487 15.9282 8.87237C15.7751 8.93703 15.7018 9.06532 15.6094 9.3531C15.5741 9.46299 15.5613 9.62159 15.5475 10.0109C15.5365 10.3233 15.5342 10.3812 15.5257 10.5276C15.5035 10.9077 15.4695 11.1725 15.423 11.3778C15.4087 11.441 15.394 11.4958 15.3753 11.5583C15.3787 11.5467 15.3421 11.6665 15.3338 11.6965C15.3204 11.7447 15.3113 11.7867 15.3049 11.8325C15.2646 12.1203 14.9507 12.3062 14.72 12.2677C14.5797 12.2442 14.4478 12.2394 14.1098 12.2386C13.4488 12.2369 13.1158 12.2101 12.7088 12.0867C12.5766 12.0466 12.4497 11.9975 12.3256 11.937C12.0956 11.6907 11.9599 11.2763 12.0502 11.0192ZM16.132 8.76003L16.1196 8.76825L16.1209 8.76869C16.1248 8.76592 16.1285 8.76303 16.132 8.76003ZM16.1625 8.72352C16.1547 8.73707 16.1446 8.74928 16.132 8.76003C16.1529 8.74606 16.1744 8.73105 16.1969 8.71485C16.2095 8.70578 16.2373 8.68537 16.2633 8.66623L16.2656 8.66728C16.275 8.66025 16.2835 8.65305 16.2913 8.64562L16.3178 8.62615C16.3631 8.59335 16.3979 8.56996 16.4317 8.55044C16.4515 8.53898 16.4706 8.52913 16.4892 8.52082L16.4916 8.52215C16.5005 8.51865 16.5087 8.51451 16.516 8.50979C16.5072 8.51311 16.4982 8.51678 16.4892 8.52082L16.4816 8.51655L16.4812 8.51018C16.4858 8.50809 16.4904 8.5061 16.4949 8.50419L16.495 8.50597C16.4921 8.50741 16.489 8.50876 16.4858 8.51002L16.4957 8.51562L16.495 8.50597C16.4992 8.50394 16.5032 8.50172 16.5069 8.49933C16.5121 8.49731 16.5173 8.49542 16.5225 8.49363L16.5423 8.48697C16.598 8.42095 16.569 8.29813 16.4715 8.18494L16.4588 8.18942L16.4812 8.51018C16.4632 8.51837 16.4448 8.52795 16.4257 8.53898C16.3949 8.5568 16.3632 8.57773 16.3239 8.60587C16.3767 8.51946 16.3426 8.39921 16.2026 8.18724L16.1913 8.19191L16.2549 8.6564C16.2293 8.67527 16.2023 8.69516 16.1899 8.70405L16.1625 8.72352ZM16.1243 8.74967C16.1367 8.74134 16.1495 8.73263 16.1625 8.72352C16.2198 8.62321 16.1454 8.44961 15.9504 8.25441L15.9402 8.26136L16.1095 8.75947L16.1203 8.75232L16.1205 8.75284L16.1139 8.75782L16.1233 8.76104L16.1205 8.75284L16.1243 8.74967ZM15.961 8.2834C16.1619 8.49162 16.2185 8.66839 16.1243 8.74967L16.1203 8.75232L15.961 8.2834ZM15.961 8.2834L15.9418 8.26387L15.952 8.25692L15.961 8.2834ZM16.2664 8.64798L16.2549 8.6564L16.2558 8.66289L16.2633 8.66623L16.2768 8.65628L16.2772 8.65602L16.2772 8.65601L16.2913 8.64562C16.3044 8.6331 16.3153 8.61993 16.3239 8.60587L16.3107 8.61538L16.2838 8.63516C16.3679 8.55371 16.3524 8.44296 16.2075 8.21801L16.2037 8.19017L16.1924 8.19484L16.2075 8.21801L16.2664 8.64798ZM16.2667 8.65027C16.2728 8.64534 16.2785 8.64031 16.2838 8.63516L16.2699 8.64538L16.2699 8.6454L16.2664 8.64798L16.2667 8.65027ZM16.2667 8.65027L16.2584 8.65676L16.2682 8.66115L16.2667 8.65027ZM16.4744 8.21022L16.4949 8.50419C16.4989 8.5025 16.5029 8.50088 16.5069 8.49933C16.5836 8.45041 16.5678 8.3282 16.4744 8.21022ZM16.4744 8.21022L16.4728 8.18849L16.4601 8.19297C16.465 8.19871 16.4698 8.20446 16.4744 8.21022Z" fill="black"/>
<path fill-rule="evenodd" clip-rule="evenodd" d="M12.5227 10.8558C12.493 10.8427 12.4618 10.8299 12.4289 10.8175L12.427 10.8063C12.435 10.7991 12.4452 10.7895 12.4556 10.7797C12.47 10.7661 12.4849 10.752 12.4957 10.7428C12.512 10.7494 12.5279 10.7562 12.5434 10.763C12.6643 10.8161 12.7171 10.8481 12.877 10.9558C13.0687 11.0849 13.2013 11.1454 13.4748 11.205C13.8001 11.276 14.2127 11.4294 14.4059 11.5496L14.3783 11.6334C14.1889 11.5209 13.7776 11.368 13.4537 11.2974C13.1785 11.2374 13.0446 11.1763 12.8516 11.0463C12.6933 10.9397 12.6414 10.9082 12.5227 10.8558ZM12.4351 10.8163L12.4332 10.8051C12.4365 10.8064 12.4398 10.8077 12.4432 10.809C12.4403 10.8116 12.4376 10.814 12.4351 10.8163ZM12.4982 10.7532C12.4875 10.7661 12.4623 10.7912 12.4432 10.809C12.4726 10.8203 12.5006 10.8319 12.5275 10.8437C12.6471 10.8965 12.6994 10.9283 12.8584 11.0353C13.0501 11.1645 13.1827 11.2249 13.4562 11.2846C13.7813 11.3554 14.1938 11.5088 14.3753 11.6261L14.3968 11.5538C14.2077 11.4415 13.7963 11.2885 13.4722 11.2178C13.1971 11.1579 13.0632 11.0967 12.8703 10.9668C12.711 10.8595 12.6586 10.8278 12.5386 10.7751C12.5378 10.7747 12.5369 10.7743 12.5361 10.774C12.5215 10.7676 12.5069 10.7612 12.4982 10.7532Z" fill="black"/>
<path fill-rule="evenodd" clip-rule="evenodd" d="M15.0346 9.41748C15.0347 9.41741 15.0347 9.41734 15.0347 9.41727L15.0209 9.41394L14.9792 9.5514L14.9929 9.55508C14.9929 9.55503 14.9929 9.55498 14.9929 9.55494L14.9929 9.55494L14.993 9.55475C15.009 9.50673 15.0228 9.46139 15.0346 9.41758L15.0346 9.41748L15.0346 9.41748ZM15.0346 9.41748L15.0208 9.41415C15.009 9.45791 14.9953 9.50323 14.9792 9.55126L14.9929 9.55494C14.9929 9.55487 14.993 9.55481 14.993 9.55475L15.0346 9.41758C15.0346 9.41755 15.0346 9.41751 15.0346 9.41748ZM12.8574 10.5271C12.8068 10.5074 12.7496 10.478 12.6941 10.4437L12.6913 10.4359L12.6982 10.4138C12.708 10.3822 12.7192 10.346 12.7309 10.3198C13.1131 10.4604 13.4544 10.6467 13.769 10.8702C13.8995 10.9629 13.9774 11.0002 14.2064 11.0929C14.3241 11.1406 14.3896 11.1711 14.4627 11.224L14.3844 11.3504C14.2866 11.2903 14.0452 11.1821 13.8662 11.1135C13.8655 11.132 13.8573 11.1533 13.8423 11.1809C13.8388 11.1872 13.8352 11.1936 13.8302 11.2022C13.8067 11.2425 13.802 11.2512 13.7979 11.2652C13.793 11.282 13.7965 11.2907 13.8115 11.2954L13.808 11.308L13.8079 11.3079L13.8114 11.2953L13.7849 11.2875C13.7826 11.2802 13.783 11.2715 13.786 11.2614C13.7906 11.2457 13.7952 11.2371 13.8195 11.1954C13.8245 11.1869 13.8281 11.1806 13.8314 11.1744C13.8481 11.1439 13.8555 11.1221 13.8534 11.1048L13.8618 11.0979C14.0422 11.1665 14.2905 11.2775 14.3821 11.3414L14.4541 11.2264C14.3839 11.1829 14.319 11.1526 14.2019 11.1052C13.9721 11.0121 13.8935 10.9745 13.762 10.8811C13.4482 10.6582 13.1079 10.4724 12.7349 10.3276C12.7286 10.3546 12.7157 10.3999 12.7048 10.435L12.7004 10.4324L12.7032 10.4401L12.7048 10.435C12.7583 10.4678 12.8133 10.4961 12.8655 10.5228L12.8633 10.53L12.8574 10.5271ZM13.0264 10.6086L13.0264 10.6057L13.0346 10.5992C13.1354 10.6342 13.2295 10.6848 13.3517 10.7639L13.356 10.7667L13.356 10.7668C13.3806 10.783 13.5007 10.8622 13.5349 10.8832C13.5992 10.9228 13.6493 10.9476 13.6993 10.9686C13.6938 10.9905 13.6836 11.0144 13.6685 11.0422C13.6608 11.0564 13.6523 11.0709 13.6408 11.0898L13.6402 11.0908L13.6402 11.0908C13.6025 11.1523 13.595 11.1645 13.5895 11.1776L13.5851 11.1888C13.575 11.2158 13.5787 11.2293 13.5995 11.2348C13.6225 11.24 13.6605 11.2508 13.7241 11.2695L13.7289 11.271L13.7722 11.2838L13.7849 11.2875C13.7878 11.2969 13.7952 11.3039 13.8074 11.3078L13.7688 11.2964L13.7256 11.2836L13.7207 11.2821C13.6574 11.2634 13.6195 11.2527 13.5967 11.2475C13.5672 11.2398 13.5609 11.2175 13.5735 11.184L13.5738 11.1831C13.5755 11.1787 13.5768 11.1752 13.5783 11.1718C13.5839 11.1583 13.5917 11.1457 13.6294 11.0841L13.6303 11.0827C13.6417 11.064 13.6501 11.0497 13.6577 11.0358C13.6629 11.0261 13.6675 11.017 13.6717 11.0086L13.6717 11.0086L13.6717 11.0086L13.6717 11.0086L13.6717 11.0086C13.6793 10.9937 13.6855 10.9814 13.6916 10.9733C13.6448 10.9598 13.5938 10.9346 13.5286 10.8946C13.494 10.8733 13.3727 10.7932 13.3491 10.7776L13.3451 10.775C13.2268 10.6984 13.1351 10.6488 13.0383 10.6143L13.0264 10.6086ZM12.814 10.9138C12.7582 10.8772 12.7066 10.8446 12.6873 10.8344C12.6678 10.8244 12.6679 10.8082 12.6864 10.7788C12.6946 10.7658 12.7059 10.751 12.7227 10.7311L12.7487 10.7007L12.7704 10.6752C12.8156 10.6218 12.8428 10.5826 12.8586 10.5432C12.8603 10.5387 12.8619 10.5343 12.8633 10.53L13.0264 10.6086C13.0248 10.6306 12.999 10.6641 12.922 10.752L12.9164 10.7584C12.8728 10.8083 12.8499 10.8365 12.8335 10.8628C12.8207 10.8832 12.8138 10.9003 12.814 10.9138ZM12.814 10.9138L12.8339 10.9268L12.8272 10.9379L12.8272 10.9379C12.8184 10.9321 12.8142 10.924 12.814 10.9138ZM13.8074 11.3078L13.8079 11.3079L13.8079 11.3079L13.8074 11.3078ZM15.5021 10.8861C15.5111 10.8068 15.4187 10.7515 15.2471 10.716C15.1098 10.6876 14.9257 10.6731 14.7304 10.6714L14.7288 10.6843L15.4943 10.8917L15.5021 10.8861ZM15.4902 10.877L15.4974 10.879L15.4897 10.8846C15.49 10.882 15.4901 10.8795 15.4902 10.877ZM14.7823 10.6853C14.9573 10.6889 15.1205 10.7031 15.2447 10.7288C15.404 10.7618 15.491 10.8116 15.4902 10.877L14.7823 10.6853ZM14.7823 10.6853C14.7651 10.6849 14.7477 10.6847 14.7303 10.6845L14.7319 10.6716L14.7823 10.6853ZM14.694 10.437L14.694 10.4367L14.694 10.4367L14.6941 10.4363L14.6801 10.4339C14.6653 10.4975 14.6539 10.5631 14.6455 10.6304L14.6597 10.6322L14.6597 10.6319L14.6597 10.6319L14.6598 10.6316L14.694 10.437ZM14.694 10.437C14.6794 10.5 14.668 10.5649 14.6598 10.6316L14.6597 10.6319L14.6456 10.6302L14.68 10.4343L14.694 10.4367L14.694 10.437Z" fill="black"/>
<path fill-rule="evenodd" clip-rule="evenodd" d="M14.9142 9.97305C14.7164 10.4326 14.6679 10.972 14.8129 11.2941L14.8051 11.3031L14.7127 11.2652C14.6409 11.098 14.619 10.8764 14.6505 10.6375L14.6189 10.6307C14.593 10.6253 14.5726 10.6217 14.5528 10.6196C14.4641 10.6099 14.4142 10.6327 14.4088 10.7044L14.4088 10.7044C14.4105 10.6849 14.4126 10.6651 14.4151 10.6449C14.4399 10.6099 14.4877 10.5993 14.554 10.6066C14.5743 10.6088 14.5951 10.6124 14.6214 10.6179C14.6286 10.6194 14.6511 10.6243 14.6579 10.6319C14.6316 10.8758 14.6533 11.095 14.7205 11.2564L14.7953 11.2853C14.7973 11.2902 14.7994 11.295 14.8016 11.2997L14.8094 11.2908L14.7953 11.2853C14.6562 10.9578 14.7066 10.4236 14.9028 9.96767C15.0924 9.52689 15.151 9.13652 15.1337 8.71234C15.1626 8.71286 15.1847 8.70517 15.2301 8.68281L15.2322 8.68175C15.2447 8.67561 15.2505 8.67281 15.2576 8.66957C15.4548 8.57968 15.6339 8.5924 15.7573 8.68116C15.8431 8.74284 15.8833 8.83234 15.8597 8.89324C15.849 8.90014 15.8395 8.90768 15.8264 8.91876L15.8342 8.92894C15.8342 8.92895 15.8342 8.92896 15.8342 8.92896L15.8264 8.91878C15.883 8.87024 15.8492 8.76311 15.7503 8.69196C15.6305 8.60583 15.456 8.59343 15.2626 8.68159C15.2556 8.68476 15.2499 8.68752 15.2376 8.6936L15.2354 8.69466C15.1884 8.71784 15.1649 8.72599 15.1398 8.71848C15.1636 9.13774 15.1047 9.53022 14.9142 9.97305ZM15.8346 8.92867C15.8462 8.91864 15.8545 8.90663 15.8597 8.89324C15.8766 8.88228 15.8966 8.8729 15.9393 8.85346L15.9476 8.8496C16.0166 8.81805 15.921 8.61095 15.7473 8.52433C15.6688 8.4851 15.5108 8.47852 15.3982 8.50282L15.3921 8.49215C15.4753 8.38956 15.5337 8.35253 15.6533 8.33868C15.6548 8.38397 15.6439 8.43632 15.6256 8.47974L15.6172 8.47868L15.6174 8.47905L15.622 8.488C15.6232 8.48535 15.6244 8.48265 15.6256 8.47991C15.6256 8.47986 15.6256 8.4798 15.6256 8.47974L15.6301 8.48031C15.6655 8.48458 15.6889 8.48839 15.7089 8.4958C15.7214 8.50047 15.7326 8.50656 15.7446 8.51509C15.7456 8.5134 15.7465 8.51169 15.7474 8.50995C15.7771 8.45414 15.7927 8.37904 15.792 8.29925C15.825 8.28991 15.8573 8.28014 15.9034 8.26573C16.0503 8.21986 16.0755 8.21237 16.138 8.19792C16.2271 8.17732 16.3054 8.16871 16.3829 8.1731C16.5343 8.18169 16.6452 8.23897 16.6769 8.31649C16.698 8.36813 16.6804 8.41889 16.6296 8.4576C16.6178 8.46158 16.6062 8.46545 16.5953 8.4691C16.5834 8.47309 16.5723 8.47681 16.5624 8.48013C16.6534 8.44355 16.6904 8.38278 16.6654 8.32164C16.6359 8.24957 16.5294 8.19453 16.3822 8.18618C16.306 8.18185 16.2288 8.19034 16.1407 8.2107C16.0786 8.22505 16.0535 8.23252 15.907 8.27828C15.8608 8.29272 15.8284 8.30251 15.7999 8.30508C15.805 8.37856 15.7902 8.45368 15.7543 8.5133C15.9347 8.60429 16.0356 8.82361 15.9527 8.86156L15.9443 8.86547C15.876 8.89656 15.867 8.9013 15.8346 8.92867ZM15.6125 8.47857C15.6311 8.43612 15.6425 8.38395 15.6481 8.34536C15.5441 8.36395 15.4885 8.39689 15.4133 8.48646C15.475 8.47528 15.5471 8.47254 15.6125 8.47857ZM16.5624 8.48013C16.5441 8.4863 16.5299 8.49108 16.5228 8.49351C16.537 8.48953 16.5502 8.48505 16.5624 8.48013ZM16.5663 8.49259C16.5911 8.48263 16.6123 8.47082 16.6296 8.4576C16.6935 8.43615 16.7661 8.4117 16.7923 8.40214C16.8905 8.36639 16.9537 8.335 17.0023 8.29516C17.1256 8.19421 17.0746 7.97798 16.8519 7.93024C16.6011 7.8764 16.4358 7.89706 16.1001 7.99032L16.0771 7.99673C15.778 8.07968 15.619 8.1004 15.3961 8.0585C15.2428 8.02969 15.1316 8.03052 15.0532 8.06925C14.9598 8.11535 14.9169 8.21569 14.9306 8.38386L14.9347 8.43846L14.9349 8.44118C14.9361 8.45694 14.9371 8.46914 14.9386 8.48644C14.9386 8.60836 14.7932 8.66941 14.6545 8.59123C14.6473 8.58225 14.6399 8.5726 14.6324 8.56226L14.6239 8.57162C14.634 8.57894 14.6442 8.58546 14.6545 8.59123C14.6954 8.64237 14.7321 8.6722 14.7703 8.6877C14.8062 8.70224 14.8335 8.70439 14.9092 8.70289C14.9214 8.70266 14.9268 8.70256 14.9279 8.70881C14.9285 8.69013 14.9406 8.68198 14.9602 8.68295C14.9738 8.68363 14.9888 8.68761 15.0167 8.69687L15.0204 8.69809C15.0621 8.71194 15.0777 8.7155 15.086 8.71123L15.095 8.71689C15.1024 8.95474 15.0835 9.17973 15.0191 9.42171C14.9166 9.37404 14.8525 9.37168 14.8305 9.43341C14.8214 9.46349 14.8121 9.49279 14.8023 9.52188C14.7909 9.53036 14.7821 9.54286 14.776 9.55968C14.7913 9.51676 14.8052 9.47396 14.8187 9.42913C14.8445 9.35661 14.9156 9.35923 15.0156 9.41413C15.0704 9.18065 15.0895 8.95938 15.0828 8.72581C15.0709 8.7276 15.0536 8.72287 15.0167 8.71057L15.013 8.70936C14.9861 8.70046 14.9717 8.69663 14.9597 8.69603C14.9462 8.69536 14.9407 8.69907 14.9342 8.71557L14.9094 8.71598C14.8321 8.71751 14.8037 8.71528 14.7658 8.69991C14.7184 8.6807 14.674 8.64114 14.6225 8.57018L14.631 8.56082C14.7706 8.66186 14.9261 8.6055 14.9261 8.48703C14.9247 8.47027 14.9237 8.458 14.9225 8.44218L14.9223 8.43946L14.9182 8.38496C14.9041 8.21176 14.9493 8.10606 15.0478 8.05737C15.1292 8.01717 15.2426 8.01633 15.3983 8.04558C15.6189 8.08707 15.7764 8.06654 16.0739 7.98405L16.097 7.97764C16.4343 7.8839 16.6013 7.86304 16.8544 7.91738C17.0875 7.96734 17.1418 8.19759 17.01 8.30548C16.9601 8.3464 16.8958 8.37832 16.7964 8.41451C16.7651 8.4259 16.6686 8.45826 16.5989 8.48166C16.5871 8.4856 16.5761 8.4893 16.5663 8.49259ZM14.7873 9.56531C14.7925 9.55084 14.7975 9.53639 14.8023 9.52188C14.8389 9.49469 14.9023 9.50894 14.9911 9.5551C14.9543 9.68135 14.9067 9.80986 14.8477 9.94088C14.7772 10.0973 14.7221 10.2676 14.6803 10.4416C14.5457 10.4064 14.4566 10.4086 14.4437 10.4748C14.4314 10.5347 14.4218 10.5911 14.4151 10.6449C14.4053 10.6587 14.3991 10.6763 14.3968 10.6982C14.4032 10.6277 14.4149 10.553 14.4315 10.4721C14.4467 10.394 14.5409 10.3916 14.6757 10.4339C14.7101 10.2638 14.7655 10.0925 14.8364 9.93526C14.8952 9.80481 14.9425 9.67689 14.9827 9.55915C14.8753 9.50918 14.809 9.50426 14.7873 9.56531L14.7873 9.56531ZM14.7873 9.56531C14.7873 9.56531 14.7873 9.56532 14.7873 9.56532L14.7756 9.56074C14.7757 9.56038 14.7759 9.56003 14.776 9.55968C14.7759 9.56003 14.7757 9.56037 14.7756 9.56072L14.7873 9.56531ZM16.5663 8.49259C16.5538 8.49761 16.5404 8.50216 16.5261 8.50619L16.5225 8.49363C16.5226 8.49359 16.5227 8.49355 16.5228 8.49351L16.5264 8.50607C16.5333 8.50368 16.5476 8.49886 16.5663 8.49259ZM15.8346 8.92867C15.8345 8.92876 15.8344 8.92885 15.8342 8.92894L15.8342 8.92894C15.8344 8.92885 15.8345 8.92876 15.8346 8.92867ZM14.3968 10.6982C14.3967 10.6999 14.3965 10.7016 14.3964 10.7033L14.4088 10.7044C14.4088 10.7044 14.4088 10.7045 14.4088 10.7045L14.3964 10.7034C14.3965 10.7016 14.3967 10.6999 14.3968 10.6982Z" fill="black"/>
</g>
</svg>
