<svg width="24" height="24" viewBox="0 0 24 24" fill="none" xmlns="http://www.w3.org/2000/svg">
<rect x="0.25" y="3.68005" width="23.5" height="16.6429" rx="1.75" fill="white" stroke="#F5F5F5" stroke-width="0.5"/>
<mask id="mask0_14_2258" style="mask-type:luminance" maskUnits="userSpaceOnUse" x="0" y="3" width="24" height="18">
<rect x="0.25" y="3.68005" width="23.5" height="16.6429" rx="1.75" fill="white" stroke="white" stroke-width="0.5"/>
</mask>
<g mask="url(#mask0_14_2258)">
<path fill-rule="evenodd" clip-rule="evenodd" d="M0 9.14434H24V3.43005H0V9.14434Z" fill="#DF1E35"/>
<path fill-rule="evenodd" clip-rule="evenodd" d="M0 20.5729H24V14.8586H0V20.5729Z" fill="#262626"/>
<path fill-rule="evenodd" clip-rule="evenodd" d="M16 10.8266C16 10.5788 16.2608 10.4176 16.4824 10.5284L16.9586 10.7665C17.0715 10.823 17.1429 10.9384 17.1429 11.0647V13.3825C17.1429 13.5666 16.9936 13.7158 16.8095 13.7158H16.3333C16.1492 13.7158 16 13.5666 16 13.3825V10.8266Z" fill="#0F7A40"/>
<path fill-rule="evenodd" clip-rule="evenodd" d="M9.14282 10.8266C9.14282 10.5788 9.40359 10.4176 9.62523 10.5284L10.1014 10.7665C10.2143 10.823 10.2857 10.9384 10.2857 11.0647V13.3825C10.2857 13.5666 10.1364 13.7158 9.95235 13.7158H9.47616C9.29206 13.7158 9.14282 13.5666 9.14282 13.3825V10.8266Z" fill="#0F7A40"/>
<path fill-rule="evenodd" clip-rule="evenodd" d="M13.7144 11.0647C13.7144 10.9384 13.7857 10.823 13.8986 10.7665L14.3748 10.5284C14.5964 10.4176 14.8572 10.5788 14.8572 10.8266V13.3825C14.8572 13.5666 14.708 13.7158 14.5239 13.7158H14.0477C13.8636 13.7158 13.7144 13.5666 13.7144 13.3825V11.0647Z" fill="#0F7A40"/>
<path fill-rule="evenodd" clip-rule="evenodd" d="M11.4287 12.2075C11.4287 12.0812 11.5 11.9658 11.613 11.9094L12.0892 11.6713C12.3108 11.5605 12.5716 11.7216 12.5716 11.9694V12.6241H14.2859V13.7158H12.5716H11.762C11.5779 13.7158 11.4287 13.5665 11.4287 13.3824V12.2075Z" fill="#0F7A40"/>
<path fill-rule="evenodd" clip-rule="evenodd" d="M6.85718 12.2075C6.85718 12.0812 6.92851 11.9658 7.04144 11.9094L7.51763 11.6713C7.73926 11.5605 8.00003 11.7216 8.00003 11.9694V12.6241H9.71432V13.7158H8.00003H7.19051C7.00642 13.7158 6.85718 13.5665 6.85718 13.3824V12.2075Z" fill="#0F7A40"/>
</g>
</svg>
