<svg width="24" height="24" viewBox="0 0 24 24" fill="none" xmlns="http://www.w3.org/2000/svg">
<rect y="3.43005" width="24" height="17.1429" rx="2" fill="white"/>
<mask id="mask0_14_1649" style="mask-type:luminance" maskUnits="userSpaceOnUse" x="0" y="3" width="24" height="18">
<rect y="3.43005" width="24" height="17.1429" rx="2" fill="white"/>
</mask>
<g mask="url(#mask0_14_1649)">
<rect y="3.43005" width="24" height="17.1429" fill="#F22A46"/>
<path fill-rule="evenodd" clip-rule="evenodd" d="M12 14.8587C13.5779 14.8587 14.8571 13.5795 14.8571 12.0016C14.8571 10.4236 13.5779 9.14441 12 9.14441C10.422 9.14441 9.14282 10.4236 9.14282 12.0016C9.14282 13.5795 10.422 14.8587 12 14.8587Z" fill="#FFF04D"/>
<path fill-rule="evenodd" clip-rule="evenodd" d="M10.6012 18.1296L11.9999 16.0418L13.3987 18.1296L13.7529 15.6417L15.919 16.9159L15.1587 14.5206L17.6632 14.7288L15.9389 12.9006L18.2857 12.0015L15.9389 11.1025L17.6632 9.27426L15.1587 9.48248L15.919 7.08716L13.7529 8.3614L13.3987 5.87341L11.9999 7.96129L10.6012 5.87341L10.247 8.3614L8.08087 7.08716L8.84116 9.48248L6.33671 9.27426L8.06101 11.1025L5.71423 12.0015L8.06101 12.9006L6.33671 14.7288L8.84116 14.5206L8.08087 16.9159L10.247 15.6417L10.6012 18.1296ZM15.9999 12.0015C15.9999 14.2106 14.209 16.0015 11.9999 16.0015C9.79076 16.0015 7.9999 14.2106 7.9999 12.0015C7.9999 9.79235 9.79076 8.00149 11.9999 8.00149C14.209 8.00149 15.9999 9.79235 15.9999 12.0015Z" fill="#FFF04D"/>
</g>
</svg>
