<svg width="24" height="24" viewBox="0 0 24 24" fill="none" xmlns="http://www.w3.org/2000/svg">
<rect x="0.25" y="3.67993" width="23.5" height="16.6429" rx="1.75" fill="white" stroke="#F5F5F5" stroke-width="0.5"/>
<mask id="mask0_14_1809" style="mask-type:luminance" maskUnits="userSpaceOnUse" x="0" y="3" width="24" height="18">
<rect x="0.25" y="3.67993" width="23.5" height="16.6429" rx="1.75" fill="white" stroke="white" stroke-width="0.5"/>
</mask>
<g mask="url(#mask0_14_1809)">
<path fill-rule="evenodd" clip-rule="evenodd" d="M0 8.00136H24V3.42993H0V8.00136Z" fill="#FFCB49"/>
<path fill-rule="evenodd" clip-rule="evenodd" d="M0 16.0014H24V11.4299H0V16.0014Z" fill="#DC1D34"/>
<path fill-rule="evenodd" clip-rule="evenodd" d="M0 20.5729H24V16.0015H0V20.5729Z" fill="#4985D4"/>
<path fill-rule="evenodd" clip-rule="evenodd" d="M0 20.5728L11.4286 12.0014L0 3.42993V20.5728Z" fill="#4BA343"/>
<path fill-rule="evenodd" clip-rule="evenodd" d="M4.57152 15.4299C4.86749 15.4299 5.1547 15.3924 5.42866 15.3219C3.94989 14.9413 2.85723 13.5989 2.85723 12.0013C2.85723 10.4037 3.94989 9.06138 5.42866 8.68077C5.1547 8.61026 4.86749 8.57275 4.57152 8.57275C2.67797 8.57275 1.14294 10.1078 1.14294 12.0013C1.14294 13.8949 2.67797 15.4299 4.57152 15.4299ZM6.85728 9.71563C6.85728 10.0312 6.60144 10.2871 6.28585 10.2871C5.97026 10.2871 5.71442 10.0312 5.71442 9.71563C5.71442 9.40004 5.97026 9.14421 6.28585 9.14421C6.60144 9.14421 6.85728 9.40004 6.85728 9.71563ZM6.28585 12.5727C6.60144 12.5727 6.85728 12.3169 6.85728 12.0013C6.85728 11.6857 6.60144 11.4299 6.28585 11.4299C5.97026 11.4299 5.71442 11.6857 5.71442 12.0013C5.71442 12.3169 5.97026 12.5727 6.28585 12.5727ZM6.85728 14.287C6.85728 14.6026 6.60144 14.8585 6.28585 14.8585C5.97026 14.8585 5.71442 14.6026 5.71442 14.287C5.71442 13.9714 5.97026 13.7156 6.28585 13.7156C6.60144 13.7156 6.85728 13.9714 6.85728 14.287Z" fill="white"/>
</g>
</svg>
