<svg width="24" height="24" viewBox="0 0 24 24" fill="none" xmlns="http://www.w3.org/2000/svg">
<rect y="3.43005" width="24" height="17.1429" rx="2" fill="white"/>
<mask id="mask0_14_408" style="mask-type:luminance" maskUnits="userSpaceOnUse" x="0" y="3" width="24" height="18">
<rect y="3.43005" width="24" height="17.1429" rx="2" fill="white"/>
</mask>
<g mask="url(#mask0_14_408)">
<rect y="3.43005" width="24" height="17.1429" fill="#FFBF19"/>
<path fill-rule="evenodd" clip-rule="evenodd" d="M9.14282 4.57288H21.5238C22.2602 4.57288 22.8571 5.16983 22.8571 5.90621V18.0967C22.8571 18.8331 22.2602 19.43 21.5238 19.43H9.14282V4.57288Z" fill="#A52531"/>
<path d="M1.14282 5.90621C1.14282 5.16983 1.73978 4.57288 2.47616 4.57288H4.57139V19.43H2.47615C1.73977 19.43 1.14282 18.8331 1.14282 18.0967V5.90621Z" fill="#03664F"/>
<rect x="4.57141" y="4.57288" width="3.42857" height="14.8571" rx="0.666667" fill="#FF6816"/>
<path fill-rule="evenodd" clip-rule="evenodd" d="M20.5715 6.28713C20.5715 6.60272 20.8273 6.85856 21.1429 6.85856C21.4585 6.85856 21.7144 6.60272 21.7144 6.28713V5.7157H21.1429C20.8273 5.7157 20.5715 5.97154 20.5715 6.28713ZM11.4286 6.28723C11.4286 6.60282 11.1728 6.85866 10.8572 6.85866C10.5416 6.85866 10.2858 6.60282 10.2858 6.28723V5.7158H10.8572C11.1728 5.7158 11.4286 5.97164 11.4286 6.28723ZM21.1429 17.1443C20.8273 17.1443 20.5715 17.4002 20.5715 17.7158C20.5715 18.0314 20.8273 18.2872 21.1429 18.2872H21.7144V17.7158C21.7144 17.4002 21.4585 17.1443 21.1429 17.1443ZM11.4286 17.7158C11.4286 17.4002 11.1728 17.1443 10.8572 17.1443C10.5416 17.1443 10.2858 17.4002 10.2858 17.7158V18.2872H10.8572C11.1728 18.2872 11.4286 18.0314 11.4286 17.7158Z" fill="#FFBF18"/>
<path fill-rule="evenodd" clip-rule="evenodd" d="M13.7142 14.2074C13.7142 13.9359 13.4941 13.7157 13.2226 13.7157C13.1697 13.7157 13.1174 13.7073 13.0676 13.6895C12.737 13.5714 11.4285 13.0721 11.4285 12.5729C11.4285 12.2847 11.5739 11.9965 11.718 11.7816C11.8698 11.5552 11.9295 11.2663 11.8343 11.0109C11.6393 10.4882 11.3513 9.6074 11.4285 9.14432C11.4635 8.93459 11.5841 8.7462 11.7346 8.58572C12.0647 8.23381 12.5714 8.5451 12.5714 9.02762V11.018C12.5714 11.2705 12.714 11.5014 12.9399 11.6143L13.4671 11.8779C13.6147 11.9517 13.7929 11.9228 13.9096 11.8061C14.0946 11.6211 14.044 11.3092 13.81 11.1922L13.1428 10.8586V10.2872C13.4275 10.2872 13.5181 9.90339 13.2634 9.77608L13.1428 9.71575V9.14432H14.0095C14.1863 9.14432 14.3559 9.07408 14.4809 8.94906L14.6618 8.76815C14.7868 8.64313 14.9564 8.57289 15.1332 8.57289H15.5879C15.8404 8.57289 16.0713 8.71556 16.1842 8.94142L16.4479 9.46876C16.5269 9.6269 16.54 9.80998 16.484 9.97772L16.2924 10.5525C16.1485 10.9842 16.4698 11.43 16.9249 11.43H18.6713C18.7902 11.43 18.9043 11.3828 18.9885 11.2987C19.2049 11.0822 19.1457 10.7172 18.8719 10.5803L18.4264 10.3576C18.3338 10.3113 18.2318 10.2872 18.1283 10.2872H17.8095C17.4413 10.2872 17.1428 9.9887 17.1428 9.62051V9.42046C17.1428 9.24365 17.213 9.07408 17.3381 8.94906L17.7142 8.57289V9.14432C17.7142 9.45991 17.9701 9.71575 18.2856 9.71575H19.0165C19.269 9.71575 19.4998 9.85842 19.6128 10.0843L19.9465 10.7517C19.9818 10.8224 20.0043 10.8983 20.0114 10.9771C20.0385 11.279 20.097 12.0877 19.9999 12.5729C19.9234 12.9557 19.7152 13.3113 19.5724 13.5211C19.4843 13.6505 19.4285 13.8016 19.4285 13.9581V15.5649C19.4285 15.806 19.2331 16.0015 18.992 16.0015C18.6675 16.0015 18.4564 15.66 18.6015 15.3697L18.7968 14.9793C18.8347 14.9033 18.8347 14.8139 18.7968 14.738L18.7698 14.684C18.6492 14.4428 18.2856 14.5286 18.2856 14.7983C18.2856 14.838 18.2764 14.8771 18.2587 14.9126L17.8555 15.7189C17.7689 15.8921 17.5919 16.0015 17.3983 16.0015C17.0184 16.0015 16.7713 15.6016 16.9412 15.2618L17.0724 14.9994C17.1187 14.9068 17.1428 14.8047 17.1428 14.7012V14.3824C17.1428 14.0142 16.8443 13.7157 16.4761 13.7157H15.5237C15.1556 13.7157 14.8571 14.0142 14.8571 14.3824V14.7012C14.8571 14.8047 14.833 14.9068 14.7867 14.9994L14.4269 15.7189C14.3403 15.8921 14.1634 16.0015 13.9698 16.0015C13.5898 16.0015 13.3427 15.6016 13.5126 15.2618L13.6438 14.9994C13.6901 14.9068 13.7142 14.8047 13.7142 14.7012V14.2074Z" fill="#FFBF18"/>
</g>
</svg>
