<svg width="24" height="24" viewBox="0 0 24 24" fill="none" xmlns="http://www.w3.org/2000/svg">
<rect x="0.25" y="3.67993" width="23.5" height="16.6429" rx="1.75" fill="white" stroke="#F5F5F5" stroke-width="0.5"/>
<mask id="mask0_14_1124" style="mask-type:luminance" maskUnits="userSpaceOnUse" x="0" y="3" width="24" height="18">
<rect x="0.25" y="3.67993" width="23.5" height="16.6429" rx="1.75" fill="white" stroke="white" stroke-width="0.5"/>
</mask>
<g mask="url(#mask0_14_1124)">
<path fill-rule="evenodd" clip-rule="evenodd" d="M24 3.42993H11.4285V5.71565H24V3.42993ZM24 8.00134H11.4285V10.2871H24V8.00134ZM11.4285 12.5728H24V14.8585H11.4285V12.5728ZM24 17.1442H0V19.4299H24V17.1442Z" fill="#E1244A"/>
<rect y="3.42993" width="11.4286" height="11.4286" fill="#0C3F8E"/>
<path fill-rule="evenodd" clip-rule="evenodd" d="M5.71434 10.4813L3.69907 11.9179L4.44264 9.55735L2.45357 8.08466L4.92839 8.06238L5.71434 5.71558L6.50029 8.06238L8.9751 8.08466L6.98604 9.55735L7.7296 11.9179L5.71434 10.4813Z" fill="white"/>
</g>
</svg>
