<svg width="24" height="24" viewBox="0 0 24 24" fill="none" xmlns="http://www.w3.org/2000/svg">
<rect y="3.43005" width="24" height="17.1429" rx="2" fill="white"/>
<mask id="mask0_14_987" style="mask-type:luminance" maskUnits="userSpaceOnUse" x="0" y="3" width="24" height="18">
<rect y="3.43005" width="24" height="17.1429" rx="2" fill="white"/>
</mask>
<g mask="url(#mask0_14_987)">
<rect y="3.43005" width="24" height="17.1429" fill="#07319C"/>
<path fill-rule="evenodd" clip-rule="evenodd" d="M14.8572 12.0015C14.8572 11.1355 14.8572 10.1237 14.8572 9.33444C14.8572 8.59806 15.4541 8.00146 16.1905 8.00146H19.2381C19.9745 8.00146 20.5715 8.59806 20.5715 9.33444C20.5715 10.1237 20.5715 11.1355 20.5715 12.0015C20.5715 14.8586 17.7143 16.0015 17.7143 16.0015C17.7143 16.0015 14.8572 14.8586 14.8572 12.0015Z" fill="#08B9D6"/>
<mask id="mask1_14_987" style="mask-type:luminance" maskUnits="userSpaceOnUse" x="14" y="8" width="7" height="9">
<path fill-rule="evenodd" clip-rule="evenodd" d="M14.8572 12.0015C14.8572 11.1355 14.8572 10.1237 14.8572 9.33444C14.8572 8.59806 15.4541 8.00146 16.1905 8.00146H19.2381C19.9745 8.00146 20.5715 8.59806 20.5715 9.33444C20.5715 10.1237 20.5715 11.1355 20.5715 12.0015C20.5715 14.8586 17.7143 16.0015 17.7143 16.0015C17.7143 16.0015 14.8572 14.8586 14.8572 12.0015Z" fill="white"/>
</mask>
<g mask="url(#mask1_14_987)">
<path fill-rule="evenodd" clip-rule="evenodd" d="M14.8572 13.7159H20.5715V16.0017H18.2857H17.1429H14.8572L14.8572 13.7159Z" fill="#A63D09"/>
<path fill-rule="evenodd" clip-rule="evenodd" d="M18.2857 9.14429H17.1429V10.2871H16V11.4299H17.1429V13.7157H18.2857V11.4299H19.4286V10.2871H18.2857V9.14429Z" fill="#262626"/>
</g>
<path fill-rule="evenodd" clip-rule="evenodd" d="M4 6.85862L0 3.43005H0.571429L4.57143 6.2872H5.71429L10.2857 3.43005V3.82994C10.2857 3.93759 10.2337 4.03862 10.1461 4.10119L6.28571 6.85862V8.00148L9.89784 11.0976C10.031 11.2118 9.9503 11.4301 9.77485 11.4301C9.73546 11.4301 9.69705 11.4177 9.665 11.3949L5.71429 8.57291H4.57143L0 11.4301V10.8586L4 8.00148V6.85862Z" fill="#DB1E36"/>
<path fill-rule="evenodd" clip-rule="evenodd" d="M4.00005 6.85858V8.00143L4.76837e-05 10.8586V11.43L4.57148 8.57286H5.71433L9.66505 11.3948C9.6971 11.4177 9.73551 11.43 9.7749 11.43C9.95035 11.43 10.0311 11.2117 9.89788 11.0975L6.28576 8.00143V6.85858L10.1462 4.10114C10.2338 4.03857 10.2858 3.93754 10.2858 3.82989V3.43L5.71433 6.28715H4.57148L0.571476 3.43H4.76837e-05L4.00005 6.85858ZM4.78512 5.62048L0.78512 2.76334H-1.80212L3.33338 7.1652V7.65835L-0.666619 10.5155V12.6328L4.76267 9.23953H5.50069L9.27756 11.9373C9.42268 12.0409 9.59656 12.0967 9.7749 12.0967C10.5693 12.0967 10.9349 11.1083 10.3317 10.5914L6.95243 7.69481V7.20165L10.5337 4.64363C10.7965 4.45592 10.9524 4.15284 10.9524 3.82989V2.22717L5.52314 5.62048H4.78512Z" fill="white"/>
<path fill-rule="evenodd" clip-rule="evenodd" d="M0 6.2872V8.57291H4V11.3348C4 11.703 4.29848 12.0015 4.66667 12.0015H5.61905C5.98724 12.0015 6.28571 11.703 6.28571 11.3348V8.57291H10.1905C10.5587 8.57291 10.8571 8.27443 10.8571 7.90624V6.95386C10.8571 6.58567 10.5587 6.2872 10.1905 6.2872H6.28571V3.43005H4V6.2872H0Z" fill="white"/>
<path fill-rule="evenodd" clip-rule="evenodd" d="M0 6.85862H4.57143V6.2872V3.43005H5.71429V6.2872V6.85862H10.2857V8.00148H5.71429V8.57291V11.4301H4.57143V8.57291V8.00148H0V6.85862Z" fill="#DB1E36"/>
</g>
</svg>
