<svg width="24" height="24" viewBox="0 0 24 24" fill="none" xmlns="http://www.w3.org/2000/svg">
<rect y="3.43005" width="24" height="17.1429" rx="2" fill="white"/>
<mask id="mask0_14_2064" style="mask-type:luminance" maskUnits="userSpaceOnUse" x="0" y="3" width="24" height="18">
<rect y="3.43005" width="24" height="17.1429" rx="2" fill="white"/>
</mask>
<g mask="url(#mask0_14_2064)">
<rect y="3.43005" width="24" height="17.1429" fill="#F32249"/>
<rect x="3.42847" y="6.85864" width="17.1429" height="10.2857" rx="0.666667" fill="#15A04F"/>
<path fill-rule="evenodd" clip-rule="evenodd" d="M14 15.9094C13.7238 15.9697 13.437 16.0015 13.1428 16.0015C10.9337 16.0015 9.14282 14.2106 9.14282 12.0015C9.14282 9.79233 10.9337 8.00146 13.1428 8.00146C13.437 8.00146 13.7238 8.03323 14 8.09352C12.2027 8.4859 10.8571 10.0865 10.8571 12.0015C10.8571 13.9164 12.2027 15.517 14 15.9094Z" fill="white"/>
</g>
</svg>
