<svg width="24" height="24" viewBox="0 0 24 24" fill="none" xmlns="http://www.w3.org/2000/svg">
<rect x="0.25" y="3.68005" width="23.5" height="16.6429" rx="1.75" fill="white" stroke="#F5F5F5" stroke-width="0.5"/>
<mask id="mask0_14_2134" style="mask-type:luminance" maskUnits="userSpaceOnUse" x="0" y="3" width="24" height="18">
<rect x="0.25" y="3.68005" width="23.5" height="16.6429" rx="1.75" fill="white" stroke="white" stroke-width="0.5"/>
</mask>
<g mask="url(#mask0_14_2134)">
<rect x="16" y="3.43005" width="8" height="17.1429" fill="#E3283E"/>
<path fill-rule="evenodd" clip-rule="evenodd" d="M0 20.5729H8V3.43005H0V20.5729Z" fill="#128A60"/>
<path d="M10.381 11.4301C10.381 11.0619 10.0825 10.7634 9.71436 10.7634C9.34617 10.7634 9.04769 11.0619 9.04769 11.4301H10.381ZM10.52 13.9851C10.8385 14.1699 11.2464 14.0615 11.4312 13.743C11.616 13.4246 11.5076 13.0166 11.1892 12.8318L10.52 13.9851ZM12.8707 12.7954C12.5606 12.9938 12.4699 13.406 12.6683 13.7162C12.8667 14.0264 13.279 14.117 13.5891 13.9186L12.8707 12.7954ZM14.9524 11.4301C14.9524 11.0619 14.654 10.7634 14.2858 10.7634C13.9176 10.7634 13.6191 11.0619 13.6191 11.4301H14.9524ZM9.04769 11.4301C9.04769 12.5223 9.64115 13.4751 10.52 13.9851L11.1892 12.8318C10.7045 12.5506 10.381 12.0277 10.381 11.4301H9.04769ZM13.5891 13.9186C14.4075 13.3952 14.9524 12.4765 14.9524 11.4301H13.6191C13.6191 12.0028 13.3222 12.5067 12.8707 12.7954L13.5891 13.9186Z" fill="#8C9157"/>
<path fill-rule="evenodd" clip-rule="evenodd" d="M12 12.573C12.6312 12.573 13.1429 11.8055 13.1429 10.8587C13.1429 9.91192 12.6312 9.14441 12 9.14441C11.3689 9.14441 10.8572 9.91192 10.8572 10.8587C10.8572 11.8055 11.3689 12.573 12 12.573Z" fill="#C59262"/>
</g>
</svg>
