<svg width="24" height="24" viewBox="0 0 24 24" fill="none" xmlns="http://www.w3.org/2000/svg">
<rect y="3.43005" width="24" height="17.1429" rx="2" fill="white"/>
<mask id="mask0_14_1758" style="mask-type:luminance" maskUnits="userSpaceOnUse" x="0" y="3" width="24" height="18">
<rect y="3.43005" width="24" height="17.1429" rx="2" fill="white"/>
</mask>
<g mask="url(#mask0_14_1758)">
<path fill-rule="evenodd" clip-rule="evenodd" d="M24 3.43005H11.4286V4.57291H24V3.43005ZM24 5.71579H11.4286V6.85865H24V5.71579ZM11.4286 8.00146H24V9.14432H11.4286V8.00146ZM24 10.2872H11.4286V11.4301H24V10.2872ZM0 12.5729H24V13.7158H0V12.5729ZM24 14.8586H0V16.0015H24V14.8586ZM0 17.1443H24V18.2872H0V17.1443ZM24 19.4301H0V20.5729H24V19.4301Z" fill="#E1244A"/>
<rect y="3.43005" width="13.7143" height="9.14286" fill="#0C3F8E"/>
<path fill-rule="evenodd" clip-rule="evenodd" d="M5.71422 11.43C6.52428 11.43 7.26874 11.1491 7.85546 10.6793C7.54467 10.7952 7.20827 10.8586 6.85707 10.8586C5.27912 10.8586 3.99993 9.57943 3.99993 8.00147C3.99993 6.42351 5.27912 5.14433 6.85707 5.14433C7.20831 5.14433 7.54475 5.20771 7.85557 5.32365C7.26883 4.85385 6.52433 4.57288 5.71422 4.57288C3.82067 4.57288 2.28564 6.1079 2.28564 8.00145C2.28564 9.89499 3.82067 11.43 5.71422 11.43ZM8.1511 10.0608L9.14283 8.93857L10.1346 10.0608L9.87552 8.58572L11.3712 8.51004L10.0565 7.79289L10.9299 6.5763L9.54945 7.15709L9.14283 5.71571L8.73622 7.15709L7.35579 6.5763L8.22919 7.79289L6.91443 8.51004L8.41015 8.58572L8.1511 10.0608Z" fill="#FFD34F"/>
</g>
</svg>
