<svg width="24" height="24" viewBox="0 0 24 24" fill="none" xmlns="http://www.w3.org/2000/svg">
<rect x="0.25" y="3.68005" width="23.5" height="16.6429" rx="1.75" fill="white" stroke="#F5F5F5" stroke-width="0.5"/>
<mask id="mask0_14_2235" style="mask-type:luminance" maskUnits="userSpaceOnUse" x="0" y="3" width="24" height="18">
<rect x="0.25" y="3.68005" width="23.5" height="16.6429" rx="1.75" fill="white" stroke="white" stroke-width="0.5"/>
</mask>
<g mask="url(#mask0_14_2235)">
<path fill-rule="evenodd" clip-rule="evenodd" d="M0 20.5729H24V14.8586H0V20.5729Z" fill="#138E16"/>
<path fill-rule="evenodd" clip-rule="evenodd" d="M0 20.5729H8V14.8586H24V9.14434H8V3.43005H0V20.5729Z" fill="#ED2B35"/>
<path fill-rule="evenodd" clip-rule="evenodd" d="M4.00007 7.46867L3.00834 8.91795L3.52309 7.23897L1.77166 7.36721L3.40529 6.72284L2.21303 5.43347L3.73537 6.30893L4.00007 4.57288L4.26477 6.30893L5.78711 5.43347L4.59485 6.72284L6.22848 7.36721L4.47705 7.23897L4.9918 8.91795L4.00007 7.46867Z" fill="white"/>
</g>
</svg>
