<svg width="24" height="24" viewBox="0 0 24 24" fill="none" xmlns="http://www.w3.org/2000/svg">
<rect x="0.25" y="3.68005" width="23.5" height="16.6429" rx="1.75" fill="white" stroke="#F5F5F5" stroke-width="0.5"/>
<mask id="mask0_14_1338" style="mask-type:luminance" maskUnits="userSpaceOnUse" x="0" y="3" width="24" height="18">
<rect x="0.25" y="3.68005" width="23.5" height="16.6429" rx="1.75" fill="white" stroke="white" stroke-width="0.5"/>
</mask>
<g mask="url(#mask0_14_1338)">
<path fill-rule="evenodd" clip-rule="evenodd" d="M0 8.00148H24V3.43005H0V8.00148Z" fill="#D82332"/>
<path fill-rule="evenodd" clip-rule="evenodd" d="M0 20.573H24V16.0016H0V20.573Z" fill="#D82332"/>
<path fill-rule="evenodd" clip-rule="evenodd" d="M11.2007 12.6466L10.9569 12.874C11.1773 12.9358 11.4831 12.8638 11.6048 12.6466H11.2007Z" fill="#064A89"/>
<path fill-rule="evenodd" clip-rule="evenodd" d="M9.23352 12.8016C9.39851 12.9666 9.6718 12.9473 9.83679 12.8429C10.0019 12.7384 10.1231 12.7318 10.226 12.7427C10.2369 12.8358 10.2612 12.9552 10.3029 13.0731H9.32413C9.29982 13.0127 9.25239 12.8718 9.23352 12.8016Z" fill="#064A89"/>
<path fill-rule="evenodd" clip-rule="evenodd" d="M9.41492 13.2425C9.60703 13.1517 9.8034 13.2237 9.88839 13.2892C10.0453 13.4102 10.3045 13.3774 10.4317 13.3087C10.4802 13.3879 10.5392 13.4657 10.6103 13.5252H9.56303C9.5205 13.4565 9.42852 13.2878 9.41492 13.2425Z" fill="#064A89"/>
<path fill-rule="evenodd" clip-rule="evenodd" d="M13.9697 13.9943C14.0157 13.9476 14.0779 13.8706 14.1186 13.8157C14.0509 13.8074 13.9723 13.7585 13.8886 13.7167C13.7344 13.6396 13.587 13.6396 13.4557 13.7304C13.261 13.8651 13.0174 13.8981 12.8281 13.7634C12.6203 13.6156 12.4277 13.6479 12.2653 13.7415C12.103 13.8349 12.0002 13.8404 11.9028 13.8404C11.8054 13.8404 11.7026 13.8349 11.5403 13.7415C11.3779 13.6479 11.1853 13.6156 10.9775 13.7634C10.7881 13.8981 10.5446 13.8651 10.3499 13.7304C10.2186 13.6396 10.0712 13.6396 9.91694 13.7167C9.83322 13.7585 9.75468 13.8074 9.68701 13.8157C9.72765 13.8706 9.78987 13.9476 9.83586 13.9943H13.9697Z" fill="#064A89"/>
<path fill-rule="evenodd" clip-rule="evenodd" d="M13.4628 14.454C13.506 14.4265 13.6251 14.3358 13.6846 14.2891C13.6197 14.3028 13.4717 14.2546 13.3952 14.2148C13.1732 14.0993 13.0272 14.1104 12.8622 14.1983C12.6971 14.2863 12.4645 14.333 12.2941 14.2396C12.1236 14.1461 12.0018 14.1213 11.9126 14.1213C11.8233 14.1213 11.7015 14.1461 11.5311 14.2396C11.3606 14.333 11.128 14.2863 10.9629 14.1983C10.7979 14.1104 10.6519 14.0993 10.4299 14.2148C10.3535 14.2546 10.2054 14.3028 10.1405 14.2891C10.2 14.3358 10.3191 14.4265 10.3624 14.454H13.4628Z" fill="#064A89"/>
<path fill-rule="evenodd" clip-rule="evenodd" d="M12.4871 13.5402C12.4411 13.5155 12.3874 13.4579 12.3383 13.3839C12.2598 13.2657 12.1354 13.1997 11.9487 13.1997C11.7621 13.1997 11.6376 13.2657 11.5592 13.3839C11.5101 13.4579 11.4563 13.5155 11.4104 13.5402H12.4871Z" fill="#064A89"/>
<path fill-rule="evenodd" clip-rule="evenodd" d="M12.1803 13.1159C12.1613 13.0829 12.1208 12.9784 12.1073 12.9233C12.0639 12.9372 11.9801 12.9426 11.9314 12.9426C11.8827 12.9426 11.7989 12.9372 11.7555 12.9233C11.742 12.9784 11.7015 13.0829 11.6825 13.1159H12.1803Z" fill="#064A89"/>
<path fill-rule="evenodd" clip-rule="evenodd" d="M12.6308 12.6466L12.8746 12.874C12.6542 12.9358 12.3484 12.8638 12.2267 12.6466H12.6308Z" fill="#064A89"/>
<path fill-rule="evenodd" clip-rule="evenodd" d="M14.6567 12.8016C14.4917 12.9666 14.2184 12.9473 14.0534 12.8429C13.8883 12.7384 13.7671 12.7318 13.6642 12.7427C13.6532 12.8358 13.629 12.9552 13.5873 13.0731H14.5661C14.5904 13.0127 14.6377 12.8718 14.6567 12.8016Z" fill="#064A89"/>
<path fill-rule="evenodd" clip-rule="evenodd" d="M14.5106 13.2425C14.3185 13.1517 14.1221 13.2237 14.0371 13.2892C13.8802 13.4102 13.6209 13.3774 13.4938 13.3087C13.4453 13.3879 13.3863 13.4657 13.3152 13.5252H14.3624C14.405 13.4565 14.497 13.2878 14.5106 13.2425Z" fill="#064A89"/>
<path fill-rule="evenodd" clip-rule="evenodd" d="M12.9933 14.6343C12.6652 14.7703 12.3062 14.8454 11.93 14.8454C11.5534 14.8454 11.1946 14.7704 10.8662 14.6341C10.9365 14.6259 11.0297 14.5914 11.1048 14.5489C11.2266 14.4802 11.4483 14.4664 11.5539 14.5352C11.6594 14.604 11.7866 14.6726 11.93 14.6726C12.0734 14.6726 12.2005 14.604 12.306 14.5352C12.4115 14.4664 12.6334 14.4802 12.7552 14.5489C12.8302 14.5914 12.9229 14.6261 12.9933 14.6343Z" fill="#064A89"/>
<path fill-rule="evenodd" clip-rule="evenodd" d="M12.5358 9.19606C11.9434 9.07237 11.4104 9.1438 11.4104 9.71016C11.4104 10.2655 11.4104 11.0902 11.4104 11.2607C11.4104 11.4311 11.4138 11.4526 11.6133 11.4998C12.0461 11.6022 12.0867 11.6126 12.5574 11.7224V10.128C12.1895 10.0867 12.0489 9.87698 12.0489 9.6332C12.0489 9.39679 12.2111 9.24278 12.5358 9.19606Z" fill="#514537"/>
<path fill-rule="evenodd" clip-rule="evenodd" d="M11.0176 13.5688C10.6876 13.5688 10.3413 13.2774 10.3413 12.7221C10.3413 12.1667 10.3413 11.4684 10.3413 11.342C10.3413 11.2169 10.3551 11.1993 10.3264 11.1702C10.3095 11.153 10.3453 11.1276 10.3696 11.1028C10.4062 11.0657 10.4312 11.0348 10.3819 10.9846C10.3325 10.9344 10.3535 10.9213 10.3846 10.8898C10.4157 10.8581 10.4279 10.8266 10.3981 10.7963C10.3684 10.766 10.3616 10.7564 10.394 10.7234C10.4265 10.6904 10.413 10.6767 10.386 10.6492C10.3589 10.6217 10.3461 10.6018 10.3805 10.5668C10.4144 10.5324 10.417 10.5269 10.4563 10.5269C10.4955 10.5269 10.5807 10.5269 10.6186 10.5269C10.6565 10.5269 10.6572 10.5386 10.6253 10.5709C10.5841 10.6128 10.5719 10.6293 10.6186 10.6767C10.6653 10.7241 10.6633 10.7399 10.6335 10.7702C10.5888 10.8155 10.5692 10.8465 10.6145 10.8926C10.6599 10.9386 10.6639 10.9592 10.6294 10.9942C10.595 11.0293 10.5915 11.0602 10.6294 11.0987C10.6585 11.1282 10.6605 11.1455 10.6605 11.1976C10.6605 11.5125 10.6605 12.3702 10.6605 12.6066C10.6605 12.843 10.8282 12.9859 11.1475 12.9859C11.4668 12.9859 11.575 12.854 11.667 12.766C11.6075 13.1893 11.4343 13.5688 11.0176 13.5688Z" fill="#514537"/>
<path fill-rule="evenodd" clip-rule="evenodd" d="M11.9491 12.2201C11.9937 12.2338 12.037 12.2997 12.037 12.3713H12.125C12.125 12.3108 12.0992 12.2174 12.0526 12.1596C12.0519 12.1444 12.0499 12.1315 12.0465 12.1184C12.079 12.0771 12.1263 12.0111 12.125 11.9479C12.1241 11.9079 12.0776 11.9094 12.0722 11.941C12.0677 11.967 12.0506 12.007 12.0181 12.0208C12.0181 11.9699 11.9896 11.9094 11.9491 11.9094C11.9086 11.9094 11.8801 11.9699 11.8801 12.0208C11.8476 12.007 11.8305 11.967 11.826 11.941C11.8206 11.9094 11.774 11.9079 11.7732 11.9479C11.7719 12.0111 11.8192 12.0771 11.8517 12.1184C11.8483 12.1315 11.8463 12.1444 11.8456 12.1596C11.799 12.2174 11.7732 12.3108 11.7732 12.3713H11.8612C11.8612 12.2997 11.9045 12.2338 11.9491 12.2201Z" fill="#514537"/>
<path fill-rule="evenodd" clip-rule="evenodd" d="M11.4956 12.2201C11.5402 12.2338 11.5836 12.2997 11.5836 12.3713H11.6715C11.6715 12.3108 11.6458 12.2174 11.5991 12.1596C11.5985 12.1444 11.5964 12.1315 11.593 12.1184C11.6255 12.0771 11.6728 12.0111 11.6715 11.9479C11.6707 11.9079 11.6241 11.9094 11.6187 11.941C11.6142 11.967 11.597 12.007 11.5646 12.0208C11.5646 11.9699 11.5362 11.9094 11.4956 11.9094C11.4551 11.9094 11.4267 11.9699 11.4267 12.0208C11.3942 12.007 11.377 11.967 11.3725 11.941C11.3671 11.9094 11.3206 11.9079 11.3197 11.9479C11.3184 12.0111 11.3657 12.0771 11.3982 12.1184C11.3948 12.1315 11.3928 12.1444 11.3921 12.1596C11.3455 12.2174 11.3197 12.3108 11.3197 12.3713H11.4077C11.4077 12.2997 11.451 12.2338 11.4956 12.2201Z" fill="#514537"/>
<path fill-rule="evenodd" clip-rule="evenodd" d="M11.0421 12.2201C11.0867 12.2338 11.13 12.2997 11.13 12.3713H11.218C11.218 12.3108 11.1922 12.2174 11.1456 12.1596C11.1449 12.1444 11.1429 12.1315 11.1395 12.1184C11.172 12.0771 11.2193 12.0111 11.218 11.9479C11.2171 11.9079 11.1706 11.9094 11.1652 11.941C11.1608 11.967 11.1435 12.007 11.111 12.0208C11.111 11.9699 11.0827 11.9094 11.0421 11.9094C11.0015 11.9094 10.9731 11.9699 10.9731 12.0208C10.9406 12.007 10.9235 11.967 10.919 11.941C10.9136 11.9094 10.8671 11.9079 10.8662 11.9479C10.8649 12.0111 10.9122 12.0771 10.9447 12.1184C10.9413 12.1315 10.9393 12.1444 10.9386 12.1596C10.8919 12.2174 10.8662 12.3108 10.8662 12.3713H10.9541C10.9541 12.2997 10.9975 12.2338 11.0421 12.2201Z" fill="#514537"/>
<path fill-rule="evenodd" clip-rule="evenodd" d="M12.4026 12.2201C12.358 12.2338 12.3147 12.2997 12.3147 12.3713H12.2267C12.2267 12.3108 12.2524 12.2174 12.2991 12.1596C12.2997 12.1444 12.3018 12.1315 12.3053 12.1184C12.2727 12.0771 12.2254 12.0111 12.2267 11.9479C12.2276 11.9079 12.2741 11.9094 12.2795 11.941C12.2839 11.967 12.3012 12.007 12.3336 12.0208C12.3336 11.9699 12.362 11.9094 12.4026 11.9094C12.4432 11.9094 12.4716 11.9699 12.4716 12.0208C12.504 12.007 12.5212 11.967 12.5257 11.941C12.5311 11.9094 12.5776 11.9079 12.5785 11.9479C12.5798 12.0111 12.5325 12.0771 12.5 12.1184C12.5034 12.1315 12.5054 12.1444 12.5061 12.1596C12.5528 12.2174 12.5785 12.3108 12.5785 12.3713H12.4905C12.4905 12.2997 12.4472 12.2338 12.4026 12.2201Z" fill="#514537"/>
<path fill-rule="evenodd" clip-rule="evenodd" d="M12.8562 12.2201C12.8116 12.2338 12.7683 12.2997 12.7683 12.3713H12.6803C12.6803 12.3108 12.7061 12.2174 12.7527 12.1596C12.7534 12.1444 12.7554 12.1315 12.7588 12.1184C12.7263 12.0771 12.679 12.0111 12.6803 11.9479C12.6811 11.9079 12.7277 11.9094 12.7331 11.941C12.7376 11.967 12.7547 12.007 12.7872 12.0208C12.7872 11.9699 12.8157 11.9094 12.8562 11.9094C12.8968 11.9094 12.9252 11.9699 12.9252 12.0208C12.9577 12.007 12.9748 11.967 12.9793 11.941C12.9847 11.9094 13.0312 11.9079 13.0321 11.9479C13.0334 12.0111 12.9861 12.0771 12.9536 12.1184C12.957 12.1315 12.959 12.1444 12.9597 12.1596C13.0064 12.2174 13.0321 12.3108 13.0321 12.3713H12.9442C12.9442 12.2997 12.9008 12.2338 12.8562 12.2201Z" fill="#514537"/>
<path fill-rule="evenodd" clip-rule="evenodd" d="M10.7755 12.4623H13.1563V12.5766H10.7755V12.4623Z" fill="#514537"/>
<path fill-rule="evenodd" clip-rule="evenodd" d="M12.876 13.5688C13.2061 13.5688 13.5524 13.2774 13.5524 12.7221C13.5524 12.1667 13.5524 11.4684 13.5524 11.342C13.5524 11.2169 13.5385 11.1993 13.5673 11.1702C13.5841 11.153 13.5483 11.1276 13.524 11.1028C13.4875 11.0657 13.4624 11.0348 13.5118 10.9846C13.5612 10.9344 13.5402 10.9213 13.5091 10.8898C13.4779 10.8581 13.4658 10.8266 13.4955 10.7963C13.5253 10.766 13.5321 10.7564 13.4996 10.7234C13.4671 10.6904 13.4807 10.6767 13.5077 10.6492C13.5348 10.6217 13.5476 10.6018 13.5131 10.5668C13.4793 10.5324 13.4767 10.5269 13.4374 10.5269C13.3981 10.5269 13.3129 10.5269 13.275 10.5269C13.2372 10.5269 13.2365 10.5386 13.2683 10.5709C13.3096 10.6128 13.3217 10.6293 13.275 10.6767C13.2284 10.7241 13.2304 10.7399 13.2602 10.7702C13.3049 10.8155 13.3244 10.8465 13.2791 10.8926C13.2338 10.9386 13.2297 10.9592 13.2642 10.9942C13.2987 11.0293 13.3021 11.0602 13.2642 11.0987C13.2351 11.1282 13.2331 11.1455 13.2331 11.1976C13.2331 11.5125 13.2331 12.3702 13.2331 12.6066C13.2331 12.843 13.0653 12.9859 12.7461 12.9859C12.4269 12.9859 12.3187 12.854 12.2267 12.766C12.2862 13.1893 12.4593 13.5688 12.876 13.5688Z" fill="#514537"/>
<path fill-rule="evenodd" clip-rule="evenodd" d="M10.7755 11.7223C10.7755 11.7223 10.7756 11.6412 10.7756 11.5406L11.2515 11.7224L10.7755 11.7223Z" fill="#EEA339"/>
<path fill-rule="evenodd" clip-rule="evenodd" d="M10.2078 11.8069L9.14282 11.661C9.17375 11.4291 9.23226 11.203 9.31643 10.9878L10.2078 11.3473V11.8069Z" fill="#EEA339"/>
<path fill-rule="evenodd" clip-rule="evenodd" d="M12.4081 10.0265L12.5974 9.23645C12.8189 9.29101 13.0342 9.37322 13.2383 9.48161L12.6278 10.6691L12.6299 10.0729C12.5595 10.0732 12.4513 10.0623 12.4081 10.0265Z" fill="#EEA339"/>
<path fill-rule="evenodd" clip-rule="evenodd" d="M10.2329 11.8841L9.14808 11.8171C9.13411 12.0483 9.14799 12.2816 9.18971 12.5117C9.18971 12.5117 10.2329 12.5183 10.2329 12.5117V11.8841Z" fill="#EEA339"/>
<path fill-rule="evenodd" clip-rule="evenodd" d="M10.2221 11.1407C10.187 11.094 10.2087 11.0691 10.2465 11.0443C10.2844 11.0196 10.279 11.0004 10.2601 10.9647C10.2411 10.9289 10.2222 10.8904 10.2574 10.852C10.2926 10.8134 10.279 10.7969 10.2519 10.7695C10.2249 10.742 10.2222 10.7118 10.2465 10.6898C10.2709 10.6677 10.2654 10.6512 10.2493 10.6293C10.233 10.6073 10.2011 10.5627 10.2296 10.5338L9.78707 10.1583C9.64086 10.336 9.51569 10.5322 9.41492 10.7425L10.2221 11.1407Z" fill="#EEA339"/>
<path fill-rule="evenodd" clip-rule="evenodd" d="M11.2823 11.3453L10.7548 10.8256C10.8292 10.75 10.8367 10.7377 10.784 10.684C10.7265 10.6256 10.7244 10.6195 10.8414 10.5005C10.8813 10.4601 10.859 10.4318 10.8022 10.4318C10.7454 10.4318 10.4843 10.4318 10.4545 10.4318C10.4248 10.4318 10.4014 10.4333 10.3796 10.4555L9.95911 10.0418C10.1196 9.87398 10.2988 9.72753 10.4923 9.60522L11.2823 10.896V11.3453Z" fill="#EEA339"/>
<path fill-rule="evenodd" clip-rule="evenodd" d="M10.7338 11.4245C10.7338 11.2954 10.7339 11.1675 10.7339 11.1494C10.7339 11.1108 10.7312 11.0957 10.7014 11.0655C10.6717 11.0353 10.6866 11.0208 10.7096 10.9878L11.2099 11.4113V11.66L10.7338 11.4245Z" fill="#EEA339"/>
<path fill-rule="evenodd" clip-rule="evenodd" d="M11.2023 10.6697C11.2023 10.4217 11.2023 10.1923 11.2023 10.0601C11.2023 9.66428 11.2242 9.46631 11.281 9.4265L11.2355 9.23645C11.0134 9.29719 10.7981 9.3794 10.594 9.48779L11.2023 10.6697Z" fill="#EEA339"/>
<path fill-rule="evenodd" clip-rule="evenodd" d="M13.1563 11.7223C13.1563 11.7223 13.1562 11.6412 13.1562 11.5406L12.6803 11.7224L13.1563 11.7223Z" fill="#EEA339"/>
<path fill-rule="evenodd" clip-rule="evenodd" d="M13.678 11.8069L14.7429 11.661C14.712 11.4291 14.6535 11.203 14.5693 10.9878L13.678 11.3473V11.8069Z" fill="#EEA339"/>
<path fill-rule="evenodd" clip-rule="evenodd" d="M13.678 11.8841L14.7627 11.8171C14.7767 12.0483 14.7629 12.2816 14.7211 12.5117C14.7211 12.5117 13.678 12.5183 13.678 12.5117V11.8841Z" fill="#EEA339"/>
<path fill-rule="evenodd" clip-rule="evenodd" d="M13.6437 11.1407C13.6789 11.094 13.6571 11.0691 13.6193 11.0443C13.5814 11.0196 13.5868 11.0004 13.6057 10.9647C13.6247 10.9289 13.6436 10.8904 13.6084 10.852C13.5732 10.8134 13.5868 10.7969 13.6139 10.7695C13.6409 10.742 13.6436 10.7118 13.6193 10.6898C13.5949 10.6677 13.6004 10.6512 13.6165 10.6293C13.6328 10.6073 13.6646 10.5627 13.6362 10.5338L14.0787 10.1583C14.2249 10.336 14.35 10.5322 14.4508 10.7425L13.6437 11.1407Z" fill="#EEA339"/>
<path fill-rule="evenodd" clip-rule="evenodd" d="M12.6803 11.3453L13.2077 10.8256C13.1333 10.75 13.1258 10.7377 13.1786 10.684C13.2361 10.6256 13.2382 10.6195 13.1212 10.5005C13.0812 10.4601 13.1036 10.4318 13.1604 10.4318C13.2172 10.4318 13.4783 10.4318 13.5081 10.4318C13.5378 10.4318 13.5612 10.4333 13.583 10.4555L14.0035 10.0418C13.843 9.87398 13.6638 9.72753 13.4702 9.60522L12.6803 10.896V11.3453Z" fill="#EEA339"/>
<path fill-rule="evenodd" clip-rule="evenodd" d="M13.1564 11.4245C13.1564 11.2954 13.1563 11.1675 13.1563 11.1494C13.1563 11.1108 13.159 11.0957 13.1888 11.0655C13.2185 11.0353 13.2037 11.0208 13.1806 10.9878L12.6803 11.4113V11.66L13.1564 11.4245Z" fill="#EEA339"/>
<path fill-rule="evenodd" clip-rule="evenodd" d="M10.4127 11.172C10.4317 11.1913 10.4398 11.2104 10.4398 11.2572C10.4398 11.3039 10.4398 12.3266 10.4398 12.7279C10.4398 13.2173 10.732 13.4894 11.0323 13.4894C11.3082 13.4894 11.4895 13.2337 11.5842 12.9369C11.4625 13.0331 11.2839 13.0633 11.1134 13.0633C10.9159 13.0633 10.5968 12.9287 10.5968 12.6373C10.5968 12.3678 10.5968 11.3699 10.5968 11.2104C10.5968 11.172 10.5588 11.172 10.4127 11.172Z" fill="#D82332"/>
<path fill-rule="evenodd" clip-rule="evenodd" d="M12.138 9.24489C11.7608 9.20609 11.4108 9.28581 11.4108 9.80876C11.4108 10.3586 11.4108 11.0293 11.4108 11.1982C11.4108 11.4301 11.3929 11.4026 11.5864 11.4513C11.9374 11.5398 11.9772 11.5511 12.4029 11.6499V10.2362C12.0394 10.1958 11.8819 9.95383 11.8819 9.6859C11.8819 9.47272 11.9746 9.27208 12.138 9.24489Z" fill="#D82332"/>
<path fill-rule="evenodd" clip-rule="evenodd" d="M13.4889 11.172C13.4699 11.1913 13.4618 11.2104 13.4618 11.2572C13.4618 11.3039 13.4618 12.3266 13.4618 12.7279C13.4618 13.2173 13.1696 13.4894 12.8693 13.4894C12.5934 13.4894 12.4121 13.2337 12.3174 12.9369C12.4392 13.0331 12.6177 13.0633 12.7882 13.0633C12.9857 13.0633 13.3049 12.9287 13.3049 12.6373C13.3049 12.3678 13.3049 11.3699 13.3049 11.2104C13.3049 11.172 13.3428 11.172 13.4889 11.172Z" fill="#D82332"/>
<mask id="mask1_14_1338" style="mask-type:luminance" maskUnits="userSpaceOnUse" x="9" y="9" width="6" height="6">
<path fill-rule="evenodd" clip-rule="evenodd" d="M12 14.8587C13.5779 14.8587 14.8571 13.5795 14.8571 12.0016C14.8571 10.4236 13.5779 9.14441 12 9.14441C10.422 9.14441 9.14282 10.4236 9.14282 12.0016C9.14282 13.5795 10.422 14.8587 12 14.8587Z" fill="white"/>
</mask>
<g mask="url(#mask1_14_1338)">
<path fill-rule="evenodd" clip-rule="evenodd" d="M12 19.4301C13.5779 19.4301 14.8571 18.1509 14.8571 16.573C14.8571 14.995 13.5779 13.7158 12 13.7158C10.422 13.7158 9.14282 14.995 9.14282 16.573C9.14282 18.1509 10.422 19.4301 12 19.4301Z" fill="#064A89"/>
</g>
</g>
</svg>
