<svg width="24" height="24" viewBox="0 0 24 24" fill="none" xmlns="http://www.w3.org/2000/svg">
<rect y="3.43005" width="24" height="17.1429" rx="2" fill="white"/>
<mask id="mask0_14_1321" style="mask-type:luminance" maskUnits="userSpaceOnUse" x="0" y="3" width="24" height="18">
<rect y="3.43005" width="24" height="17.1429" rx="2" fill="white"/>
</mask>
<g mask="url(#mask0_14_1321)">
<rect y="3.43005" width="24" height="17.1429" fill="#262626"/>
<path fill-rule="evenodd" clip-rule="evenodd" d="M0 3.43005H24V20.5729L0 3.43005Z" fill="#E8283F"/>
<path fill-rule="evenodd" clip-rule="evenodd" d="M5.71427 17.7158L4.90615 17.9524L5.14284 17.1443L4.90615 16.3362L5.71427 16.5729L6.52239 16.3362L6.2857 17.1443L6.52239 17.9524L5.71427 17.7158Z" fill="white"/>
<path fill-rule="evenodd" clip-rule="evenodd" d="M5.71427 10.8587L4.90615 11.0954L5.14284 10.2873L4.90615 9.47914L5.71427 9.71584L6.52239 9.47914L6.2857 10.2873L6.52239 11.0954L5.71427 10.8587Z" fill="white"/>
<path fill-rule="evenodd" clip-rule="evenodd" d="M2.85709 13.7158L2.04897 13.9524L2.28566 13.1443L2.04897 12.3362L2.85709 12.5729L3.66521 12.3362L3.42852 13.1443L3.66521 13.9524L2.85709 13.7158Z" fill="white"/>
<path fill-rule="evenodd" clip-rule="evenodd" d="M8.00003 13.1443L7.19191 13.381L7.42861 12.5729L7.19191 11.7648L8.00003 12.0015L8.80816 11.7648L8.57146 12.5729L8.80816 13.381L8.00003 13.1443Z" fill="white"/>
<path fill-rule="evenodd" clip-rule="evenodd" d="M16.1668 11.372C16.03 11.2899 15.9191 11.0966 15.9191 10.9419L15.9191 9.88867C15.9191 9.73319 15.8072 9.64443 15.6379 9.70086L14.988 9.91749C14.8328 9.96924 14.595 9.97391 14.4258 9.91749L13.7759 9.70086C13.6206 9.6491 13.6033 9.54197 13.7424 9.4585L15.2673 8.5436C15.4041 8.46151 15.4777 8.28309 15.4213 8.11381L15.2047 7.46392C15.1529 7.30865 15.2228 7.22006 15.3921 7.27649L16.042 7.49312C16.1973 7.54488 16.3883 7.47822 16.4718 7.33911L17.3867 5.81426C17.4688 5.67744 17.5726 5.6784 17.629 5.84768L17.8457 6.49757C17.8974 6.65284 17.9021 6.89058 17.8457 7.05986L17.629 7.70975C17.5773 7.86502 17.6622 7.9909 17.8169 7.9909H18.87C19.0255 7.9909 19.2167 8.09952 19.3002 8.23863L20.2151 9.76347C20.2972 9.90029 20.2312 10.0377 20.0828 10.0674L18.6244 10.3591C18.4692 10.3901 18.3169 10.5478 18.2873 10.6962L17.9956 12.1547C17.9645 12.3098 17.8308 12.3704 17.6917 12.2869L16.1668 11.372Z" fill="#FFD84E"/>
</g>
</svg>
