<svg width="24" height="24" viewBox="0 0 24 24" fill="none" xmlns="http://www.w3.org/2000/svg">
<rect y="3.43005" width="24" height="17.1429" rx="2" fill="white"/>
<mask id="mask0_14_1164" style="mask-type:luminance" maskUnits="userSpaceOnUse" x="0" y="3" width="24" height="18">
<rect y="3.43005" width="24" height="17.1429" rx="2" fill="white"/>
</mask>
<g mask="url(#mask0_14_1164)">
<rect y="3.43005" width="24" height="17.1429" fill="#FF2936"/>
<path fill-rule="evenodd" clip-rule="evenodd" d="M0 20.5729H9.14286V3.43005H0V20.5729Z" fill="#128415"/>
<path fill-rule="evenodd" clip-rule="evenodd" d="M12.7619 12.0014C12.7619 14.0001 11.1416 15.6204 9.14285 15.6204C7.14411 15.6204 5.5238 14.0001 5.5238 12.0014C5.5238 10.0026 7.14411 8.38232 9.14285 8.38232C11.1416 8.38232 12.7619 10.0026 12.7619 12.0014ZM11.4286 12.0014C11.4286 13.2637 10.4052 14.2871 9.14285 14.2871C7.88049 14.2871 6.85714 13.2637 6.85714 12.0014C6.85714 10.739 7.88049 9.71566 9.14285 9.71566C10.4052 9.71566 11.4286 10.739 11.4286 12.0014Z" fill="#FAF94F"/>
<path fill-rule="evenodd" clip-rule="evenodd" d="M8 10.6206C8 10.4365 8.14924 10.2872 8.33333 10.2872H9.95238C10.1365 10.2872 10.2857 10.4365 10.2857 10.6206V12.5729C10.2857 13.2041 9.77404 13.7158 9.14286 13.7158C8.51167 13.7158 8 13.2041 8 12.5729V10.6206Z" fill="white"/>
<path fill-rule="evenodd" clip-rule="evenodd" d="M9.14284 12.5729C9.45843 12.5729 9.71427 11.7457 9.71427 11.4301C9.71427 11.1145 9.45843 10.8586 9.14284 10.8586C8.82725 10.8586 8.57141 11.1145 8.57141 11.4301C8.57141 11.7457 8.82725 12.5729 9.14284 12.5729Z" fill="#1D50B5"/>
</g>
</svg>
