<svg width="24" height="24" viewBox="0 0 24 24" fill="none" xmlns="http://www.w3.org/2000/svg">
<rect y="3.43005" width="24" height="17.1429" rx="2" fill="white"/>
<mask id="mask0_14_1841" style="mask-type:luminance" maskUnits="userSpaceOnUse" x="0" y="3" width="24" height="18">
<rect y="3.43005" width="24" height="17.1429" rx="2" fill="white"/>
</mask>
<g mask="url(#mask0_14_1841)">
<rect y="3.43005" width="24" height="17.1429" fill="#128C4B"/>
<path fill-rule="evenodd" clip-rule="evenodd" d="M5.71423 13.7157H14.8571V13.0801C14.8571 12.5846 15.3786 12.2622 15.8219 12.4839L15.9999 12.5729V13.7157H17.619C17.9872 13.7157 18.2857 14.0142 18.2857 14.3824V14.6681C18.2857 15.4045 17.6887 16.0015 16.9523 16.0015H15.5238C15.1556 16.0015 14.8571 15.703 14.8571 15.3348V14.8586H7.13323C6.95642 14.8586 6.78685 14.7884 6.66183 14.6633L5.71423 13.7157Z" fill="white"/>
<path fill-rule="evenodd" clip-rule="evenodd" d="M5.71423 10.4253C5.71423 10.3368 5.74935 10.2521 5.81186 10.1895L6.04996 9.95145C6.18013 9.82128 6.18013 9.61022 6.04996 9.48005L5.81186 9.24195C5.74935 9.17944 5.71423 9.09466 5.71423 9.00625V8.3348C5.71423 8.1507 5.86347 8.00146 6.04757 8.00146H6.63882C6.75937 8.00146 6.85709 8.09919 6.85709 8.21973C6.85709 8.45005 7.16758 8.52335 7.27058 8.31734L7.35576 8.14698C7.40035 8.0578 7.4915 8.00146 7.59121 8.00146H8.85709C9.01489 8.00146 9.14281 8.12938 9.14281 8.28718C9.14281 8.44497 9.01489 8.57289 8.85709 8.57289H8.28566C8.12787 8.57289 7.99995 8.70081 7.99995 8.85861C7.99995 9.0164 8.12787 9.14432 8.28566 9.14432H8.80947C8.99357 9.14432 9.14281 9.29356 9.14281 9.47766V11.0967C9.14281 11.2808 8.99357 11.43 8.80947 11.43H8.33328C8.14919 11.43 7.99995 11.2808 7.99995 11.0967V10.5729C7.99995 10.4151 8.12787 10.2872 8.28566 10.2872C8.44346 10.2872 8.57138 10.1593 8.57138 10.0015C8.57138 9.84367 8.44346 9.71575 8.28566 9.71575H7.76185C7.57776 9.71575 7.42852 9.86499 7.42852 10.0491V11.1443C7.42852 11.3021 7.3006 11.43 7.1428 11.43C6.98501 11.43 6.85709 11.3021 6.85709 11.1443V10.5729C6.85709 10.4151 6.72917 10.2872 6.57138 10.2872C6.41358 10.2872 6.28566 10.4151 6.28566 10.5729V11.1443C6.28566 11.3021 6.15774 11.43 5.99995 11.43C5.84215 11.43 5.71423 11.3021 5.71423 11.1443V10.4253Z" fill="white"/>
<path fill-rule="evenodd" clip-rule="evenodd" d="M14.8572 10.4253C14.8572 10.3368 14.8923 10.2521 14.9548 10.1895L15.1929 9.95145C15.3231 9.82128 15.3231 9.61022 15.1929 9.48005L14.9548 9.24195C14.8923 9.17944 14.8572 9.09466 14.8572 9.00625V8.3348C14.8572 8.1507 15.0064 8.00146 15.1905 8.00146H15.7818C15.9023 8.00146 16 8.09919 16 8.21973C16 8.45005 16.3105 8.52335 16.4135 8.31734L16.4987 8.14698C16.5433 8.0578 16.6344 8.00146 16.7341 8.00146H18C18.1578 8.00146 18.2857 8.12938 18.2857 8.28718C18.2857 8.44497 18.1578 8.57289 18 8.57289H17.4286C17.2708 8.57289 17.1429 8.70081 17.1429 8.85861C17.1429 9.0164 17.2708 9.14432 17.4286 9.14432H17.9524C18.1365 9.14432 18.2857 9.29356 18.2857 9.47766V11.0967C18.2857 11.2808 18.1365 11.43 17.9524 11.43H17.4762C17.2921 11.43 17.1429 11.2808 17.1429 11.0967V10.5729C17.1429 10.4151 17.2708 10.2872 17.4286 10.2872C17.5864 10.2872 17.7143 10.1593 17.7143 10.0015C17.7143 9.84367 17.5864 9.71575 17.4286 9.71575H16.9048C16.7207 9.71575 16.5715 9.86499 16.5715 10.0491V11.1443C16.5715 11.3021 16.4435 11.43 16.2857 11.43C16.128 11.43 16 11.3021 16 11.1443V10.5729C16 10.4151 15.8721 10.2872 15.7143 10.2872C15.5565 10.2872 15.4286 10.4151 15.4286 10.5729V11.1443C15.4286 11.3021 15.3007 11.43 15.1429 11.43C14.9851 11.43 14.8572 11.3021 14.8572 11.1443V10.4253Z" fill="white"/>
<path fill-rule="evenodd" clip-rule="evenodd" d="M13.7143 8.85593C13.7143 9.0152 13.6251 9.23361 13.508 9.35062L13.3492 9.50945C13.2353 9.62339 13.2322 9.80504 13.3492 9.92205L13.508 10.0809C13.622 10.1948 13.7143 10.4095 13.7143 10.5756V11.1416C13.7143 11.3009 13.592 11.43 13.4259 11.43H12.8599C12.7006 11.43 12.5715 11.3077 12.5715 11.1416V10.5756C12.5715 10.4163 12.5187 10.3926 12.4389 10.5522L12.1326 11.165C12.0594 11.3114 11.8655 11.43 11.717 11.43H10.5688C10.4125 11.43 10.2858 11.2975 10.2858 11.1443C10.2858 10.9865 10.4081 10.8586 10.5742 10.8586H11.1402C11.2995 10.8586 11.4286 10.7261 11.4286 10.5729C11.4286 10.4151 11.3063 10.2872 11.1402 10.2872H10.5742C10.4149 10.2872 10.2858 10.1643 10.2858 10.0069V8.28174C10.2858 8.12695 10.4081 8.00146 10.5742 8.00146H11.1402C11.2995 8.00146 11.4286 8.12377 11.4286 8.28986V8.85593C11.4286 9.0152 11.2961 9.14432 11.1429 9.14432C10.9851 9.14432 10.8572 9.27686 10.8572 9.43004C10.8572 9.58783 10.9795 9.71575 11.1456 9.71575H11.7117C11.8709 9.71575 12.0001 9.58123 12.0001 9.43267V8.28454C12.0001 8.1282 12.1326 8.00146 12.2858 8.00146C12.4436 8.00146 12.5715 8.12377 12.5715 8.28986V8.85593C12.5715 9.0152 12.704 9.14432 12.8572 9.14432C13.015 9.14432 13.1429 9.02202 13.1429 8.85593V8.28986C13.1429 8.13058 13.2754 8.00146 13.4286 8.00146C13.5864 8.00146 13.7143 8.12377 13.7143 8.28986V8.85593Z" fill="white"/>
</g>
</svg>
