<svg width="24" height="24" viewBox="0 0 24 24" fill="none" xmlns="http://www.w3.org/2000/svg">
<rect y="3.43005" width="24" height="17.1429" rx="2" fill="white"/>
<mask id="mask0_14_776" style="mask-type:luminance" maskUnits="userSpaceOnUse" x="0" y="3" width="24" height="18">
<rect y="3.43005" width="24" height="17.1429" rx="2" fill="white"/>
</mask>
<g mask="url(#mask0_14_776)">
<path fill-rule="evenodd" clip-rule="evenodd" d="M24 3.43005H0V4.57291H24V3.43005ZM24 5.71577H0V6.85863H24V5.71577ZM0 8.00148H24V9.14434H0V8.00148ZM24 10.2872H0V11.4301H24V10.2872ZM0 12.5729H24V13.7158H0V12.5729ZM24 14.8586H0V16.0015H24V14.8586ZM0 17.1443H24V18.2872H0V17.1443ZM24 19.4301H0V20.5729H24V19.4301Z" fill="#D02F44"/>
<rect y="3.43005" width="10.2857" height="8" fill="#46467F"/>
<g filter="url(#filter0_d_14_776)">
<path fill-rule="evenodd" clip-rule="evenodd" d="M2.28568 5.1443C2.28568 5.4599 2.02984 5.71573 1.71425 5.71573C1.39866 5.71573 1.14282 5.4599 1.14282 5.1443C1.14282 4.82871 1.39866 4.57288 1.71425 4.57288C2.02984 4.57288 2.28568 4.82871 2.28568 5.1443ZM4.57139 5.1443C4.57139 5.4599 4.31556 5.71573 3.99997 5.71573C3.68437 5.71573 3.42854 5.4599 3.42854 5.1443C3.42854 4.82871 3.68437 4.57288 3.99997 4.57288C4.31556 4.57288 4.57139 4.82871 4.57139 5.1443ZM6.28568 5.71573C6.60127 5.71573 6.85711 5.4599 6.85711 5.1443C6.85711 4.82871 6.60127 4.57288 6.28568 4.57288C5.97009 4.57288 5.71425 4.82871 5.71425 5.1443C5.71425 5.4599 5.97009 5.71573 6.28568 5.71573ZM9.14282 5.1443C9.14282 5.4599 8.88699 5.71573 8.57139 5.71573C8.2558 5.71573 7.99997 5.4599 7.99997 5.1443C7.99997 4.82871 8.2558 4.57288 8.57139 4.57288C8.88699 4.57288 9.14282 4.82871 9.14282 5.1443ZM2.85711 6.85859C3.1727 6.85859 3.42854 6.60275 3.42854 6.28716C3.42854 5.97157 3.1727 5.71573 2.85711 5.71573C2.54152 5.71573 2.28568 5.97157 2.28568 6.28716C2.28568 6.60275 2.54152 6.85859 2.85711 6.85859ZM5.71425 6.28716C5.71425 6.60275 5.45841 6.85859 5.14282 6.85859C4.82723 6.85859 4.57139 6.60275 4.57139 6.28716C4.57139 5.97157 4.82723 5.71573 5.14282 5.71573C5.45841 5.71573 5.71425 5.97157 5.71425 6.28716ZM7.42854 6.85859C7.74413 6.85859 7.99996 6.60275 7.99996 6.28716C7.99996 5.97157 7.74413 5.71573 7.42854 5.71573C7.11295 5.71573 6.85711 5.97157 6.85711 6.28716C6.85711 6.60275 7.11295 6.85859 7.42854 6.85859ZM9.14282 7.43002C9.14282 7.74561 8.88699 8.00145 8.57139 8.00145C8.2558 8.00145 7.99997 7.74561 7.99997 7.43002C7.99997 7.11443 8.2558 6.85859 8.57139 6.85859C8.88699 6.85859 9.14282 7.11443 9.14282 7.43002ZM6.28568 8.00145C6.60127 8.00145 6.85711 7.74561 6.85711 7.43002C6.85711 7.11443 6.60127 6.85859 6.28568 6.85859C5.97009 6.85859 5.71425 7.11443 5.71425 7.43002C5.71425 7.74561 5.97009 8.00145 6.28568 8.00145ZM4.57139 7.43002C4.57139 7.74561 4.31556 8.00145 3.99997 8.00145C3.68437 8.00145 3.42854 7.74561 3.42854 7.43002C3.42854 7.11443 3.68437 6.85859 3.99997 6.85859C4.31556 6.85859 4.57139 7.11443 4.57139 7.43002ZM1.71425 8.00145C2.02984 8.00145 2.28568 7.74561 2.28568 7.43002C2.28568 7.11443 2.02984 6.85859 1.71425 6.85859C1.39866 6.85859 1.14282 7.11443 1.14282 7.43002C1.14282 7.74561 1.39866 8.00145 1.71425 8.00145ZM3.42854 8.57288C3.42854 8.88847 3.1727 9.1443 2.85711 9.1443C2.54152 9.1443 2.28568 8.88847 2.28568 8.57288C2.28568 8.25728 2.54152 8.00145 2.85711 8.00145C3.1727 8.00145 3.42854 8.25728 3.42854 8.57288ZM5.14282 9.1443C5.45841 9.1443 5.71425 8.88847 5.71425 8.57288C5.71425 8.25728 5.45841 8.00145 5.14282 8.00145C4.82723 8.00145 4.57139 8.25728 4.57139 8.57288C4.57139 8.88847 4.82723 9.1443 5.14282 9.1443ZM7.99996 8.57288C7.99996 8.88847 7.74413 9.1443 7.42854 9.1443C7.11295 9.1443 6.85711 8.88847 6.85711 8.57288C6.85711 8.25728 7.11295 8.00145 7.42854 8.00145C7.74413 8.00145 7.99996 8.25728 7.99996 8.57288ZM8.57139 10.2872C8.88699 10.2872 9.14282 10.0313 9.14282 9.71573C9.14282 9.40014 8.88699 9.1443 8.57139 9.1443C8.2558 9.1443 7.99997 9.40014 7.99997 9.71573C7.99997 10.0313 8.2558 10.2872 8.57139 10.2872ZM6.85711 9.71573C6.85711 10.0313 6.60127 10.2872 6.28568 10.2872C5.97009 10.2872 5.71425 10.0313 5.71425 9.71573C5.71425 9.40014 5.97009 9.1443 6.28568 9.1443C6.60127 9.1443 6.85711 9.40014 6.85711 9.71573ZM3.99997 10.2872C4.31556 10.2872 4.57139 10.0313 4.57139 9.71573C4.57139 9.40014 4.31556 9.1443 3.99997 9.1443C3.68437 9.1443 3.42854 9.40014 3.42854 9.71573C3.42854 10.0313 3.68437 10.2872 3.99997 10.2872ZM2.28568 9.71573C2.28568 10.0313 2.02984 10.2872 1.71425 10.2872C1.39866 10.2872 1.14282 10.0313 1.14282 9.71573C1.14282 9.40014 1.39866 9.1443 1.71425 9.1443C2.02984 9.1443 2.28568 9.40014 2.28568 9.71573Z" fill="url(#paint0_linear_14_776)"/>
</g>
</g>
<defs>
<filter id="filter0_d_14_776" x="1.14282" y="4.57288" width="8" height="6.71423" filterUnits="userSpaceOnUse" color-interpolation-filters="sRGB">
<feFlood flood-opacity="0" result="BackgroundImageFix"/>
<feColorMatrix in="SourceAlpha" type="matrix" values="0 0 0 0 0 0 0 0 0 0 0 0 0 0 0 0 0 0 127 0" result="hardAlpha"/>
<feOffset dy="1"/>
<feColorMatrix type="matrix" values="0 0 0 0 0 0 0 0 0 0 0 0 0 0 0 0 0 0 0.06 0"/>
<feBlend mode="normal" in2="BackgroundImageFix" result="effect1_dropShadow_14_776"/>
<feBlend mode="normal" in="SourceGraphic" in2="effect1_dropShadow_14_776" result="shape"/>
</filter>
<linearGradient id="paint0_linear_14_776" x1="1.14282" y1="4.57288" x2="1.14282" y2="10.2872" gradientUnits="userSpaceOnUse">
<stop stop-color="white"/>
<stop offset="1" stop-color="#F0F0F0"/>
</linearGradient>
</defs>
</svg>
