<svg width="24" height="24" viewBox="0 0 24 24" fill="none" xmlns="http://www.w3.org/2000/svg">
<rect x="0.25" y="3.68005" width="23.5" height="16.6429" rx="1.75" fill="white" stroke="#F5F5F5" stroke-width="0.5"/>
<mask id="mask0_14_908" style="mask-type:luminance" maskUnits="userSpaceOnUse" x="0" y="3" width="24" height="18">
<rect x="0.25" y="3.68005" width="23.5" height="16.6429" rx="1.75" fill="white" stroke="white" stroke-width="0.5"/>
</mask>
<g mask="url(#mask0_14_908)">
<path fill-rule="evenodd" clip-rule="evenodd" d="M0 9.14434H24V3.43005H0V9.14434Z" fill="#04AAC8"/>
<path fill-rule="evenodd" clip-rule="evenodd" d="M0 20.5728H24V14.8585H0V20.5728Z" fill="#23C840"/>
<path fill-rule="evenodd" clip-rule="evenodd" d="M8.57135 5.71573C8.88694 5.71573 9.14278 5.4599 9.14278 5.1443C9.14278 4.82871 8.88694 4.57288 8.57135 4.57288C8.25576 4.57288 7.99992 4.82871 7.99992 5.1443C7.99992 5.4599 8.25576 5.71573 8.57135 5.71573ZM3.99993 8.00148C4.35253 8.00148 4.68027 7.89503 4.95275 7.71251C4.92113 7.7146 4.88923 7.71566 4.85708 7.71566C4.0681 7.71566 3.42851 7.07607 3.42851 6.28709C3.42851 5.49811 4.0681 4.85852 4.85708 4.85852C4.88911 4.85852 4.9209 4.85957 4.95241 4.86165C4.67999 4.67927 4.35238 4.57291 3.99993 4.57291C3.05316 4.57291 2.28564 5.34042 2.28564 6.2872C2.28564 7.23397 3.05316 8.00148 3.99993 8.00148ZM6.85707 7.43009C6.85707 7.74568 6.60124 8.00152 6.28564 8.00152C5.97005 8.00152 5.71422 7.74568 5.71422 7.43009C5.71422 7.1145 5.97005 6.85866 6.28564 6.85866C6.60124 6.85866 6.85707 7.1145 6.85707 7.43009ZM11.4285 5.1443C11.4285 5.4599 11.1727 5.71573 10.8571 5.71573C10.5415 5.71573 10.2857 5.4599 10.2857 5.1443C10.2857 4.82871 10.5415 4.57288 10.8571 4.57288C11.1727 4.57288 11.4285 4.82871 11.4285 5.1443ZM10.8571 8.00152C11.1727 8.00152 11.4285 7.74568 11.4285 7.43009C11.4285 7.1145 11.1727 6.85866 10.8571 6.85866C10.5415 6.85866 10.2857 7.1145 10.2857 7.43009C10.2857 7.74568 10.5415 8.00152 10.8571 8.00152ZM9.14278 7.43009C9.14278 7.74568 8.88694 8.00152 8.57135 8.00152C8.25576 8.00152 7.99992 7.74568 7.99992 7.43009C7.99992 7.1145 8.25576 6.85866 8.57135 6.85866C8.88694 6.85866 9.14278 7.1145 9.14278 7.43009Z" fill="white"/>
</g>
</svg>
