<svg width="24" height="24" viewBox="0 0 24 24" fill="none" xmlns="http://www.w3.org/2000/svg">
<rect y="3.43005" width="24" height="17.1429" rx="2" fill="white"/>
<mask id="mask0_14_1016" style="mask-type:luminance" maskUnits="userSpaceOnUse" x="0" y="3" width="24" height="18">
<rect y="3.43005" width="24" height="17.1429" rx="2" fill="white"/>
</mask>
<g mask="url(#mask0_14_1016)">
<path fill-rule="evenodd" clip-rule="evenodd" d="M0 14.8587H24V9.14441H0V14.8587Z" fill="#063191"/>
<path fill-rule="evenodd" clip-rule="evenodd" d="M0 20.5728H24V14.8585H0V20.5728Z" fill="#E2213B"/>
<path fill-rule="evenodd" clip-rule="evenodd" d="M12 11.4301C12.3156 11.4301 12.5714 11.1743 12.5714 10.8587C12.5714 10.5431 12.3156 10.2872 12 10.2872C11.6844 10.2872 11.4286 10.5431 11.4286 10.8587C11.4286 11.1743 11.6844 11.4301 12 11.4301ZM9.71429 12.0016C10.0299 12.0016 10.2857 11.7457 10.2857 11.4302C10.2857 11.1146 10.0299 10.8587 9.71429 10.8587C9.3987 10.8587 9.14287 11.1146 9.14287 11.4302C9.14287 11.7457 9.3987 12.0016 9.71429 12.0016ZM14.8571 11.4302C14.8571 11.7457 14.6013 12.0016 14.2857 12.0016C13.9701 12.0016 13.7143 11.7457 13.7143 11.4302C13.7143 11.1146 13.9701 10.8587 14.2857 10.8587C14.6013 10.8587 14.8571 11.1146 14.8571 11.4302ZM8.57143 13.7159C8.88702 13.7159 9.14286 13.46 9.14286 13.1444C9.14286 12.8289 8.88702 12.573 8.57143 12.573C8.25584 12.573 8 12.8289 8 13.1444C8 13.46 8.25584 13.7159 8.57143 13.7159ZM16 13.1444C16 13.46 15.7442 13.7159 15.4286 13.7159C15.113 13.7159 14.8571 13.46 14.8571 13.1444C14.8571 12.8289 15.113 12.573 15.4286 12.573C15.7442 12.573 16 12.8289 16 13.1444Z" fill="white"/>
<path fill-rule="evenodd" clip-rule="evenodd" d="M0 9.14434H24V3.43005H0V9.14434Z" fill="#FFD044"/>
</g>
</svg>
