<svg width="24" height="24" viewBox="0 0 24 24" fill="none" xmlns="http://www.w3.org/2000/svg">
<rect y="3.43005" width="24" height="17.1429" rx="2" fill="white"/>
<mask id="mask0_14_923" style="mask-type:luminance" maskUnits="userSpaceOnUse" x="0" y="3" width="24" height="18">
<rect y="3.43005" width="24" height="17.1429" rx="2" fill="white"/>
</mask>
<g mask="url(#mask0_14_923)">
<rect y="3.43005" width="24" height="17.1429" fill="#19BFBF"/>
<path fill-rule="evenodd" clip-rule="evenodd" d="M11.9999 18.2872C15.4715 18.2872 18.2857 15.473 18.2857 12.0015C18.2857 8.53003 15.4715 5.71582 11.9999 5.71582C8.52844 5.71582 5.71423 8.53003 5.71423 12.0015C5.71423 15.473 8.52844 18.2872 11.9999 18.2872ZM17.1114 12.5729C16.8992 14.4921 15.6309 16.093 13.9006 16.7816C14.4577 15.6467 14.7832 14.1683 14.8459 12.5729H17.1114ZM13.7019 12.5729C13.6185 14.5006 13.1152 16.2043 12.3305 17.1338C12.2212 17.1407 12.111 17.1442 12 17.1442C11.8889 17.1442 11.7787 17.1407 11.6694 17.1338C10.8847 16.2043 10.3814 14.5006 10.298 12.5729H13.7019ZM9.15397 12.5729C9.21667 14.1683 9.54217 15.6467 10.0993 16.7816C8.36899 16.093 7.10072 14.4921 6.88852 12.5729H9.15397ZM10.298 11.4301H13.7019C13.6185 9.50222 13.1151 7.79839 12.3303 6.86894C12.2211 6.86202 12.1109 6.8585 12 6.8585C11.889 6.8585 11.7788 6.86202 11.6696 6.86894C10.8848 7.79839 10.3814 9.50223 10.298 11.4301ZM10.0995 7.22107C9.54221 8.35598 9.21667 9.83454 9.15397 11.4301H6.88848C7.10061 9.51071 8.36897 7.90966 10.0995 7.22107ZM17.1115 11.4301H14.8459C14.7832 9.83454 14.4577 8.35597 13.9005 7.22106C15.6309 7.90964 16.8993 9.51069 17.1115 11.4301Z" fill="white"/>
</g>
</svg>
