<svg width="24" height="24" viewBox="0 0 24 24" fill="none" xmlns="http://www.w3.org/2000/svg">
<path d="M13.8982 3.00586H10.1175C10.0622 3.00586 10.0175 3.05063 10.0175 3.10586V10.0166L3.10684 10.0166C3.05161 10.0166 3.00684 10.0614 3.00684 10.1166V13.8973C3.00684 13.9525 3.05161 13.9973 3.10684 13.9973L10.0175 13.9973V20.9078C10.0175 20.963 10.0622 21.0078 10.1175 21.0078H13.8982C13.9534 21.0078 13.9982 20.963 13.9982 20.9078V13.9973H20.9088C20.964 13.9973 21.0088 13.9525 21.0088 13.8973V10.1166C21.0088 10.0614 20.964 10.0166 20.9088 10.0166L13.9982 10.0166V3.10586C13.9982 3.05063 13.9534 3.00586 13.8982 3.00586Z" stroke="white" stroke-width="1.5"/>
</svg>
