<svg width="24" height="24" viewBox="0 0 24 24" fill="none" xmlns="http://www.w3.org/2000/svg">
<path d="M12.0547 13.0375V8.02051M12.0547 14.5426V16.0477" stroke="black" stroke-width="1.5" stroke-linejoin="round"/>
<path d="M4.50044 19.3649C4.50044 19.4758 4.59048 19.5656 4.70154 19.5656H8.99165L11.9478 21.949C12.0264 22.0274 12.1537 22.0274 12.2322 21.949L15.0259 19.5656H19.4616C19.5727 19.5656 19.6627 19.4758 19.6627 19.3649V15.1459L22.0304 12.1625C22.109 12.0841 22.109 11.9571 22.0304 11.8787L19.6627 8.89538V4.65941C19.6627 4.54858 19.5727 4.45873 19.4616 4.45873H15.2168L12.2153 2.06464C12.1368 1.98627 12.0095 1.98627 11.9309 2.06464L8.92941 4.45873H4.70154C4.59048 4.45873 4.50044 4.54858 4.50044 4.65941V8.87849L2.14679 11.8618C2.06826 11.9402 2.06826 12.0673 2.14679 12.1456L4.50044 15.129V19.3649Z" stroke="black" stroke-width="1.5"/>
</svg>
