<svg width="24" height="24" viewBox="0 0 24 24" fill="none" xmlns="http://www.w3.org/2000/svg">
<path d="M20.0048 6.76274L17.3187 4.07534C17.2795 4.03608 17.2158 4.03608 17.1766 4.07534L12.0459 9.21961L6.89175 4.08599C6.85251 4.04673 6.78889 4.04673 6.74965 4.08599L4.06361 6.77339C4.02437 6.81264 4.02437 6.87629 4.06361 6.91555L9.21773 12.0492L4.08481 17.1869C4.04557 17.2262 4.04557 17.2898 4.08481 17.3291L6.77085 20.0165C6.81009 20.0557 6.87371 20.0557 6.91295 20.0165L12.0459 14.8787L17.1587 20.0147C17.198 20.0539 17.2616 20.0539 17.3008 20.0147L19.9869 17.3273C20.0261 17.288 20.0261 17.2244 19.9869 17.1851L14.874 12.0492L20.0048 6.9049C20.044 6.86564 20.044 6.80199 20.0048 6.76274Z" stroke="white" stroke-width="1.5"/>
</svg>
