<svg width="24" height="24" viewBox="0 0 24 24" fill="none" xmlns="http://www.w3.org/2000/svg">
<path d="M12.0233 9C12.0233 4.5 14.0325 4 16.0418 4C16.0418 7 14.5348 9 12.0233 9ZM12.0233 9C12.0233 4.5 10.0141 4 8.00488 4C8.00488 7 9.5118 9 12.0233 9Z" stroke="black" stroke-width="1.5"/>
<path d="M10.0137 4C10.0137 4 10.516 2.5 12.0229 2C13.5298 2.5 14.0321 4 14.0321 4" stroke="black" stroke-width="1.5"/>
<path d="M12.0225 9V15" stroke="black" stroke-width="1.5" stroke-linejoin="round"/>
<path d="M12.0225 13C12.2736 12.3333 13.228 11 15.0363 11" stroke="black" stroke-width="1.5" stroke-linejoin="round"/>
<path d="M16.9391 15.0154L7.13706 15.0146C7.07008 15.0146 7.0217 15.0782 7.04005 15.142L9.00928 21.9951L15.0613 21.9958L17.0361 15.1428C17.0545 15.079 17.0061 15.0154 16.9391 15.0154Z" stroke="black" stroke-width="1.5"/>
</svg>
