<svg width="24" height="24" viewBox="0 0 24 24" fill="none" xmlns="http://www.w3.org/2000/svg">
<path d="M18.5 10.9969C19.1667 10.3068 19.1667 9.18803 18.5 8.49797C17.8333 7.8079 17.8333 6.68909 18.5 5.99902M15.5 10.9969C16.1667 10.3068 16.1667 9.18803 15.5 8.49797C14.8333 7.8079 14.8333 6.68909 15.5 5.99902" stroke="black" stroke-width="1.5"/>
<path d="M5 13.9953V9.49725H9L13.5 16.4943M9 4.99915C9 6.10326 8.10457 6.99831 7 6.99831C5.89543 6.99831 5 6.10326 5 4.99915C5 3.89505 5.89543 3 7 3C8.10457 3 9 3.89505 9 4.99915Z" stroke="black" stroke-width="1.5" stroke-linejoin="round"/>
<path d="M4.01288 13.9922L5.99262 21.0007H18.0011L20.0108 13.9922M4.01288 13.9922H2.02344M4.01288 13.9922H20.0108M20.0108 13.9922H22.0209" stroke="black" stroke-width="1.5"/>
</svg>
