<svg width="24" height="24" viewBox="0 0 24 24" fill="none" xmlns="http://www.w3.org/2000/svg">
<path d="M12 16V11H10M12 7.5V9" stroke="black" stroke-width="1.5"/>
<path d="M4.50044 19.3444C4.50044 19.4553 4.59048 19.5451 4.70154 19.5451H8.99165L11.9478 21.9285C12.0264 22.0069 12.1537 22.0069 12.2322 21.9285L15.0259 19.5451H19.4616C19.5727 19.5451 19.6627 19.4553 19.6627 19.3444V15.1253L22.0304 12.142C22.109 12.0636 22.109 11.9366 22.0304 11.8582L19.6627 8.87487V4.6389C19.6627 4.52807 19.5727 4.43822 19.4616 4.43822H15.2168L12.2153 2.04413C12.1368 1.96576 12.0095 1.96576 11.9309 2.04413L8.92941 4.43822H4.70154C4.59048 4.43822 4.50044 4.52807 4.50044 4.6389V8.85798L2.14679 11.8413C2.06826 11.9197 2.06826 12.0467 2.14679 12.1251L4.50044 15.1085V19.3444Z" stroke="black" stroke-width="1.5"/>
</svg>
