<svg width="24" height="24" viewBox="0 0 24 24" fill="none" xmlns="http://www.w3.org/2000/svg">
<path d="M12.0198 19.0153C12.8505 19.0153 13.524 18.3431 13.524 17.514C13.524 16.6849 12.8505 16.0127 12.0198 16.0127C11.1891 16.0127 10.5156 16.6849 10.5156 17.514C10.5156 18.3431 11.1891 19.0153 12.0198 19.0153Z" stroke="black" stroke-width="1.5"/>
<path d="M12.02 16.0112V12.0078M12.02 22.0164V19.0138M8.00879 22.0164H16.0312" stroke="black" stroke-width="1.5" stroke-linejoin="round"/>
<path d="M16.9354 11.9676L7.09966 11.9686C7.03456 11.9686 5.12287 12.0531 5.01969 11.9756C5.01484 11.972 5.01661 11.9647 5.01886 11.9591L9.00436 2.01562H15.0351L19.0058 11.9052C19.0209 11.9429 19.0161 11.9678 18.9754 11.9679C18.6359 11.9683 16.9939 11.9676 16.9354 11.9676Z" stroke="black" stroke-width="1.5"/>
</svg>
