<svg width="24" height="24" viewBox="0 0 24 24" fill="none" xmlns="http://www.w3.org/2000/svg">
<path d="M9 21C9.79613 21.6219 10.8475 22 12 22C13.1525 22 14.2039 21.6219 15 21" stroke="black" stroke-width="1.5" stroke-linejoin="round"/>
<path d="M15.5 4H21V4.5L16 9.5V10H21.5" stroke="black" stroke-width="1.5"/>
<path d="M14.4927 2.41321C13.723 2.14672 12.8965 2.00195 12.0361 2.00195C7.89353 2.00195 4.53529 5.35821 4.53529 9.49837V12.409L2.54006 15.8544C2.51708 15.8941 2.52234 15.9428 2.55571 15.9742C5.45819 18.7073 15.0934 21.1355 21.4319 15.9551C21.47 15.9239 21.4799 15.8692 21.4548 15.8269L19.5029 12.5353" stroke="black" stroke-width="1.5"/>
</svg>
