<svg width="24" height="24" viewBox="0 0 24 24" fill="none" xmlns="http://www.w3.org/2000/svg">
<path d="M10.4717 3.5C10.4717 4.32843 11.1451 5 11.9758 5C12.8064 5 13.4798 4.32843 13.4798 3.5C13.4798 2.67157 12.8064 2 11.9758 2C11.1451 2 10.4717 2.67157 10.4717 3.5Z" stroke="black" stroke-width="1.5" stroke-linejoin="round"/>
<path d="M14.9841 19C14.9841 20.6569 13.6373 22 11.9759 22C10.3145 22 8.96777 20.6569 8.96777 19" stroke="black" stroke-width="1.5" stroke-linejoin="round"/>
<path d="M3.00293 19H20.9988V16.4399L18.8285 13.9663V11.4045C18.8285 8.22521 15.8556 5 12.0131 5C8.17065 5 5.12106 8.37973 5.12106 11.3729V13.9392L3.00293 16.5198V19Z" stroke="black" stroke-width="1.5"/>
</svg>
