<svg width="24" height="24" viewBox="0 0 24 24" fill="none" xmlns="http://www.w3.org/2000/svg">
<path d="M22 5.48352C22 7.40743 20.433 8.96705 18.5 8.96705C16.567 8.96705 15 7.40743 15 5.48352C15 3.55962 16.567 2 18.5 2C20.433 2 22 3.55962 22 5.48352Z" stroke="black" stroke-width="1.5" stroke-linejoin="round"/>
<path d="M21.9996 10.0108V12.4274C21.9996 16.8518 18.4085 20.4384 13.9787 20.4384H10.0245C8.77024 20.4384 7.42807 20.0736 6.37077 19.5609L2.13147 20.9907C2.05002 21.019 1.9732 20.9382 2.00566 20.8585L3.51448 17.1083C2.63751 15.824 2.00353 14.0992 2.00353 12.4274V10.0999C2.00353 5.67555 5.59464 2.08887 10.0245 2.08887H12.6829" stroke="black" stroke-width="1.5"/>
</svg>
