<svg width="24" height="24" viewBox="0 0 24 24" fill="none" xmlns="http://www.w3.org/2000/svg">
<path d="M7.99747 18L6.99805 22M15.9928 18L16.9923 22" stroke="black" stroke-width="1.5" stroke-linejoin="round"/>
<path d="M6.49941 9.00001L6.15264 4.14249C6.07 2.98475 6.9864 1.99999 8.14642 2L15.8458 2.00002C17.0058 2.00002 17.9222 2.98473 17.8395 4.14243L17.493 9.00001" stroke="black" stroke-width="1.5" stroke-linejoin="round"/>
<path d="M8.26562 12C9.33104 12 10.4627 12 11.9955 12C13.5283 12 14.5969 12 15.6623 12" stroke="black" stroke-width="1.5"/>
<path d="M5.969 9C4.89126 9 4.01758 9.90527 4.01758 11.022C4.10468 11.8793 4.38446 12.3956 5.01861 12.744L6.48409 17.9283C6.4962 17.9711 6.53513 18.0008 6.57961 18.0011L12.0157 18.0011H17.429C17.4734 18.0008 17.5122 17.9713 17.5244 17.9286L19.0072 12.744C19.6488 12.3956 19.9319 11.8793 20.02 11.022C20.02 9.90527 19.1361 9 18.0457 9C17.0728 9 16.2643 9.72065 16.1013 10.6691L15.0298 15.0091H12.085H9.01011L7.89082 10.6691C7.72973 9.72065 6.93059 9 5.969 9Z" stroke="black" stroke-width="1.5"/>
</svg>
