<svg width="24" height="24" viewBox="0 0 24 24" fill="none" xmlns="http://www.w3.org/2000/svg">
<path d="M7 16V19M17 16V19" stroke="black" stroke-width="1.5" stroke-linejoin="round"/>
<path d="M4.5 8.99999L5.51334 6.29776C5.80607 5.51715 6.55231 5 7.386 5H16.614C17.4477 5 18.1939 5.51715 18.4867 6.29776L19.5 8.99999" stroke="black" stroke-width="1.5" stroke-linejoin="round"/>
<path d="M5.99791 10.0087L5.99798 10.0257M12.0726 15.9983H18.4378C18.4754 15.9983 18.5098 15.9772 18.5269 15.9438L20.0136 13.0339C20.8301 13.0339 21.9068 12.4906 22.0019 10.9809C22.0709 9.88403 21.0278 8.99414 19.9243 8.99414C19.2764 8.99414 18.3815 9.54157 18.0891 10.3752L16.6118 12.9958L12.0726 12.9862L7.40208 12.9958L5.92477 10.3752C5.63239 9.54157 4.73749 8.99414 4.08963 8.99414C2.98616 8.99414 1.94299 9.88403 2.01204 10.9809C2.10707 12.4906 3.18386 13.0339 4.0003 13.0339L5.48704 15.9438C5.50413 15.9772 5.53852 15.9983 5.57609 15.9983H12.1007M18.016 10.0087L18.0159 10.0257" stroke="black" stroke-width="1.5"/>
</svg>
