<svg width="24" height="24" viewBox="0 0 24 24" fill="none" xmlns="http://www.w3.org/2000/svg">
<path d="M14.4004 13.9803C15.3717 13.0696 16 11.6198 16 9.98691C16 7.23002 14.2091 4.99512 12 4.99512C9.79086 4.99512 8 7.23002 8 9.98691C8 11.6198 8.62827 13.0696 9.59961 13.9803" stroke="black" stroke-width="1.5"/>
<path d="M18 10.9852H20V2H4V10.9852H6" stroke="black" stroke-width="1.5" stroke-linejoin="round"/>
<path d="M6.99609 13.9831L12.1704 13.9831L17.0201 13.9668C16.9358 16.8412 15.7119 18.3132 14.5088 19.1516L15.9927 21.8323C16.0294 21.8988 15.9811 21.9802 15.9051 21.9802H11.8096L8.11115 21.9965C8.03509 21.9965 7.98687 21.9151 8.02353 21.8486L9.51321 19.1556C8.30416 18.3482 7.14493 16.8828 6.99609 13.9831Z" stroke="black" stroke-width="1.5"/>
</svg>
