<svg width="24" height="24" viewBox="0 0 24 24" fill="none" xmlns="http://www.w3.org/2000/svg">
<path d="M19.9202 18.9757C19.9202 17.3212 18.6308 15.98 17.0402 15.98C15.4495 15.98 14.1602 17.3212 14.1602 18.9757C14.1602 20.6303 15.4495 21.9715 17.0402 21.9715C18.6308 21.9715 19.9202 20.6303 19.9202 18.9757Z" stroke="white" stroke-width="1.44" stroke-linejoin="round"/>
<path d="M19.3796 4.9585L18.7646 16.5559M4.97363 4.9585L5.99023 20.9352C5.99339 20.9879 6.03681 21.029 6.0893 21.029H14.8315" stroke="white" stroke-width="1.5"/>
<path d="M2.68066 4.95251H9.31195M9.31195 4.95251L11.7518 1.97173L18.2933 1.97168C18.3373 1.97168 18.3762 2.00049 18.389 2.04263L19.2725 4.95251M9.31195 4.95251H19.2725M19.2645 4.92529L19.2725 4.95251M19.2725 4.95251H21.6831" stroke="white" stroke-width="1.5"/>
</svg>
