<svg width="147" height="40" viewBox="0 0 147 40" fill="none" xmlns="http://www.w3.org/2000/svg">
<rect x="0.5" y="0.5" width="146" height="39" rx="6.75" fill="black"/>
<rect x="0.5" y="0.5" width="146" height="39" rx="6.75" stroke="#A3A3A3"/>
<path d="M64.7516 20.3987H66.7715V31.3885H64.7516V20.3987Z" fill="white"/>
<path d="M42.5 25.9699C42.5 22.8811 44.8314 20.4009 48.039 20.4009C50.2816 20.4009 52.0489 21.5444 52.9695 23.1779L51.1875 24.2473C50.5193 23.0146 49.4799 22.3611 48.054 22.3611C46.0343 22.3611 44.5047 23.9946 44.5047 25.9699C44.5047 27.9745 46.0196 29.5786 48.1281 29.5786C49.7469 29.5786 50.8757 28.6578 51.2616 27.2322H47.8017V25.3017H53.4298V26.1037C53.4298 29.0289 51.3657 31.5392 48.1281 31.5392C44.7423 31.5392 42.5 28.9695 42.5 25.9699Z" fill="white"/>
<path d="M54.3525 27.0543C54.3525 24.1732 56.4613 22.525 58.6592 22.525C59.8027 22.525 60.8274 22.9999 61.4512 23.7426V22.7032H63.4558V31.3907H61.4512V30.2616C60.8124 31.0636 59.773 31.5689 58.6295 31.5689C56.5354 31.5689 54.3525 29.8904 54.3525 27.0543ZM61.555 27.0246C61.555 25.5543 60.4412 24.3514 58.9562 24.3514C57.4713 24.3514 56.3278 25.5249 56.3278 27.0246C56.3278 28.539 57.4713 29.7272 58.9562 29.7272C60.4412 29.7272 61.555 28.5243 61.555 27.0246Z" fill="white"/>
<path d="M67.7938 27.0543C67.7938 24.1732 69.9026 22.525 72.1005 22.525C73.244 22.525 74.2686 22.9999 74.8925 23.7426V22.7032H76.8971V31.3907H74.8925V30.2616C74.2539 31.0636 73.2146 31.5689 72.0707 31.5689C69.977 31.5689 67.7938 29.8904 67.7938 27.0543ZM74.9966 27.0246C74.9966 25.5543 73.8828 24.3514 72.3981 24.3514C70.9128 24.3514 69.7693 25.5249 69.7693 27.0246C69.7693 28.539 70.9128 29.7272 72.3981 29.7272C73.8825 29.7272 74.9966 28.5243 74.9966 27.0246Z" fill="white"/>
<path d="M80.8048 26.9652L77.6566 22.7032H80.1072L82.0818 25.4652L84.0424 22.7032H86.4182L83.2994 26.9949L86.6261 31.3907H84.1759L82.0524 28.4949L79.988 31.3907H77.5375L80.8048 26.9652Z" fill="white"/>
<path d="M90.3846 30.9598L86.8206 22.7029H88.9588L91.3796 28.554L93.6663 22.7029H95.7757L90.5926 35.4H88.5582L90.3846 30.9598Z" fill="white"/>
<path d="M99.8907 29.5936L101.732 28.1384C102.282 29.074 103.128 29.6083 104.108 29.6083C105.178 29.6083 105.757 28.911 105.757 28.1531C105.757 27.2325 104.658 26.9505 103.499 26.594C102.044 26.1334 100.426 25.5693 100.426 23.5049C100.426 21.7676 101.94 20.4012 104.019 20.4012C105.772 20.4012 106.781 21.0697 107.658 21.9756L105.994 23.2376C105.534 22.5547 104.895 22.1982 104.034 22.1982C103.054 22.1982 102.519 22.7329 102.519 23.4305C102.519 24.292 103.559 24.5743 104.732 24.9605C106.203 25.4355 107.866 26.089 107.866 28.1681C107.866 29.8757 106.499 31.5395 104.123 31.5395C102.163 31.5392 100.871 30.7071 99.8907 29.5936Z" fill="white"/>
<path d="M108.03 22.7029H109.515V21.3812L111.535 20V22.7029H113.302V24.4999H111.535V27.7519C111.535 29.2669 111.743 29.5045 113.302 29.5045V31.3904H113.02C110.332 31.3904 109.515 30.5292 109.515 27.7672V24.4999H108.03L108.03 22.7029Z" fill="white"/>
<path d="M113.838 27.0543C113.838 24.5296 115.827 22.5247 118.337 22.5247C120.832 22.5247 122.837 24.5296 122.837 27.0543C122.837 29.5639 120.832 31.5689 118.337 31.5689C115.827 31.5689 113.838 29.5639 113.838 27.0543ZM120.862 27.0543C120.862 25.599 119.747 24.4108 118.337 24.4108C116.896 24.4108 115.812 25.599 115.812 27.0543C115.812 28.4949 116.896 29.6828 118.337 29.6828C119.747 29.6828 120.862 28.4949 120.862 27.0543Z" fill="white"/>
<path d="M125.853 22.7029V23.9949C126.254 23.1335 126.981 22.7029 128.08 22.7029C128.704 22.7029 129.223 22.8514 129.61 23.0741L128.852 24.9749C128.555 24.782 128.214 24.6334 127.649 24.6334C126.491 24.6334 125.867 25.2573 125.867 26.7569V31.3904H123.862V22.7029H125.853Z" fill="white"/>
<path d="M129.834 27.069C129.834 24.5296 131.808 22.5247 134.348 22.5247C136.932 22.5247 138.818 24.4255 138.818 26.9949V27.7519H131.749C132.017 28.9701 132.997 29.8016 134.423 29.8016C135.536 29.8016 136.413 29.1928 136.828 28.2719L138.477 29.2222C137.719 30.6186 136.353 31.5686 134.423 31.5686C131.69 31.5686 129.834 29.5786 129.834 27.069ZM131.853 26.074H136.784C136.487 24.9158 135.596 24.292 134.348 24.292C133.145 24.292 132.21 25.0196 131.853 26.074Z" fill="white"/>
<path d="M46.6988 13.974H43.902L43.3868 15.4H42.5036L44.822 9.02442H45.788L48.0972 15.4H47.214L46.6988 13.974ZM46.4596 13.2932L45.3004 10.0548L44.1412 13.2932H46.4596Z" fill="white"/>
<path d="M50.4324 14.6272L51.9964 10.3584H52.8888L50.9108 15.4H49.9356L47.9576 10.3584H48.8592L50.4324 14.6272Z" fill="white"/>
<path d="M53.4919 12.8608C53.4919 12.3456 53.5961 11.8948 53.8047 11.5084C54.0132 11.1159 54.2984 10.8123 54.6603 10.5976C55.0283 10.383 55.4361 10.2756 55.8839 10.2756C56.3255 10.2756 56.7088 10.3707 57.0339 10.5608C57.3589 10.751 57.6012 10.9902 57.7607 11.2784V10.3584H58.6071V15.4H57.7607V14.4616C57.5951 14.756 57.3467 15.0014 57.0155 15.1976C56.6904 15.3878 56.3101 15.4828 55.8747 15.4828C55.4269 15.4828 55.0221 15.3724 54.6603 15.1516C54.2984 14.9308 54.0132 14.6211 53.8047 14.2224C53.5961 13.8238 53.4919 13.3699 53.4919 12.8608ZM57.7607 12.87C57.7607 12.4898 57.684 12.1586 57.5307 11.8764C57.3773 11.5943 57.1688 11.3796 56.9051 11.2324C56.6475 11.0791 56.3623 11.0024 56.0495 11.0024C55.7367 11.0024 55.4515 11.076 55.1939 11.2232C54.9363 11.3704 54.7308 11.5851 54.5775 11.8672C54.4241 12.1494 54.3475 12.4806 54.3475 12.8608C54.3475 13.2472 54.4241 13.5846 54.5775 13.8728C54.7308 14.155 54.9363 14.3727 55.1939 14.526C55.4515 14.6732 55.7367 14.7468 56.0495 14.7468C56.3623 14.7468 56.6475 14.6732 56.9051 14.526C57.1688 14.3727 57.3773 14.155 57.5307 13.8728C57.684 13.5846 57.7607 13.2503 57.7607 12.87Z" fill="white"/>
<path d="M60.2702 9.53962C60.1108 9.53962 59.9758 9.48442 59.8654 9.37402C59.755 9.26362 59.6998 9.12869 59.6998 8.96922C59.6998 8.80976 59.755 8.67482 59.8654 8.56442C59.9758 8.45402 60.1108 8.39882 60.2702 8.39882C60.4236 8.39882 60.5524 8.45402 60.6566 8.56442C60.767 8.67482 60.8222 8.80976 60.8222 8.96922C60.8222 9.12869 60.767 9.26362 60.6566 9.37402C60.5524 9.48442 60.4236 9.53962 60.2702 9.53962ZM60.675 10.3584V15.4H59.8378V10.3584H60.675Z" fill="white"/>
<path d="M62.7551 8.59202V15.4H61.9179V8.59202H62.7551Z" fill="white"/>
<path d="M63.8692 12.8608C63.8692 12.3456 63.9734 11.8948 64.182 11.5084C64.3905 11.1159 64.6757 10.8123 65.0376 10.5976C65.4056 10.383 65.8134 10.2756 66.2612 10.2756C66.7028 10.2756 67.0861 10.3707 67.4112 10.5608C67.7362 10.751 67.9785 10.9902 68.138 11.2784V10.3584H68.9844V15.4H68.138V14.4616C67.9724 14.756 67.724 15.0014 67.3928 15.1976C67.0677 15.3878 66.6874 15.4828 66.252 15.4828C65.8042 15.4828 65.3994 15.3724 65.0376 15.1516C64.6757 14.9308 64.3905 14.6211 64.182 14.2224C63.9734 13.8238 63.8692 13.3699 63.8692 12.8608ZM68.138 12.87C68.138 12.4898 68.0613 12.1586 67.908 11.8764C67.7546 11.5943 67.5461 11.3796 67.2824 11.2324C67.0248 11.0791 66.7396 11.0024 66.4268 11.0024C66.114 11.0024 65.8288 11.076 65.5712 11.2232C65.3136 11.3704 65.1081 11.5851 64.9548 11.8672C64.8014 12.1494 64.7248 12.4806 64.7248 12.8608C64.7248 13.2472 64.8014 13.5846 64.9548 13.8728C65.1081 14.155 65.3136 14.3727 65.5712 14.526C65.8288 14.6732 66.114 14.7468 66.4268 14.7468C66.7396 14.7468 67.0248 14.6732 67.2824 14.526C67.5461 14.3727 67.7546 14.155 67.908 13.8728C68.0613 13.5846 68.138 13.2503 68.138 12.87Z" fill="white"/>
<path d="M71.3284 11.2968C71.5001 10.9963 71.7516 10.751 72.0828 10.5608C72.414 10.3707 72.7912 10.2756 73.2144 10.2756C73.6682 10.2756 74.0761 10.383 74.438 10.5976C74.7998 10.8123 75.085 11.1159 75.2936 11.5084C75.5021 11.8948 75.6063 12.3456 75.6063 12.8608C75.6063 13.3699 75.5021 13.8238 75.2936 14.2224C75.085 14.6211 74.7967 14.9308 74.4288 15.1516C74.0669 15.3724 73.6621 15.4828 73.2144 15.4828C72.7789 15.4828 72.3956 15.3878 72.0644 15.1976C71.7393 15.0075 71.494 14.7652 71.3284 14.4708V15.4H70.4912V8.59202H71.3284V11.2968ZM74.7508 12.8608C74.7508 12.4806 74.6741 12.1494 74.5208 11.8672C74.3674 11.5851 74.1589 11.3704 73.8952 11.2232C73.6376 11.076 73.3524 11.0024 73.0396 11.0024C72.7329 11.0024 72.4477 11.0791 72.184 11.2324C71.9264 11.3796 71.7178 11.5974 71.5584 11.8856C71.405 12.1678 71.3284 12.4959 71.3284 12.87C71.3284 13.2503 71.405 13.5846 71.5584 13.8728C71.7178 14.155 71.9264 14.3727 72.184 14.526C72.4477 14.6732 72.7329 14.7468 73.0396 14.7468C73.3524 14.7468 73.6376 14.6732 73.8952 14.526C74.1589 14.3727 74.3674 14.155 74.5208 13.8728C74.6741 13.5846 74.7508 13.2472 74.7508 12.8608Z" fill="white"/>
<path d="M77.5455 8.59202V15.4H76.7083V8.59202H77.5455Z" fill="white"/>
<path d="M83.6644 12.686C83.6644 12.8455 83.6552 13.0142 83.6368 13.192H79.6072C79.6379 13.6888 79.8065 14.0783 80.1132 14.3604C80.426 14.6364 80.8032 14.7744 81.2448 14.7744C81.6067 14.7744 81.9072 14.6916 82.1464 14.526C82.3917 14.3543 82.5635 14.1274 82.6616 13.8452H83.5632C83.4283 14.3298 83.1584 14.7254 82.7536 15.032C82.3488 15.3326 81.8459 15.4828 81.2448 15.4828C80.7664 15.4828 80.3371 15.3755 79.9568 15.1608C79.5827 14.9462 79.2883 14.6426 79.0736 14.25C78.8589 13.8514 78.7516 13.3914 78.7516 12.87C78.7516 12.3487 78.8559 11.8918 79.0644 11.4992C79.2729 11.1067 79.5643 10.8062 79.9384 10.5976C80.3187 10.383 80.7541 10.2756 81.2448 10.2756C81.7232 10.2756 82.1464 10.3799 82.5144 10.5884C82.8824 10.797 83.1645 11.0852 83.3608 11.4532C83.5632 11.8151 83.6644 12.226 83.6644 12.686ZM82.7996 12.5112C82.7996 12.1923 82.7291 11.9194 82.588 11.6924C82.4469 11.4594 82.2537 11.2846 82.0084 11.168C81.7692 11.0454 81.5024 10.984 81.208 10.984C80.7848 10.984 80.4229 11.119 80.1224 11.3888C79.828 11.6587 79.6593 12.0328 79.6164 12.5112H82.7996Z" fill="white"/>
<path d="M89.605 15.4828C89.1327 15.4828 88.7034 15.3755 88.317 15.1608C87.9367 14.9462 87.6362 14.6426 87.4154 14.25C87.2007 13.8514 87.0934 13.3914 87.0934 12.87C87.0934 12.3548 87.2038 11.901 87.4246 11.5084C87.6515 11.1098 87.9582 10.8062 88.3446 10.5976C88.731 10.383 89.1634 10.2756 89.6418 10.2756C90.1202 10.2756 90.5526 10.383 90.939 10.5976C91.3254 10.8062 91.629 11.1067 91.8498 11.4992C92.0767 11.8918 92.1902 12.3487 92.1902 12.87C92.1902 13.3914 92.0737 13.8514 91.8406 14.25C91.6137 14.6426 91.3039 14.9462 90.9114 15.1608C90.5189 15.3755 90.0834 15.4828 89.605 15.4828ZM89.605 14.7468C89.9055 14.7468 90.1877 14.6763 90.4514 14.5352C90.7151 14.3942 90.9267 14.1826 91.0862 13.9004C91.2518 13.6183 91.3346 13.2748 91.3346 12.87C91.3346 12.4652 91.2549 12.1218 91.0954 11.8396C90.9359 11.5575 90.7274 11.349 90.4698 11.214C90.2122 11.073 89.9331 11.0024 89.6326 11.0024C89.3259 11.0024 89.0438 11.073 88.7862 11.214C88.5347 11.349 88.3323 11.5575 88.179 11.8396C88.0257 12.1218 87.949 12.4652 87.949 12.87C87.949 13.281 88.0226 13.6275 88.1698 13.9096C88.3231 14.1918 88.5255 14.4034 88.777 14.5444C89.0285 14.6794 89.3045 14.7468 89.605 14.7468Z" fill="white"/>
<path d="M95.9314 10.2664C96.5447 10.2664 97.0415 10.4535 97.4218 10.8276C97.802 11.1956 97.9922 11.7292 97.9922 12.4284V15.4H97.1642V12.548C97.1642 12.0451 97.0384 11.6618 96.787 11.398C96.5355 11.1282 96.192 10.9932 95.7566 10.9932C95.315 10.9932 94.9623 11.1312 94.6986 11.4072C94.441 11.6832 94.3122 12.085 94.3122 12.6124V15.4H93.475V10.3584H94.3122V11.076C94.4778 10.8184 94.7016 10.6191 94.9838 10.478C95.272 10.337 95.5879 10.2664 95.9314 10.2664Z" fill="white"/>
<rect x="9" y="7" width="26" height="26" rx="10" fill="url(#paint0_angular_14_2674)"/>
<path fill-rule="evenodd" clip-rule="evenodd" d="M25.7917 16.5694L25.7382 16.3341C25.7382 14.2733 24.0612 12.5968 21.9999 12.5968C19.9388 12.5968 18.2619 14.2733 18.2619 16.3341L18.2084 16.5694H15.1389L15.9663 24.2826C16.132 25.8515 17.4551 27.0421 19.0328 27.0421H24.9672C26.5448 27.0421 27.868 25.8515 28.0337 24.2828L28.8611 16.5694H25.7917ZM19.8334 16.5694L19.8936 16.3341C19.8936 15.1729 20.8386 14.2281 21.9999 14.2281C23.1616 14.2281 24.1065 15.1729 24.1065 16.3341L24.1667 16.5694H19.8334Z" fill="white"/>
<defs>
<radialGradient id="paint0_angular_14_2674" cx="0" cy="0" r="1" gradientUnits="userSpaceOnUse" gradientTransform="translate(22 20) rotate(88.8309) scale(13.0027)">
<stop offset="0.000415415" stop-color="#F4605E"/>
<stop offset="0.0642377" stop-color="#E94B80"/>
<stop offset="0.128396" stop-color="#DE33A4"/>
<stop offset="0.186654" stop-color="#D41AC8"/>
<stop offset="0.250949" stop-color="#CB06E5"/>
<stop offset="0.281719" stop-color="#C902EC"/>
<stop offset="0.316858" stop-color="#CB04E5"/>
<stop offset="0.371347" stop-color="#D108D3"/>
<stop offset="0.43351" stop-color="#D80DBA"/>
<stop offset="0.504024" stop-color="#E1139E"/>
<stop offset="0.59576" stop-color="#EC1E7B"/>
<stop offset="0.673288" stop-color="#F22A65"/>
<stop offset="0.713795" stop-color="#F5355B"/>
<stop offset="0.754495" stop-color="#F74452"/>
<stop offset="0.818581" stop-color="#F75651"/>
<stop offset="0.878478" stop-color="#F76051"/>
<stop offset="0.938046" stop-color="#F76551"/>
</radialGradient>
</defs>
</svg>
