<svg width="24" height="24" viewBox="0 0 24 24" fill="none" xmlns="http://www.w3.org/2000/svg">
<path d="M9.51179 15L8.54838 7.96332C8.26135 5.86688 9.8975 4 12.0219 4C14.1462 4 15.7824 5.86688 15.4953 7.96332L14.5319 15" stroke="black" stroke-width="1.5"/>
<path d="M12 15V12" stroke="black" stroke-width="1.5" stroke-linejoin="round"/>
<path d="M15.0342 6.5L17.0422 5M9.01001 6.5L7.00195 5M12.0221 4.5V2M15.0342 9.5L17.0422 11M9.01001 9.5L7.00195 11" stroke="black" stroke-width="1.5" stroke-linejoin="round"/>
<path d="M17.423 15.0147L6.62195 15.0146C6.55527 15.0146 6.50712 15.0782 6.52539 15.142L8.48558 21.9951H15.5538L17.5195 15.1422C17.5378 15.0783 17.4897 15.0147 17.423 15.0147Z" stroke="black" stroke-width="1.5"/>
</svg>
