<svg width="24" height="24" viewBox="0 0 24 24" fill="none" xmlns="http://www.w3.org/2000/svg">
<path d="M9 3H15" stroke="black" stroke-width="1.5" stroke-linejoin="round"/>
<path d="M12.0127 3V16.9784" stroke="black" stroke-width="1.5" stroke-linejoin="round"/>
<path d="M5.00391 11.9864V10.7383C5.00391 8.67048 6.57297 6.99414 8.50851 6.99414C10.4441 6.99414 12.0131 8.67048 12.0131 10.7383C12.0131 8.67048 13.5822 6.99414 15.5177 6.99414C17.4533 6.99414 19.0223 8.67048 19.0223 10.7383V11.9864" stroke="black" stroke-width="1.5" stroke-linejoin="round"/>
<path d="M2.02232 15.8637L3.51321 11.9756H6.53346L7.99514 15.8643C8.01967 15.9296 7.97128 15.9992 7.90138 15.9992H2.11585C2.04566 15.9992 1.99726 15.929 2.02232 15.8637Z" stroke="black" stroke-width="1.5"/>
<path d="M16.037 15.8637L17.5279 11.9756H20.5481L22.0098 15.8643C22.0343 15.9296 21.9859 15.9992 21.916 15.9992H16.1305C16.0603 15.9992 16.0119 15.929 16.037 15.8637Z" stroke="black" stroke-width="1.5"/>
<path d="M9.06138 20.8666L10.5523 16.9785H13.5725L15.0342 20.8672C15.0587 20.9325 15.0103 21.0021 14.9404 21.0021H9.15491C9.08473 21.0021 9.03632 20.932 9.06138 20.8666Z" stroke="black" stroke-width="1.5"/>
</svg>
