<svg width="24" height="24" viewBox="0 0 24 24" fill="none" xmlns="http://www.w3.org/2000/svg">
<path d="M22 3H2" stroke="black" stroke-width="1.5" stroke-linejoin="round"/>
<path d="M5 14.4686C5.5985 13.763 7 10.9781 7 7.98633M19 14.4686C18.4015 13.763 17 10.9781 17 7.98633" stroke="black" stroke-width="1.5" stroke-linejoin="round"/>
<path d="M4.00407 2.95508L4.00396 14.4934M4.00396 14.4934L4.00391 20.8573C4.00391 20.9124 4.04868 20.957 4.10391 20.957H8.01832C7.8933 18.397 8.12042 16.8589 6.33055 14.2452M4.00396 14.4934C6.75174 14.2452 11.626 11.8374 11.9275 2.95508" stroke="black" stroke-width="1.5"/>
<path d="M19.9615 2.95508L19.9616 14.4934M19.9616 14.4934L19.9617 20.8573C19.9617 20.9124 19.9169 20.957 19.8617 20.957H15.9473C16.0723 18.397 15.8452 16.8589 17.6351 14.2452M19.9616 14.4934C17.2139 14.2452 12.3396 11.8374 12.0381 2.95508" stroke="black" stroke-width="1.5"/>
</svg>
