<svg width="24" height="24" viewBox="0 0 24 24" fill="none" xmlns="http://www.w3.org/2000/svg">
<path fill-rule="evenodd" clip-rule="evenodd" d="M11.6646 1.32918C11.8757 1.22361 12.1243 1.22361 12.3354 1.32918L19.3354 4.82918C19.5895 4.95622 19.75 5.21592 19.75 5.5V13.5C19.75 13.7841 19.5895 14.0438 19.3354 14.1708L17.75 14.9635V22C17.75 22.2489 17.6265 22.4816 17.4205 22.6211C17.2144 22.7606 16.9525 22.7888 16.7215 22.6964L12 20.8078L7.27854 22.6964C7.04747 22.7888 6.78561 22.7606 6.57953 22.6211C6.37345 22.4815 6.25 22.2489 6.25 22V14.9635L4.66459 14.1708C4.4105 14.0438 4.25 13.7841 4.25 13.5V5.5C4.25 5.21592 4.4105 4.95622 4.66459 4.82918L11.6646 1.32918ZM12.3354 17.6708L16.25 15.7135V20.8923L12.2785 19.3036C12.0997 19.2321 11.9003 19.2321 11.7215 19.3036L7.75 20.8922V15.7135L11.6646 17.6708C11.8757 17.7764 12.1243 17.7764 12.3354 17.6708ZM5.75 5.96353V13.0365L12 16.1615L18.25 13.0365V5.96353L12 2.83853L5.75 5.96353ZM11.0017 12.0575L16.0017 7.55747L14.9983 6.44253L10.5272 10.4665L9.03033 8.96967L7.96967 10.0303L9.96967 12.0303L10.4728 12.5335L11.0017 12.0575Z" fill="#073618"/>
</svg>
