<svg width="24" height="24" viewBox="0 0 24 24" fill="none" xmlns="http://www.w3.org/2000/svg">
<path fill-rule="evenodd" clip-rule="evenodd" d="M15.3907 3.70189L12.6153 1.48819C12.256 1.16931 11.713 1.1693 11.3537 1.48818L8.57832 3.70189H4.61293C4.08913 3.70189 3.66183 4.12606 3.66183 4.65258V8.61142L1.48707 11.368C1.17002 11.7266 1.17002 12.2672 1.48707 12.6258L3.66183 15.3824V19.3581C3.66183 19.8846 4.08913 20.3088 4.61293 20.3088H8.63836L11.3686 22.51C11.7321 22.8344 12.285 22.8313 12.6447 22.5005L15.2137 20.3088H19.373C19.8968 20.3088 20.3241 19.8846 20.3241 19.3581V15.4005L22.512 12.6438C22.8303 12.2848 22.8303 11.7427 22.5119 11.3838L20.3241 8.62709V4.65258C20.3241 4.12605 19.8968 3.70189 19.373 3.70189H15.3907ZM9.30847 5.03822L11.9845 2.90374L14.6606 5.03822L14.8658 5.20189H15.1282H18.8241V8.88854V9.14999L18.9866 9.35478L21.0969 12.0138L18.9866 14.6728L18.8241 14.8776V15.139V18.8088H14.9372H14.6608L14.4505 18.9882L11.9919 21.0858L9.37379 18.9749L9.16773 18.8088H8.90305H5.16183V15.1221V14.8619L5.00065 14.6576L2.90154 11.9969L5.00065 9.33619L5.16183 9.13189V8.87165V5.20189H8.8408H9.10328L9.30847 5.03822ZM12.7163 13.0309V8.01389H11.2163V13.0309H12.7163ZM11.2163 14.536V16.0411H12.7163V14.536H11.2163Z" fill="#4B0C0C"/>
</svg>
