<svg width="24" height="24" viewBox="0 0 24 24" fill="none" xmlns="http://www.w3.org/2000/svg">
<path d="M19.95 5.05L15.05 9.95M14 7.5C14 5.567 15.567 4 17.5 4C19.433 4 21 5.567 21 7.5C21 9.433 19.433 11 17.5 11C15.567 11 14 9.433 14 7.5Z" stroke="black" stroke-width="1.5" stroke-linecap="round"/>
<path d="M8.5 21C9.29613 21.6219 10.3475 22 11.5 22C12.6525 22 13.7039 21.6219 14.5 21" stroke="black" stroke-width="1.5" stroke-linejoin="round"/>
<path d="M13.9946 2.41321C13.225 2.14672 12.3984 2.00195 11.5381 2.00195C7.39548 2.00195 4.03724 5.35821 4.03724 9.49837V12.409L2.04201 15.8544C2.01904 15.8941 2.02429 15.9428 2.05766 15.9742C4.96038 18.7075 14.597 21.1359 20.9355 15.9538C20.9729 15.9232 20.9832 15.8697 20.9595 15.8276L19.6311 13.463" stroke="black" stroke-width="1.5"/>
</svg>
