<svg width="24" height="24" viewBox="0 0 24 24" fill="none" xmlns="http://www.w3.org/2000/svg">
<path d="M22 22L2 2" stroke="black" stroke-width="1.5"/>
<path d="M9 21C9.79613 21.6219 10.8475 22 12 22C13.1525 22 14.2039 21.6219 15 21" stroke="black" stroke-width="1.5" stroke-linejoin="round"/>
<path d="M7.07547 3.87534C8.39764 2.70939 10.1342 2.00195 12.0361 2.00195C16.1787 2.00195 19.537 5.35821 19.537 9.49837V12.409L21.4576 15.8276C21.4812 15.8697 21.4714 15.9228 21.434 15.9534C21.0046 16.3045 20.5601 16.6206 20.1036 16.9041M5.62843 5.59936C4.93488 6.73536 4.53529 8.07023 4.53529 9.49837V12.409L2.54006 15.8544C2.51708 15.8941 2.52268 15.9431 2.55605 15.9746C4.96698 18.2443 12.0213 20.3036 17.9742 17.9688" stroke="black" stroke-width="1.5"/>
</svg>
