<svg width="24" height="24" viewBox="0 0 24 24" fill="none" xmlns="http://www.w3.org/2000/svg">
<path d="M10 3.5C10 4.32843 10.6716 5 11.5 5C12.3284 5 13 4.32843 13 3.5C13 2.67157 12.3284 2 11.5 2C10.6716 2 10 2.67157 10 3.5Z" stroke="black" stroke-width="1.5" stroke-linejoin="round"/>
<path d="M14.5 19C14.5 20.6569 13.1569 22 11.5 22C9.84315 22 8.5 20.6569 8.5 19" stroke="black" stroke-width="1.5" stroke-linejoin="round"/>
<path d="M15.55 7.05L20.45 11.95M21.5 9.5C21.5 7.567 19.933 6 18 6C16.067 6 14.5 7.567 14.5 9.5C14.5 11.433 16.067 13 18 13C19.933 13 21.5 11.433 21.5 9.5Z" stroke="black" stroke-width="1.5" stroke-linejoin="round"/>
<path d="M13.9084 5.43682C13.1672 5.15736 12.3609 5 11.5122 5C7.66967 5 4.62009 8.37973 4.62009 11.3729V13.9392L2.50195 16.5198V19H20.4978V16.4399L19.3241 15.0812" stroke="black" stroke-width="1.5"/>
</svg>
