<svg width="24" height="24" viewBox="0 0 24 24" fill="none" xmlns="http://www.w3.org/2000/svg">
<path d="M15 6H20.5V6.5L15.5 11.5V12H21" stroke="black" stroke-width="1.5"/>
<path d="M10.5 3.5C10.5 4.32843 11.1716 5 12 5C12.8284 5 13.5 4.32843 13.5 3.5C13.5 2.67157 12.8284 2 12 2C11.1716 2 10.5 2.67157 10.5 3.5Z" stroke="black" stroke-width="1.5" stroke-linejoin="round"/>
<path d="M15 19C15 20.6569 13.6569 22 12 22C10.3431 22 9 20.6569 9 19" stroke="black" stroke-width="1.5" stroke-linejoin="round"/>
<path d="M18.8275 13.9263L20.9978 16.3999V18.96H3.00195V16.4798L5.12009 13.8992V11.3329C5.12009 8.33969 8.16967 4.95996 12.0122 4.95996C12.3409 4.95996 12.6633 4.98357 12.978 5.02874" stroke="black" stroke-width="1.5"/>
</svg>
