<svg width="24" height="24" viewBox="0 0 24 24" fill="none" xmlns="http://www.w3.org/2000/svg">
<path d="M4.99414 17V20M18.9682 17V20" stroke="black" stroke-width="1.5" stroke-linejoin="round"/>
<path d="M19.9665 9.00001V6C19.9665 4.89543 19.0727 4 17.9702 4H5.99239C4.88987 4 3.99609 4.89543 3.99609 6V9.00001" stroke="black" stroke-width="1.5" stroke-linejoin="round"/>
<path d="M5.98129 10.8564L5.98129 10.9846M5.98129 10.9846L5.98123 14.0277L11.9247 14.018H17.9861L17.986 10.9749M5.98129 10.9846C5.98071 10.9161 5.97671 10.8484 5.96943 10.7817C5.86009 9.77965 5.01261 8.99992 3.98335 8.99992C2.87989 8.99992 1.98535 9.89614 1.98535 11.0017C1.98535 11.6538 2.29654 12.233 2.77823 12.5985C2.83529 12.6418 2.91926 12.6973 3.01263 12.754L3.01264 16.9193C3.01264 16.9745 3.05733 17.0193 3.11246 17.0193L11.8966 17.0096H20.8548C20.91 17.0096 20.9546 16.9648 20.9546 16.9096L20.9547 12.7443C21.048 12.6876 21.132 12.6321 21.1891 12.5888C21.6708 12.2233 21.9819 11.6441 21.9819 10.992C21.9819 9.88646 21.0874 8.99023 19.9839 8.99023C18.9547 8.99023 18.1072 9.76996 17.9979 10.772C17.9906 10.8387 17.9866 10.9064 17.986 10.9749M5.98129 10.9846C5.98133 10.9903 5.98136 10.996 5.98136 11.0017M17.986 10.8467L17.986 10.9749M17.986 10.9749C17.986 10.9806 17.9859 10.9863 17.9859 10.992" stroke="black" stroke-width="1.5"/>
</svg>
