<svg width="24" height="24" viewBox="0 0 24 24" fill="none" xmlns="http://www.w3.org/2000/svg">
<path d="M5 17V20M19 17V20" stroke="black" stroke-width="1.5" stroke-linejoin="round"/>
<path d="M20 8.99185V5.99674C20 4.89397 19.1046 4 18 4H6C4.89543 4 4 4.89397 4 5.99674V8.99185" stroke="black" stroke-width="1.5" stroke-linejoin="round"/>
<path d="M12 4V13.9837" stroke="black" stroke-width="1.5" stroke-linejoin="round"/>
<path d="M5.98129 10.8455L5.98129 10.9735M5.98129 10.9735L5.98123 14.0117L11.9247 14.002H17.9861L17.986 10.9639M5.98129 10.9735C5.98071 10.9051 5.97671 10.8375 5.96943 10.7709C5.86009 9.77055 5.01261 8.99209 3.98335 8.99209C2.87989 8.99209 1.98535 9.88685 1.98535 10.9906C1.98535 11.6416 2.29654 12.2199 2.77823 12.5848C2.83529 12.628 2.91926 12.6834 3.01263 12.7401L3.01264 16.8985C3.01264 16.9537 3.05733 16.9984 3.11246 16.9984L11.8966 16.9887H20.8548C20.91 16.9887 20.9546 16.944 20.9546 16.8889L20.9547 12.7304C21.048 12.6737 21.132 12.6183 21.1891 12.5751C21.6708 12.2102 21.9819 11.6319 21.9819 10.9809C21.9819 9.87719 21.0874 8.98242 19.9839 8.98242C18.9547 8.98242 18.1072 9.76088 17.9979 10.7613C17.9906 10.8279 17.9866 10.8955 17.986 10.9639M5.98129 10.9735C5.98133 10.9792 5.98136 10.9849 5.98136 10.9906M17.986 10.8358L17.986 10.9639M17.986 10.9639C17.986 10.9695 17.9859 10.9752 17.9859 10.9809" stroke="black" stroke-width="1.5"/>
</svg>
