<svg width="24" height="24" viewBox="0 0 24 24" fill="none" xmlns="http://www.w3.org/2000/svg">
<path d="M2.68066 4.9959H9.31195M9.31195 4.9959L11.7518 2.01177L18.2933 2.01172C18.3373 2.01172 18.3762 2.04054 18.389 2.08269L19.2725 4.9959M9.31195 4.9959H19.2725M19.2645 4.96864L19.2725 4.9959M19.2725 4.9959H21.6831" stroke="white" stroke-width="1.5"/>
<path d="M19.3796 5.00293L18.9324 11.5189M4.97363 5.00293L5.99023 21.8409C5.99339 21.8936 6.03681 21.9348 6.0893 21.9348H10.252" stroke="white" stroke-width="1.5"/>
<path d="M18.8631 16.0376C18.1954 14.852 16.9321 13.9912 15.5108 13.9912C13.6686 13.9912 12.1919 15.5669 11.7216 17.3522L10.2256 14.4875M12.1919 20.0069C12.8884 21.1631 14.106 22.0587 15.537 22.0151C17.793 21.9464 18.6521 20.5326 19.3714 18.5933L20.7463 21.4808" stroke="white" stroke-width="1.5" stroke-linejoin="bevel"/>
</svg>
