<svg width="24" height="24" viewBox="0 0 24 24" fill="none" xmlns="http://www.w3.org/2000/svg">
<rect y="3" width="24" height="17.1429" rx="2" fill="white"/>
<mask id="mask0_14_2543" style="mask-type:luminance" maskUnits="userSpaceOnUse" x="0" y="3" width="24" height="18">
<rect y="3" width="24" height="17.1429" rx="2" fill="white"/>
</mask>
<g mask="url(#mask0_14_2543)">
<rect x="11.4287" y="3" width="12.5714" height="17.1429" fill="#1AB11F"/>
<path fill-rule="evenodd" clip-rule="evenodd" d="M0 20.1429H8V3H0V20.1429Z" fill="#262626"/>
<path fill-rule="evenodd" clip-rule="evenodd" d="M8 20.1429H16V3H8V20.1429Z" fill="#DC0D18"/>
<path opacity="0.75" fill-rule="evenodd" clip-rule="evenodd" d="M9.7144 10.3333C10.0826 10.3333 10.3811 10.6317 10.3811 10.9999C10.3811 11.5976 10.7046 12.1205 11.1892 12.4017C11.5077 12.5865 11.616 12.9944 11.4313 13.3129C11.2465 13.6314 10.8385 13.7397 10.5201 13.555C9.64119 13.045 9.04773 12.0922 9.04773 10.9999C9.04773 10.6317 9.34621 10.3333 9.7144 10.3333ZM14.2858 10.3333C14.654 10.3333 14.9525 10.6317 14.9525 10.9999C14.9525 12.0464 14.4076 12.9651 13.5892 13.4885C13.279 13.6869 12.8667 13.5963 12.6684 13.2861C12.47 12.9759 12.5606 12.5636 12.8708 12.3653C13.3222 12.0765 13.6192 11.5727 13.6192 10.9999C13.6192 10.6317 13.9176 10.3333 14.2858 10.3333Z" fill="white"/>
<path fill-rule="evenodd" clip-rule="evenodd" d="M11.9998 12.1429C12.631 12.1429 13.1426 11.3754 13.1426 10.4286C13.1426 9.48187 12.631 8.71436 11.9998 8.71436C11.3686 8.71436 10.8569 9.48187 10.8569 10.4286C10.8569 11.3754 11.3686 12.1429 11.9998 12.1429Z" fill="white" fill-opacity="0.5"/>
</g>
</svg>
