<svg width="24" height="24" viewBox="0 0 24 24" fill="none" xmlns="http://www.w3.org/2000/svg">
<mask id="mask0_14_2551" style="mask-type:luminance" maskUnits="userSpaceOnUse" x="0" y="3" width="24" height="18">
<path d="M0 5.42993C0 4.32536 0.895431 3.42993 2 3.42993H22C23.1046 3.42993 24 4.32536 24 5.42993V18.5728C24 19.6774 23.1046 20.5728 22 20.5728H2C0.89543 20.5728 0 19.6774 0 18.5728V5.42993Z" fill="white"/>
</mask>
<g mask="url(#mask0_14_2551)">
<path d="M0 3.42993H24V20.5728H0V3.42993Z" fill="#EE343C"/>
<path fill-rule="evenodd" clip-rule="evenodd" d="M10.6725 7.24508C10.4478 7.02037 10.0958 6.98551 9.83134 7.16178L9.52765 7.36424C9.10174 7.64818 9.14146 8.28631 9.5993 8.51523L10.489 8.96007C10.7148 9.073 10.8575 9.30384 10.8575 9.55636V9.62052C10.8575 9.98871 10.559 10.2872 10.1908 10.2872H9.87203C9.76854 10.2872 9.66646 10.2631 9.57389 10.2168L7.85872 9.35922C7.60206 9.23089 7.29208 9.2812 7.08917 9.4841L6.94012 9.63315C6.61836 9.95491 6.70639 10.4973 7.11339 10.7008L7.80429 11.0463C8.14628 11.2173 8.17596 11.6939 7.85782 11.906C7.48868 12.1521 7.60135 12.7217 8.03638 12.8087L8.51805 12.905C8.98051 12.9975 9.11571 13.5935 8.73841 13.8765L8.30719 14.1999C8.02585 14.4109 8.17508 14.8586 8.52675 14.8586C8.55667 14.8586 8.58648 14.8549 8.6155 14.8477L9.69703 14.5773C10.1071 14.4748 10.4285 14.9308 10.194 15.2825C9.98909 15.5898 10.2094 16.0015 10.5788 16.0015H11.0789C11.2879 16.0015 11.4735 16.1352 11.5396 16.3336C11.6872 16.7763 12.3135 16.7763 12.4611 16.3336C12.5272 16.1352 12.7128 16.0015 12.9218 16.0015H13.422C13.7913 16.0015 14.0116 15.5898 13.8068 15.2825C13.5723 14.9308 13.8936 14.4748 14.3037 14.5773L15.3852 14.8477C15.4143 14.8549 15.4441 14.8586 15.474 14.8586C15.8257 14.8586 15.9749 14.4109 15.6936 14.1999L15.2623 13.8765C14.885 13.5935 15.0202 12.9975 15.4827 12.905L15.9644 12.8087C16.3994 12.7217 16.5121 12.1521 16.1429 11.906C15.8248 11.6939 15.8545 11.2173 16.1964 11.0463L16.8874 10.7008C17.2944 10.4973 17.3824 9.95491 17.0606 9.63315L16.9116 9.4841C16.7087 9.28119 16.3987 9.23089 16.142 9.35922L14.4268 10.2168C14.3343 10.2631 14.2322 10.2872 14.1287 10.2872H13.8099C13.4417 10.2872 13.1432 9.98871 13.1432 9.62052V9.55636C13.1432 9.30384 13.2856 9.07315 13.5114 8.96023C13.7898 8.82107 14.1066 8.66263 14.4015 8.51518C14.8594 8.28626 14.899 7.64818 14.4731 7.36424L14.1694 7.16178C13.905 6.98551 13.5529 7.02037 13.3282 7.24508L12.4718 8.1015C12.2114 8.36185 11.7893 8.36185 11.529 8.1015L10.6725 7.24508Z" fill="#262626"/>
</g>
</svg>
