<svg width="24" height="24" viewBox="0 0 24 24" fill="none" xmlns="http://www.w3.org/2000/svg">
<rect y="3.42993" width="24" height="17.1429" rx="2" fill="white"/>
<mask id="mask0_14_249" style="mask-type:luminance" maskUnits="userSpaceOnUse" x="0" y="3" width="24" height="18">
<rect y="3.42993" width="24" height="17.1429" rx="2" fill="white"/>
</mask>
<g mask="url(#mask0_14_249)">
<g filter="url(#filter0_d_14_249)">
<rect y="3.42993" width="24" height="17.1429" fill="#4189DD"/>
</g>
<path fill-rule="evenodd" clip-rule="evenodd" d="M3.98515 6.84213L4.57295 5.71565L5.16075 6.84213L6.28723 7.42993L5.16075 8.01773L4.57295 9.14422L3.98515 8.01773L2.85866 7.42993L3.98515 6.84213Z" fill="#D21034"/>
<path fill-rule="evenodd" clip-rule="evenodd" d="M2.8586 7.42993L3.98508 6.84213L4.57288 5.71565L5.16068 6.84213L6.28717 7.42993L5.16068 8.01773L4.57288 9.14422L3.98508 8.01773L2.8586 7.42993ZM3.49095 8.51186L4.57288 10.5853L5.65481 8.51186L7.72827 7.42993L5.65481 6.348L4.57288 4.27454L3.49095 6.348L1.41749 7.42993L3.49095 8.51186Z" fill="white"/>
<rect y="16.0015" width="24" height="1.14286" fill="#F9D616"/>
<rect y="13.7156" width="24" height="1.14286" fill="#F9D616"/>
</g>
<defs>
<filter id="filter0_d_14_249" x="-1" y="3.42993" width="26" height="19.1428" filterUnits="userSpaceOnUse" color-interpolation-filters="sRGB">
<feFlood flood-opacity="0" result="BackgroundImageFix"/>
<feColorMatrix in="SourceAlpha" type="matrix" values="0 0 0 0 0 0 0 0 0 0 0 0 0 0 0 0 0 0 127 0" result="hardAlpha"/>
<feOffset dy="1"/>
<feGaussianBlur stdDeviation="0.5"/>
<feColorMatrix type="matrix" values="0 0 0 0 0 0 0 0 0 0 0 0 0 0 0 0 0 0 0.16 0"/>
<feBlend mode="normal" in2="BackgroundImageFix" result="effect1_dropShadow_14_249"/>
<feBlend mode="normal" in="SourceGraphic" in2="effect1_dropShadow_14_249" result="shape"/>
</filter>
</defs>
</svg>
