<svg width="24" height="24" viewBox="0 0 24 24" fill="none" xmlns="http://www.w3.org/2000/svg">
<rect y="3.43005" width="24" height="17.1429" rx="2" fill="white"/>
<mask id="mask0_14_1961" style="mask-type:luminance" maskUnits="userSpaceOnUse" x="0" y="3" width="24" height="18">
<rect y="3.43005" width="24" height="17.1429" rx="2" fill="white"/>
</mask>
<g mask="url(#mask0_14_1961)">
<path fill-rule="evenodd" clip-rule="evenodd" d="M0 9.14434H24V3.43005H0V9.14434Z" fill="#24AAD5"/>
<path fill-rule="evenodd" clip-rule="evenodd" d="M0 20.5729H24V14.8586H0V20.5729Z" fill="#21BF75"/>
<path fill-rule="evenodd" clip-rule="evenodd" d="M0 14.8587H24V9.14441H0V14.8587Z" fill="#ED1845"/>
<g filter="url(#filter0_d_14_1961)">
<path fill-rule="evenodd" clip-rule="evenodd" d="M11.9999 13.7158C12.3525 13.7158 12.6802 13.6094 12.9526 13.4269C12.9211 13.429 12.8892 13.4301 12.8571 13.4301C12.0681 13.4301 11.4285 12.7905 11.4285 12.0015C11.4285 11.2125 12.0681 10.5729 12.8571 10.5729C12.8892 10.5729 12.921 10.574 12.9525 10.5761C12.6801 10.3936 12.3524 10.2872 11.9999 10.2872C11.0532 10.2872 10.2856 11.0547 10.2856 12.0015C10.2856 12.9483 11.0532 13.7158 11.9999 13.7158ZM13.7142 12.0015C13.7142 12.3171 13.4583 12.5729 13.1427 12.5729C12.8272 12.5729 12.5713 12.3171 12.5713 12.0015C12.5713 11.6859 12.8272 11.4301 13.1427 11.4301C13.4583 11.4301 13.7142 11.6859 13.7142 12.0015Z" fill="white"/>
</g>
</g>
<defs>
<filter id="filter0_d_14_1961" x="10.2856" y="10.2872" width="3.42847" height="4.42859" filterUnits="userSpaceOnUse" color-interpolation-filters="sRGB">
<feFlood flood-opacity="0" result="BackgroundImageFix"/>
<feColorMatrix in="SourceAlpha" type="matrix" values="0 0 0 0 0 0 0 0 0 0 0 0 0 0 0 0 0 0 127 0" result="hardAlpha"/>
<feOffset dy="1"/>
<feColorMatrix type="matrix" values="0 0 0 0 0 0 0 0 0 0 0 0 0 0 0 0 0 0 0.06 0"/>
<feBlend mode="normal" in2="BackgroundImageFix" result="effect1_dropShadow_14_1961"/>
<feBlend mode="normal" in="SourceGraphic" in2="effect1_dropShadow_14_1961" result="shape"/>
</filter>
</defs>
</svg>
