<svg width="24" height="24" viewBox="0 0 24 24" fill="none" xmlns="http://www.w3.org/2000/svg">
<rect y="3.42993" width="24" height="17.1429" rx="2" fill="white"/>
<mask id="mask0_14_942" style="mask-type:luminance" maskUnits="userSpaceOnUse" x="0" y="3" width="24" height="18">
<rect y="3.42993" width="24" height="17.1429" rx="2" fill="white"/>
</mask>
<g mask="url(#mask0_14_942)">
<rect y="3.42993" width="24" height="17.1429" fill="#E4233B"/>
<path fill-rule="evenodd" clip-rule="evenodd" d="M0 3.42993L10.2857 12.0014L0 20.5728V3.42993Z" fill="#34CD4E"/>
<path fill-rule="evenodd" clip-rule="evenodd" d="M24 3.42993L13.7143 12.0014L24 20.5728V3.42993Z" fill="#34CD4E"/>
<path fill-rule="evenodd" clip-rule="evenodd" d="M14.5389 8.91037C13.8483 8.34242 12.964 8.00142 12 8.00142C11.036 8.00142 10.1517 8.34242 9.46102 8.91037L-1.09929 1.78735L-2.37744 3.6823L8.18205 10.8048C8.06375 11.1826 7.99998 11.5846 7.99998 12.0014C7.99998 12.4183 8.06376 12.8203 8.18207 13.1981L-2.37744 20.3206L-1.09928 22.2156L9.46107 15.0925C10.1517 15.6604 11.036 16.0014 12 16.0014C12.9639 16.0014 13.8483 15.6604 14.5389 15.0925L25.0992 22.2155L26.3774 20.3206L15.8179 13.1981C15.9362 12.8203 16 12.4183 16 12.0014C16 11.5846 15.9362 11.1826 15.8179 10.8048L26.3774 3.6823L25.0992 1.78736L14.5389 8.91037Z" fill="white"/>
<path fill-rule="evenodd" clip-rule="evenodd" d="M12.0001 10.8586L11.1919 11.0952L11.4286 10.2871L11.1919 9.479L12.0001 9.7157L12.8082 9.479L12.5715 10.2871L12.8082 11.0952L12.0001 10.8586ZM10.2858 13.7157L9.47766 13.9524L9.71435 13.1442L9.47766 12.3361L10.2858 12.5728L11.0939 12.3361L10.8572 13.1442L11.0939 13.9524L10.2858 13.7157ZM12.9062 13.9524L13.7144 13.7157L14.5225 13.9524L14.2858 13.1442L14.5225 12.3361L13.7144 12.5728L12.9062 12.3361L13.1429 13.1442L12.9062 13.9524Z" fill="#DF2239"/>
</g>
</svg>
