<svg width="24" height="24" viewBox="0 0 24 24" fill="none" xmlns="http://www.w3.org/2000/svg">
<rect y="3.43005" width="24" height="17.1429" rx="2" fill="white"/>
<mask id="mask0_14_1677" style="mask-type:luminance" maskUnits="userSpaceOnUse" x="0" y="3" width="24" height="18">
<rect y="3.43005" width="24" height="17.1429" rx="2" fill="white"/>
</mask>
<g mask="url(#mask0_14_1677)">
<rect y="3.43005" width="24" height="17.1429" fill="#05AB41"/>
<path fill-rule="evenodd" clip-rule="evenodd" d="M3.15066 12.5612C2.74466 12.2985 2.74466 11.7045 3.15066 11.4418L11.6378 5.95016C11.8582 5.80756 12.1417 5.80756 12.3621 5.95016L20.8492 11.4418C21.2552 11.7045 21.2552 12.2985 20.8492 12.5612L12.3621 18.0529C12.1417 18.1955 11.8582 18.1955 11.6378 18.0529L3.15066 12.5612Z" fill="#FDD216"/>
<path fill-rule="evenodd" clip-rule="evenodd" d="M12 16.0015C14.2091 16.0015 16 14.2106 16 12.0015C16 9.79233 14.2091 8.00146 12 8.00146C9.79086 8.00146 8 9.79233 8 12.0015C8 14.2106 9.79086 16.0015 12 16.0015Z" fill="#053087"/>
<mask id="mask1_14_1677" style="mask-type:luminance" maskUnits="userSpaceOnUse" x="8" y="8" width="8" height="9">
<path fill-rule="evenodd" clip-rule="evenodd" d="M12 16.0015C14.2091 16.0015 16 14.2106 16 12.0015C16 9.79233 14.2091 8.00146 12 8.00146C9.79086 8.00146 8 9.79233 8 12.0015C8 14.2106 9.79086 16.0015 12 16.0015Z" fill="white"/>
</mask>
<g mask="url(#mask1_14_1677)">
<path fill-rule="evenodd" clip-rule="evenodd" d="M7.94624 11.4738C7.94486 11.4745 7.94459 11.4747 7.94529 11.4741L7.42719 11.8936L6.5881 10.8574L7.1062 10.4379C7.42654 10.1785 7.84216 10.1008 8.19512 10.0797C8.56774 10.0573 8.98971 10.0923 9.42134 10.1553C10.2859 10.2815 11.2998 10.5378 12.244 10.7897C13.2411 11.0557 14.2513 11.4646 15.0801 11.8882C15.4952 12.1003 15.8731 12.3204 16.1864 12.5338C16.4889 12.7399 16.7702 12.9659 16.9574 13.197L17.377 13.7151L16.3408 14.5542L15.9212 14.0361C15.8572 13.9571 15.7035 13.8182 15.4357 13.6357C15.1786 13.4606 14.8508 13.2684 14.4733 13.0754C13.7171 12.6889 12.7949 12.3166 11.9003 12.078C10.9527 11.8252 10.0074 11.5883 9.22873 11.4746C8.83874 11.4177 8.51807 11.396 8.27495 11.4106C8.04114 11.4246 7.9574 11.468 7.94624 11.4738Z" fill="white"/>
</g>
</g>
</svg>
