<svg width="24" height="24" viewBox="0 0 24 24" fill="none" xmlns="http://www.w3.org/2000/svg">
<rect y="3.43005" width="24" height="17.1429" rx="2" fill="white"/>
<mask id="mask0_14_1029" style="mask-type:luminance" maskUnits="userSpaceOnUse" x="0" y="3" width="24" height="18">
<rect y="3.43005" width="24" height="17.1429" rx="2" fill="white"/>
</mask>
<g mask="url(#mask0_14_1029)">
<rect y="3.43005" width="24" height="17.1429" fill="#19BFBF"/>
<path fill-rule="evenodd" clip-rule="evenodd" d="M11.4286 16.0015L10.9493 15.0429C10.8928 14.93 10.7774 14.8587 10.6511 14.8587H10.4238C10.3354 14.8587 10.2506 14.8236 10.1881 14.761L8.09765 12.6706C8.03514 12.6081 8.00002 12.5233 8.00002 12.4349V11.5682C8.00002 11.4798 7.9649 11.395 7.90239 11.3325L6.92245 10.3525C6.87973 10.3098 6.84942 10.2563 6.83477 10.1977L6.33011 8.17905C6.30247 8.06849 6.22026 7.97971 6.11214 7.94367L4.59392 7.4376C4.57896 7.43261 4.56437 7.42657 4.55026 7.41951L3.61285 6.95081C3.49992 6.89434 3.42859 6.77892 3.42859 6.65267V6.04915C3.42859 5.86506 3.57783 5.71582 3.76192 5.71582H4.43337C4.52178 5.71582 4.60656 5.75094 4.66908 5.81345L5.04524 6.18962C5.10776 6.25213 5.19254 6.28725 5.28095 6.28725H6.14766C6.23607 6.28725 6.32085 6.25213 6.38336 6.18962L6.75953 5.81345C6.82204 5.75094 6.90683 5.71582 6.99523 5.71582H9.06419C9.11593 5.71582 9.16697 5.72787 9.21326 5.75101L10.2153 6.25206C10.2616 6.2752 10.3127 6.28725 10.3644 6.28725H11.3499C11.4016 6.28725 11.4527 6.2752 11.499 6.25206L12.5011 5.75101C12.5473 5.72787 12.5984 5.71582 12.6501 5.71582H14.5238C14.7079 5.71582 14.8572 5.86506 14.8572 6.04915V6.52534C14.8572 6.70944 14.7079 6.85868 14.5238 6.85868H14.0476C13.8635 6.85868 13.7143 7.00792 13.7143 7.19201V8.36695C13.7143 8.49321 13.7856 8.60863 13.8986 8.66509L14.3748 8.90319C14.5964 9.01401 14.8572 8.85284 14.8572 8.60505V7.76344C14.8572 7.57934 15.0064 7.43011 15.1905 7.43011H16.2857C16.4435 7.43011 16.5714 7.55802 16.5714 7.71582C16.5714 7.87362 16.6994 8.00153 16.8572 8.00153H17.9524C18.1365 8.00153 18.2857 8.15077 18.2857 8.33487V9.0903C18.2857 9.12613 18.28 9.16172 18.2686 9.19571L17.7392 10.784C17.7228 10.8331 17.6953 10.8777 17.6587 10.9143L16.0383 12.5347C16.0129 12.56 15.9918 12.5893 15.9758 12.6213L15.4638 13.6454C15.4406 13.6917 15.4286 13.7428 15.4286 13.7945V14.5253C15.4286 14.7094 15.2794 14.8587 15.0953 14.8587H15.0632C14.9369 14.8587 14.8215 14.7873 14.765 14.6744L14.3779 13.9001C14.3214 13.7872 14.206 13.7158 14.0797 13.7158H12.7775C12.6512 13.7158 12.5358 13.7872 12.4793 13.9001L12.0746 14.7096C12.0276 14.8034 12.0276 14.9139 12.0746 15.0077L12.4793 15.8173C12.5358 15.9302 12.6512 16.0015 12.7775 16.0015H13.5762C13.6646 16.0015 13.7494 16.0367 13.8119 16.0992L14.7595 17.0468C14.822 17.1093 14.8572 17.1941 14.8572 17.2825V17.9539C14.8572 18.138 14.7079 18.2872 14.5238 18.2872H13.9203C13.7941 18.2872 13.6786 18.2159 13.6222 18.103L13.235 17.3287C13.1785 17.2157 13.0631 17.1444 12.9369 17.1444H12.206C12.0798 17.1444 11.9644 17.0731 11.9079 16.9601L11.4286 16.0015Z" fill="white"/>
</g>
</svg>
