<svg width="24" height="24" viewBox="0 0 24 24" fill="none" xmlns="http://www.w3.org/2000/svg">
<rect y="3.43005" width="24" height="17.1429" rx="2" fill="white"/>
<mask id="mask0_14_1527" style="mask-type:luminance" maskUnits="userSpaceOnUse" x="0" y="3" width="24" height="18">
<rect y="3.43005" width="24" height="17.1429" rx="2" fill="white"/>
</mask>
<g mask="url(#mask0_14_1527)">
<rect y="3.43005" width="24" height="17.1429" fill="url(#paint0_linear_14_1527)"/>
<path fill-rule="evenodd" clip-rule="evenodd" d="M11.5397 6.28713C11.4675 6.28713 11.3974 6.31052 11.3397 6.35379L9.19668 7.96102C9.16114 7.98768 9.12062 8.00696 9.07752 8.01774L6.89261 8.56397C6.86902 8.56987 6.84614 8.57833 6.82438 8.58921L4.67078 9.66601C4.60627 9.69826 4.55396 9.75057 4.52171 9.81508L3.51505 11.8284C3.46155 11.9354 3.46949 12.0628 3.53584 12.1624L4.51541 13.6317C4.55192 13.6865 4.5714 13.7508 4.5714 13.8166V15.2919C4.5714 15.3803 4.60652 15.4651 4.66903 15.5276L5.54437 16.403C5.64582 16.5044 5.80081 16.5296 5.92914 16.4654L9.07244 14.8937C9.11873 14.8706 9.16977 14.8586 9.22152 14.8586H11.3079C11.3858 14.8586 11.4613 14.8859 11.5213 14.9358L14.7644 17.6384C14.8243 17.6884 14.8998 17.7157 14.9778 17.7157H16.9644C17.0759 17.7157 17.18 17.66 17.2418 17.5673L19.3726 14.3711C19.4091 14.3163 19.4285 14.252 19.4285 14.1862V12.1023C19.4285 12.0365 19.4091 11.9722 19.3726 11.9174L17.1428 8.57284L15.5256 5.87753C15.4654 5.77713 15.3569 5.7157 15.2398 5.7157H14.908C14.6784 5.7157 14.5633 5.99336 14.7257 6.15575C14.8042 6.23421 14.8236 6.35407 14.774 6.45331L14.3778 7.24572C14.3214 7.35865 14.2059 7.42998 14.0797 7.42998H12.7774C12.6512 7.42998 12.5357 7.35865 12.4793 7.24572L12.0921 6.47139C12.0356 6.35846 11.9202 6.28713 11.794 6.28713H11.5397ZM16.5714 18.2871H15.4285L15.7642 18.6228C15.8944 18.753 16.1055 18.753 16.2357 18.6228L16.5714 18.2871Z" fill="white"/>
</g>
<defs>
<linearGradient id="paint0_linear_14_1527" x1="0" y1="3.43005" x2="0" y2="20.5729" gradientUnits="userSpaceOnUse">
<stop stop-color="#19BFBF"/>
<stop offset="1" stop-color="#10ACAC"/>
</linearGradient>
</defs>
</svg>
