<svg width="24" height="24" viewBox="0 0 24 24" fill="none" xmlns="http://www.w3.org/2000/svg">
<rect x="0.25" y="3.68005" width="23.5" height="16.6429" rx="1.75" fill="white" stroke="#F5F5F5" stroke-width="0.5"/>
<mask id="mask0_14_2166" style="mask-type:luminance" maskUnits="userSpaceOnUse" x="0" y="3" width="24" height="18">
<rect x="0.25" y="3.68005" width="23.5" height="16.6429" rx="1.75" fill="white" stroke="white" stroke-width="0.5"/>
</mask>
<g mask="url(#mask0_14_2166)">
<path fill-rule="evenodd" clip-rule="evenodd" d="M2 3.43005C0.895431 3.43005 0 4.32548 0 5.43005V10.2872H6.85714V3.43005H2ZM10.2857 3.43005V10.2872H24V5.43005C24 4.32548 23.1046 3.43005 22 3.43005H10.2857ZM24 13.7158H10.2857V20.5729H22C23.1046 20.5729 24 19.6775 24 18.5729V13.7158ZM6.85714 20.5729V13.7158H0V18.5729C0 19.6775 0.89543 20.5729 2 20.5729H6.85714Z" fill="#EF264D"/>
</g>
</svg>
