<svg width="24" height="24" viewBox="0 0 24 24" fill="none" xmlns="http://www.w3.org/2000/svg">
<rect y="3.43005" width="24" height="17.1429" rx="2" fill="white"/>
<mask id="mask0_14_2373" style="mask-type:luminance" maskUnits="userSpaceOnUse" x="0" y="3" width="24" height="18">
<rect y="3.43005" width="24" height="17.1429" rx="2" fill="white"/>
</mask>
<g mask="url(#mask0_14_2373)">
<path fill-rule="evenodd" clip-rule="evenodd" d="M0 10.2872H24V3.43005H0V10.2872Z" fill="#108753"/>
<path fill-rule="evenodd" clip-rule="evenodd" d="M0 20.573H24V13.7158H0V20.573Z" fill="#108753"/>
<path fill-rule="evenodd" clip-rule="evenodd" d="M13.7143 20.5729H10.2857V13.7158H0V10.2872H10.2857V3.43005H13.7143V10.2872H24V13.7158H13.7143V20.5729Z" fill="white"/>
<path fill-rule="evenodd" clip-rule="evenodd" d="M12.5715 20.5729H11.4286V12.5729H0V11.43H11.4286V3.43005H12.5715V11.43H24V12.5729H12.5715V20.5729Z" fill="#262626"/>
<path fill-rule="evenodd" clip-rule="evenodd" d="M11.4286 20.5729H10.2857V11.4301H0V10.2872H10.2857V3.43005H11.4286V10.2872H24V11.4301H11.4286V20.5729Z" fill="#FCD449"/>
<path fill-rule="evenodd" clip-rule="evenodd" d="M12 16.0015C14.2091 16.0015 16 14.2106 16 12.0015C16 9.79233 14.2091 8.00146 12 8.00146C9.79086 8.00146 8 9.79233 8 12.0015C8 14.2106 9.79086 16.0015 12 16.0015Z" fill="url(#paint0_linear_14_2373)"/>
<path fill-rule="evenodd" clip-rule="evenodd" d="M11.9999 9.81099C11.8826 9.81099 11.7678 9.82016 11.6563 9.83769C11.2926 9.89485 10.9514 9.64633 10.8942 9.28261C10.837 8.91888 11.0856 8.57768 11.4493 8.52052C11.6291 8.49227 11.813 8.47766 11.9999 8.47766C12.1868 8.47766 12.3707 8.49227 12.5505 8.52052C12.9142 8.57768 13.1627 8.91888 13.1056 9.28261C13.0484 9.64633 12.7072 9.89485 12.3435 9.83769C12.2319 9.82016 12.1172 9.81099 11.9999 9.81099ZM9.28102 10.8958C9.64474 10.9529 9.89326 11.2941 9.8361 11.6579C9.81857 11.7694 9.80941 11.8842 9.80941 12.0015C9.80941 12.1188 9.81857 12.2335 9.8361 12.3451C9.89326 12.7088 9.64474 13.05 9.28102 13.1072C8.91729 13.1643 8.5761 12.9158 8.51894 12.5521C8.49068 12.3723 8.47607 12.1884 8.47607 12.0015C8.47607 11.8146 8.49068 11.6307 8.51894 11.4509C8.5761 11.0871 8.91729 10.8386 9.28102 10.8958ZM14.7187 10.8958C15.0825 10.8386 15.4237 11.0871 15.4808 11.4509C15.5091 11.6307 15.5237 11.8146 15.5237 12.0015C15.5237 12.1884 15.5091 12.3723 15.4808 12.5521C15.4237 12.9158 15.0825 13.1643 14.7187 13.1072C14.355 13.05 14.1065 12.7088 14.1637 12.3451C14.1812 12.2335 14.1904 12.1188 14.1904 12.0015C14.1904 11.8842 14.1812 11.7694 14.1637 11.6579C14.1065 11.2941 14.355 10.9529 14.7187 10.8958ZM10.8942 14.7203C10.9514 14.3566 11.2926 14.1081 11.6563 14.1653C11.7678 14.1828 11.8826 14.1919 11.9999 14.1919C12.1172 14.1919 12.2319 14.1828 12.3435 14.1653C12.7072 14.1081 13.0484 14.3566 13.1056 14.7203C13.1627 15.0841 12.9142 15.4253 12.5505 15.4824C12.3707 15.5107 12.1868 15.5253 11.9999 15.5253C11.813 15.5253 11.6291 15.5107 11.4493 15.4824C11.0856 15.4253 10.837 15.0841 10.8942 14.7203Z" fill="#0E673F"/>
<path fill-rule="evenodd" clip-rule="evenodd" d="M11.9999 13.1444C12.6311 13.1444 12.5714 12.6327 12.5714 12.0015C12.5714 11.3703 12.6311 10.8586 11.9999 10.8586C11.3688 10.8586 11.4285 11.3703 11.4285 12.0015C11.4285 12.6327 11.3688 13.1444 11.9999 13.1444Z" fill="#0E673F"/>
</g>
<defs>
<linearGradient id="paint0_linear_14_2373" x1="8" y1="8.00146" x2="8" y2="16.0015" gradientUnits="userSpaceOnUse">
<stop stop-color="#E02C42"/>
<stop offset="1" stop-color="#D22036"/>
</linearGradient>
</defs>
</svg>
