<svg width="24" height="24" viewBox="0 0 24 24" fill="none" xmlns="http://www.w3.org/2000/svg">
<rect y="3.43005" width="24" height="17.1429" rx="2" fill="white"/>
<mask id="mask0_14_854" style="mask-type:luminance" maskUnits="userSpaceOnUse" x="0" y="3" width="24" height="18">
<rect y="3.43005" width="24" height="17.1429" rx="2" fill="white"/>
</mask>
<g mask="url(#mask0_14_854)">
<path fill-rule="evenodd" clip-rule="evenodd" d="M24 3.43005V12.0015H0V3.43005H24Z" fill="#29C53F"/>
<path fill-rule="evenodd" clip-rule="evenodd" d="M24 12.0015V21.1443H0V12.0015H24Z" fill="#579DED"/>
<path fill-rule="evenodd" clip-rule="evenodd" d="M0 20.5729L24 12.0015L0 3.43005V20.5729Z" fill="#F42D56"/>
<path fill-rule="evenodd" clip-rule="evenodd" d="M7.42859 14.6681C8.90135 14.6681 10.0953 13.4742 10.0953 12.0015C10.0953 10.5287 8.90135 9.3348 7.42859 9.3348C5.95583 9.3348 4.76192 10.5287 4.76192 12.0015C4.76192 13.4742 5.95583 14.6681 7.42859 14.6681ZM11.4286 12.0015C11.4286 14.2106 9.63773 16.0015 7.42859 16.0015C5.21945 16.0015 3.42859 14.2106 3.42859 12.0015C3.42859 9.79233 5.21945 8.00146 7.42859 8.00146C9.63773 8.00146 11.4286 9.79233 11.4286 12.0015Z" fill="#FFC63C"/>
<path fill-rule="evenodd" clip-rule="evenodd" d="M6.85707 11.4301C7.17266 11.4301 7.4285 11.1743 7.4285 10.8587C7.4285 10.5431 7.17266 10.2872 6.85707 10.2872C6.54148 10.2872 6.28564 10.5431 6.28564 10.8587C6.28564 11.1743 6.54148 11.4301 6.85707 11.4301Z" fill="#FFC63C"/>
<path fill-rule="evenodd" clip-rule="evenodd" d="M8.00002 12.0015C8.31561 12.0015 8.57144 11.7457 8.57144 11.4301C8.57144 11.1145 8.31561 10.8586 8.00002 10.8586C7.68443 10.8586 7.42859 11.1145 7.42859 11.4301C7.42859 11.7457 7.68443 12.0015 8.00002 12.0015Z" fill="#FFC63C"/>
<path fill-rule="evenodd" clip-rule="evenodd" d="M7.42861 10.8586C7.7442 10.8586 8.00003 10.6027 8.00003 10.2871C8.00003 9.97154 7.7442 9.7157 7.42861 9.7157C7.11301 9.7157 6.85718 9.97154 6.85718 10.2871C6.85718 10.6027 7.11301 10.8586 7.42861 10.8586Z" fill="#FFC63C"/>
<path fill-rule="evenodd" clip-rule="evenodd" d="M6.85707 12.5729C7.17266 12.5729 7.4285 12.3171 7.4285 12.0015C7.4285 11.6859 7.17266 11.4301 6.85707 11.4301C6.54148 11.4301 6.28564 11.6859 6.28564 12.0015C6.28564 12.3171 6.54148 12.5729 6.85707 12.5729Z" fill="#FFC63C"/>
<path fill-rule="evenodd" clip-rule="evenodd" d="M8.00002 13.1443C8.31561 13.1443 8.57144 12.8885 8.57144 12.5729C8.57144 12.2573 8.31561 12.0015 8.00002 12.0015C7.68443 12.0015 7.42859 12.2573 7.42859 12.5729C7.42859 12.8885 7.68443 13.1443 8.00002 13.1443Z" fill="#FFC63C"/>
<path fill-rule="evenodd" clip-rule="evenodd" d="M6.85707 13.7157C7.17266 13.7157 7.4285 13.4599 7.4285 13.1443C7.4285 12.8287 7.17266 12.5729 6.85707 12.5729C6.54148 12.5729 6.28564 12.8287 6.28564 13.1443C6.28564 13.4599 6.54148 13.7157 6.85707 13.7157Z" fill="#FFC63C"/>
<path fill-rule="evenodd" clip-rule="evenodd" d="M8.00002 14.2871C8.31561 14.2871 8.57144 14.0313 8.57144 13.7157C8.57144 13.4001 8.31561 13.1443 8.00002 13.1443C7.68443 13.1443 7.42859 13.4001 7.42859 13.7157C7.42859 14.0313 7.68443 14.2871 8.00002 14.2871Z" fill="#FFC63C"/>
</g>
</svg>
