<svg width="24" height="24" viewBox="0 0 24 24" fill="none" xmlns="http://www.w3.org/2000/svg">
<rect y="3.43005" width="24" height="17.1429" rx="2" fill="white"/>
<mask id="mask0_14_809" style="mask-type:luminance" maskUnits="userSpaceOnUse" x="0" y="3" width="24" height="18">
<rect y="3.43005" width="24" height="17.1429" rx="2" fill="white"/>
</mask>
<g mask="url(#mask0_14_809)">
<rect y="3.43005" width="24" height="17.1429" fill="#043CAE"/>
<path fill-rule="evenodd" clip-rule="evenodd" d="M11.1918 7.09537L11.9999 6.85868L12.8081 7.09537L12.5714 6.28725L12.8081 5.47913L11.9999 5.71582L11.1918 5.47913L11.4285 6.28725L11.1918 7.09537ZM11.1918 18.5241L11.9999 18.2874L12.8081 18.5241L12.5714 17.716L12.8081 16.9078L11.9999 17.1445L11.1918 16.9078L11.4285 17.716L11.1918 18.5241ZM17.7142 12.573L16.9061 12.8097L17.1428 12.0016L16.9061 11.1935L17.7142 11.4302L18.5224 11.1935L18.2857 12.0016L18.5224 12.8097L17.7142 12.573ZM5.47754 12.8097L6.28566 12.573L7.09378 12.8097L6.85709 12.0016L7.09378 11.1935L6.28566 11.4302L5.47754 11.1935L5.71423 12.0016L5.47754 12.8097ZM16.9487 9.71596L16.1405 9.95265L16.3772 9.14453L16.1405 8.33641L16.9487 8.5731L17.7568 8.33641L17.5201 9.14453L17.7568 9.95265L16.9487 9.71596ZM6.2431 15.6668L7.05123 15.4301L7.85935 15.6668L7.62265 14.8587L7.85935 14.0506L7.05123 14.2872L6.2431 14.0506L6.4798 14.8587L6.2431 15.6668ZM14.8571 7.62437L14.049 7.86106L14.2857 7.05294L14.049 6.24482L14.8571 6.48151L15.6652 6.24482L15.4285 7.05294L15.6652 7.86106L14.8571 7.62437ZM8.33468 17.7584L9.1428 17.5217L9.95092 17.7584L9.71423 16.9503L9.95092 16.1421L9.1428 16.3788L8.33468 16.1421L8.57137 16.9503L8.33468 17.7584ZM16.9487 15.4301L16.1405 15.6668L16.3772 14.8587L16.1405 14.0506L16.9487 14.2872L17.7568 14.0506L17.5201 14.8587L17.7568 15.6668L16.9487 15.4301ZM6.2431 9.95265L7.05123 9.71596L7.85935 9.95265L7.62265 9.14453L7.85935 8.33641L7.05123 8.5731L6.2431 8.33641L6.4798 9.14453L6.2431 9.95265ZM14.8571 17.5217L14.049 17.7584L14.2857 16.9503L14.049 16.1421L14.8571 16.3788L15.6652 16.1421L15.4285 16.9503L15.6652 17.7584L14.8571 17.5217ZM8.33468 7.86106L9.1428 7.62437L9.95092 7.86106L9.71423 7.05294L9.95092 6.24482L9.1428 6.48151L8.33468 6.24482L8.57137 7.05294L8.33468 7.86106Z" fill="#FFD429"/>
</g>
</svg>
