<svg width="24" height="24" viewBox="0 0 24 24" fill="none" xmlns="http://www.w3.org/2000/svg">
<rect y="3.43005" width="24" height="17.1429" rx="2" fill="white"/>
<mask id="mask0_14_2152" style="mask-type:luminance" maskUnits="userSpaceOnUse" x="0" y="3" width="24" height="18">
<rect y="3.43005" width="24" height="17.1429" rx="2" fill="white"/>
</mask>
<g mask="url(#mask0_14_2152)">
<rect y="3.43005" width="24" height="17.1429" fill="#0A17A7"/>
<path fill-rule="evenodd" clip-rule="evenodd" d="M-1.09929 1.78735L9.14287 8.69577V2.28718H14.8572V8.69573L25.0992 1.78736L26.3774 3.6823L18.2796 9.14432H24V14.8586H18.2796L26.3774 20.3206L25.0992 22.2155L14.8572 15.3072V21.7157H9.14287V15.3071L-1.09928 22.2156L-2.37744 20.3206L5.72032 14.8586H7.62939e-06V9.14432H5.72034L-2.37744 3.6823L-1.09929 1.78735Z" fill="white"/>
<path fill-rule="evenodd" clip-rule="evenodd" d="M27.1356 1.53262C27.2368 1.68641 27.1941 1.89311 27.0403 1.99429L16.1843 9.13617C16.0305 9.23735 15.8238 9.1947 15.7226 9.0409C15.6214 8.8871 15.6641 8.6804 15.8179 8.57922L26.6739 1.43734C26.8277 1.33616 27.0344 1.37882 27.1356 1.53262Z" fill="#DB1F35"/>
<path fill-rule="evenodd" clip-rule="evenodd" d="M27.1622 21.9167C27.2651 21.764 27.2247 21.5568 27.0721 21.4539L17.3402 14.8944C17.1876 14.7915 16.9804 14.8318 16.8775 14.9845C16.7746 15.1371 16.815 15.3443 16.9676 15.4472L26.6995 22.0068C26.8521 22.1097 27.0593 22.0693 27.1622 21.9167Z" fill="#DB1F35"/>
<path fill-rule="evenodd" clip-rule="evenodd" d="M-3.56561 1.81151C-3.46273 1.65884 -3.25556 1.61849 -3.1029 1.72138L7.04826 8.56262C7.20092 8.6655 7.24127 8.87266 7.13839 9.02532C7.0355 9.17799 6.82834 9.21834 6.67568 9.11545L-3.47548 2.27422C-3.62814 2.17133 -3.6685 1.96417 -3.56561 1.81151Z" fill="#DB1F35"/>
<path fill-rule="evenodd" clip-rule="evenodd" d="M-3.56699 22.7376C-3.46524 22.891 -3.25839 22.9329 -3.10497 22.8311L8.1472 15.3692C8.30062 15.2675 8.34252 15.0606 8.24077 14.9072C8.13903 14.7538 7.93217 14.7119 7.77875 14.8136L-3.47341 22.2755C-3.62684 22.3773 -3.66873 22.5841 -3.56699 22.7376Z" fill="#DB1F35"/>
<path fill-rule="evenodd" clip-rule="evenodd" d="M0 13.7158H10.2857V20.5729H13.7143V13.7158H24V10.2872H13.7143V3.43005H10.2857V10.2872H0V13.7158Z" fill="#E6273E"/>
</g>
</svg>
