<svg width="24" height="24" viewBox="0 0 24 24" fill="none" xmlns="http://www.w3.org/2000/svg">
<rect y="3.43005" width="24" height="17.1429" rx="2" fill="white"/>
<mask id="mask0_14_978" style="mask-type:luminance" maskUnits="userSpaceOnUse" x="0" y="3" width="24" height="18">
<rect y="3.43005" width="24" height="17.1429" rx="2" fill="white"/>
</mask>
<g mask="url(#mask0_14_978)">
<rect y="3.43005" width="24" height="17.1429" fill="#08C55F"/>
<path fill-rule="evenodd" clip-rule="evenodd" d="M-1.14282 20.5729V3.43005H3.48091e-05L24 11.4301V12.5729L3.48091e-05 20.5729H-1.14282Z" fill="#FFD831"/>
<path fill-rule="evenodd" clip-rule="evenodd" d="M3.48091e-05 20.5729L24 12.5729V11.4301L3.48091e-05 3.43005H-1.14282V20.5729H3.48091e-05ZM0.190511 19.104L21.4979 12.0015L0.190511 4.899V19.104Z" fill="white"/>
<path fill-rule="evenodd" clip-rule="evenodd" d="M-1.14282 20.5729V3.43005H3.49283e-05L13.1429 12.0015L3.49283e-05 20.5729H-1.14282Z" fill="#E92034"/>
<path fill-rule="evenodd" clip-rule="evenodd" d="M3.49283e-05 20.5729L13.1429 12.0015L3.49283e-05 3.43005H-1.14282V20.5729H3.49283e-05ZM0.190511 18.8569L10.7021 12.0015L0.190511 5.14611V18.8569Z" fill="#262626"/>
</g>
</svg>
