<svg width="24" height="24" viewBox="0 0 24 24" fill="none" xmlns="http://www.w3.org/2000/svg">
<rect y="3.43005" width="24" height="17.1429" rx="2" fill="white"/>
<mask id="mask0_14_1634" style="mask-type:luminance" maskUnits="userSpaceOnUse" x="0" y="3" width="24" height="18">
<rect y="3.43005" width="24" height="17.1429" rx="2" fill="white"/>
</mask>
<g mask="url(#mask0_14_1634)">
<path fill-rule="evenodd" clip-rule="evenodd" d="M0 11.4301H24V3.43005H0V11.4301Z" fill="#112EBC"/>
<path fill-rule="evenodd" clip-rule="evenodd" d="M0 20.5729H24V11.4301H0V20.5729Z" fill="#E3264A"/>
<rect x="8" y="9.14441" width="8" height="6.85714" rx="0.666667" fill="url(#paint0_linear_14_1634)"/>
<mask id="mask1_14_1634" style="mask-type:luminance" maskUnits="userSpaceOnUse" x="8" y="9" width="8" height="8">
<rect x="8" y="9.14441" width="8" height="6.85714" rx="0.666667" fill="white"/>
</mask>
<g mask="url(#mask1_14_1634)">
<path fill-rule="evenodd" clip-rule="evenodd" d="M8 14.8587L9.72266 13.9973C10.0929 13.8122 10.5012 13.7158 10.9152 13.7158H13.0848C13.4988 13.7158 13.9071 13.8122 14.2773 13.9973L16 14.8587V16.0015H8V14.8587Z" fill="#AABCAE"/>
<path fill-rule="evenodd" clip-rule="evenodd" d="M8.66667 15.3349V15.2707L10.0208 14.5936C10.2985 14.4548 10.6047 14.3825 10.9152 14.3825H13.0848C13.3953 14.3825 13.7015 14.4548 13.9792 14.5936L15.3333 15.2707V15.3349H8.66667ZM16 14.8587L14.2773 13.9973C13.9071 13.8122 13.4988 13.7158 13.0848 13.7158H10.9152C10.5012 13.7158 10.0929 13.8122 9.72266 13.9973L8 14.8587V16.0015H16V14.8587Z" fill="#366C14"/>
<path fill-rule="evenodd" clip-rule="evenodd" d="M11.9999 13.7158C12.9467 13.7158 13.7142 12.9483 13.7142 12.0015C13.7142 11.0547 12.9467 10.2872 11.9999 10.2872C11.0532 10.2872 10.2856 11.0547 10.2856 12.0015C10.2856 12.9483 11.0532 13.7158 11.9999 13.7158Z" fill="#D4B872"/>
<path fill-rule="evenodd" clip-rule="evenodd" d="M9.14294 13.3886C9.14294 12.8296 9.78957 12.5188 10.2261 12.868L11.5836 13.9541C11.8271 14.1489 12.1731 14.1489 12.4166 13.9541L13.7741 12.868C14.2106 12.5188 14.8572 12.8296 14.8572 13.3886V14.192C14.8572 14.5602 14.5588 14.8587 14.1906 14.8587H9.80961C9.44142 14.8587 9.14294 14.5602 9.14294 14.192V13.3886Z" fill="#C28321"/>
<path fill-rule="evenodd" clip-rule="evenodd" d="M10.8139 14.192L9.80961 13.3886L9.80961 14.192H10.8139ZM13.1863 14.192H14.1906V13.3886L13.1863 14.192ZM10.2261 12.868C9.78957 12.5188 9.14294 12.8296 9.14294 13.3886V14.192C9.14294 14.5602 9.44142 14.8587 9.80961 14.8587H14.1906C14.5588 14.8587 14.8572 14.5602 14.8572 14.192V13.3886C14.8572 12.8296 14.2106 12.5188 13.7741 12.868L12.4166 13.9541C12.1731 14.1489 11.8271 14.1489 11.5836 13.9541L10.2261 12.868Z" fill="#0D3488"/>
<path fill-rule="evenodd" clip-rule="evenodd" d="M10.8546 10.8563C10.6447 10.6463 10.7934 10.2872 11.0903 10.2872H12.9094C13.2064 10.2872 13.3551 10.6463 13.1451 10.8563L12.2356 11.7658C12.1054 11.896 11.8944 11.896 11.7642 11.7658L10.8546 10.8563Z" fill="#216C30"/>
</g>
</g>
<defs>
<linearGradient id="paint0_linear_14_1634" x1="8" y1="9.14441" x2="8" y2="16.0016" gradientUnits="userSpaceOnUse">
<stop stop-color="white"/>
<stop offset="1" stop-color="#F0F0F0"/>
</linearGradient>
</defs>
</svg>
