<svg width="24" height="24" viewBox="0 0 24 24" fill="none" xmlns="http://www.w3.org/2000/svg">
<rect x="0.25" y="3.68005" width="23.5" height="16.6429" rx="1.75" fill="white" stroke="#F5F5F5" stroke-width="0.5"/>
<mask id="mask0_14_1003" style="mask-type:luminance" maskUnits="userSpaceOnUse" x="0" y="3" width="24" height="18">
<rect x="0.25" y="3.68005" width="23.5" height="16.6429" rx="1.75" fill="white" stroke="white" stroke-width="0.5"/>
</mask>
<g mask="url(#mask0_14_1003)">
<rect x="-5.40991" y="1.21631" width="2.28571" height="42.2857" transform="rotate(-55 -5.40991 1.21631)" fill="#E3243B"/>
<rect width="2.28571" height="42.2857" transform="matrix(-0.573576 -0.819152 -0.819152 0.573576 30.5396 1.21631)" fill="#E3243B"/>
<path fill-rule="evenodd" clip-rule="evenodd" d="M13.4919 5.71563H11.6509L11.7256 5.67185L10.8798 5.18341L11.9733 5.30552L11.8196 4.57288L12.5714 5.18341L13.3233 4.57288L13.1695 5.30552L14.2631 5.18341L13.4173 5.67185L13.4919 5.71563Z" fill="#FAEF32"/>
<path fill-rule="evenodd" clip-rule="evenodd" d="M10.8572 7.85843C10.8572 7.60138 10.8572 7.32035 10.8572 7.0489C10.8572 6.31252 11.4541 5.71558 12.1905 5.71558H12.9524C13.6888 5.71558 14.2857 6.31252 14.2857 7.0489C14.2857 7.32035 14.2857 7.60138 14.2857 7.85843C14.2857 9.38905 12.5715 10.0013 12.5715 10.0013C12.5715 10.0013 10.8572 9.38905 10.8572 7.85843Z" fill="#E3243B"/>
<mask id="mask1_14_1003" style="mask-type:luminance" maskUnits="userSpaceOnUse" x="10" y="5" width="5" height="6">
<path fill-rule="evenodd" clip-rule="evenodd" d="M10.8572 7.85843C10.8572 7.60138 10.8572 7.32035 10.8572 7.0489C10.8572 6.31252 11.4541 5.71558 12.1905 5.71558H12.9524C13.6888 5.71558 14.2857 6.31252 14.2857 7.0489C14.2857 7.32035 14.2857 7.60138 14.2857 7.85843C14.2857 9.38905 12.5715 10.0013 12.5715 10.0013C12.5715 10.0013 10.8572 9.38905 10.8572 7.85843Z" fill="white"/>
</mask>
<g mask="url(#mask1_14_1003)">
<path d="M12.1183 9.57274C12.1183 9.33604 12.3102 9.14417 12.5469 9.14417C12.7836 9.14417 12.9754 9.33604 12.9754 9.57274C12.9754 9.80943 12.7836 10.0013 12.5469 10.0013C12.3102 10.0013 12.1183 9.80943 12.1183 9.57274Z" fill="#FAEF32"/>
<path d="M11.4286 8.43004C11.4286 8.19334 11.6205 8.00146 11.8572 8.00146H13.2857C13.5224 8.00146 13.7143 8.19334 13.7143 8.43004C13.7143 8.66673 13.5224 8.85861 13.2857 8.85861H11.8572C11.6205 8.85861 11.4286 8.66673 11.4286 8.43004Z" fill="#FAEF32"/>
<path d="M11.4286 7.28721C11.4286 7.05052 11.6205 6.85864 11.8572 6.85864H13.2857C13.5224 6.85864 13.7143 7.05052 13.7143 7.28721C13.7143 7.52391 13.5224 7.71579 13.2857 7.71579H11.8572C11.6205 7.71579 11.4286 7.52391 11.4286 7.28721Z" fill="#FAEF32"/>
</g>
</g>
</svg>
