<svg width="24" height="24" viewBox="0 0 24 24" fill="none" xmlns="http://www.w3.org/2000/svg">
<rect x="0.25" y="3.68005" width="23.5" height="16.6429" rx="1.75" fill="white" stroke="#F5F5F5" stroke-width="0.5"/>
<mask id="mask0_14_1734" style="mask-type:luminance" maskUnits="userSpaceOnUse" x="0" y="3" width="24" height="18">
<rect x="0.25" y="3.68005" width="23.5" height="16.6429" rx="1.75" fill="white" stroke="white" stroke-width="0.5"/>
</mask>
<g mask="url(#mask0_14_1734)">
<path fill-rule="evenodd" clip-rule="evenodd" d="M12 16.0015C14.2091 16.0015 16 14.2106 16 12.0015C16 9.79233 14.2091 8.00146 12 8.00146C9.79086 8.00146 8 9.79233 8 12.0015C8 14.2106 9.79086 16.0015 12 16.0015Z" fill="#E01B41"/>
<mask id="mask1_14_1734" style="mask-type:luminance" maskUnits="userSpaceOnUse" x="8" y="8" width="8" height="9">
<path fill-rule="evenodd" clip-rule="evenodd" d="M12 16.0015C14.2091 16.0015 16 14.2106 16 12.0015C16 9.79233 14.2091 8.00146 12 8.00146C9.79086 8.00146 8 9.79233 8 12.0015C8 14.2106 9.79086 16.0015 12 16.0015Z" fill="white"/>
</mask>
<g mask="url(#mask1_14_1734)">
<path fill-rule="evenodd" clip-rule="evenodd" d="M8 12.5728C9.14286 13.6443 10.8571 14.2871 12 12.5728C13.1429 10.8585 15.4286 10.8585 16 12.5728C16.5714 14.2871 16 16.0014 16 16.0014H8C8 16.0014 6.85714 11.5014 8 12.5728Z" fill="#0E4B9C"/>
</g>
<path opacity="0.75" fill-rule="evenodd" clip-rule="evenodd" d="M17.8648 6.63584C17.7053 6.72788 17.6507 6.93175 17.7428 7.09118L19.1237 9.48306C19.2158 9.64249 19.4196 9.69711 19.5791 9.60507L19.9915 9.36697C20.1509 9.27492 20.2055 9.07106 20.1135 8.91163L18.7325 6.51975C18.6405 6.36032 18.4366 6.30569 18.2772 6.39774L17.8648 6.63584ZM16.3802 7.49298C16.2208 7.58503 16.1662 7.78889 16.2582 7.94832L17.6392 10.3402C17.7312 10.4996 17.9351 10.5543 18.0945 10.4622L18.5069 10.2241C18.6663 10.1321 18.7209 9.9282 18.6289 9.76877L17.2479 7.37689C17.1559 7.21746 16.952 7.16284 16.7926 7.25488L16.3802 7.49298ZM3.88639 15.0912C3.79434 14.9318 3.84897 14.7279 4.0084 14.6359L4.42079 14.3978C4.58022 14.3057 4.78408 14.3604 4.87613 14.5198L6.25708 16.9117C6.34913 17.0711 6.29451 17.275 6.13508 17.367L5.72268 17.6051C5.56325 17.6972 5.35939 17.6425 5.26734 17.4831L3.88639 15.0912ZM5.49296 13.7787C5.33353 13.8708 5.2789 14.0747 5.37095 14.2341L6.7519 16.626C6.84395 16.7854 7.04781 16.84 7.20725 16.748L7.61964 16.5099C7.77907 16.4178 7.83369 16.214 7.74165 16.0545L6.36069 13.6627C6.26865 13.5032 6.06478 13.4486 5.90535 13.5406L5.49296 13.7787ZM17.6392 13.6626C17.7312 13.5032 17.9351 13.4486 18.0945 13.5406L18.5069 13.7787C18.6663 13.8708 18.7209 14.0746 18.6289 14.2341L17.2479 16.6259C17.1559 16.7854 16.952 16.84 16.7926 16.7479L16.3802 16.5099C16.2208 16.4178 16.1662 16.2139 16.2582 16.0545L17.6392 13.6626ZM19.5791 14.3978C19.4196 14.3057 19.2158 14.3603 19.1237 14.5198L17.7428 16.9117C17.6507 17.0711 17.7053 17.2749 17.8648 17.367L18.2772 17.6051C18.4366 17.6971 18.6405 17.6425 18.7325 17.4831L20.1135 15.0912C20.2055 14.9318 20.1509 14.7279 19.9915 14.6359L19.5791 14.3978ZM5.26734 6.5198C5.35939 6.36037 5.56325 6.30574 5.72268 6.39779L6.13508 6.63588C6.29451 6.72793 6.34913 6.93179 6.25708 7.09122L4.87613 9.4831C4.78408 9.64254 4.58022 9.69716 4.42079 9.60511L4.0084 9.36702C3.84897 9.27497 3.79434 9.07111 3.88639 8.91168L5.26734 6.5198ZM7.20725 7.25493C7.04781 7.16288 6.84395 7.21751 6.7519 7.37694L5.37095 9.76882C5.2789 9.92825 5.33353 10.1321 5.49296 10.2242L5.90535 10.4623C6.06478 10.5543 6.26865 10.4997 6.36069 10.3402L7.74165 7.94837C7.83369 7.78894 7.77907 7.58507 7.61964 7.49303L7.20725 7.25493Z" fill="#262626"/>
</g>
</svg>
