<svg width="24" height="24" viewBox="0 0 24 24" fill="none" xmlns="http://www.w3.org/2000/svg">
<path d="M0 5.43005C0 4.32548 0.895431 3.43005 2 3.43005H22C23.1046 3.43005 24 4.32548 24 5.43005V18.5729C24 19.6775 23.1046 20.5729 22 20.5729H2C0.89543 20.5729 0 19.6775 0 18.5729V5.43005Z" fill="white"/>
<mask id="mask0_14_1095" style="mask-type:luminance" maskUnits="userSpaceOnUse" x="0" y="3" width="24" height="18">
<path d="M0 5.43005C0 4.32548 0.895431 3.43005 2 3.43005H22C23.1046 3.43005 24 4.32548 24 5.43005V18.5729C24 19.6775 23.1046 20.5729 22 20.5729H2C0.89543 20.5729 0 19.6775 0 18.5729V5.43005Z" fill="white"/>
</mask>
<g mask="url(#mask0_14_1095)">
<path d="M0 3.43005H24V20.5729H0V3.43005Z" fill="#30C6E0"/>
<path fill-rule="evenodd" clip-rule="evenodd" d="M12 15.43C13.8935 15.43 15.4286 13.895 15.4286 12.0014C15.4286 10.1079 13.8935 8.57288 12 8.57288C10.1064 8.57288 8.57141 10.1079 8.57141 12.0014C8.57141 13.895 10.1064 15.43 12 15.43Z" fill="#FFCD4B"/>
<path fill-rule="evenodd" clip-rule="evenodd" d="M10.6012 18.1296L11.9999 16.0418L13.3987 18.1296L13.7529 15.6417L15.919 16.9159L15.1587 14.5206L17.6632 14.7288L15.9389 12.9006L18.2857 12.0015L15.9389 11.1025L17.6632 9.27426L15.1587 9.48248L15.919 7.08716L13.7529 8.3614L13.3987 5.87341L11.9999 7.96129L10.6012 5.87341L10.247 8.3614L8.08087 7.08716L8.84116 9.48248L6.33671 9.27426L8.06101 11.1025L5.71423 12.0015L8.06101 12.9006L6.33671 14.7288L8.84116 14.5206L8.08087 16.9159L10.247 15.6417L10.6012 18.1296ZM16 12.0016C16 14.2107 14.2091 16.0016 12 16.0016C9.79081 16.0016 7.99995 14.2107 7.99995 12.0016C7.99995 9.79246 9.79081 8.0016 12 8.0016C14.2091 8.0016 16 9.79246 16 12.0016Z" fill="#FFCD4B"/>
<path fill-rule="evenodd" clip-rule="evenodd" d="M1.14282 4.90621C1.14282 4.72211 1.29206 4.57288 1.47616 4.57288H1.95235C2.13644 4.57288 2.28568 4.72211 2.28568 4.90621V5.3824C2.28568 5.56649 2.13644 5.71573 1.95235 5.71573H1.47616C1.29206 5.71573 1.14282 5.56649 1.14282 5.3824V4.90621ZM1.14282 7.19196C1.14282 7.00786 1.29206 6.85863 1.47616 6.85863H1.95235C2.13644 6.85863 2.28568 7.00786 2.28568 7.19196V7.66815C2.28568 7.85224 2.13644 8.00148 1.95235 8.00148H1.47616C1.29206 8.00148 1.14282 7.85224 1.14282 7.66815V7.19196ZM1.47616 9.1442C1.29206 9.1442 1.14282 9.29344 1.14282 9.47753V9.95372C1.14282 10.1378 1.29206 10.2871 1.47616 10.2871H1.95235C2.13644 10.2871 2.28568 10.1378 2.28568 9.95372V9.47753C2.28568 9.29344 2.13644 9.1442 1.95235 9.1442H1.47616ZM1.14282 11.7633C1.14282 11.5792 1.29206 11.43 1.47616 11.43H1.95235C2.13644 11.43 2.28568 11.5792 2.28568 11.7633V12.2395C2.28568 12.4236 2.13644 12.5728 1.95235 12.5728H1.47616C1.29206 12.5728 1.14282 12.4236 1.14282 12.2395V11.7633ZM1.47616 13.7158C1.29206 13.7158 1.14282 13.865 1.14282 14.0491V14.5253C1.14282 14.7094 1.29206 14.8586 1.47616 14.8586H1.95235C2.13644 14.8586 2.28568 14.7094 2.28568 14.5253V14.0491C2.28568 13.865 2.13644 13.7158 1.95235 13.7158H1.47616ZM1.14282 16.3347C1.14282 16.1506 1.29206 16.0013 1.47616 16.0013H1.95235C2.13644 16.0013 2.28568 16.1506 2.28568 16.3347V16.8109C2.28568 16.995 2.13644 17.1442 1.95235 17.1442H1.47616C1.29206 17.1442 1.14282 16.995 1.14282 16.8109V16.3347ZM1.47616 18.2871C1.29206 18.2871 1.14282 18.4364 1.14282 18.6205V19.0967C1.14282 19.2807 1.29206 19.43 1.47616 19.43H1.95235C2.13644 19.43 2.28568 19.2807 2.28568 19.0967V18.6205C2.28568 18.4364 2.13644 18.2871 1.95235 18.2871H1.47616ZM2.28568 17.4777C2.28568 17.2936 2.43491 17.1443 2.61901 17.1443H3.0952C3.27929 17.1443 3.42853 17.2936 3.42853 17.4777V17.9539C3.42853 18.138 3.27929 18.2872 3.0952 18.2872H2.61901C2.43491 18.2872 2.28568 18.138 2.28568 17.9539V17.4777ZM2.61901 14.8586C2.43491 14.8586 2.28568 15.0078 2.28568 15.1919V15.6681C2.28568 15.8522 2.43491 16.0014 2.61901 16.0014H3.0952C3.27929 16.0014 3.42853 15.8522 3.42853 15.6681V15.1919C3.42853 15.0078 3.27929 14.8586 3.0952 14.8586H2.61901ZM2.28568 12.9061C2.28568 12.722 2.43491 12.5728 2.61901 12.5728H3.0952C3.27929 12.5728 3.42853 12.722 3.42853 12.9061V13.3823C3.42853 13.5664 3.27929 13.7156 3.0952 13.7156H2.61901C2.43491 13.7156 2.28568 13.5664 2.28568 13.3823V12.9061ZM2.61901 10.2872C2.43491 10.2872 2.28568 10.4364 2.28568 10.6205V11.0967C2.28568 11.2808 2.43491 11.4301 2.61901 11.4301H3.0952C3.27929 11.4301 3.42853 11.2808 3.42853 11.0967V10.6205C3.42853 10.4364 3.27929 10.2872 3.0952 10.2872H2.61901ZM2.28568 8.33475C2.28568 8.15065 2.43491 8.00141 2.61901 8.00141H3.0952C3.27929 8.00141 3.42853 8.15065 3.42853 8.33475V8.81094C3.42853 8.99503 3.27929 9.14427 3.0952 9.14427H2.61901C2.43491 9.14427 2.28568 8.99503 2.28568 8.81094V8.33475ZM2.61901 5.71563C2.43491 5.71563 2.28568 5.86487 2.28568 6.04896V6.52515C2.28568 6.70925 2.43491 6.85849 2.61901 6.85849H3.0952C3.27929 6.85849 3.42853 6.70925 3.42853 6.52515V6.04896C3.42853 5.86487 3.27929 5.71563 3.0952 5.71563H2.61901Z" fill="#FFCD4B"/>
</g>
</svg>
