<svg width="24" height="24" viewBox="0 0 24 24" fill="none" xmlns="http://www.w3.org/2000/svg">
<rect x="0.25" y="3.67993" width="23.5" height="16.6429" rx="1.75" fill="white" stroke="#F5F5F5" stroke-width="0.5"/>
<mask id="mask0_14_1305" style="mask-type:luminance" maskUnits="userSpaceOnUse" x="0" y="3" width="24" height="18">
<rect x="0.25" y="3.67993" width="23.5" height="16.6429" rx="1.75" fill="white" stroke="white" stroke-width="0.5"/>
</mask>
<g mask="url(#mask0_14_1305)">
<path fill-rule="evenodd" clip-rule="evenodd" d="M0 9.14422H24V3.42993H0V9.14422Z" fill="#0C33B8"/>
<path fill-rule="evenodd" clip-rule="evenodd" d="M0 20.5727H24V14.8584H0V20.5727Z" fill="#1DB158"/>
<path fill-rule="evenodd" clip-rule="evenodd" d="M11.4286 12.0015C11.6116 11.4523 12.3884 11.4523 12.5714 12.0015L13.5627 13.4884C13.6509 13.6206 13.6312 13.795 13.4977 13.881C13.2358 14.0498 12.7366 14.2872 12 14.2872C11.2634 14.2872 10.7642 14.0498 10.5024 13.881C10.3688 13.795 10.3492 13.6206 10.4373 13.4884L11.4286 12.0015Z" fill="#262626"/>
<path fill-rule="evenodd" clip-rule="evenodd" d="M12 11.3346C12.263 11.3346 12.4762 11.1214 12.4762 10.8584C12.4762 10.5954 12.263 10.3822 12 10.3822C11.737 10.3822 11.5238 10.5954 11.5238 10.8584C11.5238 11.1214 11.737 11.3346 12 11.3346ZM13.1429 10.8584C13.1429 11.4896 12.6312 12.0013 12 12.0013C11.3689 12.0013 10.8572 11.4896 10.8572 10.8584C10.8572 10.2273 11.3689 9.71558 12 9.71558C12.6312 9.71558 13.1429 10.2273 13.1429 10.8584Z" fill="#262626"/>
</g>
</svg>
