<svg width="24" height="24" viewBox="0 0 24 24" fill="none" xmlns="http://www.w3.org/2000/svg">
<rect y="3.43005" width="24" height="17.1429" rx="2" fill="white"/>
<mask id="mask0_14_2330" style="mask-type:luminance" maskUnits="userSpaceOnUse" x="0" y="3" width="24" height="18">
<rect y="3.43005" width="24" height="17.1429" rx="2" fill="white"/>
</mask>
<g mask="url(#mask0_14_2330)">
<rect y="3.43005" width="24" height="17.1429" fill="#E81B26"/>
<path fill-rule="evenodd" clip-rule="evenodd" d="M12 14.8587C13.5779 14.8587 14.8571 13.5795 14.8571 12.0016C14.8571 10.4236 13.5779 9.14441 12 9.14441C10.422 9.14441 9.14282 10.4236 9.14282 12.0016C9.14282 13.5795 10.422 14.8587 12 14.8587Z" fill="#FFE94F"/>
<path fill-rule="evenodd" clip-rule="evenodd" d="M8.74978 9.66947C8.92233 9.42941 9.12081 9.20925 9.34114 9.01309L1.68138 0.403809L-0.612785 2.95173L8.74978 9.66947ZM9.3411 14.9899C9.12078 14.7938 8.9223 14.5736 8.74975 14.3335L-0.612793 21.0513L1.68137 23.5992L9.3411 14.9899ZM8.0397 12.5673C8.01353 12.3824 8 12.1936 8 12.0015C8 11.8095 8.01354 11.6206 8.03971 11.4358L-4.54187e-05 10.2872V13.7158L8.0397 12.5673ZM12.7846 8.07844L13.7142 3.43008H10.2857L11.2153 8.07846C11.4691 8.02799 11.7314 8.00153 12 8.00153C12.2685 8.00153 12.5309 8.02799 12.7846 8.07844ZM15.9603 11.4357C15.9865 11.6206 16 11.8095 16 12.0015C16 12.1936 15.9865 12.3824 15.9603 12.5673L24 13.7158V10.2872L15.9603 11.4357ZM12.7846 15.9246C12.5309 15.9751 12.2685 16.0015 12 16.0015C11.7314 16.0015 11.4691 15.9751 11.2153 15.9246L10.2857 20.5729H13.7142L12.7846 15.9246ZM14.6588 14.99C14.8792 14.7938 15.0777 14.5737 15.2502 14.3336L24.6127 21.0513L22.3185 23.5992L14.6588 14.99ZM14.6588 9.01304C14.8791 9.2092 15.0776 9.42937 15.2502 9.66942L24.6127 2.95173L22.3185 0.403809L14.6588 9.01304Z" fill="#FFE94F"/>
</g>
</svg>
