<svg width="24" height="24" viewBox="0 0 24 24" fill="none" xmlns="http://www.w3.org/2000/svg">
<rect y="3.43005" width="24" height="17.1429" rx="2" fill="white"/>
<mask id="mask0_14_883" style="mask-type:luminance" maskUnits="userSpaceOnUse" x="0" y="3" width="24" height="18">
<rect y="3.43005" width="24" height="17.1429" rx="2" fill="white"/>
</mask>
<g mask="url(#mask0_14_883)">
<path fill-rule="evenodd" clip-rule="evenodd" d="M0 20.5729H24V3.43005H0V20.5729Z" fill="#079D7B"/>
<path fill-rule="evenodd" clip-rule="evenodd" d="M13.6158 10.8586C13.6158 11.1088 13.5976 11.3514 13.5635 11.5827C13.6511 11.5558 13.7404 11.5301 13.8312 11.5057C15.3554 11.0973 16.7158 11.2321 16.8698 11.8067C17.0089 12.326 16.1151 13.0269 14.8166 13.4585C14.5873 12.7781 13.4135 12.5729 12.0001 12.5729C10.585 12.5729 9.41022 12.7786 9.18275 13.4608C7.90192 13.0284 7.02409 12.3349 7.16208 11.8199C7.31606 11.2453 8.67647 11.1105 10.2007 11.5189C10.2807 11.5404 10.3596 11.5629 10.4372 11.5864C10.4027 11.354 10.3843 11.1101 10.3843 10.8586C10.3843 9.28065 11.1077 8.00146 12.0001 8.00146C12.8924 8.00146 13.6158 9.28065 13.6158 10.8586ZM9.65885 13.604C9.82252 13.6475 9.98425 13.6847 10.1428 13.7158H7.42866C7.56421 14.1227 7.74665 14.5061 7.96909 14.8587H16.0311C16.2535 14.5061 16.436 14.1227 16.5715 13.7158H13.8201C13.9836 13.6854 14.1508 13.6484 14.3202 13.6047C14.1401 13.6107 13.9205 13.6259 13.6707 13.6432C13.2009 13.6757 12.6238 13.7157 12.0001 13.7157C11.3764 13.7157 10.7993 13.6757 10.3295 13.6432C10.0698 13.6252 9.84281 13.6095 9.65885 13.604ZM12.0001 17.1443C13.1544 17.1443 14.2145 16.7161 15.047 16.0014H8.95314C9.78565 16.7161 10.8457 17.1443 12.0001 17.1443Z" fill="white"/>
<path fill-rule="evenodd" clip-rule="evenodd" d="M12 6.85856C12.3156 6.85856 12.5715 6.60272 12.5715 6.28713C12.5715 5.97154 12.3156 5.7157 12 5.7157C11.6845 5.7157 11.4286 5.97154 11.4286 6.28713C11.4286 6.60272 11.6845 6.85856 12 6.85856ZM7.42861 9.71563C7.7442 9.71563 8.00003 9.45979 8.00003 9.1442C8.00003 8.82861 7.7442 8.57277 7.42861 8.57277C7.11302 8.57277 6.85718 8.82861 6.85718 9.1442C6.85718 9.45979 7.11302 9.71563 7.42861 9.71563ZM17.1429 9.1442C17.1429 9.45979 16.887 9.71563 16.5715 9.71563C16.2559 9.71563 16 9.45979 16 9.1442C16 8.82861 16.2559 8.57277 16.5715 8.57277C16.887 8.57277 17.1429 8.82861 17.1429 9.1442ZM14.8572 8.00134C15.1728 8.00134 15.4286 7.74551 15.4286 7.42991C15.4286 7.11432 15.1728 6.85849 14.8572 6.85849C14.5416 6.85849 14.2857 7.11432 14.2857 7.42991C14.2857 7.74551 14.5416 8.00134 14.8572 8.00134ZM9.71432 7.42991C9.71432 7.74551 9.45848 8.00134 9.14289 8.00134C8.8273 8.00134 8.57146 7.74551 8.57146 7.42991C8.57146 7.11432 8.8273 6.85849 9.14289 6.85849C9.45848 6.85849 9.71432 7.11432 9.71432 7.42991Z" fill="#FCD117"/>
</g>
</svg>
