<svg width="24" height="24" viewBox="0 0 24 24" fill="none" xmlns="http://www.w3.org/2000/svg">
<rect x="0.25" y="3.68005" width="23.5" height="16.6429" rx="1.75" fill="white" stroke="#F5F5F5" stroke-width="0.5"/>
<path fill-rule="evenodd" clip-rule="evenodd" d="M0 5.43005C0 4.32548 0.895431 3.43005 2 3.43005L2.08386 3.43005C2.21548 3.43005 2.34415 3.46901 2.45366 3.54202L12.3359 10.1302C13.4335 10.8619 12.9155 12.5729 11.5963 12.5729H6.85714L13.3294 18.2361C14.2559 19.0469 13.6826 20.5729 12.4514 20.5729H2C0.895431 20.5729 0 19.6775 0 18.5729V5.43005Z" fill="white"/>
<mask id="mask0_14_1935" style="mask-type:luminance" maskUnits="userSpaceOnUse" x="0" y="3" width="14" height="18">
<path fill-rule="evenodd" clip-rule="evenodd" d="M0 5.43005C0 4.32548 0.895431 3.43005 2 3.43005L2.08386 3.43005C2.21548 3.43005 2.34415 3.46901 2.45366 3.54202L12.3359 10.1302C13.4335 10.8619 12.9155 12.5729 11.5963 12.5729H6.85714L13.3294 18.2361C14.2559 19.0469 13.6826 20.5729 12.4514 20.5729H2C0.895431 20.5729 0 19.6775 0 18.5729V5.43005Z" fill="white"/>
</mask>
<g mask="url(#mask0_14_1935)">
<path fill-rule="evenodd" clip-rule="evenodd" d="M0 3.43005H2.08386C2.21548 3.43005 2.34415 3.46901 2.45366 3.54202L12.3359 10.1302C13.4335 10.8619 12.9155 12.5729 11.5963 12.5729H6.85714L13.3294 18.2361C14.2559 19.0469 13.6826 20.5729 12.4514 20.5729H0V3.43005Z" fill="#EE1B44"/>
<path fill-rule="evenodd" clip-rule="evenodd" d="M11.5963 12.5729C12.9155 12.5729 13.4335 10.8619 12.3359 10.1302L2.45366 3.54202C2.34415 3.46901 2.21548 3.43005 2.08386 3.43005H0V20.5729H12.4514C13.6826 20.5729 14.2559 19.0469 13.3294 18.2361L6.85714 12.5729H11.5963ZM1.33333 19.2396L12.4514 19.2396L5.97914 13.5763C5.5611 13.2106 5.41363 12.6239 5.60901 12.1039C5.80438 11.584 6.30166 11.2396 6.85714 11.2396H11.5963L1.88201 4.76339H1.33333V19.2396Z" fill="#0543A8"/>
<path fill-rule="evenodd" clip-rule="evenodd" d="M5.87237 10.1164C6.2016 10.0262 6.50512 9.90276 6.77357 9.75242C6.5073 10.7196 5.62143 11.43 4.56964 11.43C3.51787 11.43 2.63201 10.7196 2.36572 9.75248C2.63492 9.90323 2.93938 10.0269 3.26967 10.1172L3.71431 9.71575L2.98766 9.05972L3.96536 9.10966L3.91542 8.13196L4.57145 8.85861L5.22748 8.13196L5.17754 9.10966L6.15524 9.05972L5.42859 9.71575L5.87237 10.1164ZM3.69673 18.1132L4.57144 17.1443L5.44614 18.1132L5.37956 16.8096L6.68316 16.8762L5.7143 16.0014L6.68316 15.1267L5.37956 15.1933L5.44614 13.8897L4.57144 14.8586L3.69673 13.8897L3.76332 15.1933L2.45971 15.1267L3.42858 16.0014L2.45971 16.8762L3.76332 16.8096L3.69673 18.1132Z" fill="white"/>
</g>
</svg>
