<svg width="24" height="24" viewBox="0 0 24 24" fill="none" xmlns="http://www.w3.org/2000/svg">
<rect y="3.43005" width="24" height="17.1429" rx="2" fill="white"/>
<mask id="mask0_14_2051" style="mask-type:luminance" maskUnits="userSpaceOnUse" x="0" y="3" width="24" height="18">
<rect y="3.43005" width="24" height="17.1429" rx="2" fill="white"/>
</mask>
<g mask="url(#mask0_14_2051)">
<rect y="3.43005" width="24" height="17.1429" fill="#0A17A7"/>
<path fill-rule="evenodd" clip-rule="evenodd" d="M4 6.85862L0 3.43005H0.571429L4.57143 6.2872H5.71429L10.2857 3.43005V3.82994C10.2857 3.93759 10.2337 4.03862 10.1461 4.10119L6.28571 6.85862V8.00148L9.89784 11.0976C10.031 11.2118 9.9503 11.4301 9.77485 11.4301C9.73546 11.4301 9.69705 11.4177 9.665 11.3949L5.71429 8.57291H4.57143L0 11.4301V10.8586L4 8.00148V6.85862Z" fill="#FF2E3B"/>
<path fill-rule="evenodd" clip-rule="evenodd" d="M3.99993 6.85858V8.00143L-7.43866e-05 10.8586V11.43L4.57135 8.57286H5.71421L9.66493 11.3948C9.69698 11.4177 9.73538 11.43 9.77477 11.43C9.95022 11.43 10.031 11.2117 9.89776 11.0975L6.28564 8.00143V6.85858L10.1461 4.10114C10.2337 4.03857 10.2856 3.93754 10.2856 3.82989V3.43L5.71421 6.28715H4.57135L0.571354 3.43H-7.43866e-05L3.99993 6.85858ZM4.785 5.62048L0.784997 2.76334H-1.80225L3.33326 7.1652V7.65835L-0.666741 10.5155V12.6328L4.76255 9.23953H5.50057L9.27744 11.9373C9.42256 12.0409 9.59644 12.0967 9.77477 12.0967C10.5692 12.0967 10.9348 11.1083 10.3316 10.5914L6.95231 7.69481V7.20165L10.5335 4.64363C10.7963 4.45592 10.9523 4.15284 10.9523 3.82989V2.22717L5.52301 5.62048H4.785Z" fill="white"/>
<path fill-rule="evenodd" clip-rule="evenodd" d="M0 6.2872V8.57291H4V11.3348C4 11.703 4.29848 12.0015 4.66667 12.0015H5.61905C5.98724 12.0015 6.28571 11.703 6.28571 11.3348V8.57291H10.1905C10.5587 8.57291 10.8571 8.27443 10.8571 7.90624V6.95386C10.8571 6.58567 10.5587 6.2872 10.1905 6.2872H6.28571V3.43005H4V6.2872H0Z" fill="white"/>
<path fill-rule="evenodd" clip-rule="evenodd" d="M0 6.85862H4.57143V6.2872V3.43005H5.71429V6.2872V6.85862H10.2857V8.00148H5.71429V8.57291V11.4301H4.57143V8.57291V8.00148H0V6.85862Z" fill="#FF2E3B"/>
<path fill-rule="evenodd" clip-rule="evenodd" d="M17.1429 18.2872L16.3347 18.5239L16.5714 17.7157L16.3347 16.9076L17.1429 17.1443L17.951 16.9076L17.7143 17.7157L17.951 18.5239L17.1429 18.2872Z" fill="#CA1931"/>
<path fill-rule="evenodd" clip-rule="evenodd" d="M17.1429 7.43011L16.3347 7.6668L16.5714 6.85868L16.3347 6.05056L17.1429 6.28725L17.951 6.05056L17.7143 6.85868L17.951 7.6668L17.1429 7.43011Z" fill="#CA1931"/>
<path fill-rule="evenodd" clip-rule="evenodd" d="M20.5713 10.8587L19.7632 11.0954L19.9999 10.2873L19.7632 9.47914L20.5713 9.71584L21.3794 9.47914L21.1428 10.2873L21.3794 11.0954L20.5713 10.8587Z" fill="#CA1931"/>
<path fill-rule="evenodd" clip-rule="evenodd" d="M13.7141 12.0015L12.906 12.2382L13.1427 11.4301L12.906 10.622L13.7141 10.8587L14.5223 10.622L14.2856 11.4301L14.5223 12.2382L13.7141 12.0015Z" fill="#CA1931"/>
</g>
</svg>
