<svg width="24" height="24" viewBox="0 0 24 24" fill="none" xmlns="http://www.w3.org/2000/svg">
<rect x="0.25" y="3.68005" width="23.5" height="16.6429" rx="1.75" fill="white" stroke="#F5F5F5" stroke-width="0.5"/>
<mask id="mask0_14_1140" style="mask-type:luminance" maskUnits="userSpaceOnUse" x="0" y="3" width="24" height="18">
<rect x="0.25" y="3.68005" width="23.5" height="16.6429" rx="1.75" fill="white" stroke="white" stroke-width="0.5"/>
</mask>
<g mask="url(#mask0_14_1140)">
<path fill-rule="evenodd" clip-rule="evenodd" d="M0 20.5729H24V11.4301H10.6666L11.4285 12.0015L0 20.5729Z" fill="#DD1C34"/>
<path fill-rule="evenodd" clip-rule="evenodd" d="M24 11.4301H10.6667L0 3.43005H24V11.4301Z" fill="#0D4BC3"/>
<path fill-rule="evenodd" clip-rule="evenodd" d="M1.71425 6.85868C2.02984 6.85868 2.28568 6.60284 2.28568 6.28725C2.28568 5.97166 2.02984 5.71582 1.71425 5.71582C1.39866 5.71582 1.14282 5.97166 1.14282 6.28725C1.14282 6.60284 1.39866 6.85868 1.71425 6.85868ZM8.57139 12.573C8.88698 12.573 9.14282 12.3171 9.14282 12.0016C9.14282 11.686 8.88698 11.4301 8.57139 11.4301C8.2558 11.4301 7.99996 11.686 7.99996 12.0016C7.99996 12.3171 8.2558 12.573 8.57139 12.573ZM2.28568 17.7158C2.28568 18.0314 2.02984 18.2872 1.71425 18.2872C1.39866 18.2872 1.14282 18.0314 1.14282 17.7158C1.14282 17.4002 1.39866 17.1444 1.71425 17.1444C2.02984 17.1444 2.28568 17.4002 2.28568 17.7158ZM3.8846 13.1386L2.90658 14.6412L3.2775 12.8871C3.21781 12.8384 3.16314 12.7837 3.11439 12.724L1.36031 13.0949L2.86286 12.1169C2.85906 12.079 2.85711 12.0405 2.85711 12.0015C2.85711 11.9626 2.85906 11.9241 2.86286 11.8862L1.36031 10.9082L3.11439 11.2791C3.16314 11.2194 3.21781 11.1647 3.2775 11.116L2.90658 9.36188L3.8846 10.8644C3.92254 10.8606 3.96102 10.8587 3.99997 10.8587C4.03891 10.8587 4.07739 10.8606 4.11533 10.8644L5.09335 9.36188L4.72243 11.116C4.78212 11.1647 4.83679 11.2194 4.88554 11.2791L6.63962 10.9082L5.13707 11.8862C5.14088 11.9241 5.14282 11.9626 5.14282 12.0015C5.14282 12.0405 5.14088 12.079 5.13707 12.1169L6.63962 13.0949L4.88554 12.724C4.83679 12.7837 4.78212 12.8384 4.72243 12.8871L5.09335 14.6412L4.11533 13.1386C4.07739 13.1424 4.03891 13.1444 3.99997 13.1444C3.96102 13.1444 3.92254 13.1424 3.8846 13.1386Z" fill="#FDD64D"/>
</g>
</svg>
