<svg width="24" height="24" viewBox="0 0 24 24" fill="none" xmlns="http://www.w3.org/2000/svg">
<rect x="0.25" y="3.68005" width="23.5" height="16.6429" rx="1.75" fill="white" stroke="#F5F5F5" stroke-width="0.5"/>
<mask id="mask0_14_1242" style="mask-type:luminance" maskUnits="userSpaceOnUse" x="0" y="3" width="24" height="18">
<rect x="0.25" y="3.68005" width="23.5" height="16.6429" rx="1.75" fill="white" stroke="white" stroke-width="0.5"/>
</mask>
<g mask="url(#mask0_14_1242)">
<path fill-rule="evenodd" clip-rule="evenodd" d="M0 14.8587H24V9.14441H0V14.8587Z" fill="#0C47B7"/>
<path fill-rule="evenodd" clip-rule="evenodd" d="M0 20.5729H24V14.8586H0V20.5729Z" fill="#E53B35"/>
<path d="M6.14013 6.19198C5.06547 6.19198 4.18291 7.04124 4.14161 8.11511L3.92998 13.6175C3.90651 14.2278 4.1632 14.8154 4.62692 15.2129L6.83594 17.1063C7.83458 17.9623 9.30819 17.9623 10.3068 17.1063L12.5158 15.2129C12.9796 14.8154 13.2363 14.2278 13.2128 13.6175L13.0012 8.11511C12.9599 7.04124 12.0773 6.19198 11.0026 6.19198H6.14013Z" fill="#F73744" stroke="white" stroke-width="1.33333"/>
<mask id="mask1_14_1242" style="mask-type:luminance" maskUnits="userSpaceOnUse" x="3" y="5" width="11" height="14">
<path d="M6.14013 6.19198C5.06547 6.19198 4.18291 7.04124 4.14161 8.11511L3.92998 13.6175C3.90651 14.2278 4.1632 14.8154 4.62692 15.2129L6.83594 17.1063C7.83458 17.9623 9.30819 17.9623 10.3068 17.1063L12.5158 15.2129C12.9796 14.8154 13.2363 14.2278 13.2128 13.6175L13.0012 8.11511C12.9599 7.04124 12.0773 6.19198 11.0026 6.19198H6.14013Z" fill="white" stroke="white" stroke-width="1.33333"/>
</mask>
<g mask="url(#mask1_14_1242)">
<path fill-rule="evenodd" clip-rule="evenodd" d="M7.99993 12.9062C7.99993 12.7221 7.85069 12.5729 7.6666 12.5729H6.61898C6.43488 12.5729 6.28564 12.4237 6.28564 12.2396V11.7634C6.28564 11.5793 6.43488 11.43 6.61898 11.43H7.6666C7.85069 11.43 7.99993 11.2808 7.99993 11.0967V10.6205C7.99993 10.4364 7.85069 10.2872 7.6666 10.2872H7.19041C7.00631 10.2872 6.85707 10.1379 6.85707 9.95385V9.47766C6.85707 9.29356 7.00631 9.14432 7.19041 9.14432H7.6666C7.85069 9.14432 7.99993 8.99508 7.99993 8.81099V8.3348C7.99993 8.1507 8.14917 8.00146 8.33326 8.00146H8.80945C8.99355 8.00146 9.14279 8.1507 9.14279 8.3348V8.81099C9.14279 8.99508 9.29203 9.14432 9.47612 9.14432H9.95231C10.1364 9.14432 10.2856 9.29356 10.2856 9.47766V9.95385C10.2856 10.1379 10.1364 10.2872 9.95231 10.2872H9.47612C9.29203 10.2872 9.14279 10.4364 9.14279 10.6205V11.0967C9.14279 11.2808 9.29203 11.43 9.47612 11.43H10.5237C10.7078 11.43 10.8571 11.5793 10.8571 11.7634V12.2396C10.8571 12.4237 10.7078 12.5729 10.5237 12.5729H9.47612C9.29203 12.5729 9.14279 12.7221 9.14279 12.9062V14.5253C9.14279 14.7094 8.99355 14.8586 8.80945 14.8586H8.33326C8.14917 14.8586 7.99993 14.7094 7.99993 14.5253V12.9062Z" fill="white"/>
<path fill-rule="evenodd" clip-rule="evenodd" d="M7.53981 14.9376C6.15036 15.1565 5.14282 15.8059 5.14282 16.573C5.14282 17.5197 6.67785 18.2873 8.57139 18.2873C10.4649 18.2873 12 17.5197 12 16.573C12 15.8059 10.9925 15.1566 9.60303 14.9376C9.41907 14.553 9.02628 14.2872 8.57142 14.2872C8.11656 14.2872 7.72377 14.553 7.53981 14.9376Z" fill="#1251A1"/>
</g>
</g>
</svg>
