<svg width="24" height="24" viewBox="0 0 24 24" fill="none" xmlns="http://www.w3.org/2000/svg">
<rect y="3.43005" width="24" height="17.1429" rx="2" fill="white"/>
<mask id="mask0_14_1173" style="mask-type:luminance" maskUnits="userSpaceOnUse" x="0" y="3" width="24" height="18">
<rect y="3.43005" width="24" height="17.1429" rx="2" fill="white"/>
</mask>
<g mask="url(#mask0_14_1173)">
<rect y="3.43005" width="24" height="17.1429" fill="url(#paint0_linear_14_1173)"/>
<path fill-rule="evenodd" clip-rule="evenodd" d="M14.8572 12.0015C14.8572 11.1355 14.8572 10.1237 14.8572 9.33444C14.8572 8.59806 15.4541 8.00146 16.1905 8.00146H19.2381C19.9745 8.00146 20.5715 8.59806 20.5715 9.33444C20.5715 10.1237 20.5715 11.1355 20.5715 12.0015C20.5715 14.8586 17.7143 16.0015 17.7143 16.0015C17.7143 16.0015 14.8572 14.8586 14.8572 12.0015Z" fill="#8FC5FF"/>
<mask id="mask1_14_1173" style="mask-type:luminance" maskUnits="userSpaceOnUse" x="14" y="8" width="7" height="9">
<path fill-rule="evenodd" clip-rule="evenodd" d="M14.8572 12.0015C14.8572 11.1355 14.8572 10.1237 14.8572 9.33444C14.8572 8.59806 15.4541 8.00146 16.1905 8.00146H19.2381C19.9745 8.00146 20.5715 8.59806 20.5715 9.33444C20.5715 10.1237 20.5715 11.1355 20.5715 12.0015C20.5715 14.8586 17.7143 16.0015 17.7143 16.0015C17.7143 16.0015 14.8572 14.8586 14.8572 12.0015Z" fill="white"/>
</mask>
<g mask="url(#mask1_14_1173)">
<path fill-rule="evenodd" clip-rule="evenodd" d="M17.2199 13.616C17.2199 13.616 17.7919 12.8754 18.1284 12.8754C18.4648 12.8754 18.5266 13.3672 19.0439 13.3672C19.5613 13.3672 19.8341 12.5834 20.3324 12.5834C20.8307 12.5834 20.3324 15.1548 20.3324 15.1548L19.6572 15.8513L15.7046 16.3078L17.2199 13.616Z" fill="#366CC9"/>
<path fill-rule="evenodd" clip-rule="evenodd" d="M15.5368 12.474L16.0412 12.0016L16.5369 13.215L17.2023 12.0016L17.7745 15.4605L16.8229 15.2669L13.7144 13.8456L15.5368 12.474Z" fill="#CF6200"/>
<rect x="14.8572" y="8.00146" width="5.71429" height="3.42857" fill="#FFFF00"/>
</g>
<path d="M15.1905 12.0015V11.9199V11.8375V11.7544V11.6706V11.5863V11.5439V11.5014V11.4588V11.4161V11.3733V11.3304V11.2874V11.2444V11.2336V11.2282V11.2229V11.2013V11.1582V11.115V11.0717V11.0285V10.9852V10.9419V10.9202V10.9148V10.9094V10.904V10.8986V10.8932V10.8878V10.8823V10.8769V10.8715V10.8661V10.8607V10.8553V10.8499V10.8445V10.8391V10.8336V10.8282V10.8228V10.8174V10.812V10.8066V10.8012V10.7958V10.7904V10.785V10.7796V10.7742V10.7688V10.7633V10.7579V10.7525V10.7471V10.7417V10.7363V10.7309V10.7255V10.7201V10.7147V10.7093V10.7039V10.6985V10.6931V10.6877V10.6823V10.6769V10.6716V10.6662V10.6608V10.6554V10.65V10.6446V10.6392V10.6338V10.6284V10.623V10.6177V10.6123V10.6069V10.6015V10.5961V10.5907V10.5854V10.58V10.5746V10.5692V10.5639V10.5585V10.5531V10.5477V10.5424V10.537V10.5316V10.5263V10.5209V10.5155V10.5102V10.5048V10.4994V10.4941V10.4887V10.4834V10.478V10.4727V10.4673V10.462V10.4566V10.4513V10.4459V10.4406V10.4352V10.4299V10.4245V10.4192V10.4139V10.4085V10.4032V10.3978V10.3925V10.3872V10.3819V10.3765V10.3712V10.3659V10.3606V10.3552V10.3499V10.3446V10.3393V10.334V10.3287V10.3234V10.318V10.3127V10.3074V10.3021V10.2968V10.2915V10.2862V10.2809V10.2757V10.2704V10.2651V10.2598V10.2545V10.2492V10.2439V10.2387V10.2334V10.2281V10.2228V10.2176V10.2123V10.207V10.2018V10.1913V10.1703V10.1283V10.0866V10.045V10.0243V10.0036V9.96237V9.94183V9.92134V9.8805V9.79946V9.71931V9.64014V9.60093V9.56199V9.48495V9.40908V9.33444C15.1905 8.78227 15.6381 8.3348 16.1905 8.3348H19.2381C19.7905 8.3348 20.2381 8.78227 20.2381 9.33444V9.33907V9.3437V9.34834V9.35298V9.35763V9.36228V9.36694V9.3716V9.37627V9.38094V9.38562V9.3903V9.39499V9.39968V9.40438V9.40908V9.41378V9.41849V9.42321V9.42793V9.43266V9.43739V9.44212V9.44686V9.45161V9.45636V9.46111V9.46587V9.47063V9.4754V9.48017V9.48495V9.48973V9.49452V9.49931V9.5041V9.5089V9.51371V9.51852V9.52333V9.52815V9.53297V9.5378V9.54263V9.54746V9.5523V9.55714V9.56199V9.56685V9.5717V9.57656V9.58143V9.5863V9.59117V9.59605V9.60093V9.60582V9.61071V9.6156V9.6205V9.6254V9.63031V9.63522V9.64014V9.64506V9.64998V9.65491V9.65984V9.66477V9.66971V9.67465V9.6796V9.68455V9.68951V9.69446V9.69943V9.70439V9.70936V9.71434V9.71931V9.7243V9.72928V9.73427V9.73926V9.74426V9.74926V9.75426V9.75927V9.76428V9.76929V9.77431V9.77933V9.78436V9.78939V9.79442V9.79946V9.8045V9.80954V9.81459V9.81964V9.82469V9.82975V9.83481V9.83987V9.84494V9.85001V9.85508V9.86016V9.86524V9.87032V9.87541V9.8805V9.88559V9.89069V9.89579V9.90089V9.906V9.91111V9.91622V9.92134V9.92646V9.93158V9.9367V9.94183V9.94696V9.9521V9.95723V9.96237V9.96752V9.97266V9.97781V9.98296V9.98812V9.99328V9.99844V10.0036V10.0088V10.0139V10.0191V10.0243V10.0295V10.0346V10.0398V10.045V10.0502V10.0554V10.0606V10.0658V10.071V10.0762V10.0814V10.0866V10.0918V10.097V10.1022V10.1075V10.1127V10.1179V10.1231V10.1283V10.1336V10.1388V10.144V10.1493V10.1545V10.1598V10.165V10.1703V10.1755V10.1808V10.186V10.1913V10.1965V10.2018V10.207V10.2123V10.2176V10.2228V10.2281V10.2334V10.2387V10.2439V10.2492V10.2545V10.2598V10.2651V10.2704V10.2757V10.2809V10.2862V10.2915V10.2968V10.3021V10.3074V10.3127V10.318V10.3234V10.3287V10.334V10.3393V10.3446V10.3499V10.3552V10.3606V10.3659V10.3712V10.3765V10.3819V10.3872V10.3925V10.3978V10.4032V10.4085V10.4139V10.4192V10.4245V10.4299V10.4352V10.4406V10.4459V10.4513V10.4566V10.462V10.4673V10.4727V10.478V10.4834V10.4887V10.4941V10.4994V10.5048V10.5102V10.5155V10.5209V10.5263V10.5316V10.537V10.5424V10.5477V10.5531V10.5585V10.5639V10.5692V10.5746V10.58V10.5854V10.5907V10.5961V10.6015V10.6069V10.6123V10.6177V10.623V10.6284V10.6338V10.6392V10.6446V10.65V10.6554V10.6608V10.6662V10.6716V10.6769V10.6823V10.6877V10.6931V10.6985V10.7039V10.7093V10.7147V10.7201V10.7255V10.7309V10.7363V10.7417V10.7471V10.7525V10.7579V10.7633V10.7688V10.7742V10.7796V10.785V10.7904V10.7958V10.8012V10.8066V10.812V10.8174V10.8228V10.8282V10.8336V10.8391V10.8445V10.8499V10.8553V10.8607V10.8661V10.8715V10.8769V10.8823V10.8878V10.8932V10.8986V10.904V10.9094V10.9148V10.9202V10.9256V10.9311V10.9365V10.9419V10.9473V10.9527V10.9581V10.9635V10.9689V10.9743V10.9798V10.9852V10.9906V10.996V11.0014V11.0068V11.0122V11.0176V11.023V11.0285V11.0339V11.0393V11.0447V11.0501V11.0555V11.0609V11.0663V11.0717V11.0771V11.0825V11.0879V11.0933V11.0987V11.1041V11.1096V11.115V11.1204V11.1258V11.1312V11.1366V11.142V11.1474V11.1528V11.1582V11.1635V11.1689V11.1743V11.1797V11.1851V11.1905V11.1959V11.2013V11.2067V11.2121V11.2175V11.2229V11.2282V11.2336V11.239V11.2444V11.2498V11.2552V11.2606V11.2659V11.2713V11.2767V11.2821V11.2874V11.2928V11.2982V11.3036V11.3089V11.3143V11.3197V11.325V11.3304V11.3358V11.3411V11.3465V11.3519V11.3572V11.3626V11.3679V11.3733V11.3787V11.384V11.3894V11.3947V11.4001V11.4054V11.4108V11.4161V11.4214V11.4268V11.4321V11.4375V11.4428V11.4481V11.4535V11.4588V11.4641V11.4695V11.4748V11.4801V11.4855V11.4908V11.4961V11.5014V11.5067V11.512V11.5174V11.5227V11.528V11.5333V11.5386V11.5439V11.5492V11.5545V11.5598V11.5651V11.5704V11.5757V11.581V11.5863V11.5916V11.5968V11.6021V11.6074V11.6127V11.618V11.6232V11.6285V11.6338V11.6391V11.6443V11.6496V11.6548V11.6601V11.6654V11.6706V11.6759V11.6811V11.6864V11.6916V11.6969V11.7021V11.7073V11.7126V11.7178V11.723V11.7283V11.7335V11.7387V11.7439V11.7492V11.7544V11.7596V11.7648V11.77V11.7752V11.7804V11.7856V11.7908V11.796V11.8012V11.8064V11.8116V11.8168V11.8219V11.8271V11.8323V11.8375V11.8426V11.8478V11.853V11.8581V11.8633V11.8685V11.8736V11.8788V11.8839V11.8891V11.8942V11.8993V11.9045V11.9096V11.9147V11.9199V11.925V11.9301V11.9352V11.9403V11.9455V11.9506V11.9557V11.9608V11.9659V11.971V11.9761V11.9811V11.9862V11.9913V11.9964V12.0015C20.2381 13.306 19.5894 14.2226 18.9199 14.8251C18.5849 15.1266 18.2488 15.3452 17.9964 15.4882C17.8815 15.5534 17.7847 15.6024 17.7143 15.6361C17.644 15.6024 17.5472 15.5534 17.4322 15.4882C17.1798 15.3452 16.8437 15.1266 16.5087 14.8251C15.8393 14.2226 15.1905 13.306 15.1905 12.0015Z" stroke="white" stroke-width="0.666667"/>
<mask id="mask2_14_1173" style="mask-type:luminance" maskUnits="userSpaceOnUse" x="14" y="8" width="7" height="9">
<path fill-rule="evenodd" clip-rule="evenodd" d="M14.8572 12.0015C14.8572 11.1355 14.8572 10.1237 14.8572 9.33444C14.8572 8.59806 15.4541 8.00146 16.1905 8.00146H19.2381C19.9745 8.00146 20.5715 8.59806 20.5715 9.33444C20.5715 10.1237 20.5715 11.1355 20.5715 12.0015C20.5715 14.8586 17.7143 16.0015 17.7143 16.0015C17.7143 16.0015 14.8572 14.8586 14.8572 12.0015Z" fill="white"/>
</mask>
<g mask="url(#mask2_14_1173)">
</g>
<mask id="mask3_14_1173" style="mask-type:luminance" maskUnits="userSpaceOnUse" x="14" y="8" width="7" height="9">
<path fill-rule="evenodd" clip-rule="evenodd" d="M15.5238 12.0015C15.5238 13.1821 16.1071 14.0152 16.7317 14.5774C17.0446 14.8589 17.3596 15.064 17.5966 15.1982C17.6387 15.2221 17.6781 15.2436 17.7143 15.2628C17.7505 15.2436 17.79 15.2221 17.8321 15.1982C18.069 15.064 18.3841 14.8589 18.6969 14.5774C19.3215 14.0152 19.9048 13.1821 19.9048 12.0015V9.33444C19.9048 8.96648 19.6066 8.66813 19.2381 8.66813H16.1905C15.8221 8.66813 15.5238 8.96648 15.5238 9.33444V12.0015ZM14.8572 9.33444V12.0015C14.8572 14.8586 17.7143 16.0015 17.7143 16.0015C17.7143 16.0015 20.5715 14.8586 20.5715 12.0015V9.33444C20.5715 8.59806 19.9745 8.00146 19.2381 8.00146H16.1905C15.4541 8.00146 14.8572 8.59806 14.8572 9.33444Z" fill="white"/>
</mask>
<g mask="url(#mask3_14_1173)">
</g>
<path fill-rule="evenodd" clip-rule="evenodd" d="M4 6.85862L0 3.43005H0.571429L4.57143 6.2872H5.71429L10.2857 3.43005V3.82994C10.2857 3.93759 10.2337 4.03862 10.1461 4.10119L6.28571 6.85862V8.00148L9.89784 11.0976C10.031 11.2118 9.9503 11.4301 9.77485 11.4301C9.73546 11.4301 9.69705 11.4177 9.665 11.3949L5.71429 8.57291H4.57143L0 11.4301V10.8586L4 8.00148V6.85862Z" fill="#DB1E36"/>
<path fill-rule="evenodd" clip-rule="evenodd" d="M4.00005 6.85858V8.00143L4.76837e-05 10.8586V11.43L4.57148 8.57286H5.71433L9.66505 11.3948C9.6971 11.4177 9.73551 11.43 9.7749 11.43C9.95035 11.43 10.0311 11.2117 9.89788 11.0975L6.28576 8.00143V6.85858L10.1462 4.10114C10.2338 4.03857 10.2858 3.93754 10.2858 3.82989V3.43L5.71433 6.28715H4.57148L0.571476 3.43H4.76837e-05L4.00005 6.85858ZM4.78512 5.62048L0.78512 2.76334H-1.80212L3.33338 7.1652V7.65835L-0.666619 10.5155V12.6328L4.76267 9.23953H5.50069L9.27756 11.9373C9.42268 12.0409 9.59656 12.0967 9.7749 12.0967C10.5693 12.0967 10.9349 11.1083 10.3317 10.5914L6.95243 7.69481V7.20165L10.5337 4.64363C10.7965 4.45592 10.9524 4.15284 10.9524 3.82989V2.22717L5.52314 5.62048H4.78512Z" fill="white"/>
<path fill-rule="evenodd" clip-rule="evenodd" d="M0 6.2872V8.57291H4V11.3348C4 11.703 4.29848 12.0015 4.66667 12.0015H5.61905C5.98724 12.0015 6.28571 11.703 6.28571 11.3348V8.57291H10.1905C10.5587 8.57291 10.8571 8.27443 10.8571 7.90624V6.95386C10.8571 6.58567 10.5587 6.2872 10.1905 6.2872H6.28571V3.43005H4V6.2872H0Z" fill="white"/>
<path fill-rule="evenodd" clip-rule="evenodd" d="M0 6.85862H4.57143V6.2872V3.43005H5.71429V6.2872V6.85862H10.2857V8.00148H5.71429V8.57291V11.4301H4.57143V8.57291V8.00148H0V6.85862Z" fill="#DB1E36"/>
</g>
<defs>
<linearGradient id="paint0_linear_14_1173" x1="0" y1="3.43005" x2="0" y2="20.5729" gradientUnits="userSpaceOnUse">
<stop stop-color="#07319C"/>
<stop offset="1" stop-color="#00247E"/>
</linearGradient>
</defs>
</svg>
