<svg width="24" height="24" viewBox="0 0 24 24" fill="none" xmlns="http://www.w3.org/2000/svg">
<rect x="0.25" y="3.67993" width="23.5" height="16.6429" rx="1.75" fill="white" stroke="#F5F5F5" stroke-width="0.5"/>
<mask id="mask0_14_161" style="mask-type:luminance" maskUnits="userSpaceOnUse" x="0" y="3" width="24" height="18">
<rect x="0.25" y="3.67993" width="23.5" height="16.6429" rx="1.75" fill="white" stroke="white" stroke-width="0.5"/>
</mask>
<g mask="url(#mask0_14_161)">
<path fill-rule="evenodd" clip-rule="evenodd" d="M24 3.42993H13.7143V12.5728H0V20.5728H24V3.42993Z" fill="#E20F1B"/>
<path fill-rule="evenodd" clip-rule="evenodd" d="M6.04766 4.57275C5.86356 4.57275 5.71433 4.72199 5.71433 4.90609V6.85849H3.76192C3.57783 6.85849 3.42859 7.00773 3.42859 7.19183V8.81087C3.42859 8.99497 3.57783 9.14421 3.76192 9.14421H5.71433V11.0966C5.71433 11.2807 5.86356 11.4299 6.04766 11.4299H7.66671C7.8508 11.4299 8.00004 11.2807 8.00004 11.0966V9.14421H9.9524C10.1365 9.14421 10.2857 8.99497 10.2857 8.81087V7.19182C10.2857 7.00773 10.1365 6.85849 9.9524 6.85849H8.00004V4.90609C8.00004 4.72199 7.8508 4.57275 7.66671 4.57275H6.04766Z" fill="url(#paint0_linear_14_161)"/>
</g>
<defs>
<linearGradient id="paint0_linear_14_161" x1="3.42859" y1="4.57275" x2="3.42859" y2="11.4299" gradientUnits="userSpaceOnUse">
<stop stop-color="#DF101B"/>
<stop offset="1" stop-color="#C00711"/>
</linearGradient>
</defs>
</svg>
