<svg width="24" height="24" viewBox="0 0 24 24" fill="none" xmlns="http://www.w3.org/2000/svg">
<rect y="3.43005" width="24" height="17.1429" rx="2" fill="white"/>
<mask id="mask0_14_1265" style="mask-type:luminance" maskUnits="userSpaceOnUse" x="0" y="3" width="24" height="18">
<rect y="3.43005" width="24" height="17.1429" rx="2" fill="white"/>
</mask>
<g mask="url(#mask0_14_1265)">
<path fill-rule="evenodd" clip-rule="evenodd" d="M0 5.71577H24V3.43005H0V5.71577Z" fill="#262626"/>
<path fill-rule="evenodd" clip-rule="evenodd" d="M0 14.8587H24V12.573H0V14.8587Z" fill="#262626"/>
<path fill-rule="evenodd" clip-rule="evenodd" d="M0 12.573H24V9.14441H0V12.573Z" fill="#ED1623"/>
<path fill-rule="evenodd" clip-rule="evenodd" d="M0 9.14439H24V5.71582H0V9.14439Z" fill="#FEE044"/>
<path fill-rule="evenodd" clip-rule="evenodd" d="M0 20.5728H24V18.2871H0V20.5728Z" fill="#ED1623"/>
<path fill-rule="evenodd" clip-rule="evenodd" d="M0 18.2871H24V14.8585H0V18.2871Z" fill="#FEE044"/>
<path fill-rule="evenodd" clip-rule="evenodd" d="M12 16.0015C14.2091 16.0015 16 14.2106 16 12.0015C16 9.79233 14.2091 8.00146 12 8.00146C9.79086 8.00146 8 9.79233 8 12.0015C8 14.2106 9.79086 16.0015 12 16.0015Z" fill="white"/>
<path fill-rule="evenodd" clip-rule="evenodd" d="M11.0929 9.95141C10.9627 9.82123 10.9627 9.61018 11.0929 9.48001L11.4095 9.16339C11.4222 9.15067 11.4337 9.13715 11.4446 9.12285C11.4697 9.08998 11.5222 9.02404 11.5864 8.95858C11.7536 8.78805 12.2594 8.77178 12.4212 8.9475C12.4358 8.96327 12.4496 8.97918 12.4625 8.99476C12.5361 9.08335 12.5402 9.20691 12.4887 9.30993L12.0352 10.2168C12.0121 10.263 12.0001 10.3141 12.0001 10.3658V10.6526C12.0001 10.7788 12.0714 10.8942 12.1843 10.9507L13.0945 11.4058C13.1266 11.4218 13.1558 11.4429 13.1812 11.4682L14.1159 12.403C14.2173 12.5044 14.2425 12.6594 14.1783 12.7877L13.9212 13.3021C13.8194 13.5056 13.5482 13.5496 13.3873 13.3887L13.3786 13.38C13.2484 13.2498 13.0374 13.2498 12.9072 13.38L12.6691 13.6181C12.6066 13.6806 12.5715 13.7654 12.5715 13.8538V14.1688C12.5715 14.2446 12.6016 14.3172 12.6552 14.3708C12.8352 14.5508 12.7077 14.8586 12.4531 14.8586H12.1184C11.8639 14.8586 11.7364 14.5508 11.9164 14.3708C11.97 14.3172 12.0001 14.2446 12.0001 14.1688V14.049C12.0001 13.8649 11.8508 13.7157 11.6667 13.7157H11.5667C11.4783 13.7157 11.3935 13.7508 11.331 13.8133L11.0929 14.0514C10.9627 14.1816 10.7517 14.1816 10.6215 14.0514L10.5215 13.9514C10.3913 13.8212 10.3913 13.6102 10.5215 13.48L10.7596 13.2419C10.8221 13.1794 10.9069 13.1443 10.9953 13.1443H11.1953C11.4923 13.1443 11.641 12.7852 11.431 12.5752L10.5215 11.6657C10.3913 11.5355 10.3913 11.3245 10.5215 11.1943L11.1929 10.5228C11.3231 10.3927 11.3231 10.1816 11.1929 10.0514L11.0929 9.95141Z" fill="#262626"/>
</g>
</svg>
