<svg width="24" height="24" viewBox="0 0 24 24" fill="none" xmlns="http://www.w3.org/2000/svg">
<rect y="3.43005" width="24" height="17.1429" rx="2" fill="white"/>
<mask id="mask0_14_1277" style="mask-type:luminance" maskUnits="userSpaceOnUse" x="0" y="3" width="24" height="18">
<rect y="3.43005" width="24" height="17.1429" rx="2" fill="white"/>
</mask>
<g mask="url(#mask0_14_1277)">
<rect x="11.4286" y="3.43005" width="12.5714" height="17.1429" fill="#08C47A"/>
<path fill-rule="evenodd" clip-rule="evenodd" d="M0 20.5729H8V3.43005H0V20.5729Z" fill="#0C87E1"/>
<path fill-rule="evenodd" clip-rule="evenodd" d="M6.85718 20.5729H17.1429V3.43005H6.85718V20.5729Z" fill="#FECB2F"/>
<path fill-rule="evenodd" clip-rule="evenodd" d="M8 10.2872L9.71429 6.85864L11.4286 10.2872L9.71429 13.7158L8 10.2872ZM12.5714 10.2873L14.2857 6.85875L16 10.2873L14.2857 13.7159L12.5714 10.2873ZM12 11.4301L10.2857 14.8587L12 18.2872L13.7143 14.8587L12 11.4301Z" fill="#08C47A"/>
</g>
</svg>
