<svg width="24" height="24" viewBox="0 0 24 24" fill="none" xmlns="http://www.w3.org/2000/svg">
<rect y="3.43005" width="24" height="17.1429" rx="2" fill="white"/>
<mask id="mask0_14_1395" style="mask-type:luminance" maskUnits="userSpaceOnUse" x="0" y="3" width="24" height="18">
<rect y="3.43005" width="24" height="17.1429" rx="2" fill="white"/>
</mask>
<g mask="url(#mask0_14_1395)">
<rect y="3.43005" width="24" height="17.1429" fill="#07319C"/>
<path fill-rule="evenodd" clip-rule="evenodd" d="M14.8572 12.0015C14.8572 11.1355 14.8572 10.1237 14.8572 9.33444C14.8572 8.59806 15.4541 8.00146 16.1905 8.00146H19.2381C19.9745 8.00146 20.5715 8.59806 20.5715 9.33444C20.5715 10.1237 20.5715 11.1355 20.5715 12.0015C20.5715 14.8586 17.7143 16.0015 17.7143 16.0015C17.7143 16.0015 14.8572 14.8586 14.8572 12.0015Z" fill="#008339"/>
<mask id="mask1_14_1395" style="mask-type:luminance" maskUnits="userSpaceOnUse" x="14" y="8" width="7" height="9">
<path fill-rule="evenodd" clip-rule="evenodd" d="M14.8572 12.0015C14.8572 11.1355 14.8572 10.1237 14.8572 9.33444C14.8572 8.59806 15.4541 8.00146 16.1905 8.00146H19.2381C19.9745 8.00146 20.5715 8.59806 20.5715 9.33444C20.5715 10.1237 20.5715 11.1355 20.5715 12.0015C20.5715 14.8586 17.7143 16.0015 17.7143 16.0015C17.7143 16.0015 14.8572 14.8586 14.8572 12.0015Z" fill="white"/>
</mask>
<g mask="url(#mask1_14_1395)">
<path fill-rule="evenodd" clip-rule="evenodd" d="M16.5714 10.2871C16.887 10.2871 17.1429 10.0313 17.1429 9.71572C17.1429 9.40012 16.887 9.14429 16.5714 9.14429C16.2558 9.14429 16 9.40012 16 9.71572C16 10.0313 16.2558 10.2871 16.5714 10.2871ZM16.5715 11.43C16.887 11.43 17.1429 11.1741 17.1429 10.8585C17.1429 10.5429 16.887 10.2871 16.5715 10.2871C16.2559 10.2871 16 10.5429 16 10.8585C16 11.1741 16.2559 11.43 16.5715 11.43ZM17.1429 12.0015C17.1429 12.315 16.8905 12.5695 16.5778 12.5729C16.8905 12.5763 17.1429 12.8309 17.1429 13.1443C17.1429 13.4599 16.887 13.7158 16.5715 13.7158C16.2559 13.7158 16 13.4599 16 13.1443C16 12.8309 16.2524 12.5763 16.5651 12.5729C16.2524 12.5695 16 12.315 16 12.0015C16 11.6859 16.2559 11.4301 16.5715 11.4301C16.887 11.4301 17.1429 11.6859 17.1429 12.0015ZM19.4286 13.1443C19.4286 13.4599 19.1728 13.7158 18.8572 13.7158C18.5416 13.7158 18.2858 13.4599 18.2858 13.1443C18.2858 12.8309 18.5382 12.5763 18.8508 12.5729C18.5382 12.5695 18.2858 12.315 18.2858 12.0015C18.2858 11.6859 18.5416 11.4301 18.8572 11.4301C19.1728 11.4301 19.4286 11.6859 19.4286 12.0015C19.4286 12.315 19.1762 12.5695 18.8636 12.5729C19.1762 12.5763 19.4286 12.8309 19.4286 13.1443ZM19.4286 10.8585C19.4286 11.1741 19.1728 11.43 18.8572 11.43C18.5416 11.43 18.2858 11.1741 18.2858 10.8585C18.2858 10.5451 18.5382 10.2906 18.8508 10.2871C18.5382 10.2837 18.2858 10.0292 18.2858 9.71575C18.2858 9.40016 18.5416 9.14432 18.8572 9.14432C19.1728 9.14432 19.4286 9.40016 19.4286 9.71575C19.4286 10.0292 19.1762 10.2837 18.8636 10.2871C19.1762 10.2906 19.4286 10.5451 19.4286 10.8585Z" fill="#FFD033"/>
<path fill-rule="evenodd" clip-rule="evenodd" d="M17.7144 13.1444C18.03 13.1444 18.2858 12.3769 18.2858 11.4301C18.2858 10.4833 18.03 9.71582 17.7144 9.71582C17.3988 9.71582 17.1429 10.4833 17.1429 11.4301C17.1429 12.3769 17.3988 13.1444 17.7144 13.1444Z" fill="white"/>
</g>
<path d="M14.2858 14.8587C14.2858 15.9485 15.8468 16.5729 17.7143 16.5729C19.5819 16.5729 21.1429 15.9485 21.1429 14.8587C21.1429 14.5431 20.8871 14.2872 20.5715 14.2872C20.2559 14.2872 20.0001 14.5431 20.0001 14.8587C20.0001 14.8696 19.8615 15.0006 19.5224 15.1362C19.0621 15.3204 18.4135 15.4301 17.7143 15.4301C17.0151 15.4301 16.3666 15.3204 15.9063 15.1362C15.5671 15.0006 15.4286 14.8696 15.4286 14.8587C15.4286 14.5431 15.1728 14.2872 14.8572 14.2872C14.5416 14.2872 14.2858 14.5431 14.2858 14.8587Z" fill="#FFD033"/>
<path d="M0 3.09672H-0.901086L-0.21693 3.68314L3.66667 7.01194V7.82994L-0.193746 10.5874L-0.333333 10.6871V10.8586V11.4301V12.0315L0.176666 11.7127L4.66703 8.90624H5.60746L9.47126 11.6661L9.665 11.3949L9.47126 11.6661C9.55985 11.7294 9.66599 11.7634 9.77485 11.7634C10.2598 11.7634 10.4829 11.1601 10.1148 10.8445L6.61905 7.84817V7.03016L10.3399 4.37243C10.5151 4.24729 10.619 4.04524 10.619 3.82994V3.43005V2.82864L10.109 3.14739L5.61869 5.95386H4.67825L0.765175 3.15881L0.67825 3.09672H0.571429H0Z" fill="#DB1E36" stroke="white" stroke-width="0.666667"/>
<path fill-rule="evenodd" clip-rule="evenodd" d="M0 6.2872V8.57291H4V11.3348C4 11.703 4.29848 12.0015 4.66667 12.0015H5.61905C5.98724 12.0015 6.28571 11.703 6.28571 11.3348V8.57291H10.1905C10.5587 8.57291 10.8571 8.27443 10.8571 7.90624V6.95386C10.8571 6.58567 10.5587 6.2872 10.1905 6.2872H6.28571V3.43005H4V6.2872H0Z" fill="white"/>
<path fill-rule="evenodd" clip-rule="evenodd" d="M0 6.85862H4.57143V6.2872V3.43005H5.71429V6.2872V6.85862H10.2857V8.00148H5.71429V8.57291V11.4301H4.57143V8.57291V8.00148H0V6.85862Z" fill="#DB1E36"/>
</g>
</svg>
