<svg width="24" height="24" viewBox="0 0 24 24" fill="none" xmlns="http://www.w3.org/2000/svg">
<rect y="3.43005" width="24" height="17.1429" rx="2" fill="white"/>
<mask id="mask0_14_1517" style="mask-type:luminance" maskUnits="userSpaceOnUse" x="0" y="3" width="24" height="18">
<rect y="3.43005" width="24" height="17.1429" rx="2" fill="white"/>
</mask>
<g mask="url(#mask0_14_1517)">
<g filter="url(#filter0_d_14_1517)">
<path fill-rule="evenodd" clip-rule="evenodd" d="M0 20.573H24V13.7158H0V20.573Z" fill="#009543"/>
</g>
<g filter="url(#filter1_d_14_1517)">
<path fill-rule="evenodd" clip-rule="evenodd" d="M0 10.2872H24V3.43005H0V10.2872Z" fill="#D21034"/>
</g>
<path fill-rule="evenodd" clip-rule="evenodd" d="M0 13.7158H24V10.2872H0V13.7158Z" fill="#262626"/>
<path fill-rule="evenodd" clip-rule="evenodd" d="M0 3.43005L11.4286 12.0015L0 20.5729V3.43005Z" fill="#262626"/>
<path d="M-0.476156 18.1262V5.87671L8.00424 12.0014L-0.476156 18.1262Z" stroke="#FDCE12" stroke-width="1.33333"/>
<path fill-rule="evenodd" clip-rule="evenodd" d="M8 12.5728H24V11.4299H8V12.5728Z" fill="#FDCE12"/>
</g>
<defs>
<filter id="filter0_d_14_1517" x="0" y="13.7158" width="24" height="6.85718" filterUnits="userSpaceOnUse" color-interpolation-filters="sRGB">
<feFlood flood-opacity="0" result="BackgroundImageFix"/>
<feColorMatrix in="SourceAlpha" type="matrix" values="0 0 0 0 0 0 0 0 0 0 0 0 0 0 0 0 0 0 127 0" result="hardAlpha"/>
<feOffset/>
<feColorMatrix type="matrix" values="0 0 0 0 0 0 0 0 0 0 0 0 0 0 0 0 0 0 0.06 0"/>
<feBlend mode="normal" in2="BackgroundImageFix" result="effect1_dropShadow_14_1517"/>
<feBlend mode="normal" in="SourceGraphic" in2="effect1_dropShadow_14_1517" result="shape"/>
</filter>
<filter id="filter1_d_14_1517" x="0" y="3.43005" width="24" height="6.85718" filterUnits="userSpaceOnUse" color-interpolation-filters="sRGB">
<feFlood flood-opacity="0" result="BackgroundImageFix"/>
<feColorMatrix in="SourceAlpha" type="matrix" values="0 0 0 0 0 0 0 0 0 0 0 0 0 0 0 0 0 0 127 0" result="hardAlpha"/>
<feOffset/>
<feColorMatrix type="matrix" values="0 0 0 0 0 0 0 0 0 0 0 0 0 0 0 0 0 0 0.06 0"/>
<feBlend mode="normal" in2="BackgroundImageFix" result="effect1_dropShadow_14_1517"/>
<feBlend mode="normal" in="SourceGraphic" in2="effect1_dropShadow_14_1517" result="shape"/>
</filter>
</defs>
</svg>
