<svg width="24" height="24" viewBox="0 0 24 24" fill="none" xmlns="http://www.w3.org/2000/svg">
<rect y="3.43005" width="24" height="17.1429" rx="2" fill="white"/>
<mask id="mask0_14_1192" style="mask-type:luminance" maskUnits="userSpaceOnUse" x="0" y="3" width="24" height="18">
<rect y="3.43005" width="24" height="17.1429" rx="2" fill="white"/>
</mask>
<g mask="url(#mask0_14_1192)">
<rect y="3.43005" width="24" height="17.1429" fill="#E31F37"/>
<path fill-rule="evenodd" clip-rule="evenodd" d="M-1.14282 12.5729H12.5715V2.28723H-1.14282V12.5729Z" fill="#083B9A"/>
<path fill-rule="evenodd" clip-rule="evenodd" d="M5.71434 5.71573L4.90621 5.95243L5.14291 5.1443L4.90621 4.33618L5.71434 4.57288L6.52246 4.33618L6.28577 5.1443L6.52246 5.95243L5.71434 5.71573ZM5.71434 11.4301L4.90621 11.6668L5.14291 10.8587L4.90621 10.0505L5.71434 10.2872L6.52246 10.0505L6.28577 10.8587L6.52246 11.6668L5.71434 11.4301ZM2.62048 8.80971L3.42861 8.57301L4.23673 8.80971L4.00003 8.00159L4.23673 7.19346L3.42861 7.43016L2.62048 7.19346L2.85718 8.00159L2.62048 8.80971ZM8.57146 8.00152L7.76334 8.23821L8.00003 7.43009L7.76334 6.62197L8.57146 6.85866L9.37958 6.62197L9.14289 7.43009L9.37958 8.23821L8.57146 8.00152ZM7.42861 9.43002C7.42861 9.58781 7.3007 9.71573 7.1429 9.71573C6.9851 9.71573 6.85719 9.58781 6.85719 9.43002C6.85719 9.27222 6.9851 9.1443 7.1429 9.1443C7.3007 9.1443 7.42861 9.27222 7.42861 9.43002Z" fill="white"/>
</g>
</svg>
