<svg width="24" height="24" viewBox="0 0 24 24" fill="none" xmlns="http://www.w3.org/2000/svg">
<rect y="3.43005" width="24" height="17.1429" rx="2" fill="#009F60"/>
<mask id="mask0_14_449" style="mask-type:luminance" maskUnits="userSpaceOnUse" x="0" y="3" width="24" height="18">
<rect y="3.43005" width="24" height="17.1429" rx="2" fill="white"/>
</mask>
<g mask="url(#mask0_14_449)">
<rect x="20.5714" y="12.573" width="3.42857" height="8" fill="#EA8B42"/>
<path fill-rule="evenodd" clip-rule="evenodd" d="M17.1428 20.573H20.5714V12.573H17.1428V20.573Z" fill="#1A1919"/>
<path fill-rule="evenodd" clip-rule="evenodd" d="M13.7142 20.573H17.1428V12.573H13.7142V20.573Z" fill="#DB3C36"/>
<path fill-rule="evenodd" clip-rule="evenodd" d="M18.0121 6.41665C17.9333 6.41886 17.8754 6.39158 17.8547 6.34572C17.9831 6.27036 18.07 6.28717 18.1777 6.38317C18.1984 6.30811 18.1777 6.2245 18.1321 6.17436C18.0866 6.12422 18.0492 6.12422 17.9872 6.11995C17.9251 6.11582 17.8629 6.09916 17.8215 6.09916C17.7608 5.9654 17.6087 6.02203 17.4627 6.07689C17.2252 6.16596 17.0119 6.32773 16.9161 6.4892C16.8723 6.56308 16.867 6.59213 16.8401 6.63401C16.8623 6.63121 16.8608 6.63121 16.8746 6.6228C16.858 6.80669 16.836 6.97657 16.869 7.08526C16.8277 7.24408 16.8608 7.34435 16.9105 7.39449C16.9603 7.44463 16.9809 7.46557 16.9892 7.52411C16.9975 7.58251 17.0223 7.63678 17.0637 7.67025C17.1052 7.70373 17.13 7.75387 17.1341 7.78321C17.1382 7.81241 17.2664 7.93834 17.3204 7.97123C17.3411 7.98362 17.3453 8.00883 17.3702 8.04216C17.3163 8.3598 17.5317 8.67744 17.4819 8.99081C17.5192 8.99493 17.5689 8.99081 17.6187 8.97827C17.66 9.24563 17.6848 9.37525 17.453 9.45458C17.2211 9.53407 17.0943 9.61222 17.1589 9.70115C17.2045 9.76382 17.2988 9.70926 17.3578 9.65514C17.4033 9.6134 17.4571 9.5758 17.4985 9.56327C17.54 9.55073 17.5483 9.56327 17.5275 9.61753C17.5067 9.67195 17.3951 9.78889 17.3908 9.84743C17.3867 9.90598 17.4364 9.94771 17.5151 9.9017C17.5937 9.85569 17.6629 9.73536 17.6807 9.66354C17.6931 9.6134 17.7139 9.57993 17.7097 9.66354C17.7056 9.74716 17.6559 9.89757 17.7677 9.92264C17.8795 9.94771 17.9127 9.81396 17.8754 9.69274C17.8381 9.57167 17.8258 9.50472 17.8422 9.46299C17.8588 9.42111 17.8754 9.39619 17.9167 9.40857C17.9581 9.42111 18.041 9.40445 18.0369 9.33764C18.0326 9.27084 17.9747 9.21643 17.9085 9.25403C17.8422 9.29163 17.7925 9.28603 17.8215 9.20389C17.8422 9.14535 17.8795 9.07427 17.8836 9.02841C17.9292 9.09521 18.1859 9.10362 18.2895 9.04094C18.3143 9.16629 18.3806 9.2791 18.2357 9.39619C18.0907 9.51313 17.9747 9.62594 17.9789 9.70955C17.9831 9.79316 18.0162 9.84316 18.0907 9.80142C18.1652 9.75969 18.2107 9.70115 18.2273 9.64688C18.2439 9.59246 18.2771 9.59246 18.2605 9.65941C18.2439 9.72622 18.215 9.82236 18.2273 9.88091C18.2398 9.9393 18.3309 9.94358 18.3681 9.88916C18.4054 9.8349 18.3971 9.76382 18.3888 9.69274C18.3806 9.62166 18.3931 9.5466 18.4095 9.51726C18.4261 9.48806 18.4592 9.44618 18.4924 9.52566C18.5256 9.605 18.5421 9.66767 18.6083 9.68861C18.6746 9.70955 18.7243 9.68021 18.7119 9.60087C18.6995 9.52153 18.6125 9.43364 18.5256 9.36684C18.4386 9.30004 18.4676 9.26657 18.4717 9.20389C18.4758 9.14122 18.4635 9.02841 18.4592 8.97827C18.538 9.03681 18.625 9.02841 18.6662 9.02841C18.7077 9.02841 18.7757 9.01558 18.7077 8.9532C18.571 8.82786 18.6166 8.7525 18.5214 8.66063C18.4261 8.56876 18.3392 8.4266 18.3102 8.30553C18.2811 8.18432 18.2173 7.96282 18.0907 7.85001C18.0203 7.78734 17.9996 7.61598 18.0162 7.41956C18.0326 7.22314 18.0369 7.00592 17.8588 6.90564C17.6807 6.80537 17.6848 6.72175 17.7429 6.63401C17.8008 6.54627 17.8753 6.46045 17.9706 6.45425C17.9921 6.45292 18.0416 6.4488 18.0617 6.43405C18.0528 6.42712 18.0382 6.41606 18.0121 6.41665Z" fill="#EA8B42"/>
<path fill-rule="evenodd" clip-rule="evenodd" d="M16.8539 6.86792C16.8495 6.95286 16.8515 7.02763 16.869 7.08514C16.8277 7.24396 16.8608 7.34423 16.9105 7.39437C16.9603 7.44451 16.9808 7.46545 16.9892 7.52399C16.9974 7.58239 17.0223 7.63666 17.0637 7.67013C17.1052 7.70361 17.13 7.75375 17.1341 7.78309C17.1382 7.81229 17.2663 7.93823 17.3204 7.97111C17.3411 7.9835 17.3453 8.00871 17.3702 8.04204C17.3478 8.17402 17.3714 8.306 17.4037 8.43769C17.111 8.68278 16.8222 8.56716 16.9437 8.31647C16.7006 8.51142 16.2811 8.50597 16.375 8.31647C15.994 8.45022 15.8781 8.33874 15.9277 8.2162C15.6076 8.34434 15.4418 8.2218 15.486 8.13258C15.221 8.20499 15.0498 8.16046 15.0222 8.11592C14.9947 8.07139 15.0608 7.97111 15.1216 7.92097C15.0001 7.96551 14.8842 7.96551 14.7737 7.94884C14.6633 7.93203 14.691 7.89856 14.713 7.84842C14.7352 7.79828 14.7641 7.71894 14.8524 7.64093C14.6413 7.68267 14.3762 7.71201 14.1899 7.64919C14.1548 7.6374 14.0947 7.62412 14.1318 7.58667C14.1692 7.54906 14.281 7.45705 14.4176 7.3985C14.107 7.44451 13.519 7.47799 13.3534 7.28997C13.5149 7.32329 13.7219 7.25649 13.8544 7.20222C13.3326 7.14368 12.6204 6.78431 12.6121 6.43334C12.7612 6.67563 13.0181 6.75924 13.2748 6.83445C12.9268 6.62962 12.7819 6.38305 12.7696 6.22011C12.9682 6.4124 13.2705 6.62962 13.5688 6.6799C13.3575 6.56709 13.0842 6.23692 13.0097 6.00702C13.1629 6.1449 13.5563 6.36639 13.8255 6.43747C13.6392 6.29118 13.3369 5.94434 13.3534 5.7522C13.4238 5.82328 13.5977 5.95688 13.9538 6.16584C14.3099 6.3748 14.5032 6.35946 14.7972 6.42213C14.7434 6.34973 14.6951 6.25358 14.691 6.22851C14.7779 6.24105 14.8607 6.27452 15.1091 6.42906C15.3576 6.58375 15.9006 6.63109 16.2107 6.76764C16.4383 6.86792 16.7628 6.80525 16.8539 6.86792Z" fill="#EA8B42"/>
<path fill-rule="evenodd" clip-rule="evenodd" d="M18.7281 9.01379C18.7418 9.00288 18.7418 8.98401 18.7077 8.95289C18.571 8.82755 18.6166 8.75219 18.5214 8.66032C18.4261 8.56845 18.3391 8.42629 18.3102 8.30522C18.2811 8.18401 18.2173 7.96251 18.0907 7.8497C18.0203 7.78703 17.9996 7.61567 18.0162 7.41925C18.0303 7.25114 18.0354 7.06784 17.9249 6.95562C18.132 6.89708 18.3227 6.88439 18.3888 6.9512C18.7325 6.86345 19.0308 6.83691 19.3233 6.81759C19.6601 6.79518 20.295 6.65037 20.7479 6.34393C20.7203 6.45542 20.5657 6.6225 20.4276 6.70611C20.8859 6.59462 21.4381 6.38847 21.9074 6.0375C21.9018 6.28273 21.7032 6.46648 21.5871 6.5669C21.9074 6.38847 22.3766 6.16565 22.5367 5.88708C22.6071 6.17258 22.1283 6.54596 21.8686 6.75212C22.1337 6.62397 22.4761 6.50556 22.6086 6.31606C22.6058 6.54729 22.3049 6.83426 22.0178 7.00133C22.3105 6.89 22.6362 6.77291 22.8239 6.60023C22.8459 6.83293 21.9487 7.36779 21.5042 7.51392C21.8908 7.41925 22.3932 7.2911 22.614 7.15735C22.603 7.20469 22.5129 7.27105 22.4474 7.31942C22.1773 7.51908 21.7631 7.62629 21.5098 7.67555C21.543 7.8149 21.4988 7.89291 21.3442 7.90397C21.1896 7.91518 20.8155 7.85531 20.6279 7.76049C20.6002 7.77715 20.567 7.7829 20.5297 7.78703C20.7119 7.92491 20.7741 8.02519 20.7367 8.08373C20.6996 8.14227 20.5691 8.13166 20.4698 8.11086C20.5484 8.33236 20.2854 8.31776 20.066 8.19226C20.153 8.30522 20.1654 8.40122 20.0453 8.42629C19.9252 8.45136 19.8298 8.4431 19.7139 8.36775C19.7057 8.45136 19.6256 8.5071 19.5194 8.47923C19.8838 8.70073 19.863 8.78154 19.8009 8.865C19.7389 8.94861 19.5214 8.93195 19.4055 8.85674C19.3558 9.0281 19.1577 9.02869 19.0099 8.89228C19.0086 8.96056 18.8675 9.09608 18.7281 9.01379Z" fill="#EA8B42"/>
<path fill-rule="evenodd" clip-rule="evenodd" d="M17.0376 9.8542C17.0436 9.8014 17.0486 9.74006 17.0927 9.70098C17.1369 9.6619 17.1646 9.62857 17.2032 9.66751C17.2418 9.70658 17.217 9.74286 17.1646 9.75952C17.1121 9.77619 17.0762 9.82352 17.0679 9.8542C17.0596 9.88487 17.032 9.90153 17.0376 9.8542Z" fill="black"/>
<path fill-rule="evenodd" clip-rule="evenodd" d="M17.3383 10.1105C17.311 10.0229 17.3247 9.90996 17.355 9.87649C17.3854 9.84301 17.424 9.82074 17.4599 9.85422C17.4957 9.88769 17.5095 9.93503 17.4433 9.9629C17.3846 9.98753 17.3798 10.0492 17.3771 10.0939C17.3743 10.1384 17.355 10.1635 17.3383 10.1105Z" fill="black"/>
<path fill-rule="evenodd" clip-rule="evenodd" d="M17.7249 9.88496C17.7036 9.92079 17.7303 10.066 17.8022 10.1022C17.853 10.1278 17.8767 10.1218 17.8463 10.0743C17.816 10.027 17.827 9.98243 17.8436 9.95736C17.8601 9.93229 17.8574 9.88776 17.8214 9.86549C17.7856 9.84308 17.7413 9.85708 17.7249 9.88496Z" fill="black"/>
<path fill-rule="evenodd" clip-rule="evenodd" d="M18.0369 9.75404C17.9914 9.71954 17.9486 9.76097 17.932 9.79017C17.8988 9.84872 17.9238 9.93233 17.9762 9.97967C18.0287 10.027 18.0203 9.963 18.0037 9.93513C17.9873 9.90726 17.9845 9.85152 18.0203 9.84592C18.0562 9.84046 18.0812 9.78737 18.0369 9.75404Z" fill="black"/>
<path fill-rule="evenodd" clip-rule="evenodd" d="M18.2963 9.84867C18.252 9.83555 18.208 9.88215 18.2135 9.93789C18.2176 9.97947 18.2218 10.0326 18.2631 10.0604C18.2909 10.079 18.3102 10.0911 18.2963 10.041C18.2825 9.99083 18.3047 9.94895 18.3294 9.93509C18.3542 9.92122 18.3432 9.86268 18.2963 9.84867Z" fill="black"/>
<path fill-rule="evenodd" clip-rule="evenodd" d="M18.6636 9.61186C18.6314 9.63457 18.6332 9.68722 18.6636 9.70668C18.6939 9.72615 18.7381 9.75402 18.7299 9.80135C18.7215 9.84869 18.7463 9.8655 18.7685 9.81256C18.7906 9.75962 18.7934 9.68161 18.7685 9.64533C18.7435 9.60906 18.6911 9.59239 18.6636 9.61186Z" fill="black"/>
<path fill-rule="evenodd" clip-rule="evenodd" d="M17.8631 6.34177C17.8823 6.38429 17.9373 6.40939 18.0118 6.4073L18.0119 6.4073C18.0356 6.40676 18.0499 6.41311 18.0672 6.44136C18.049 6.45469 18.0147 6.46063 17.9713 6.46331C17.8921 6.46845 17.823 6.5292 17.7506 6.63897C17.6853 6.73757 17.7082 6.8101 17.8633 6.89747C18.0175 6.9843 18.0492 7.13554 18.0254 7.4202C18.0079 7.62704 18.0331 7.78622 18.0968 7.84298C18.2023 7.93692 18.2702 8.09924 18.3192 8.30325C18.3471 8.4201 18.4317 8.56115 18.5278 8.65385C18.5503 8.67564 18.5665 8.6976 18.5794 8.72267C18.5868 8.73709 18.5922 8.7501 18.601 8.77346C18.6313 8.85409 18.6517 8.88924 18.7139 8.94626C18.7484 8.97786 18.7551 9.00414 18.7338 9.02125C18.7198 9.03254 18.6944 9.03749 18.6663 9.03749L18.651 9.0377C18.5842 9.03893 18.5411 9.03344 18.4916 9.00878C18.4843 9.00514 18.4771 9.00113 18.4701 8.99674L18.4743 9.04323C18.4762 9.06392 18.4776 9.0823 18.4788 9.09977C18.4817 9.14362 18.4826 9.17863 18.4809 9.20436C18.4802 9.21411 18.4792 9.2226 18.4771 9.23597C18.4732 9.26068 18.4725 9.26744 18.4732 9.27818C18.475 9.30453 18.4906 9.32818 18.5312 9.35939C18.6377 9.44125 18.7095 9.52585 18.721 9.59931C18.7339 9.68187 18.6821 9.72143 18.6056 9.69727C18.5588 9.68247 18.5347 9.65184 18.5069 9.58542C18.5054 9.58176 18.5014 9.57187 18.4971 9.5612C18.492 9.54858 18.4864 9.53488 18.484 9.52909C18.4704 9.49669 18.4582 9.4863 18.4473 9.48942C18.438 9.49211 18.4276 9.50395 18.4176 9.52164C18.4005 9.55204 18.3905 9.62735 18.398 9.69154L18.3981 9.69222C18.4106 9.80078 18.4085 9.84662 18.3757 9.89424C18.3342 9.95504 18.2327 9.94956 18.2184 9.88268C18.2119 9.8517 18.2155 9.81077 18.2272 9.75645C18.2304 9.7415 18.2341 9.72601 18.2389 9.70697L18.2517 9.65705C18.2581 9.63129 18.2563 9.61685 18.2547 9.61656C18.2521 9.61607 18.2426 9.62818 18.2361 9.64945C18.2176 9.71019 18.1674 9.76891 18.0952 9.80933C18.0191 9.85198 17.9748 9.80859 17.9697 9.70987C17.9658 9.63121 18.053 9.53157 18.23 9.38887C18.2643 9.3611 18.2875 9.3329 18.3011 9.30336C18.326 9.24988 18.3224 9.20881 18.2951 9.10388C18.2895 9.08229 18.286 9.06821 18.2831 9.05492C18.1785 9.10851 17.9595 9.10392 17.8899 9.04805C17.8852 9.07004 17.875 9.09689 17.8544 9.146L17.8543 9.14625C17.8414 9.17708 17.8358 9.19084 17.8302 9.20683C17.8179 9.24174 17.8205 9.26018 17.8328 9.26519C17.8461 9.27062 17.8722 9.2639 17.904 9.24587C17.9724 9.20704 18.0411 9.25789 18.0461 9.33694C18.0501 9.40238 17.9738 9.43532 17.9141 9.41727C17.8831 9.40797 17.869 9.42026 17.8508 9.46624C17.8361 9.50335 17.8455 9.56427 17.8842 9.68988C17.9274 9.83007 17.8783 9.95673 17.7657 9.9315C17.6968 9.91605 17.6788 9.86142 17.6885 9.76583C17.6896 9.754 17.6911 9.74267 17.6935 9.725C17.6987 9.68636 17.6998 9.67756 17.7005 9.66293C17.7012 9.64947 17.7012 9.63886 17.7007 9.63118C17.6972 9.63943 17.6931 9.65181 17.6897 9.66563C17.6684 9.75149 17.5929 9.8667 17.5198 9.90953C17.4412 9.95544 17.3765 9.91977 17.3817 9.84662C17.3836 9.81972 17.4028 9.78541 17.4424 9.72988L17.4533 9.71461C17.5034 9.64535 17.5117 9.63316 17.5189 9.61408C17.5371 9.56671 17.5344 9.5619 17.5012 9.57195C17.4638 9.58326 17.4122 9.61761 17.364 9.6618C17.2821 9.73697 17.1954 9.76674 17.1516 9.70644C17.1169 9.65872 17.1312 9.61163 17.1892 9.56688C17.2402 9.5275 17.3262 9.48818 17.45 9.44572C17.6463 9.37857 17.6613 9.31396 17.621 8.98707C17.5711 8.99962 17.5202 9.00417 17.4729 8.98922C17.4932 8.86139 17.4773 8.75866 17.4166 8.52392C17.3546 8.28379 17.3383 8.17562 17.3629 8.04756C17.3565 8.03897 17.3511 8.03054 17.3455 8.02076L17.3336 7.99937C17.3274 7.98878 17.3224 7.98301 17.3157 7.97897C17.2569 7.94319 17.1295 7.81605 17.125 7.78436C17.1206 7.75237 17.0935 7.70593 17.058 7.67729C17.0163 7.64362 16.9891 7.58874 16.9802 7.52529C16.9731 7.47574 16.9626 7.45983 16.904 7.40085C16.8427 7.339 16.8225 7.22777 16.8603 7.08781C16.8348 7.0039 16.8371 6.92309 16.8609 6.67097L16.8639 6.63895C16.8612 6.6399 16.8583 6.64058 16.8544 6.64122L16.8413 6.64302L16.8324 6.62888C16.8379 6.62036 16.8426 6.61204 16.8474 6.60293C16.8514 6.59509 16.8514 6.59509 16.8552 6.58704C16.8536 6.59042 16.87 6.55541 16.8757 6.54405C16.8851 6.52489 16.8954 6.50592 16.9082 6.48435C17.0055 6.32037 17.221 6.15758 17.4595 6.06812C17.6855 5.98324 17.7763 5.97713 17.8215 6.0898C17.8415 6.0898 17.8516 6.0912 17.9103 6.10078C17.9439 6.10625 17.9655 6.10913 17.9879 6.11062L18.0021 6.11157C18.055 6.11515 18.0772 6.11988 18.104 6.13745C18.1158 6.14517 18.1273 6.15517 18.1389 6.16802C18.1878 6.22182 18.2076 6.30918 18.1866 6.3855L18.1716 6.38993C18.0633 6.29338 17.9806 6.28243 17.8631 6.34177ZM18.0561 6.44137C18.0417 6.4302 18.031 6.42546 18.0123 6.42588L18.0123 6.42588C17.9311 6.42816 17.8691 6.39984 17.8501 6.33778C17.974 6.26506 18.0635 6.27389 18.1723 6.36628C18.1713 6.37114 18.1701 6.37596 18.1688 6.38073L18.1838 6.3763C18.1799 6.37286 18.1761 6.36952 18.1723 6.36628C18.1856 6.29962 18.1669 6.22632 18.1253 6.18059C18.1147 6.16885 18.1044 6.15987 18.094 6.15305C18.0705 6.13771 18.0508 6.13349 18.0008 6.13012L17.9866 6.12916C17.9635 6.12763 17.9415 6.12469 17.9074 6.11913C17.8967 6.11739 17.8877 6.11593 17.8799 6.11466C17.8457 6.10912 17.835 6.10739 17.8131 6.10299C17.7658 5.99859 17.6825 6.00419 17.4659 6.08554C17.2311 6.17363 17.0189 6.33388 16.924 6.49393C16.9114 6.5151 16.9014 6.53366 16.8921 6.55241C16.8866 6.56356 16.8702 6.59844 16.8718 6.59515C16.8678 6.60341 16.8678 6.60342 16.8636 6.6116L16.8636 6.6116C16.8619 6.61499 16.8601 6.61829 16.8583 6.62153C16.8566 6.62218 16.8547 6.62265 16.8514 6.62318L16.839 6.62489L16.8478 6.63902C16.8516 6.63319 16.855 6.62745 16.8583 6.62153C16.8586 6.6214 16.859 6.62126 16.8593 6.62111C16.8612 6.62026 16.8629 6.61927 16.8699 6.61494L16.8838 6.62365L16.8792 6.67286C16.8557 6.92181 16.8533 7.00207 16.8779 7.0876C16.8418 7.22673 16.8608 7.33126 16.917 7.388C16.9781 7.44955 16.9905 7.46835 16.9983 7.52284C17.0067 7.58198 17.0318 7.6326 17.0695 7.66309C17.1085 7.69461 17.1381 7.74523 17.1432 7.78194C17.1467 7.80633 17.2708 7.93028 17.3251 7.96333C17.335 7.96921 17.3418 7.97717 17.3494 7.99019L17.3614 8.01174C17.3628 8.01416 17.3641 8.01648 17.3655 8.01886C17.3695 8.02552 17.3737 8.03267 17.3793 8.04373C17.3569 8.17541 17.373 8.28185 17.4344 8.51945C17.4957 8.75668 17.5119 8.86106 17.4829 8.98166C17.517 8.98543 17.561 8.98203 17.614 8.97794C17.6185 8.97759 17.6231 8.97723 17.6278 8.97688C17.6807 9.31923 17.6637 9.39224 17.4559 9.46332C17.3339 9.50517 17.2494 9.54381 17.2004 9.58165C17.1495 9.62092 17.1384 9.65726 17.1664 9.69573C17.2007 9.74301 17.277 9.71685 17.3516 9.64835C17.4017 9.60246 17.4554 9.56672 17.4959 9.55446C17.5467 9.53909 17.559 9.56115 17.5361 9.62084C17.5279 9.64224 17.52 9.65388 17.4682 9.72559L17.4573 9.74075C17.42 9.79314 17.4016 9.82604 17.4 9.8481C17.3959 9.90586 17.4442 9.93249 17.5105 9.89376C17.579 9.85368 17.6517 9.7427 17.6718 9.66135C17.6788 9.63307 17.6875 9.61166 17.6963 9.60575C17.7071 9.59848 17.7151 9.60655 17.7177 9.61944C17.7195 9.62861 17.7199 9.64334 17.7189 9.66402C17.7181 9.6794 17.717 9.68833 17.7117 9.72765C17.7093 9.74513 17.7079 9.75627 17.7067 9.76784C17.6979 9.85522 17.713 9.90094 17.7697 9.91366C17.8637 9.93472 17.9064 9.8245 17.8667 9.69548C17.8266 9.56561 17.8169 9.50221 17.8337 9.4596C17.855 9.40586 17.8767 9.38696 17.9194 9.39977C17.9686 9.41465 18.0308 9.3878 18.0277 9.33825C18.0235 9.27158 17.9683 9.23069 17.913 9.26207C17.8768 9.28264 17.8459 9.29059 17.8258 9.28242C17.8017 9.2726 17.7977 9.24384 17.8128 9.20083C17.8187 9.18438 17.8243 9.17043 17.8373 9.13926L17.8374 9.13902C17.8633 9.07733 17.8723 9.05171 17.8745 9.0276L17.8912 9.02322C17.9336 9.08542 18.1851 9.09337 18.2848 9.03307L18.2985 9.03916C18.3019 9.05631 18.3056 9.07144 18.3128 9.09939C18.3412 9.20844 18.345 9.25251 18.3178 9.31129C18.3028 9.34354 18.2779 9.37393 18.2415 9.40339C18.0698 9.54178 17.9846 9.63922 17.988 9.7091C17.9925 9.79616 18.0248 9.8278 18.0862 9.79339C18.1544 9.7552 18.2014 9.70019 18.2186 9.6442C18.2276 9.61473 18.2425 9.59566 18.2581 9.59859C18.2753 9.60184 18.2783 9.62622 18.2695 9.66166L18.2567 9.71167C18.2519 9.73051 18.2483 9.7458 18.2451 9.76049C18.2339 9.81244 18.2305 9.85127 18.2363 9.87899C18.2469 9.92827 18.3273 9.93262 18.3606 9.88395C18.3898 9.84143 18.3918 9.79848 18.3798 9.69451L18.3797 9.69382C18.3719 9.62609 18.3824 9.54698 18.4016 9.51271C18.4139 9.49098 18.4268 9.47632 18.4422 9.47186C18.4644 9.46545 18.4842 9.48218 18.5009 9.52211C18.5034 9.52803 18.509 9.54194 18.5141 9.55463C18.5184 9.56518 18.5224 9.57489 18.5238 9.57845C18.5497 9.64032 18.5708 9.66709 18.6111 9.67984C18.6751 9.70007 18.7135 9.67074 18.7029 9.60233C18.6923 9.53499 18.623 9.45334 18.5201 9.37418C18.4756 9.34003 18.4571 9.31195 18.4549 9.27962C18.454 9.26693 18.4548 9.25951 18.4589 9.23327C18.4609 9.2204 18.4619 9.21237 18.4625 9.20331C18.4642 9.17858 18.4633 9.14426 18.4604 9.10116C18.4593 9.08382 18.4578 9.06557 18.456 9.045L18.4501 8.97907L18.4647 8.97088C18.4759 8.97922 18.4876 8.98637 18.4997 8.99242C18.5459 9.01543 18.5865 9.0206 18.6506 9.01942L18.6663 9.01921C18.6905 9.01921 18.7125 9.01492 18.7223 9.00702C18.7323 8.99893 18.7288 8.98507 18.7015 8.96002C18.6368 8.9007 18.615 8.86322 18.5838 8.78012C18.5753 8.75739 18.5701 8.74491 18.5631 8.73129C18.551 8.70798 18.5361 8.68766 18.515 8.66729C18.4165 8.57224 18.3301 8.42812 18.3013 8.30771C18.2532 8.10724 18.1864 7.94756 18.0846 7.85692C18.015 7.79496 17.9891 7.63115 18.007 7.41881C18.0303 7.14094 17.9999 6.99567 17.8543 6.9137C17.6903 6.82135 17.6638 6.73699 17.7352 6.62894C17.8106 6.51476 17.8835 6.4507 17.9701 6.44507C17.9825 6.4443 17.9943 6.44321 18.005 6.44221C18.0283 6.44006 18.0466 6.43836 18.0561 6.44137Z" fill="black"/>
<path fill-rule="evenodd" clip-rule="evenodd" d="M16.6302 6.82426C16.7718 6.82926 16.8233 6.8356 16.8591 6.86022L16.8631 6.86831C16.8582 6.96285 16.8622 7.03089 16.8779 7.08737C16.8418 7.2265 16.8608 7.33102 16.917 7.38777C16.9781 7.44932 16.9905 7.46812 16.9983 7.52261C17.0067 7.58175 17.0318 7.63237 17.0695 7.66286C17.1085 7.69438 17.1381 7.745 17.1432 7.78171C17.1467 7.8061 17.2708 7.93004 17.3251 7.9631C17.335 7.96898 17.3418 7.97694 17.3494 7.98996L17.3614 8.01151C17.3628 8.01392 17.3641 8.01623 17.3655 8.01861C17.3695 8.02528 17.3737 8.03243 17.3793 8.0435C17.3599 8.15716 17.3723 8.27071 17.4096 8.44467C17.2711 8.56067 17.1214 8.60514 17.0156 8.57169C16.9198 8.54138 16.882 8.45364 16.9218 8.34434C16.8091 8.42398 16.6593 8.47046 16.533 8.46976C16.4029 8.46904 16.3294 8.41704 16.3586 8.33176C16.0443 8.4373 15.8694 8.37752 15.9125 8.23188C15.6523 8.32891 15.4368 8.26161 15.4708 8.14605C15.2475 8.20336 15.0531 8.18312 15.0144 8.12068C14.9902 8.08158 15.0278 8.00259 15.0848 7.94274C14.9861 7.97172 14.8854 7.97492 14.7723 7.95786C14.719 7.94974 14.6926 7.93722 14.6856 7.91588C14.6802 7.8996 14.6818 7.89467 14.7021 7.85026L14.7046 7.84458C14.7046 7.84473 14.7179 7.81398 14.7225 7.80393C14.7305 7.78633 14.7384 7.77068 14.7473 7.7551C14.7676 7.71959 14.7921 7.68689 14.823 7.65589C14.5647 7.70423 14.3443 7.71088 14.187 7.65784L14.1634 7.65024C14.1415 7.64295 14.128 7.63659 14.1194 7.62761C14.1064 7.61409 14.1084 7.59718 14.1254 7.58007C14.1756 7.52945 14.2644 7.46439 14.3589 7.41594C13.9106 7.47503 13.4815 7.44925 13.3465 7.29598L13.3552 7.28084C13.481 7.30681 13.6429 7.27467 13.8176 7.20689C13.2452 7.13045 12.6106 6.75763 12.6029 6.43347L12.6199 6.4284C12.736 6.61704 12.891 6.70681 13.2102 6.80535C12.9339 6.6266 12.7744 6.40452 12.7604 6.22071L12.776 6.21338C13.0017 6.43191 13.2707 6.60254 13.5176 6.66011C13.3131 6.52705 13.071 6.22584 13.001 6.00977L13.0158 6.00006C13.1719 6.14043 13.5338 6.3387 13.7847 6.41608C13.5563 6.2242 13.3303 5.91415 13.3442 5.75131L13.3599 5.74561C13.4472 5.83374 13.6475 5.9753 13.9584 6.15779C14.1511 6.27081 14.2979 6.3227 14.4912 6.35842C14.5186 6.36348 14.545 6.36799 14.5867 6.37481C14.6894 6.39165 14.7273 6.39813 14.776 6.40816C14.7309 6.343 14.6865 6.2579 14.6819 6.22991L14.6923 6.21929C14.7889 6.23321 14.8812 6.27636 15.114 6.42114C15.2262 6.49096 15.3633 6.53199 15.6959 6.6094L15.7113 6.61297C15.9798 6.67545 16.0991 6.70834 16.2145 6.75911C16.2746 6.78562 16.3449 6.80219 16.4287 6.81185C16.4854 6.81838 16.5264 6.82059 16.6302 6.82426ZM16.8445 6.87278C16.8446 6.87102 16.8446 6.86924 16.8447 6.86745L16.8487 6.87554C16.8473 6.87459 16.8459 6.87367 16.8445 6.87278ZM13.3806 7.30395C13.5143 7.32203 13.6804 7.28345 13.8579 7.21077L13.8555 7.19308C13.3042 7.13123 12.6791 6.78029 12.625 6.47023C12.7502 6.65439 12.9225 6.74086 13.2722 6.84331L13.2794 6.82651C12.9843 6.65281 12.8088 6.42964 12.7815 6.24428C13.0222 6.4722 13.3087 6.64541 13.5673 6.689L13.5731 6.67178C13.3743 6.56561 13.1176 6.26254 13.03 6.03665C13.21 6.18536 13.5822 6.38277 13.8232 6.4464L13.8312 6.43022C13.6055 6.25306 13.3686 5.94228 13.3621 5.77357C13.4574 5.86361 13.6537 6.00041 13.9491 6.17381C14.1437 6.28797 14.2925 6.34057 14.4879 6.37666C14.5154 6.38174 14.542 6.38627 14.5837 6.39311C14.7017 6.41246 14.7339 6.41808 14.7953 6.43116L14.8046 6.41664C14.7626 6.36016 14.7171 6.27759 14.7037 6.23989C14.7925 6.25559 14.8851 6.30058 15.1043 6.43691C15.2189 6.50826 15.3568 6.54952 15.6918 6.62746L15.7071 6.63103C15.9745 6.69324 16.0932 6.72597 16.2071 6.7761C16.2691 6.80344 16.3411 6.82042 16.4266 6.83027C16.484 6.83687 16.5253 6.83911 16.6296 6.84279C16.7603 6.8474 16.8126 6.85335 16.8445 6.87278C16.8399 6.96654 16.8442 7.03485 16.8603 7.08784C16.8225 7.2278 16.8427 7.33904 16.904 7.40088C16.9626 7.45986 16.9731 7.47578 16.9802 7.52532C16.9891 7.58877 17.0163 7.64365 17.058 7.67733C17.0934 7.70597 17.1205 7.7524 17.125 7.78439C17.1295 7.81608 17.2568 7.94322 17.3157 7.979C17.3224 7.98304 17.3273 7.98881 17.3335 7.9994L17.3455 8.02079C17.3511 8.03057 17.3565 8.039 17.3629 8.04759C17.3413 8.15722 17.3539 8.27297 17.3948 8.43991C17.2637 8.54293 17.1203 8.58556 17.0212 8.55422C16.9274 8.52459 16.8965 8.43487 16.9519 8.32052L16.938 8.30929C16.8263 8.39886 16.6659 8.45217 16.5331 8.45144C16.4047 8.45073 16.3433 8.40125 16.3833 8.32059L16.372 8.30779C16.0437 8.42305 15.8789 8.36111 15.9363 8.21968L15.9244 8.20765C15.6551 8.3154 15.4416 8.24293 15.4943 8.1367L15.4836 8.1237C15.26 8.18478 15.064 8.16589 15.03 8.11106C15.0085 8.07624 15.0607 7.98314 15.1275 7.92811L15.1185 7.91233C15.0099 7.95212 14.9007 7.95868 14.7751 7.93974C14.7282 7.9326 14.7071 7.92261 14.703 7.91016C14.6999 7.9008 14.7016 7.89564 14.7188 7.85804L14.7214 7.85215C14.7683 7.74627 14.7857 7.7159 14.8475 7.65786L14.8585 7.64787L14.8507 7.6319C14.5818 7.68505 14.3526 7.69434 14.1928 7.64047L14.1692 7.63285C14.1501 7.6265 14.1384 7.62101 14.1326 7.61495C14.1273 7.60935 14.1279 7.60373 14.1384 7.59318C14.1967 7.53439 14.3097 7.45479 14.4213 7.40699L14.4163 7.3894C13.9747 7.45481 13.5369 7.43881 13.3806 7.30395ZM13.3806 7.30395C13.3732 7.29753 13.3664 7.29084 13.3603 7.28388L13.3515 7.29901C13.3611 7.30097 13.3708 7.30262 13.3806 7.30395ZM14.7037 6.23989C14.7018 6.23468 14.7006 6.23033 14.7 6.22703L14.6897 6.23765C14.6943 6.23832 14.699 6.23907 14.7037 6.23989ZM13.3621 5.77357C13.3618 5.76645 13.362 5.75959 13.3625 5.753L13.3469 5.75871C13.3516 5.76351 13.3567 5.76846 13.3621 5.77357ZM13.03 6.03665C13.0257 6.02563 13.0219 6.0148 13.0184 6.00418L13.0036 6.01389C13.0118 6.02133 13.0207 6.02892 13.03 6.03665ZM12.7815 6.24428C12.7803 6.23591 12.7794 6.22762 12.7788 6.21942L12.7632 6.22675C12.7693 6.23263 12.7754 6.23847 12.7815 6.24428ZM12.625 6.47023C12.6228 6.45779 12.6216 6.44542 12.6213 6.43313L12.6043 6.4382C12.611 6.4492 12.6179 6.45987 12.625 6.47023Z" fill="black"/>
<path fill-rule="evenodd" clip-rule="evenodd" d="M18.7235 9.02195L18.7224 9.00679C18.7325 8.99879 18.7289 8.98488 18.7015 8.95991C18.6369 8.90058 18.6151 8.8631 18.5838 8.78C18.5753 8.75727 18.5701 8.74479 18.5631 8.73117C18.5511 8.70787 18.5361 8.68754 18.515 8.66718C18.4165 8.57212 18.3301 8.428 18.3013 8.30759C18.2532 8.10712 18.1864 7.94744 18.0846 7.85681C18.015 7.79485 17.9891 7.63103 18.0071 7.41869C18.0093 7.39258 18.011 7.36775 18.0122 7.34413L18.0181 7.34731L18.018 7.34809L18.0191 7.34785L18.0301 7.35351C18.0289 7.37484 18.0273 7.39709 18.0254 7.42033C18.0079 7.62717 18.0331 7.78635 18.0968 7.84311C18.2023 7.93705 18.2702 8.09937 18.3192 8.30337C18.3471 8.42022 18.4317 8.56127 18.5278 8.65397C18.5504 8.67576 18.5665 8.69772 18.5794 8.72279C18.5868 8.73721 18.5922 8.75023 18.601 8.77359C18.6313 8.85421 18.6518 8.88937 18.7139 8.94637C18.7423 8.97233 18.7519 8.99481 18.7425 9.01144C18.7393 9.00981 18.736 9.00804 18.7328 9.00615L18.7339 9.0213C18.7376 9.0183 18.7405 9.01501 18.7425 9.01144C18.8539 9.06717 18.9992 8.97652 19.0008 8.8924L19.0162 8.8858C19.1655 9.02353 19.351 9.01224 19.3967 8.85447L19.4105 8.8493C19.5293 8.92637 19.7379 8.93485 19.7936 8.85978C19.8703 8.75682 19.8252 8.67615 19.5147 8.48741L19.5217 8.47061C19.6188 8.49607 19.6968 8.44854 19.7048 8.36714L19.719 8.36031C19.826 8.42989 19.9165 8.44407 20.0434 8.41757C20.1475 8.39586 20.1495 8.31601 20.0588 8.1982L20.0706 8.18456C20.1796 8.2469 20.2982 8.28089 20.3788 8.27281C20.4638 8.26429 20.4958 8.21195 20.4612 8.11425L20.4717 8.10214C20.5991 8.1288 20.7001 8.1246 20.7291 8.07906C20.7639 8.02435 20.6967 7.92521 20.5242 7.79469L20.5288 7.77817C20.5738 7.77319 20.6004 7.76665 20.6321 7.75255C20.8027 7.83876 21.1715 7.90755 21.3436 7.89507C21.4876 7.88477 21.534 7.81691 21.5081 7.66679C21.8774 7.59499 22.2171 7.47854 22.442 7.31229C22.4664 7.2943 22.4773 7.28616 22.4912 7.27549C22.511 7.2603 22.5278 7.24668 22.5425 7.23375C22.5651 7.2138 22.5821 7.19602 22.5928 7.18069C22.6018 7.17566 22.6105 7.17061 22.6188 7.16554L22.6051 7.15555C22.6034 7.163 22.5993 7.17139 22.5928 7.18069C22.4034 7.2865 22.0726 7.38453 21.5064 7.52318L21.5014 7.50546L21.5021 7.50523L21.5028 7.50502C22.0056 7.33927 22.7824 6.83666 22.8141 6.62169L22.8301 6.60732L22.8148 6.6014C22.8154 6.60783 22.8152 6.6146 22.8141 6.62169C22.6838 6.73564 22.5 6.82631 22.1932 6.94472L22.1066 6.97779L22.0211 7.01025L22.0132 6.99366C22.3225 6.8137 22.5717 6.54957 22.5973 6.34677C22.6039 6.33856 22.6102 6.33019 22.6162 6.32165L22.5995 6.31625C22.5994 6.32625 22.5986 6.33643 22.5973 6.34677C22.5117 6.45321 22.3701 6.53518 22.0977 6.65787L22.0889 6.66182L21.9711 6.71479C21.9334 6.73193 21.9019 6.74659 21.8727 6.76072L21.863 6.74519C21.9991 6.63711 22.0465 6.59867 22.1205 6.53412C22.26 6.41258 22.3663 6.30225 22.4378 6.19808C22.5109 6.09176 22.544 5.99627 22.5323 5.91263C22.5366 5.90578 22.5408 5.8989 22.5448 5.89199L22.5279 5.8896C22.5298 5.89717 22.5312 5.90485 22.5323 5.91263C22.4333 6.06959 22.242 6.21345 21.9355 6.38674C21.8869 6.41421 21.7652 6.48054 21.6796 6.52718L21.6796 6.52719C21.6363 6.55078 21.6022 6.56933 21.5916 6.57526L21.5811 6.56022C21.7764 6.39127 21.8865 6.24331 21.8975 6.05667L21.913 6.04519L21.8983 6.03759C21.8981 6.04399 21.8979 6.05035 21.8975 6.05667C21.4796 6.36522 20.9669 6.58472 20.4298 6.71536L20.4249 6.70334L20.4248 6.70321L20.4248 6.70321L20.4229 6.69851C20.5537 6.61933 20.6909 6.47139 20.7313 6.36643L20.7531 6.35187L20.7391 6.34201C20.7371 6.34983 20.7345 6.35799 20.7313 6.36643C20.3378 6.62462 19.7524 6.79857 19.324 6.82709C18.9364 6.85268 18.6855 6.88527 18.3824 6.95799C18.3246 6.89961 18.1542 6.90272 17.9421 6.96072C17.9387 6.9569 17.9352 6.95314 17.9315 6.94944L17.9275 6.96479L17.9421 6.96072C18.0158 7.04284 18.0383 7.15151 18.0316 7.32341L18.0145 7.32679L18.0124 7.34011C18.0215 7.15481 17.9986 7.04368 17.9184 6.96231L17.9225 6.94696C18.1477 6.88328 18.3297 6.87852 18.3866 6.94248C18.6823 6.86699 18.9342 6.83427 19.3228 6.80861C19.7561 6.77976 20.3524 6.60072 20.7428 6.3365L20.7569 6.34637C20.7323 6.44552 20.6077 6.59183 20.4777 6.68437C21.0001 6.55125 21.4969 6.33322 21.902 6.03032L21.9166 6.03792C21.9125 6.2201 21.8205 6.36434 21.6525 6.52087L21.671 6.51078L21.6711 6.51075C21.7567 6.46412 21.8781 6.39796 21.9265 6.3706C22.2435 6.19132 22.4361 6.04397 22.5288 5.88269L22.5457 5.88508C22.5692 5.98018 22.5355 6.08832 22.453 6.20845C22.3804 6.31414 22.2731 6.42548 22.1326 6.54795C22.0707 6.60186 22.0274 6.6376 21.9361 6.71042L21.9635 6.69791L22.0814 6.64491L22.0902 6.64097C22.3804 6.51026 22.5205 6.42632 22.6011 6.31098L22.6178 6.31639C22.6155 6.51276 22.3953 6.76926 22.105 6.9586L22.1866 6.92743C22.5041 6.8049 22.6887 6.71238 22.8177 6.59365L22.8331 6.59957C22.8515 6.79468 22.1795 7.25298 21.6604 7.4659C22.1537 7.34173 22.4442 7.24972 22.6093 7.14967L22.623 7.15966C22.6173 7.18436 22.5938 7.21303 22.5546 7.24753C22.5395 7.26075 22.5224 7.27462 22.5024 7.29004C22.4883 7.30081 22.4774 7.30899 22.4529 7.32705C22.2253 7.49532 21.8833 7.61253 21.5188 7.67361C21.5545 7.82335 21.5004 7.90225 21.3449 7.91337C21.1696 7.92608 20.7974 7.85668 20.6327 7.7686C20.6113 7.78149 20.5878 7.78854 20.5532 7.79357C20.7199 7.92316 20.7857 8.02435 20.7445 8.0889C20.7109 8.14186 20.6113 8.14799 20.4835 8.12323C20.5132 8.22287 20.473 8.28181 20.3806 8.29107C20.3045 8.29869 20.1985 8.27137 20.0967 8.21951C20.1696 8.33007 20.1579 8.41243 20.0472 8.43553C19.9205 8.46199 19.8272 8.44906 19.721 8.38332C19.707 8.45454 19.6438 8.49944 19.5631 8.49558C19.8467 8.67289 19.89 8.76106 19.8083 8.87072C19.7472 8.95306 19.5379 8.94679 19.4107 8.87102C19.3566 9.02868 19.1693 9.04121 19.017 8.91103C18.9968 9.00488 18.8407 9.09114 18.7235 9.02195ZM18.4379 7.29269C18.4423 7.28069 18.4456 7.26772 18.4478 7.25375L18.4369 7.24332L18.0316 7.32341L18.031 7.33608L18.0206 7.33038L18.0181 7.34731L18.0191 7.34785L18.0305 7.34554L18.0301 7.35351C18.1877 7.43259 18.3618 7.428 18.4254 7.31907C18.5634 7.39404 18.7815 7.35729 18.8518 7.2522C19.0496 7.32382 19.2345 7.2808 19.2675 7.09926L19.2555 7.08888L18.867 7.2221C18.8726 7.20662 18.8752 7.19001 18.8743 7.17238L18.4379 7.29269ZM18.4338 7.30276C18.4352 7.29948 18.4366 7.29613 18.4379 7.29269L18.4194 7.29777L18.4174 7.31454L18.4254 7.31907L18.428 7.31458L18.4461 7.30909C18.5761 7.37129 18.7718 7.33592 18.8418 7.24848L18.8518 7.2522C18.8533 7.24996 18.8547 7.24769 18.8561 7.24539L18.8722 7.23985C19.0492 7.2991 19.209 7.26153 19.2461 7.11164L19.2614 7.10637L19.2494 7.096C19.2484 7.10134 19.2473 7.10655 19.2461 7.11164L18.8722 7.23985C18.8685 7.23862 18.8648 7.23735 18.8611 7.23603C18.8634 7.2315 18.8653 7.22685 18.867 7.2221L18.8564 7.22574C18.8633 7.21204 18.8673 7.19735 18.8678 7.1818L18.4461 7.30909C18.4419 7.30708 18.4378 7.30497 18.4338 7.30276ZM18.8525 7.2329C18.8554 7.23397 18.8583 7.23501 18.8611 7.23603C18.8596 7.2392 18.8579 7.24232 18.8561 7.24539L18.8473 7.24838L18.8475 7.24083C18.8493 7.23823 18.851 7.23558 18.8525 7.2329ZM18.8525 7.2329C18.8509 7.23229 18.8493 7.23167 18.8476 7.23105L18.8475 7.24083C18.8457 7.24342 18.8438 7.24597 18.8418 7.24848L18.8411 7.24823L18.8414 7.23089L18.8564 7.22574C18.8552 7.22816 18.8539 7.23054 18.8525 7.2329ZM18.4338 7.30276C18.432 7.30682 18.43 7.31076 18.428 7.31458L18.4247 7.31555L18.4267 7.29877L18.4338 7.30276ZM18.0439 7.34281L18.0305 7.34554L18.031 7.33608L18.0439 7.34281ZM18.4271 7.26456C18.3955 7.40907 18.2123 7.42773 18.0439 7.34281L18.4271 7.26456ZM18.4271 7.26456C18.4281 7.26017 18.4289 7.25568 18.4296 7.25106L18.4405 7.26184L18.4271 7.26456ZM20.4246 6.7033L19.5967 6.97057L19.601 6.98843C19.6887 6.97373 19.8267 6.9331 20.01 6.8706C20.0353 6.86196 20.0615 6.85293 20.0885 6.84347C20.1798 6.81156 20.4397 6.71747 20.4307 6.72067L20.4249 6.70334L20.4248 6.70321L20.4246 6.7033ZM20.4246 6.7033L20.4305 6.72075L19.6023 6.98811L19.598 6.97024C19.6844 6.95576 19.8217 6.91532 20.0041 6.85314C20.0294 6.84452 20.0555 6.8355 20.0825 6.82605C20.1706 6.79526 20.4162 6.70639 20.4246 6.7033ZM18.0124 7.34011L18.0122 7.34413L18.0118 7.34392L18.0124 7.34011ZM14.7856 6.42467C14.8441 6.51002 14.9977 6.63515 15.0944 6.66556C15.1014 6.73325 15.13 6.79882 15.178 6.85169L14.7407 6.71137L14.729 6.72254C14.7392 6.76074 14.7565 6.7944 14.7788 6.82313L14.4779 6.70112C14.5027 6.70157 14.53 6.69988 14.5597 6.69591L14.5646 6.67994L14.3481 6.4836C14.3864 6.49227 14.4248 6.49898 14.4635 6.50362L14.4688 6.48627L13.6323 6.0545L13.6217 6.06938C13.8219 6.25952 14.0543 6.40478 14.2989 6.47131C14.2833 6.50662 14.2792 6.55154 14.2908 6.59088L13.8245 6.42468L13.8156 6.44048C13.918 6.5251 14.078 6.57517 14.2996 6.61355L14.3034 6.62077C14.3233 6.6555 14.3571 6.6799 14.4053 6.69215C14.3968 6.71292 14.3927 6.7329 14.3928 6.75165C14.1701 6.70931 14.0293 6.69574 13.9708 6.72148C13.9406 6.73491 13.9205 6.75394 13.9116 6.77586C13.8723 6.76054 13.8351 6.74772 13.7942 6.73513C13.778 6.73014 13.7611 6.72514 13.7417 6.71957C13.7531 6.72285 13.6171 6.6846 13.5714 6.67099L13.5662 6.68926L13.5664 6.68931L13.5663 6.68947L13.5777 6.69283L13.9068 6.79492C13.9034 6.82699 13.9218 6.86309 13.9648 6.89621C13.98 6.90785 13.9981 6.91899 14.0187 6.92963C13.9751 6.95051 13.9587 6.98467 13.9679 7.02123L13.2773 6.82563L13.2699 6.84228C13.4478 6.95555 13.6705 7.01601 13.9767 7.04375C13.985 7.05945 13.9979 7.07519 14.0151 7.09014C13.9944 7.1143 13.9863 7.14147 13.9894 7.16914C13.9483 7.16783 13.8895 7.17831 13.851 7.19443L13.8559 7.21267L13.9939 7.19035C14.0022 7.21693 14.0204 7.24339 14.0471 7.2675C14.2696 7.46876 14.8187 7.46487 15.3379 7.28408C15.3497 7.31031 15.38 7.32835 15.4284 7.34191C15.448 7.34743 15.468 7.35214 15.4881 7.35605L14.8489 7.63248L14.8538 7.65006C15.048 7.62153 15.3206 7.49489 15.522 7.36183C15.5754 7.36975 15.6302 7.37226 15.6853 7.36968C15.6618 7.4137 15.6576 7.47008 15.6748 7.51787L14.9998 7.75723L14.999 7.75744L14.9991 7.75748L14.9986 7.75765L15.0042 7.77518C15.2269 7.70956 15.5179 7.60778 15.6822 7.53534C15.7024 7.57615 15.74 7.60786 15.7964 7.61517L15.118 7.91252L15.124 7.92989C15.2825 7.88878 15.5968 7.75141 15.8374 7.61884C15.9063 7.62258 15.9824 7.61514 16.0609 7.59895C16.0462 7.62945 16.0375 7.65953 16.0346 7.68811L15.3868 7.99207L15.393 8.00934C15.5892 7.95901 15.7665 7.87031 16.0335 7.7105C16.0337 7.75352 16.0477 7.79224 16.0746 7.82267L15.482 8.12166L15.488 8.13892C15.5524 8.1254 15.6292 8.09624 15.7164 8.0539C15.7642 8.0307 15.8144 8.0039 15.8667 7.97395C15.9414 7.93117 16.0002 7.89451 16.0889 7.83698C16.119 7.86359 16.1608 7.88187 16.2138 7.88825C16.2199 7.88897 16.226 7.88952 16.2323 7.88988L15.7473 8.11725L15.7531 8.13462C15.8608 8.11174 15.9637 8.06956 16.0745 8.00854C16.0995 7.99477 16.1505 7.96442 16.1959 7.93735L16.1959 7.93734L16.196 7.93733L16.196 7.9373C16.2313 7.91629 16.2632 7.89727 16.2771 7.8895C16.3325 7.88565 16.3941 7.86975 16.4593 7.84299C16.4303 7.88859 16.4147 7.92508 16.4123 7.95718L15.9168 8.20509L15.9239 8.22204C16.011 8.1916 16.2627 8.06307 16.4127 7.97849C16.4152 7.99988 16.4242 8.01964 16.4396 8.0394C16.4549 8.05913 16.4732 8.06984 16.4972 8.07173L16.1573 8.23008L16.1646 8.24699L16.165 8.24681L16.165 8.24683L16.1653 8.24667C16.2821 8.19947 16.4409 8.12576 16.5753 8.05671C16.6115 8.04346 16.6561 8.02168 16.712 7.99156C16.756 7.9679 16.8078 7.93433 16.8672 7.89174C16.8828 7.88054 16.8989 7.86877 16.9155 7.85639C16.9028 7.90245 16.9022 7.94217 16.9121 7.97528L16.3675 8.30586L16.3756 8.32236C16.5215 8.26629 16.7916 8.09713 16.9194 7.9943C16.9333 8.02437 16.9573 8.04797 16.9899 8.06483L16.6116 8.30595L16.6201 8.32222C16.7642 8.26112 16.9309 8.15335 17.0114 8.07448L17.015 8.07588C17.0989 8.1072 17.1834 8.10821 17.2626 8.0667L16.9382 8.31056L16.9484 8.32587C17.1068 8.23177 17.2949 8.09269 17.3566 8.01876L17.3441 8.00546L17.3433 8.00605L17.3407 7.99198L16.9576 7.82455C16.9788 7.80834 17.0008 7.79121 17.0249 7.77227L17.1025 7.7108L17.0952 7.69449L16.8443 7.741L17.0185 7.60745L17.0192 7.60693L17.0192 7.60689L17.0197 7.60651L17.009 7.59154C16.9529 7.62928 16.868 7.69099 16.7886 7.75132L16.5621 7.79331C16.6966 7.71891 16.8389 7.60441 16.9672 7.45903L16.959 7.4438L16.6278 7.49109L16.672 7.46175L16.7724 7.39448C16.8094 7.36984 16.8391 7.35042 16.8672 7.33269L16.8696 7.33127L16.8696 7.3312L16.8698 7.33106L16.8603 7.31531L16.5427 7.50324L16.2497 7.54507C16.4301 7.47993 16.6022 7.37934 16.7076 7.27234C16.7524 7.26614 16.7987 7.25742 16.8459 7.24601L16.8481 7.24645L16.8481 7.24547L16.852 7.2445L16.8516 7.2265L16.3021 7.1209C16.337 7.11828 16.3729 7.11408 16.4096 7.10817L16.4107 7.09022L15.7799 6.90515L15.7682 6.91355C15.7679 6.91989 15.7681 6.92614 15.7689 6.93232L15.1063 6.60883L15.0931 6.61665C15.0928 6.62376 15.0926 6.63089 15.0928 6.638L14.7987 6.41213L14.7856 6.42467ZM15.093 6.64567L15.0928 6.638L15.1107 6.65176L15.1027 6.66799L15.0944 6.66556L15.0941 6.66222L15.0995 6.6664L15.1074 6.65017C15.1028 6.64893 15.098 6.64742 15.093 6.64567ZM15.042 6.62224L14.8571 6.48022C14.8341 6.45711 14.8146 6.43444 14.8007 6.41422L14.7876 6.42676L14.8571 6.48022C14.9099 6.53322 14.9806 6.58857 15.042 6.62224ZM15.042 6.62224C15.06 6.63212 15.0773 6.64014 15.093 6.64567C15.0932 6.6512 15.0936 6.65672 15.0941 6.66222L15.042 6.62224ZM15.7896 6.94243L15.7689 6.93232C15.7694 6.93652 15.7702 6.94068 15.7712 6.9448L15.7588 6.9479L15.1111 6.63169C15.1111 6.627 15.1112 6.62231 15.1115 6.61762L15.0983 6.62544L15.1111 6.63169C15.1106 6.76079 15.1939 6.88878 15.3452 6.93437C15.4791 6.97471 15.6104 6.97978 15.7215 6.95829C15.6933 6.96677 15.6651 6.97662 15.6376 6.98754C15.5449 6.99368 15.4431 6.98309 15.3399 6.952C15.2886 6.93653 15.2446 6.91202 15.2086 6.88132L15.213 6.87788L15.21 6.86194L15.178 6.85169C15.1834 6.85756 15.189 6.86328 15.1948 6.86883L15.1875 6.87416L14.7517 6.73436C14.7499 6.72897 14.7482 6.72347 14.7467 6.71786L14.7351 6.72903L14.7517 6.73436C14.7706 6.79036 14.8062 6.83498 14.8508 6.86671L14.8089 6.85609L14.8084 6.85566L14.8124 6.85443L14.8132 6.83707L14.7788 6.82313C14.7836 6.82927 14.7886 6.83519 14.7938 6.84088L14.7818 6.84432L14.4225 6.69864L14.4236 6.6961C14.4402 6.69907 14.4583 6.70076 14.4779 6.70112L14.4211 6.6781L14.4094 6.68274L14.4053 6.69215L14.416 6.69462L14.4143 6.69529L14.4225 6.69864C14.4144 6.71858 14.4108 6.73772 14.4117 6.75553L14.4075 6.75446L14.4069 6.75435L14.3928 6.75165C14.3929 6.75816 14.3934 6.76452 14.3944 6.77071C14.174 6.72862 14.032 6.71468 13.9782 6.73834C13.9108 6.76829 13.9039 6.82612 13.976 6.88156C13.9946 6.89586 14.0178 6.9094 14.045 6.92217L14.043 6.92168L14.0379 6.92188C14.031 6.9242 14.0246 6.92679 14.0187 6.92963C14.0251 6.93295 14.0318 6.93623 14.0388 6.93946L14.0386 6.93946L14.039 6.93957L14.0406 6.94033C13.9684 6.96622 13.9655 7.0277 14.0316 7.08058L14.0296 7.0803L14.0218 7.08293C14.0194 7.0853 14.0172 7.08771 14.0151 7.09014C14.0196 7.09404 14.0245 7.09789 14.0296 7.10167C13.9906 7.14662 14.0042 7.20402 14.0594 7.25386C14.2713 7.44556 14.7972 7.44561 15.3017 7.27702L15.337 7.28196L15.3379 7.28408L15.3442 7.28187L15.3425 7.26405L15.3422 7.26401L15.3434 7.24758L15.3331 7.24499C15.3355 7.22669 15.3433 7.20556 15.3565 7.18102C15.3768 7.14342 15.4224 7.10304 15.4817 7.06572C15.4984 7.0629 15.5144 7.05985 15.5295 7.05657L15.5298 7.03863L15.5286 7.03832C15.5626 7.01989 15.5995 7.00269 15.6376 6.98754C15.6681 6.98553 15.6975 6.9817 15.7257 6.97621C15.569 7.02358 15.4134 7.11441 15.3727 7.18975C15.3303 7.26832 15.3483 7.30031 15.4333 7.3241C15.6806 7.39365 15.9749 7.33048 16.1998 7.17283L16.209 7.17748C16.2105 7.18021 16.2121 7.18289 16.2139 7.18553C16.1223 7.25033 16.0192 7.29969 15.9123 7.33108L15.7005 7.35168L15.6938 7.35567C15.6907 7.36017 15.6879 7.36485 15.6853 7.36968L15.7047 7.36856L15.7023 7.37001L15.7066 7.36959C15.657 7.4481 15.6834 7.58223 15.7992 7.59693C15.8096 7.59825 15.8202 7.59926 15.8311 7.59999L15.7964 7.61517L15.7969 7.61523L15.8041 7.61609C15.724 7.65941 15.6369 7.7029 15.5508 7.74298L15.3522 7.83004C15.2605 7.86751 15.1788 7.89668 15.1194 7.91208L15.1254 7.92945L15.3522 7.83004C15.4151 7.80433 15.4826 7.77472 15.5508 7.74298L15.8344 7.61867L15.8374 7.61884L15.8508 7.61139L15.8456 7.60078C15.9154 7.60375 15.9926 7.5952 16.0721 7.57773C16.068 7.58482 16.0643 7.5919 16.0609 7.59895L16.084 7.59394C16.0119 7.72756 16.0629 7.85143 16.216 7.86986C16.2336 7.87198 16.2523 7.87245 16.2719 7.87131L16.2323 7.88988L16.2393 7.89021L16.1856 7.92207C16.1581 7.93847 16.1287 7.95597 16.1044 7.9702L15.8524 8.08834C15.8182 8.09981 15.784 8.10924 15.7493 8.11661L15.7551 8.13398L15.8524 8.08834C15.9224 8.06487 15.9922 8.03285 16.0657 7.9924C16.0753 7.98712 16.0888 7.97934 16.1044 7.9702L16.2764 7.88955L16.2771 7.8895L16.2809 7.88747L16.281 7.88742L16.281 7.88741L16.2813 7.88721L16.2734 7.87122C16.3345 7.86741 16.4042 7.84804 16.4781 7.81484C16.4713 7.8246 16.465 7.83398 16.4593 7.84299C16.4695 7.83878 16.4799 7.8343 16.4903 7.82956C16.4238 7.92615 16.4144 7.97718 16.454 8.02811C16.4753 8.05537 16.5062 8.0604 16.5604 8.0423L16.4972 8.07173L16.5042 8.07203C16.3854 8.1311 16.2563 8.1901 16.1577 8.22992L16.165 8.24681L16.1653 8.24667L16.5664 8.05985L16.5753 8.05671L16.5951 8.0465L16.5955 8.04628L16.5955 8.04626L16.5959 8.04607L16.5888 8.0316C16.62 8.01874 16.6575 8.00004 16.7033 7.97538C16.7465 7.95215 16.7977 7.91897 16.8565 7.87681C16.8771 7.86207 16.8984 7.84633 16.9207 7.82949L16.9253 7.82608C16.9214 7.83647 16.9182 7.84657 16.9155 7.85639L16.9318 7.84417L16.9407 7.83737C16.8997 7.95356 16.9341 8.02622 17.0214 8.05858C17.1248 8.09717 17.2279 8.08727 17.3206 8.00327L17.3334 8.00886L17.3307 7.9938L17.3206 8.00327L16.9408 7.8373L16.9576 7.82455L16.9392 7.81649L16.9363 7.81769C16.9606 7.79924 16.9857 7.77976 17.0135 7.75783L17.062 7.71945L17.0985 7.71268L17.0912 7.69638L17.062 7.71945L16.8119 7.7658L16.8443 7.741L16.8293 7.74378C16.899 7.69142 16.9696 7.64034 17.0185 7.60745L17.0192 7.60689L17.0085 7.59195L16.8046 7.74836L16.7886 7.75132L16.7562 7.77614L16.505 7.82268C16.5239 7.81373 16.5429 7.80392 16.5621 7.79331L16.4994 7.80492C16.641 7.73698 16.7965 7.61992 16.9366 7.46553L16.9616 7.46196L16.9534 7.44673L16.9366 7.46553L16.5913 7.51483L16.6278 7.49109L16.5906 7.4964L16.8672 7.33269L16.8696 7.3312L16.8601 7.31552C16.831 7.33379 16.8005 7.35372 16.7622 7.37921L16.6619 7.44648C16.6347 7.46465 16.6091 7.48152 16.5848 7.49723L16.5427 7.50324L16.5014 7.52767L16.1449 7.57856C16.1799 7.56885 16.2149 7.55762 16.2497 7.54507L16.1405 7.56066C16.3439 7.50403 16.5516 7.39497 16.6774 7.27617C16.6874 7.27502 16.6974 7.27375 16.7076 7.27234L16.7101 7.26982L16.7036 7.25628C16.7367 7.25167 16.7707 7.24564 16.8053 7.2381L16.8459 7.24601L16.8481 7.24547L16.8476 7.22818C16.8334 7.23174 16.8193 7.23504 16.8053 7.2381L16.2213 7.12422C16.2475 7.12405 16.2745 7.12297 16.3021 7.1209L16.223 7.10571C16.2683 7.10533 16.3158 7.10219 16.365 7.09591L16.4056 7.10783L16.4067 7.08988C16.3927 7.09214 16.3787 7.09415 16.365 7.09591L15.7867 6.92627C15.7864 6.92233 15.7863 6.91836 15.7865 6.91436L15.7748 6.92276L15.7867 6.92627C15.7872 6.93172 15.7882 6.93711 15.7896 6.94243ZM15.7909 6.94482L15.7911 6.94314L15.7896 6.94243L15.7902 6.94444L15.7877 6.94316L15.7843 6.94275L15.7843 6.94264L15.7841 6.94272L15.7815 6.9424L15.7712 6.9448L15.7717 6.94639L15.7614 6.94919L15.7588 6.9479C15.7464 6.95108 15.7339 6.95455 15.7215 6.95829C15.7351 6.95565 15.7484 6.95261 15.7614 6.94919L15.7745 6.95559L15.7772 6.96228C15.7601 6.96635 15.7429 6.97101 15.7257 6.97621C15.7436 6.97272 15.761 6.96857 15.7778 6.96377C15.8054 7.0256 15.8895 7.07593 16.0084 7.10287L15.6351 7.22564L15.639 7.24417C15.8078 7.22276 15.9041 7.18674 16.0452 7.1106L16.045 7.11023C16.0594 7.11277 16.0743 7.11499 16.0895 7.11686L16.1998 7.17283L16.205 7.16912C16.2062 7.17195 16.2075 7.17474 16.209 7.17748L16.2134 7.17973L16.2122 7.16403L16.205 7.16912C16.2028 7.16371 16.2012 7.15814 16.2002 7.15242L16.2217 7.16333L16.2229 7.17903L16.2139 7.18553C16.2367 7.21947 16.2847 7.24603 16.3504 7.26301L16.2789 7.29542L15.9123 7.33108C15.8449 7.35086 15.776 7.3635 15.7074 7.36838L15.709 7.36602L15.7047 7.36856L15.7074 7.36838L15.7066 7.36959L16.2269 7.31899L15.913 7.46128L15.9195 7.47847C16.0454 7.43875 16.184 7.37704 16.3064 7.31125L16.6001 7.28268C16.6252 7.28136 16.651 7.27921 16.6774 7.27617L16.6785 7.27505L16.7044 7.27254L16.697 7.25718L16.7036 7.25628L16.7026 7.2542L16.5627 7.26782C16.3495 7.27231 16.2021 7.21234 16.2188 7.12423L16.2213 7.12422L16.2189 7.12375C16.2194 7.12108 16.2201 7.11839 16.2209 7.11567L16.2104 7.12209L16.2189 7.12375L16.2188 7.12423L16.2001 7.12415C16.2008 7.1196 16.2019 7.11498 16.2034 7.11028L16.2109 7.10574L16.223 7.10571L16.2139 7.10395L16.2109 7.10574C16.1701 7.10564 16.1312 7.10328 16.0948 7.09895L15.7909 6.94482ZM15.7908 6.94644L15.7909 6.94482L15.7902 6.94444L15.7908 6.94644ZM15.8026 6.97136C15.7975 6.96327 15.7935 6.95495 15.7908 6.94644L15.7897 6.96024L15.7841 6.96195L15.7823 6.96106L15.7855 6.96032L15.7794 6.95956L15.7823 6.96106L15.7772 6.96228L15.7778 6.96377L15.7841 6.96195L15.8026 6.97136ZM16.0365 7.09001C16.0552 7.09356 16.0746 7.09655 16.0948 7.09895L16.1396 7.12168C16.1225 7.12048 16.1057 7.11886 16.0895 7.11686L16.0365 7.09001ZM15.8026 6.97136L16.0365 7.09001C15.9208 7.06794 15.8364 7.02449 15.8026 6.97136ZM16.1396 7.12168L16.2002 7.15242C16.1986 7.14336 16.1985 7.13393 16.2001 7.12415C16.1794 7.12389 16.1592 7.12305 16.1396 7.12168ZM16.6966 7.25723L16.6969 7.25692L16.697 7.25718L16.6966 7.25723ZM16.6966 7.25723C16.6499 7.26349 16.605 7.26692 16.5627 7.26782L16.4438 7.27937C16.4215 7.27702 16.4002 7.27383 16.3803 7.26985L16.3823 7.26868L16.3739 7.25232L16.3504 7.26301L16.3538 7.26389C16.3366 7.27373 16.3189 7.28355 16.3009 7.29328L16.2789 7.29542L16.2269 7.31899L16.2578 7.31597C16.1467 7.37324 16.0252 7.42578 15.914 7.46087L15.9206 7.47806L16.2836 7.31346L16.3064 7.31125C16.3203 7.3038 16.3339 7.29629 16.3473 7.28876L16.4438 7.27937C16.4913 7.28438 16.5439 7.28564 16.6001 7.28268L16.6785 7.27505C16.6848 7.26914 16.6908 7.26319 16.6966 7.25723ZM16.3356 7.2899L16.3473 7.28876C16.3585 7.28247 16.3695 7.27616 16.3803 7.26985L16.38 7.26978L16.3815 7.2691L16.3731 7.25274L16.3538 7.26389C16.3623 7.26601 16.371 7.26798 16.38 7.26978L16.3356 7.2899ZM16.3356 7.2899L16.3009 7.29328C16.2867 7.30091 16.2724 7.30848 16.2578 7.31597L16.2836 7.31346L16.3356 7.2899ZM16.0432 7.1099L16.045 7.11023L16.0382 7.09307L16.0084 7.10287L16.0163 7.10461C15.9806 7.12342 15.9477 7.13955 15.9153 7.15346L15.7642 7.20315C15.7258 7.21208 15.6842 7.21925 15.6368 7.22526L15.6407 7.24379L15.7642 7.20315C15.8183 7.19061 15.8661 7.17459 15.9153 7.15346L16.0437 7.11122L16.0432 7.1099ZM16.0432 7.1099C16.034 7.10827 16.0251 7.1065 16.0163 7.10461L16.0367 7.0937L16.0432 7.1099ZM15.7745 6.95559C15.7734 6.95255 15.7725 6.94949 15.7717 6.94639L15.7841 6.94272L15.7843 6.94275L15.783 6.95974L15.7745 6.95559ZM16.0881 7.58668L16.084 7.59394C16.1042 7.58936 16.1246 7.58422 16.1449 7.57856L16.0881 7.58668ZM16.0881 7.58668L16.0903 7.58287L16.0837 7.58731L16.0881 7.58668ZM16.5474 7.5211L16.5014 7.52767L16.2599 7.67055L16.2678 7.68712C16.3674 7.64968 16.4608 7.59899 16.5913 7.51483L16.5493 7.52083L16.5906 7.4964L16.5848 7.49723L16.5474 7.5211ZM16.5217 7.53715L16.5474 7.5211L16.5493 7.52083L16.5217 7.53715ZM16.5217 7.53715C16.4928 7.55499 16.4657 7.57104 16.4398 7.5856L16.5217 7.53715ZM16.4398 7.5856C16.3763 7.62126 16.3199 7.64796 16.2614 7.66994L16.2693 7.68651L16.4398 7.5856ZM16.4936 7.82481L16.4903 7.82956L16.505 7.82268L16.4936 7.82481ZM16.4936 7.82481L16.4957 7.82174L16.4899 7.82549L16.4936 7.82481ZM16.7722 7.77316L16.7562 7.77614C16.6833 7.83223 16.6195 7.884 16.5935 7.91018L16.6056 7.92401L16.8119 7.7658L16.7963 7.7687L16.8293 7.74378L16.8046 7.74836L16.7722 7.77316ZM16.7722 7.77316L16.5945 7.90945L16.6065 7.92327C16.6353 7.89428 16.7124 7.83253 16.7963 7.7687L16.7722 7.77316ZM16.9408 7.83728L16.9407 7.83737L16.9408 7.8373L16.9408 7.83728ZM16.9408 7.83728L16.9441 7.82821L16.9318 7.83338L16.9408 7.83728ZM16.9363 7.81769L16.9253 7.82608L16.9269 7.82166L16.9363 7.81769ZM16.5884 8.03175L16.5888 8.0316L16.5878 8.02952L16.5604 8.0423L16.5689 8.03935C16.5478 8.05016 16.5262 8.0611 16.5042 8.07203C16.5217 8.07218 16.5421 8.0681 16.5664 8.05985L16.5951 8.0465L16.5955 8.04626L16.5884 8.03175ZM16.5884 8.03175L16.5874 8.02973L16.5689 8.03935C16.5751 8.0371 16.5816 8.03456 16.5884 8.03175ZM16.4994 7.80492L16.4781 7.81484L16.4807 7.81106L16.4866 7.8073L16.4994 7.80492ZM16.273 7.87125L16.281 7.88741L16.2809 7.88747L16.2764 7.88955C16.2637 7.89041 16.2513 7.89064 16.2393 7.89021C16.2544 7.88126 16.2662 7.87443 16.2721 7.8713L16.273 7.87125ZM16.273 7.87125L16.2734 7.87122L16.2732 7.87069L16.2719 7.87131L16.2721 7.8713L16.2728 7.8709L16.273 7.87125ZM16.1405 7.56066C16.1176 7.56703 16.0947 7.57275 16.0721 7.57773L16.0745 7.57358L16.0811 7.56914L16.1405 7.56066ZM15.8446 7.60073L15.8501 7.61181L15.8344 7.61867C15.8241 7.61806 15.814 7.61721 15.8041 7.61609L15.8333 7.60011L15.8446 7.60073ZM15.8446 7.60073L15.8456 7.60078L15.8427 7.59488L15.8311 7.59999L15.8333 7.60011L15.8419 7.5953L15.8446 7.60073ZM15.5256 7.03996L15.5286 7.03832L15.1061 6.93134C15.1428 6.92185 15.1778 6.90532 15.2086 6.88132L15.204 6.87726L15.2014 6.86364L15.1948 6.86883L15.204 6.87726L15.2044 6.87959L15.1875 6.87416C15.1505 6.90015 15.1079 6.91538 15.0639 6.92066L14.8508 6.86671C14.872 6.88185 14.8953 6.89405 14.9197 6.90316L14.843 6.88375C14.831 6.8754 14.8196 6.86617 14.8089 6.85609L14.8078 6.85583L14.8084 6.85566L14.8063 6.8537L14.8071 6.8369L14.7938 6.84088C14.7979 6.84529 14.802 6.84956 14.8063 6.8537L14.8063 6.85426L14.7818 6.84432L14.7724 6.84688L14.4117 6.75553C14.412 6.76232 14.413 6.7689 14.4146 6.77527L14.4032 6.77239L14.4035 6.77244L14.403 6.77233L14.4032 6.77239L14.3944 6.77071C14.4107 6.86806 14.549 6.924 14.7723 6.86584L14.843 6.88375C14.9064 6.92778 14.9861 6.94753 15.0624 6.93928L15.4854 7.04638C15.2477 7.08779 14.8337 7.08223 14.4916 7.03411L14.045 6.92217C14.1488 6.97103 14.3101 7.00857 14.4916 7.03411L14.6346 7.06993C14.585 7.06487 14.5362 7.05898 14.4887 7.05226L14.0412 6.94012L14.0437 6.93926L14.0388 6.93946L14.039 6.93957L14.0412 6.94012L14.0406 6.94033C14.1467 6.9892 14.3079 7.0267 14.4887 7.05226L15.284 7.25158L15.2619 7.25276L14.0316 7.08058C14.0417 7.08872 14.0535 7.09665 14.067 7.10422L14.0317 7.09928L14.0348 7.096L14.027 7.09863L14.0317 7.09928L14.0296 7.10167C14.0506 7.11724 14.0768 7.13165 14.1078 7.14389C14.3221 7.2282 14.9151 7.28759 15.2612 7.27135L15.3017 7.27702L15.3322 7.26662L15.333 7.26655C15.3337 7.27198 15.3351 7.27711 15.337 7.28196L15.3399 7.28237L15.3383 7.26605L15.3421 7.2657L15.3422 7.26401L15.3391 7.26358L15.3403 7.24725L15.3328 7.24795L15.3331 7.24499L14.6346 7.06993C14.941 7.10121 15.2742 7.10061 15.4817 7.06572C15.4893 7.0609 15.4972 7.05613 15.5053 7.05142L15.5253 7.05649L15.5256 7.03996ZM15.5256 7.03996C15.5187 7.04374 15.5119 7.04756 15.5053 7.05142L15.4854 7.04638C15.4994 7.04393 15.5128 7.04132 15.5256 7.03855L15.5256 7.03996ZM15.3326 7.26266C15.3322 7.25798 15.3323 7.25308 15.3328 7.24795C15.3173 7.24937 15.301 7.25057 15.284 7.25158L15.3227 7.26128L15.2619 7.25276C15.2263 7.25446 15.188 7.25535 15.1478 7.25548L14.067 7.10422C14.081 7.11215 14.0969 7.11968 14.1145 7.12662C14.3044 7.20134 14.7998 7.25662 15.1478 7.25548L15.2612 7.27135C15.2863 7.27018 15.31 7.2686 15.3322 7.26662L15.333 7.26636L15.333 7.26655L15.3383 7.26605L15.3382 7.26517L15.339 7.26536L15.3391 7.26358L15.3326 7.26266ZM15.3327 7.26378L15.3326 7.26266L15.3227 7.26128L15.3327 7.26378ZM15.3372 7.2649L15.333 7.26636L15.3327 7.26378L15.3372 7.2649ZM15.3372 7.2649L15.3382 7.26517L15.3382 7.26454L15.3372 7.2649ZM14.9854 6.91978L14.9197 6.90316C14.9409 6.91107 14.963 6.91665 14.9854 6.91978ZM14.9854 6.91978L15.0624 6.93928C15.0771 6.93769 15.0917 6.93505 15.1061 6.93134L15.0639 6.92066C15.0379 6.92379 15.0114 6.92344 14.9854 6.91978ZM14.7343 6.85621C14.7467 6.85348 14.7594 6.85037 14.7724 6.84688L14.8078 6.85583C14.7958 6.85948 14.7839 6.86282 14.7723 6.86584L14.7343 6.85621ZM14.7343 6.85621L14.4146 6.77527C14.4341 6.85274 14.5471 6.89738 14.7343 6.85621ZM14.416 6.69462L14.4236 6.6961L14.426 6.69066L14.416 6.69462ZM17.343 8.00746L17.3435 8.00704L17.3433 8.00605L17.2626 8.0667C17.2882 8.05327 17.3133 8.03538 17.3376 8.01263C17.2728 8.08594 17.0917 8.21932 16.939 8.31002L16.9492 8.32533L17.3551 8.02022L17.343 8.00746ZM17.343 8.00746L17.3376 8.01263L17.3425 8.00692L17.343 8.00746ZM17.0099 8.07391L17.0114 8.07448L17.0164 8.06954L17.0049 8.05526L16.9899 8.06483L16.9932 8.06648C16.9613 8.09676 16.9169 8.13118 16.8664 8.16537L16.7924 8.21253C16.7338 8.24775 16.6714 8.28041 16.6129 8.30522L16.6214 8.32149L16.7924 8.21253C16.818 8.19715 16.8429 8.18128 16.8664 8.16537L17.0099 8.07391ZM17.0099 8.07391L17.0148 8.0708L17.0033 8.05652L16.9932 8.06648C16.9985 8.06913 17.0041 8.07161 17.0099 8.07391ZM16.9186 7.99273L16.9194 7.9943L16.9289 7.98656L16.9183 7.97156L16.9172 7.97221L16.9172 7.97219L16.917 7.9723L16.9121 7.97528L16.9124 7.97611C16.8609 8.01802 16.784 8.07196 16.7011 8.12478L16.5726 8.20281C16.4965 8.24662 16.4237 8.28397 16.369 8.305L16.377 8.32149L16.5726 8.20281C16.6152 8.17825 16.6589 8.15166 16.7011 8.12478L16.9186 7.99273ZM16.9186 7.99273C16.9162 7.98739 16.9142 7.98185 16.9124 7.97611L16.917 7.9723L16.9172 7.97221L16.9278 7.98719L16.9186 7.99273ZM16.4126 7.97761L16.4127 7.97849L16.4265 7.97066L16.4179 7.9544L16.4174 7.95462L16.4174 7.95461L16.4172 7.9547L16.4123 7.95718L16.4123 7.95753C16.2645 8.04141 16.0052 8.17406 15.9179 8.20461L15.925 8.22156L16.4126 7.97761ZM16.4126 7.97761C16.4119 7.97108 16.4118 7.96441 16.4123 7.95753L16.4172 7.9547L16.4174 7.95462L16.426 7.97087L16.4126 7.97761ZM16.0883 7.83636L16.0889 7.83698L16.0956 7.83268L16.0865 7.8167L16.0856 7.81713L16.0856 7.81712L16.0855 7.81718L16.0746 7.82267L16.0755 7.82367C16.0151 7.86279 15.9686 7.8922 15.9211 7.92068L15.5816 8.09195C15.5464 8.10487 15.5139 8.11457 15.4842 8.1208L15.4902 8.13806L15.5816 8.09195C15.6208 8.07758 15.6631 8.05922 15.7084 8.03723C15.7558 8.01423 15.8057 7.98762 15.8576 7.95786C15.8798 7.94517 15.9006 7.93301 15.9211 7.92068L16.0883 7.83636ZM16.0883 7.83636C16.0837 7.83232 16.0795 7.82808 16.0755 7.82367L16.0855 7.81718L16.0856 7.81713L16.0947 7.8331L16.0883 7.83636ZM16.0335 7.70896L16.0335 7.7105L16.0456 7.70322L16.037 7.68696L16.0346 7.68811L16.0346 7.68838C15.9702 7.727 15.9111 7.76152 15.8557 7.79237L15.5109 7.95416C15.4702 7.96854 15.4297 7.98087 15.3885 7.99146L15.3946 8.00874L15.5109 7.95416C15.618 7.91633 15.7267 7.86429 15.8557 7.79237L16.0335 7.70896ZM16.0335 7.70896L16.0448 7.70364L16.0362 7.68738L16.0346 7.68838C16.0339 7.69533 16.0335 7.7022 16.0335 7.70896ZM15.6819 7.53483L15.6822 7.53534L15.6886 7.53248L15.6818 7.51536L15.6812 7.5156L15.6812 7.51557L15.6809 7.51571L15.6748 7.51787L15.6749 7.51834C15.5117 7.59034 15.2217 7.69178 14.9998 7.75723L14.9991 7.75748L15.0047 7.77497L15.6819 7.53483ZM15.6819 7.53483C15.6793 7.52947 15.677 7.52397 15.6749 7.51834L15.6809 7.51571L15.6812 7.5156L15.688 7.53269L15.6819 7.53483ZM15.5215 7.36176L15.522 7.36183L15.5242 7.36034L15.5155 7.34419L15.4881 7.35605L15.4952 7.35739C15.4673 7.37544 15.4381 7.39334 15.408 7.41083L14.9384 7.61392C14.9079 7.62176 14.8787 7.62784 14.8512 7.63189L14.8561 7.64947L14.9384 7.61392C15.0839 7.57641 15.2569 7.49867 15.408 7.41083L15.5215 7.36176ZM15.5215 7.36176C15.5127 7.36045 15.5039 7.35899 15.4952 7.35739L15.5141 7.34502L15.5228 7.36118L15.5215 7.36176ZM13.9933 7.18837L13.9939 7.19035L14.0028 7.1889L14.0024 7.17002C13.9983 7.16958 13.994 7.16929 13.9894 7.16914L13.9897 7.17174L13.8531 7.19385L13.8579 7.21209C13.8955 7.19633 13.9549 7.18614 13.9933 7.18837ZM13.9933 7.18837C13.9917 7.18283 13.9905 7.17727 13.9897 7.17174L14 7.17008L14.0005 7.18896L13.9933 7.18837ZM13.9762 7.04267L13.9767 7.04375L13.9821 7.04423L13.9854 7.02618L13.9679 7.02123L13.9688 7.02447C13.9373 7.02153 13.9066 7.01823 13.8769 7.01455L13.3418 6.86301C13.3205 6.85156 13.2998 6.83946 13.2797 6.82668L13.2723 6.84333L13.3418 6.86301C13.485 6.93991 13.6574 6.98746 13.8769 7.01455L13.9762 7.04267ZM13.9762 7.04267C13.973 7.03658 13.9706 7.0305 13.9688 7.02447L13.9837 7.02583L13.9804 7.04388L13.9762 7.04267ZM13.9069 6.79454L13.9068 6.79492L13.9116 6.79639L13.9134 6.7971L13.9134 6.79697L13.914 6.79715L13.9199 6.77913L13.9116 6.77586L13.9113 6.77661L13.5715 6.67119L13.5664 6.68931L13.5777 6.69283C13.6313 6.70849 13.7475 6.74118 13.7368 6.7381C13.7562 6.74365 13.7729 6.74861 13.789 6.75357C13.8301 6.76622 13.8673 6.77909 13.9069 6.79454ZM13.9069 6.79454C13.9076 6.7884 13.909 6.7824 13.9113 6.77661L13.9193 6.77908L13.9134 6.79697L13.9116 6.79639L13.9069 6.79454ZM14.2989 6.61223L14.2996 6.61355L14.3002 6.61366L14.3049 6.59589L14.2908 6.59088L14.2915 6.59333C14.2535 6.58661 14.2174 6.57952 14.1831 6.57196L13.8819 6.46461C13.8621 6.45264 13.8438 6.43985 13.8273 6.42615L13.8184 6.44195L13.8819 6.46461C13.958 6.51044 14.0582 6.54439 14.1831 6.57196L14.2987 6.61316L14.2989 6.61223ZM14.2989 6.61223C14.296 6.60614 14.2936 6.59981 14.2915 6.59333L14.3033 6.59539L14.2989 6.61223ZM14.3175 6.45735L14.3048 6.45948C14.3027 6.46328 14.3007 6.46723 14.2989 6.47131L14.3107 6.47446L14.3156 6.47893C14.2982 6.51855 14.297 6.57248 14.3193 6.61157C14.3501 6.66538 14.4209 6.69188 14.5373 6.67998L14.5523 6.6936L14.5573 6.67762C14.5505 6.67853 14.5438 6.67932 14.5373 6.67998L14.3156 6.47893L14.3169 6.47607C14.3273 6.47872 14.3377 6.48123 14.3481 6.4836L14.3199 6.45796C14.3502 6.46577 14.3808 6.47233 14.4115 6.47759L14.4604 6.50284L14.4657 6.48549C14.4476 6.48332 14.4295 6.48068 14.4115 6.47759L13.6848 6.10253C13.6678 6.0874 13.651 6.07194 13.6344 6.05617L13.6239 6.07106L13.6848 6.10253C13.8749 6.27132 14.0914 6.39873 14.3175 6.45735ZM14.3175 6.45735L14.3189 6.45712L14.3199 6.45796L14.3175 6.45735ZM14.3169 6.47607L14.3107 6.47446L14.3066 6.47078L14.3208 6.46842L14.3169 6.47607ZM17.1564 8.37438L17.1561 8.37473L17.1698 8.38698C17.231 8.3211 17.3268 8.2078 17.3652 8.15631L17.3508 8.14483L17.3504 8.14525L17.1565 8.37429C17.2172 8.30886 17.3126 8.19613 17.3504 8.14525L17.3648 8.15673L17.1701 8.38663L17.1564 8.37438Z" fill="black"/>
<path fill-rule="evenodd" clip-rule="evenodd" d="M16.8776 6.63135C16.9053 6.61663 16.9191 6.61248 16.9502 6.60654C16.9579 6.60507 16.9626 6.60402 16.9677 6.60255C16.9873 6.59685 17.0043 6.58587 17.0268 6.56286C17.0399 6.54942 17.0538 6.53584 17.0682 6.52222L17.5859 6.22587C17.6109 6.24981 17.6393 6.2562 17.6825 6.24002C17.7131 6.22849 17.7285 6.20621 17.7346 6.17413C17.7363 6.16498 17.7369 6.15912 17.7382 6.14224L17.7384 6.13854L17.7906 6.10866C17.8012 6.10795 17.8121 6.10774 17.8235 6.10803L17.8239 6.0896L17.7906 6.10866C17.7754 6.10968 17.7607 6.11174 17.7458 6.11489L17.745 6.11505L17.7434 6.09659L17.7223 6.11946L17.7411 6.09785L17.7431 6.09661C17.7404 6.09689 17.7379 6.0974 17.7358 6.0982C17.713 6.10343 17.6891 6.11112 17.6582 6.1228C17.6379 6.13049 17.5502 6.16581 17.5511 6.16545C17.4152 6.2194 17.1733 6.38905 17.0204 6.54311L16.9472 6.58834L16.9467 6.58843C16.914 6.59468 16.8987 6.59932 16.869 6.61505L16.8776 6.63135ZM16.9558 6.58658L16.9472 6.58834L16.8776 6.63135L16.9558 6.58658ZM17.0051 6.55834L17.0137 6.54994L17.0204 6.54311L17.0966 6.49604C17.0869 6.50477 17.0775 6.51351 17.0682 6.52222L17.0051 6.55834ZM17.5439 6.18838C17.4266 6.23904 17.2395 6.36711 17.0966 6.49604L17.5676 6.20506L17.575 6.21405L17.5766 6.21602C17.5797 6.21958 17.5828 6.22286 17.5859 6.22587L17.603 6.21608C17.6219 6.23184 17.6429 6.23466 17.6763 6.22215C17.7002 6.21315 17.7117 6.19653 17.7165 6.1705C17.7178 6.16404 17.7184 6.15927 17.7192 6.14959L17.7384 6.13854C17.74 6.12054 17.7417 6.11583 17.745 6.11553L17.745 6.11505L17.7316 6.11764L17.7246 6.11895L17.7223 6.11946C17.7233 6.1144 17.7245 6.11033 17.7262 6.1071L17.7411 6.09785L17.742 6.09685L17.7358 6.0982C17.7315 6.09985 17.7284 6.10269 17.7262 6.1071L17.6861 6.13187C17.6682 6.13875 17.6411 6.14952 17.5976 6.16682L17.5976 6.16683L17.5976 6.16683L17.5976 6.16683L17.5975 6.16684L17.5975 6.16684L17.5683 6.17844C17.5588 6.17045 17.5489 6.16831 17.5375 6.17359L17.5439 6.18838ZM17.5836 6.19517L17.5676 6.20506C17.5643 6.20116 17.5611 6.19739 17.5597 6.19597C17.5536 6.18976 17.5501 6.18857 17.5451 6.19093L17.5439 6.18838L17.5579 6.18259L17.5683 6.17844L17.5726 6.18242C17.5747 6.18455 17.5795 6.19025 17.5836 6.19517ZM17.5836 6.19517L17.5899 6.20287L17.5899 6.20287L17.5904 6.2034C17.5945 6.20827 17.5987 6.21251 17.603 6.21608L17.7192 6.14959L17.7198 6.14076C17.7205 6.13225 17.7212 6.12522 17.7223 6.11946C17.7151 6.12113 17.7068 6.12388 17.6861 6.13187L17.5836 6.19517ZM17.0051 6.55834L16.9558 6.58658L16.9626 6.58485C16.9766 6.58078 16.989 6.57342 17.0051 6.55834ZM20.848 7.06819L20.8394 7.07136L20.8331 7.05407L20.8479 7.0486C20.8483 7.0549 20.8484 7.06144 20.848 7.06819ZM20.7778 7.23195C20.8058 7.19785 20.8317 7.14899 20.8425 7.10452C20.8455 7.09185 20.8474 7.0797 20.848 7.06819C21.2488 6.91973 21.4724 6.82425 21.7413 6.66874C21.8802 6.58837 22.0093 6.50156 22.1284 6.40694L22.117 6.39249C21.9987 6.48653 21.8703 6.57284 21.7321 6.65277C21.4658 6.80682 21.2438 6.90179 20.8479 7.0486C20.845 7.01116 20.827 6.982 20.7924 6.96501C21.143 6.85078 21.4708 6.69704 21.5963 6.57348L21.5835 6.56031C21.4576 6.68417 21.1207 6.84062 20.764 6.95478L20.764 6.95478L20.764 6.95479C20.6592 6.98833 20.5528 7.01821 20.4494 7.04255C20.4254 7.03101 20.3963 7.02123 20.3621 7.01341C20.1427 6.9633 19.8125 7.01631 19.6105 7.13294C19.5833 7.12606 19.5563 7.11974 19.5298 7.11408C19.5912 7.05931 19.6234 6.989 19.5984 6.92297L19.5812 6.92952C19.6319 7.06333 19.4073 7.22513 19.2147 7.18867L19.2113 7.20678C19.3176 7.2269 19.4331 7.19013 19.5117 7.12912C19.609 7.1492 19.7154 7.17883 19.8106 7.21223L19.8108 7.21342L19.813 7.21305C19.9248 7.25243 20.021 7.29697 20.0683 7.33724C20.123 7.38364 20.1517 7.4249 20.15 7.45642C20.1481 7.49101 20.1082 7.51763 20.023 7.53275C19.9164 7.55176 19.8482 7.55649 19.753 7.54599L19.6992 7.53569L19.6986 7.53884C19.6635 7.53359 19.6242 7.52668 19.5784 7.51808C19.4482 7.42602 19.2484 7.33547 19.042 7.26428L19.0361 7.28171C19.2394 7.35183 19.4368 7.44124 19.5651 7.53123L19.5646 7.53422L19.5711 7.53546C19.6077 7.5616 19.6385 7.58776 19.6617 7.61349C19.7182 7.67597 19.711 7.71743 19.6492 7.74133C19.5881 7.76492 19.4796 7.76758 19.3552 7.74875C19.1213 7.71321 18.733 7.5139 18.5357 7.3372L18.5235 7.35095C18.6427 7.45772 18.8301 7.57231 19.0124 7.65506L19.0118 7.65561C19.0568 7.70104 19.0986 7.76724 19.1173 7.82749C19.1348 7.88396 19.1122 7.91154 19.0605 7.90743C18.9912 7.90212 18.94 7.89006 18.8732 7.85816L18.8705 7.86376C18.8385 7.82704 18.7954 7.79203 18.741 7.76226C18.5927 7.68092 18.3994 7.51001 18.3095 7.38466L18.2945 7.39543C18.3861 7.52303 18.5815 7.69578 18.7322 7.77844C18.9028 7.87185 18.955 8.01523 18.9031 8.09103C18.8571 8.15808 18.7038 8.16687 18.5509 8.07579C18.3682 7.96682 18.1571 7.62044 18.1288 7.37644L18.1105 7.37857C18.1395 7.62811 18.3537 7.97963 18.5415 8.09164C18.5721 8.10984 18.6027 8.12423 18.6328 8.13507C18.6467 8.17353 18.6524 8.22149 18.6489 8.2965C18.6445 8.39042 18.5756 8.45387 18.4916 8.42206C18.4086 8.39071 18.3447 8.32098 18.3019 8.2343L18.2854 8.24248C18.3301 8.33297 18.3971 8.40606 18.4851 8.43931C18.5082 8.44806 18.5303 8.45057 18.5507 8.44792C18.6003 8.55351 18.6276 8.63098 18.6241 8.65917C18.6189 8.70167 18.6078 8.71463 18.569 8.70559L18.5649 8.72354C18.6169 8.73567 18.636 8.71333 18.6423 8.66143C18.6464 8.62865 18.6194 8.55132 18.5692 8.44398C18.5794 8.44089 18.5892 8.43642 18.5982 8.43072C18.6681 8.52335 18.7193 8.58935 18.7823 8.66567C18.8013 8.68857 18.8197 8.71037 18.8375 8.73096C18.9038 8.80742 18.9602 8.86508 19.0043 8.89958L19.0156 8.88504C18.9726 8.85144 18.9169 8.79449 18.8514 8.71887C18.8336 8.69838 18.8153 8.67669 18.7965 8.6539C18.7336 8.5779 18.6826 8.51211 18.613 8.41977C18.6445 8.39266 18.6648 8.34878 18.6672 8.29737C18.6694 8.25211 18.6682 8.21608 18.6638 8.18577C18.846 8.39674 19.2737 8.79263 19.401 8.86488L19.41 8.84884C19.2798 8.77492 18.8233 8.35043 18.6569 8.14904L18.6565 8.14936L18.6545 8.14235C18.7612 8.17523 18.8568 8.16304 18.904 8.11803C19.0106 8.25784 19.3433 8.45419 19.5149 8.48707L19.5183 8.46897C19.3498 8.43667 19.0173 8.23987 18.9164 8.10394L18.9182 8.10148C18.9493 8.05606 18.9481 7.99112 18.9134 7.92549C19.0346 8.02719 19.2385 8.17714 19.4272 8.30856L19.4376 8.29342C19.236 8.15298 19.0167 7.99106 18.9007 7.89049C18.9538 7.91201 19.0003 7.92131 19.0591 7.92581C19.0863 7.92798 19.1079 7.92211 19.1221 7.9094C19.2504 8.04324 19.5803 8.31277 19.7114 8.37765L19.7195 8.36112C19.59 8.29705 19.2592 8.02654 19.1336 7.89481C19.1432 7.87708 19.1442 7.85237 19.1348 7.82201C19.119 7.77103 19.0877 7.71648 19.0516 7.6724C19.1611 7.71951 19.2668 7.75396 19.3524 7.76697C19.3782 7.77087 19.4033 7.77387 19.4276 7.77597L19.4263 7.77738C19.5877 7.9207 19.8866 8.11686 20.0621 8.2007L20.07 8.18406C19.9018 8.10371 19.6182 7.91863 19.455 7.77798C19.5038 7.7809 19.5483 7.7799 19.5861 7.77497C19.6361 7.81549 19.7288 7.87227 19.8619 7.94614L19.9156 7.9757C19.9611 8.00052 20.0704 8.05899 20.1382 8.09521L20.1942 8.12518L20.2029 8.10897L20.1467 8.07885C20.0789 8.04261 19.9697 7.98426 19.9244 7.95951L19.8708 7.93001C19.7498 7.86283 19.6623 7.80985 19.6109 7.77099C19.6276 7.76775 19.6426 7.7636 19.6558 7.75853C19.6694 7.75327 19.6809 7.74706 19.6901 7.73999C20.03 7.95489 20.2464 8.06831 20.4677 8.11983L20.4719 8.10188C20.2541 8.05118 20.0397 7.93906 19.7039 7.7269C19.7204 7.70697 19.7229 7.68204 19.7107 7.65336C19.7493 7.66884 19.7947 7.68785 19.8525 7.71253L19.9997 7.77588L20.0418 7.79403L20.0788 7.80988C20.2908 7.90048 20.4238 7.95215 20.5151 7.97566L20.5197 7.95781C20.4296 7.93461 20.297 7.88312 20.086 7.79292L20.049 7.77708L20.0069 7.75895L19.8597 7.69557C19.7911 7.66627 19.7398 7.64493 19.6967 7.62798L19.6967 7.62806C19.6908 7.61934 19.6837 7.61034 19.6754 7.60111C19.6579 7.58185 19.6366 7.56243 19.6119 7.54301C19.6657 7.55273 19.7102 7.55978 19.7501 7.56422C20.1014 7.63275 20.4409 7.7229 20.5238 7.79418L20.5357 7.78018C20.4586 7.71388 20.1807 7.63502 19.8692 7.56952C19.9171 7.56796 19.9656 7.56171 20.0262 7.5509C20.0767 7.54194 20.1136 7.52854 20.1372 7.5108L20.1373 7.51202C20.1513 7.51059 20.165 7.509 20.1784 7.50725C20.3373 7.57607 20.5924 7.59494 20.7155 7.53572C20.7543 7.6131 20.6943 7.72966 20.6251 7.75185L20.6307 7.76941C20.6689 7.75716 20.704 7.72107 20.7253 7.67708C20.906 7.71933 21.3121 7.72747 21.509 7.68412L21.5051 7.66549C21.3122 7.70797 20.9128 7.70026 20.7329 7.65933C20.7407 7.63869 20.7455 7.61688 20.7461 7.59536C21.016 7.61984 21.3411 7.59945 21.5068 7.52013L21.4991 7.50284C21.3366 7.58058 21.0129 7.60069 20.7455 7.57618C20.744 7.55907 20.7395 7.54242 20.7317 7.52701L20.7377 7.52323C20.7587 7.5094 20.7758 7.49398 20.7893 7.47759C21.1215 7.42981 21.3666 7.35258 21.5902 7.24047C21.6386 7.2162 21.7399 7.15907 21.8217 7.11289C21.8761 7.08217 21.922 7.0563 21.938 7.04818C21.9671 7.03336 21.9944 7.0208 22.0212 7.00996L22.0144 6.99286C21.987 7.00391 21.9593 7.01669 21.9297 7.03173C21.9133 7.04004 21.8668 7.06628 21.8118 7.0973C21.7301 7.14339 21.6298 7.20002 21.582 7.22398C21.3641 7.33324 21.1256 7.40913 20.8041 7.4568C20.8191 7.43243 20.8265 7.40663 20.8268 7.38122C21.3856 7.24079 21.8695 7.03132 22.1948 6.76353L22.1832 6.74928C21.8609 7.01452 21.3806 7.22266 20.8258 7.36248C20.8206 7.32215 20.7971 7.28397 20.7564 7.2555C21.0516 7.19232 21.2455 7.10564 21.6191 6.89697L21.6435 6.88334C21.7496 6.82409 21.8068 6.79287 21.8728 6.759L21.8645 6.74258C21.7982 6.77659 21.7408 6.80789 21.6346 6.86723L21.6102 6.88087C21.2488 7.08268 21.0568 7.16968 20.7778 7.23195ZM20.7559 7.25512C20.7632 7.24861 20.7706 7.24077 20.7778 7.23195L20.7515 7.2377L20.7551 7.25457L20.7459 7.24858L20.7363 7.2643L20.741 7.26732C20.5822 7.39415 20.4254 7.46912 20.215 7.50202C20.2049 7.49829 20.1951 7.49437 20.1856 7.49027L20.1783 7.50719L20.1784 7.50725C20.1908 7.50564 20.203 7.5039 20.215 7.50202C20.3805 7.56298 20.628 7.57367 20.7276 7.50784C20.8334 7.43794 20.8328 7.32742 20.741 7.26732L20.7509 7.25932L20.7553 7.25562L20.7553 7.25573L20.7564 7.2555L20.7559 7.25512ZM20.7559 7.25512L20.7551 7.25457L20.7553 7.25562L20.7559 7.25512ZM20.8258 7.36248L20.812 7.36593L20.8164 7.38382L20.8268 7.38122C20.8269 7.37494 20.8266 7.36868 20.8258 7.36248ZM20.8041 7.4568L20.7797 7.46034L20.7823 7.47859L20.7893 7.47759C20.7949 7.47081 20.7998 7.46386 20.8041 7.4568ZM20.7455 7.57618C20.7461 7.58252 20.7463 7.58893 20.7461 7.59536L20.7359 7.59442L20.7376 7.57545L20.7455 7.57618ZM20.7329 7.65933L20.7225 7.65685L20.7182 7.67538L20.7253 7.67708C20.7281 7.67128 20.7306 7.66536 20.7329 7.65933ZM20.7317 7.52701C20.7266 7.53009 20.7212 7.53299 20.7155 7.53572L20.7124 7.52992L20.7283 7.52062L20.7317 7.52701ZM20.1565 7.49138L20.1355 7.49368L20.1372 7.5108C20.1452 7.50482 20.1516 7.49834 20.1565 7.49138ZM20.1149 7.35541C20.1512 7.39267 20.17 7.42693 20.1683 7.45743C20.1677 7.4698 20.1637 7.48112 20.1565 7.49138C20.3969 7.46341 20.5659 7.38585 20.7394 7.245C20.7731 7.21754 20.8114 7.15489 20.8246 7.10018C20.8402 7.03581 20.8222 6.99074 20.7645 6.974L20.7924 6.96501C20.7839 6.96085 20.7745 6.95742 20.764 6.95478L20.764 6.95479L20.7595 6.97265L20.7645 6.974C20.6676 7.00487 20.5694 7.03261 20.4735 7.05575C20.4662 7.05112 20.4581 7.04672 20.4494 7.04255L20.449 7.04264L20.4532 7.06059L20.4735 7.05575C20.5075 7.07702 20.5275 7.10296 20.5341 7.1327C20.5439 7.17683 20.5221 7.22544 20.4823 7.26313C20.4141 7.32762 20.2671 7.36546 20.1149 7.35541ZM20.0939 7.33521L20.0917 7.33499L20.0899 7.35333C20.0983 7.35417 20.1066 7.35487 20.1149 7.35541C20.1085 7.34877 20.1015 7.34203 20.0939 7.33521ZM19.8504 7.20695C19.9507 7.24417 20.0356 7.28523 20.0802 7.32318L20.0939 7.33521C20.2492 7.35035 20.4024 7.31328 20.4697 7.24971C20.5053 7.21605 20.5243 7.17348 20.5161 7.13671C20.506 7.09088 20.4554 7.05365 20.358 7.03138C20.1491 6.98367 19.8355 7.03177 19.6363 7.13961L19.6105 7.13294L19.6058 7.13566L19.6151 7.15156C19.622 7.1475 19.6291 7.14352 19.6363 7.13961C19.6964 7.15548 19.7568 7.17387 19.8134 7.19366L19.8078 7.19464L19.8106 7.21223L19.813 7.21305C19.8247 7.21102 19.8372 7.20898 19.8504 7.20695ZM19.8504 7.20695C19.9984 7.18405 20.2284 7.16174 20.3475 7.16174V7.14269C20.2178 7.14269 19.9587 7.16882 19.8134 7.19366C19.8259 7.19802 19.8383 7.20246 19.8504 7.20695ZM19.8692 7.56952C19.8311 7.57076 19.7933 7.56902 19.7501 7.56422L19.6958 7.55381L19.6986 7.53884C19.7178 7.54172 19.7358 7.5441 19.753 7.54599C19.792 7.5536 19.8309 7.56146 19.8692 7.56952ZM19.6967 7.62806L19.69 7.64514L19.7107 7.65336C19.7072 7.64522 19.7026 7.63678 19.6967 7.62806ZM19.7039 7.7269C19.7 7.73154 19.6954 7.73591 19.6901 7.73999L19.6842 7.73627L19.694 7.72068L19.7039 7.7269ZM19.6109 7.77099C19.6054 7.76682 19.6003 7.76282 19.5956 7.75898L19.584 7.77324L19.5861 7.77497C19.5947 7.77385 19.603 7.77252 19.6109 7.77099ZM19.455 7.77798C19.446 7.77744 19.4368 7.77677 19.4276 7.77597L19.4385 7.76358L19.455 7.77798ZM19.1336 7.89481L19.1286 7.88956L19.1153 7.90219L19.1221 7.9094C19.1267 7.90525 19.1306 7.90038 19.1336 7.89481ZM18.8877 7.88503L18.9007 7.89049C18.8916 7.8826 18.8831 7.87509 18.8754 7.868L18.8747 7.86871L18.8705 7.86376L18.8653 7.87481L18.868 7.87611L18.863 7.88163C18.8775 7.89491 18.8945 7.90961 18.9134 7.92549C18.9062 7.91198 18.8977 7.89844 18.8877 7.88503ZM18.8877 7.88503C18.8812 7.88224 18.8747 7.87927 18.868 7.87611L18.8747 7.86871C18.8793 7.87412 18.8836 7.87956 18.8877 7.88503ZM18.9164 8.10394C18.9128 8.10894 18.9086 8.11364 18.904 8.11803C18.9013 8.11439 18.8986 8.1108 18.8962 8.10724L18.9113 8.09673L18.9164 8.10394ZM18.6565 8.14936C18.6595 8.16061 18.662 8.17266 18.6638 8.18577C18.6564 8.17712 18.6493 8.16879 18.6427 8.16081L18.6565 8.14936ZM18.613 8.41977L18.6075 8.4125L18.5928 8.42362L18.5982 8.43072C18.6033 8.42746 18.6083 8.4238 18.613 8.41977ZM18.5692 8.44398L18.5629 8.43071L18.5463 8.43864L18.5507 8.44792C18.557 8.4471 18.5632 8.44577 18.5692 8.44398ZM18.6545 8.14235C18.6473 8.14013 18.6401 8.1377 18.6328 8.13507L18.6318 8.13251L18.649 8.12602C18.651 8.1313 18.6528 8.13673 18.6545 8.14235ZM19.0516 7.6724C19.0386 7.66679 19.0255 7.66101 19.0124 7.65506L19.0249 7.64262C19.034 7.65182 19.0429 7.66181 19.0516 7.6724ZM19.6119 7.54301C19.6014 7.53469 19.5902 7.52638 19.5784 7.51808L19.568 7.51611L19.5651 7.53123L19.5711 7.53546L19.6119 7.54301ZM19.5117 7.12912C19.518 7.12426 19.524 7.11924 19.5298 7.11408L19.5074 7.10942L19.5038 7.12749L19.5117 7.12912ZM18.3907 6.94243C18.3137 6.96433 18.2705 6.98647 18.1895 7.03861L18.1992 7.05479C18.2788 7.00354 18.3206 6.98211 18.3955 6.9608L18.3907 6.94243ZM18.7487 7.32301C18.9602 7.443 19.2444 7.57787 19.4418 7.64955L19.448 7.63222C19.2517 7.56092 18.9684 7.42648 18.7578 7.30697L18.7487 7.32301ZM19.5176 7.33333C19.365 7.30184 19.2332 7.28122 19.1004 7.26967L19.102 7.2513C19.2356 7.26293 19.368 7.28365 19.5213 7.31527C19.5827 7.32796 19.6462 7.34206 19.7275 7.36087L19.8043 7.3788L19.9396 7.41032L19.9355 7.42829L19.8001 7.39674L19.7233 7.37883C19.6422 7.36005 19.5788 7.34598 19.5176 7.33333ZM18.2021 7.39711C18.2394 7.50978 18.5037 7.84157 18.6283 7.9202L18.6381 7.9046C18.517 7.82821 18.2554 7.49986 18.2195 7.3913L18.2021 7.39711ZM18.4341 8.19593C18.3929 8.09519 18.1374 7.71355 18.0005 7.53369L18.0151 7.52251C18.153 7.7037 18.4091 8.08615 18.4511 8.18893L18.4341 8.19593ZM18.3696 7.37106C18.4549 7.46809 18.7344 7.68145 18.8616 7.73288L18.8685 7.71579C18.7441 7.66551 18.4669 7.45388 18.3834 7.35886L18.3696 7.37106ZM17.8506 6.33724C17.7992 6.36397 17.7617 6.40306 17.7307 6.45749L17.7466 6.46716C17.7758 6.41572 17.8108 6.37924 17.8588 6.35427L17.8506 6.33724ZM16.9967 6.93935C16.9916 6.86997 16.9988 6.77963 17.0176 6.71475L17.0353 6.7199C17.0171 6.7825 17.0101 6.87068 17.015 6.938L16.9967 6.93935ZM17.0093 7.05376C16.9942 7.11808 17.0053 7.26775 17.0259 7.35052L17.0437 7.34606C17.0238 7.26588 17.0129 7.11893 17.0271 7.05797L17.0093 7.05376ZM17.0742 7.54869C17.0657 7.53512 17.0593 7.52233 17.0551 7.51032L17.0724 7.50388C17.076 7.51435 17.0818 7.52587 17.0896 7.53829C17.0994 7.55385 17.112 7.57042 17.1272 7.58812C17.1398 7.60276 17.15 7.61377 17.1696 7.63417L17.1566 7.64761C17.1368 7.62696 17.1263 7.61577 17.1135 7.60079C17.0977 7.58242 17.0846 7.56514 17.0742 7.54869ZM17.1457 7.16383C17.1373 7.27076 17.196 7.47371 17.2556 7.54251C17.2687 7.65634 17.3476 7.81926 17.459 7.93154L17.472 7.91853C17.3635 7.80914 17.2864 7.64998 17.2717 7.53529C17.2133 7.46554 17.156 7.26749 17.164 7.16528L17.1457 7.16383ZM17.1209 7.04466C17.1114 6.97708 17.1092 6.90932 17.1169 6.86626L17.1349 6.86951C17.1277 6.91025 17.1299 6.97628 17.1391 7.04208L17.1209 7.04466ZM17.2789 6.44648C17.2422 6.53884 17.2218 6.73428 17.2327 6.81056C17.2348 6.82518 17.2345 6.82887 17.2281 6.89024C17.2163 7.00215 17.221 7.08702 17.258 7.19665L17.2754 7.19074C17.2394 7.08403 17.2349 7.00166 17.2463 6.89217C17.2531 6.82803 17.2533 6.82492 17.2509 6.80797C17.2405 6.73477 17.2605 6.54258 17.2959 6.45329L17.2789 6.44648ZM17.407 7.15469C17.3678 7.02307 17.3664 6.70703 17.4069 6.53981L17.4247 6.54416C17.385 6.70833 17.3864 7.02106 17.4246 7.14941L17.407 7.15469ZM17.3571 7.20422C17.3349 7.30239 17.3373 7.41605 17.3657 7.50159L17.3831 7.49576C17.3558 7.41361 17.3535 7.30334 17.375 7.20829L17.3571 7.20422ZM17.6905 7.05349C17.5804 6.93053 17.5138 6.74719 17.5183 6.60405L17.5367 6.60464C17.5323 6.74303 17.5973 6.92175 17.7042 7.04117L17.6905 7.05349ZM17.4894 7.06338C17.4767 7.22221 17.4858 7.36809 17.5147 7.45144C17.5222 7.47296 17.5274 7.49909 17.5348 7.54699L17.5419 7.59363C17.5448 7.612 17.5475 7.62747 17.5503 7.64229C17.5642 7.71461 17.5824 7.76783 17.6112 7.80897L17.6263 7.79835C17.5992 7.7598 17.5817 7.70878 17.5683 7.63881C17.5655 7.62421 17.5629 7.60893 17.56 7.59074L17.5529 7.54417C17.5454 7.49518 17.54 7.46831 17.5321 7.44539C17.5042 7.36492 17.4952 7.22136 17.5077 7.06486L17.4894 7.06338ZM17.6373 7.32254L17.6304 7.29643L17.6482 7.29169L17.6551 7.31791C17.6647 7.35486 17.6703 7.38272 17.6729 7.41053C17.6767 7.45067 17.6731 7.48532 17.6602 7.51495L17.6434 7.5076C17.6548 7.4812 17.6581 7.44955 17.6546 7.41225C17.6521 7.38563 17.6467 7.35861 17.6373 7.32254ZM17.7382 7.17549C17.7688 7.27588 17.7878 7.3987 17.7834 7.45208L17.8017 7.45359C17.8063 7.39753 17.787 7.27253 17.7558 7.17011L17.7382 7.17549ZM17.8675 7.98802C17.8297 7.9215 17.7954 7.81524 17.7876 7.72947L17.8058 7.72779C17.8134 7.81088 17.8469 7.91461 17.8834 7.97889L17.8675 7.98802ZM17.6513 7.98222C17.686 8.08676 17.7455 8.1947 17.7994 8.23724L17.8107 8.22276C17.7604 8.18298 17.7024 8.07781 17.6688 7.9764L17.6513 7.98222ZM18.1607 8.27464C18.124 8.16325 18.0999 8.10913 18.0418 8.02636L18.0568 8.01574C18.1161 8.10029 18.1409 8.15588 18.1782 8.26884L18.1607 8.27464Z" fill="black"/>
<path fill-rule="evenodd" clip-rule="evenodd" d="M17.3693 8.05129C17.3807 8.05251 17.3879 8.05297 17.4075 8.05395C17.4533 8.05624 17.4694 8.0609 17.49 8.08273C17.5036 8.09712 17.517 8.11888 17.5316 8.15054C17.5824 8.26108 17.7214 8.43009 17.8026 8.48271L17.8025 8.48276C17.91 8.67199 17.9578 8.92177 17.9244 9.05584C17.9148 8.99685 17.8814 8.95146 17.8299 8.91428C17.8099 8.89984 17.7971 8.89249 17.7623 8.87395C17.7163 8.9142 17.6492 8.96052 17.6153 8.96775L17.6192 8.98578C17.6574 8.97761 17.7275 8.92922 17.7648 8.88831C17.7817 8.90312 17.7929 8.91086 17.8053 8.91945L17.8192 8.92925C17.8672 8.96386 17.8977 9.00539 17.9063 9.05905L17.9243 9.05612L17.9231 9.06078L17.9409 9.0656C17.9765 8.93333 17.9334 8.69015 17.8318 8.49798C17.957 8.55565 18.037 8.62063 18.0527 8.71229L18.0701 8.7145L18.0791 8.69432C18.1209 8.60027 18.1367 8.53563 18.1208 8.46888L18.1224 8.47078L18.1371 8.48848C18.1831 8.54391 18.217 8.58472 18.2421 8.61556L18.2404 8.6158C18.2429 8.63336 18.2452 8.66009 18.248 8.70086C18.2485 8.70814 18.2498 8.72922 18.2513 8.75318C18.2534 8.78572 18.2558 8.82357 18.2568 8.83934C18.2634 8.93617 18.27 9.00069 18.279 9.04276L18.297 9.03889C18.2883 8.99798 18.2817 8.93402 18.2752 8.83808C18.2741 8.82238 18.2717 8.78463 18.2697 8.75212C18.2681 8.7281 18.2668 8.70694 18.2663 8.69962C18.2646 8.67501 18.2631 8.65546 18.2617 8.63983C18.3008 8.68892 18.311 8.70611 18.3163 8.7247C18.3179 8.73028 18.319 8.73598 18.3204 8.74271L18.3204 8.74271L18.3219 8.75023C18.3372 8.82352 18.3961 8.92403 18.4552 8.9886L18.4688 8.97613C18.4117 8.9138 18.3545 8.81608 18.3399 8.74644L18.338 8.73679L18.338 8.73679C18.3365 8.7295 18.3353 8.72336 18.3336 8.71736C18.3244 8.6853 18.3011 8.65727 18.1535 8.47948L18.1365 8.45898C18.124 8.44387 18.1126 8.43003 18.102 8.41667L18.0864 8.42629C18.123 8.50596 18.1127 8.57216 18.0643 8.68227C18.0371 8.59446 17.9534 8.53238 17.8295 8.4767C17.7579 8.4446 17.6018 8.25909 17.5483 8.14281C17.533 8.10948 17.5185 8.08611 17.5033 8.07005C17.4786 8.04387 17.4585 8.03805 17.4085 8.03554C17.3891 8.03457 17.3822 8.03413 17.3712 8.03296L17.3693 8.05129ZM18.2617 8.63983C18.2607 8.62928 18.2597 8.62052 18.2586 8.61321L18.2421 8.61556C18.2493 8.62444 18.2558 8.63249 18.2617 8.63983ZM17.9243 9.05612L17.9245 9.05611L17.9244 9.05584L17.9243 9.05612ZM17.8318 8.49798L17.822 8.49352C17.816 8.49084 17.8095 8.4872 17.8026 8.48271L17.8185 8.47363C17.823 8.48165 17.8275 8.48977 17.8318 8.49798ZM17.498 8.33066C17.5302 8.42792 17.5558 8.54469 17.5584 8.61227L17.5768 8.61156C17.5741 8.54197 17.5482 8.42361 17.5155 8.32485L17.498 8.33066ZM17.7765 8.81013C17.7736 8.75558 17.7394 8.61271 17.7053 8.51753L17.7226 8.5113C17.7572 8.60803 17.7918 8.75253 17.7948 8.80916L17.7765 8.81013ZM18.0973 8.77681C18.124 8.84127 18.1408 8.94304 18.1355 9.00368L18.1537 9.00532C18.1594 8.94163 18.1421 8.83689 18.1143 8.76974L18.0973 8.77681Z" fill="black"/>
</g>
</svg>
